<?xml version="1.0" encoding="UTF-8" standalone="no"?>
<!-- Created with Inkscape (http://www.inkscape.org/) -->

<svg
   width="257.98767mm"
   height="84.086601mm"
   viewBox="0 0 257.98767 84.086601"
   version="1.1"
   id="svg1"
   xml:space="preserve"
   xmlns:inkscape="http://www.inkscape.org/namespaces/inkscape"
   xmlns:sodipodi="http://sodipodi.sourceforge.net/DTD/sodipodi-0.dtd"
   xmlns="http://www.w3.org/2000/svg"
   xmlns:svg="http://www.w3.org/2000/svg"><sodipodi:namedview
     id="namedview1"
     pagecolor="#ffffff"
     bordercolor="#000000"
     borderopacity="0.25"
     inkscape:showpageshadow="2"
     inkscape:pageopacity="0.0"
     inkscape:pagecheckerboard="0"
     inkscape:deskcolor="#d1d1d1"
     inkscape:document-units="mm" /><defs
     id="defs1" /><g
     inkscape:label="Layer 1"
     inkscape:groupmode="layer"
     id="layer1"
     transform="translate(45.118993,-90.985868)"><path
       style="fill:#cd2e70;fill-opacity:1"
       d="m 212.54557,136.04025 c -0.19271,-0.36919 -0.36032,-0.93813 -0.37246,-1.26431 -0.0121,-0.32619 -0.11869,-0.78063 -0.23678,-1.00986 -0.1818,-0.35295 -0.1712,-0.46486 0.0692,-0.7305 0.18451,-0.20387 0.22182,-0.35456 0.10658,-0.43043 -0.0975,-0.0642 -0.26408,-0.37026 -0.37012,-0.68012 -0.10605,-0.30986 -0.38566,-0.79257 -0.62138,-1.0727 -0.3814,-0.45327 -0.42457,-0.64309 -0.39231,-1.72493 0.0458,-1.53734 0.0413,-1.54328 -1.43156,-1.8897 -0.6765,-0.15912 -1.72563,-0.42875 -2.3314,-0.59919 -2.45785,-0.69153 -3.46357,-0.86607 -4.15257,-0.72066 -0.66179,0.13967 -1.12521,0.13585 -4.23502,-0.0349 -2.44997,-0.13448 -4.45358,-0.0966 -8.21815,0.1555 -6.18642,0.41424 -7.14889,0.43695 -7.93942,0.18736 -1.20334,-0.37994 -3.78243,-0.63684 -6.05491,-0.60312 -1.1266,0.0167 -2.49912,-0.0603 -3.05003,-0.17126 -2.48295,-0.49984 -4.49246,-0.4595 -3.7608,0.0755 0.4505,0.32942 0.0306,0.6072 -0.91785,0.6072 -0.82071,0 -1.16799,-0.38288 -0.55917,-0.6165 0.50267,-0.1929 0.23937,-0.40017 -0.50834,-0.40017 -0.69129,0 -0.76251,0.0379 -0.76251,0.40548 0,0.40808 -0.48126,0.75119 -0.66424,0.47358 -0.1975,-0.29966 -0.99058,-0.36453 -1.4788,-0.12097 -0.56394,0.28133 -1.65463,0.0559 -2.26716,-0.46854 -0.37809,-0.32373 -0.67319,-0.37638 -0.67319,-0.12011 0,0.0932 0.0808,0.16945 0.17945,0.16945 0.0987,0 0.13232,0.0763 0.0747,0.16945 -0.0576,0.0932 -0.38617,0.16133 -0.73015,0.15142 -0.62542,-0.018 -0.62542,-0.018 -0.15944,-0.20216 0.63638,-0.25147 0.58537,-0.4576 -0.11323,-0.4576 -0.74645,0 -1.11526,-0.14609 -1.11526,-0.44175 0,-0.26508 -0.46841,-0.30975 -0.83235,-0.0794 -0.20215,0.12797 -0.19533,0.19543 0.0439,0.43468 0.47685,0.47685 -0.10683,0.82725 -0.72569,0.43566 -0.2114,-0.13377 -0.2114,-0.19309 0,-0.45275 0.22014,-0.2704 0.21105,-0.28605 -0.0956,-0.16455 -1.00581,0.39847 -3.28849,0.58884 -3.82877,0.31931 -0.63705,-0.3178 -1.64567,-0.33653 -4.02607,-0.0748 -0.96513,0.10614 -2.41771,0.19298 -3.22796,0.19298 -0.81024,0 -1.54561,0.0675 -1.63414,0.15005 -0.0885,0.0825 -0.54223,0.0995 -1.00821,0.0378 -1.32365,-0.17542 -3.1429,0.009 -2.71114,0.27505 0.27158,0.16726 0.2931,0.23885 0.10833,0.36049 -0.23508,0.15475 -0.9584,0.055 -0.79391,-0.10954 0.21358,-0.21359 -0.62468,-0.54202 -1.58947,-0.62274 -0.5745,-0.0481 -1.20096,-0.17111 -1.39214,-0.27342 -0.22139,-0.11849 -0.72611,-0.14206 -1.39023,-0.0649 -0.57346,0.0666 -2.56766,0.13828 -4.43157,0.15927 -4.1472,0.0467 -3.98199,0.0325 -3.98199,0.34215 0,0.27591 -0.26303,0.34456 -0.40986,0.10698 -0.14364,-0.2324 -1.31117,-0.36106 -1.96239,-0.21624 -0.32618,0.0725 -0.78369,0.0816 -1.01668,0.0201 -0.23298,-0.0615 -0.57121,-0.0373 -0.7516,0.0538 -0.1804,0.0911 -1.39497,0.15589 -2.69906,0.14398 -1.85175,-0.0169 -2.43026,0.0319 -2.64133,0.22292 -0.21554,0.19507 -0.82364,0.23772 -3.00372,0.21067 -1.5034,-0.0186 -2.69822,0.023 -2.65515,0.0926 0.0431,0.0696 -1.12698,0.10768 -2.60009,0.0847 -2.49521,-0.0389 -2.69867,-0.0186 -2.97482,0.29715 -0.28175,0.32213 -0.30794,0.32407 -0.52932,0.0392 -0.16492,-0.21219 -0.44939,-0.29406 -0.97443,-0.28043 -0.40784,0.0106 -1.28316,6e-4 -1.94516,-0.0222 -0.66201,-0.0228 -1.27201,-0.004 -1.35557,0.0424 -0.19831,0.1095 -3.543083,0.0378 -3.733743,-0.08 -0.29322,-0.18122 -1.73235,0.0801 -1.64824,0.2993 0.0865,0.22541 -0.39071,0.41742 -0.74294,0.29891 -0.11649,-0.0392 -0.2118,-0.2198 -0.2118,-0.40135 0,-0.26126 -0.11482,-0.32822 -0.5507,-0.32116 -1.08177,0.0175 -3.9505,-0.14344 -4.55576,-0.25559 -0.68403,-0.12676 -1.3325,0.12505 -1.3325,0.51742 0,0.32468 0.32183,0.32039 0.44706,-0.006 0.11092,-0.28906 0.56962,-0.34832 0.56962,-0.0736 0,0.6586 -0.75245,1.11083 -0.95781,0.57566 -0.22675,-0.59091 -2.06521,-1.04176 -2.3525,-0.57692 -0.10474,0.16946 -1.20704,0.12966 -1.77308,-0.064 -0.75487,-0.25829 -2.71114,-0.28121 -2.71114,-0.0318 0,0.14044 -0.0844,0.25535 -0.18758,0.25535 -0.10317,0 -0.14721,-0.10519 -0.0979,-0.23377 0.12548,-0.32698 -1.64886,-0.51998 -2.3936,-0.26036 -0.39468,0.13758 -0.68151,0.14106 -1.01163,0.0123 -0.84948,-0.33141 -1.56216,-0.30484 -1.56216,0.0582 0,0.13979 -0.0777,0.25417 -0.17267,0.25417 -0.0966,0 -0.12867,-0.17535 -0.0727,-0.39817 0.10527,-0.41944 -0.80396,-0.61088 -3.13398,-0.6599 -0.85677,-0.018 -1.12939,0.3083 -0.40283,0.48218 0.26291,0.0629 0.53891,0.14877 0.61333,0.19078 0.1966,0.11098 -0.22556,0.56504 -0.68925,0.74133 -0.21912,0.0833 -0.3512,0.22787 -0.29349,0.32124 0.0577,0.0934 0.0242,0.16977 -0.0745,0.16977 -0.0987,0 -0.17944,-0.11438 -0.17944,-0.25417 0,-0.20605 -0.2734,-0.25417 -1.44393,-0.25417 -1.37575,0 -1.45304,-0.02 -1.63694,-0.42362 -0.25728,-0.56467 -0.42633,-0.53403 -0.56615,0.1026 -0.12837,0.58444 0.17231,0.5658 -3.342643,0.2072 -1.13411,-0.1157 -1.22309,-0.25933 -0.3389,-0.54703 0.52353,-0.17035 0.83968,-0.1589 1.795243,0.065 1.17492,0.27532 1.91285,0.12706 1.48703,-0.29876 -0.0899,-0.0899 -0.1225,-0.26993 -0.0725,-0.40015 0.0706,-0.18397 -0.019,-0.17371 -0.40192,0.0461 -0.5744,0.32966 -1.705403,0.20328 -1.863303,-0.20821 -0.0748,-0.19506 -0.26448,-0.22692 -0.83833,-0.14086 -0.40832,0.0612 -0.7416,0.0428 -0.7416,-0.0411 0,-0.0838 -0.61411,-0.16542 -1.36468,-0.18142 -1.25554,-0.0268 -1.35675,-0.004 -1.26556,0.2832 0.17917,0.56453 -1.17996,1.80059 -1.71289,1.55777 -0.23539,-0.10725 -0.39624,-0.28922 -0.35744,-0.40438 0.0388,-0.11516 -0.043,-0.29305 -0.18181,-0.39532 -0.16692,-0.123 -0.19092,-0.22391 -0.0709,-0.29809 0.0998,-0.0617 0.29653,0.003 0.43718,0.14358 0.3539,0.3539 0.61883,0.31968 0.61883,-0.0799 0,-0.45139 -0.60057,-0.58364 -1.99959,-0.4403 -1.27037,0.13015 -1.38664,0.18504 -1.01939,0.48119 0.32108,0.25892 0.52607,0.80312 0.30252,0.80312 -0.0903,0 -0.16413,-0.10622 -0.16413,-0.23605 0,-0.2873 -0.45826,-0.49042 -0.59764,-0.26489 -0.0551,0.0891 -0.24815,0.16204 -0.42904,0.16204 -0.18089,0 -0.48729,0.1584 -0.68088,0.352 -0.37923,0.37922 -0.83413,0.32877 -0.83413,-0.0925 0,-0.14272 -0.0678,-0.25949 -0.15062,-0.25949 -0.0828,0 -0.14003,-0.13344 -0.12709,-0.29653 0.0132,-0.16682 -0.0761,-0.27569 -0.20416,-0.24888 -0.12523,0.0262 -0.19487,-0.05 -0.15476,-0.16944 0.0485,-0.14455 0.36533,-0.20718 0.94784,-0.18741 0.51271,0.0174 0.87491,-0.0434 0.87491,-0.14684 0,-0.10093 0.19826,-0.13863 0.46293,-0.088 0.25462,0.0487 0.67469,-0.021 0.93349,-0.15484 0.36197,-0.18718 0.5526,-0.19942 0.8261,-0.053 0.23834,0.12755 0.41173,0.13412 0.52594,0.0199 0.29205,-0.29206 -0.0444,-0.57975 -0.55786,-0.47705 -0.2637,0.0527 -0.70628,0.0168 -0.98351,-0.0798 -0.39885,-0.13904 -0.59275,-0.11761 -0.92894,0.10267 -0.33172,0.21735 -0.50161,0.23732 -0.77488,0.0911 -0.43081,-0.23056 -1.17503,-0.14768 -1.3599,0.15145 -0.11209,0.18136 -0.16396,0.17949 -0.28401,-0.0102 -0.25095,-0.39661 -0.92881,-0.70412 -1.12333,-0.5096 -0.119,0.119 -0.0346,0.20896 0.2672,0.2847 0.5875,0.14746 0.91162,0.53594 0.65841,0.78916 -0.139,0.13899 -0.25019,0.13816 -0.42047,-0.003 -0.26015,-0.21592 -0.6301,0.0346 -0.6301,0.42676 0,0.41359 -0.35614,0.22137 -0.53373,-0.28806 -0.19343,-0.55487 -0.71701,-0.66865 -1.5753,-0.34233 -0.24015,0.0913 -0.92856,0.2015 -1.5298,0.24487 -0.60125,0.0434 -1.24496,0.16009 -1.43047,0.25937 -0.36877,0.19736 -1.78365,-0.2422 -1.62192,-0.50388 0.0968,-0.15656 -0.25098,-0.12832 -0.52405,0.0426 -0.10078,0.0631 -1.01579,0.12544 -2.03335,0.13862 -3.63203,0.047 -4.81542,-0.0231 -4.81542,-0.28543 0,-0.3614 -0.86545,-0.38278 -1.21814,-0.0301 -0.28086,0.28086 -0.41103,0.30372 -0.85279,0.14972 -0.78462,-0.27352 -0.82858,-0.23319 -0.44831,0.41132 0.41567,0.7045 0.43177,0.6996 -0.62616,0.19041 -1.08019,-0.5199 -2.80416,-0.79102 -2.47005,-0.38845 0.12229,0.14736 0.17303,0.34772 0.11275,0.44525 -0.15918,0.25756 -0.81588,-0.12909 -0.70593,-0.41563 0.0479,-0.12493 -0.0285,-0.27152 -0.16977,-0.32574 -0.38373,-0.14726 -1.07723,0.0736 -1.07723,0.34308 0,0.33936 -1.33289,0.32263 -1.46374,-0.0184 -0.0536,-0.13979 -0.21309,-0.25417 -0.35433,-0.25417 -0.20231,0 -0.21453,0.0509 -0.0576,0.24002 0.15831,0.19075 0.13649,0.25336 -0.10633,0.30505 -0.23981,0.0511 -0.1846,0.12921 0.25666,0.36334 0.3092,0.16407 0.65233,0.26585 0.7625,0.22618 0.25187,-0.0907 0.79339,0.17891 0.79339,0.39497 0,0.0891 -0.24782,0.12972 -0.5507,0.0902 -0.30289,-0.0395 -0.68414,-0.077 -0.84723,-0.0833 -0.1631,-0.006 -0.45984,-0.17474 -0.65942,-0.37433 -0.20074,-0.20073 -0.6361,-0.38776 -0.97432,-0.41855 -0.74336,-0.0677 -1.36997,-0.14925 -2.44393,-0.31815 -0.4487,-0.0706 -1.32559,-0.1524 -1.94863,-0.18186 -2.3132,-0.10936 -2.93333,-0.24831 -2.81216,-0.63008 0.0868,-0.27338 0.0504,-0.32015 -0.1803,-0.23163 -0.42587,0.16342 -0.61886,-0.0297 -0.39224,-0.39263 0.15325,-0.24539 0.14916,-0.3763 -0.0181,-0.57779 -0.11891,-0.14327 -0.16701,-0.34009 -0.10689,-0.43737 0.17432,-0.28205 0.42821,-0.20488 0.42821,0.13016 0,0.16886 0.23442,0.48034 0.52094,0.69218 0.28652,0.21183 0.48442,0.48034 0.43977,0.59668 -0.0447,0.11635 0.0315,0.21154 0.16922,0.21154 0.17797,0 0.21676,-0.10211 0.13413,-0.35301 -0.0639,-0.19416 -0.11571,-0.52458 -0.11503,-0.73427 6.8e-4,-0.20969 -0.0669,-0.38126 -0.15028,-0.38126 -0.0833,0 -0.15152,0.0763 -0.15152,0.16945 0,0.30571 -0.46681,0.17711 -0.55296,-0.15233 -0.0651,-0.24912 0.0286,-0.34433 0.41508,-0.42163 0.53581,-0.10716 0.5043,-0.44272 -0.0416,-0.44272 -0.38896,0 -0.43768,-0.26089 -0.0747,-0.40017 0.42758,-0.16408 0.28551,-0.42942 -0.37848,-0.70685 -0.59388,-0.24814 -0.54542,-0.70376 0.0505,-0.47507 0.14698,0.0564 0.19839,-0.0899 0.16922,-0.48166 -0.023,-0.30946 0.0153,-0.60099 0.0853,-0.64782 0.29431,-0.19704 -0.0578,-1.02147 -0.48175,-1.12787 -0.3865,-0.097 -0.40139,-0.12909 -0.1464,-0.31554 0.18012,-0.13171 0.24164,-0.31758 0.16833,-0.50862 -0.0995,-0.25935 -0.0471,-0.28545 0.37831,-0.18839 0.49384,0.11267 0.49384,0.11267 0.11258,-0.21361 -0.46703,-0.39969 -0.47488,-0.47211 -0.0493,-0.45486 0.18258,0.007 0.31602,-0.0628 0.29653,-0.15599 -0.0195,-0.0932 -0.1413,-0.15709 -0.27071,-0.142 -0.12941,0.0151 -0.43441,-0.16189 -0.67778,-0.3933 -0.4425,-0.42075 -0.4425,-0.42075 -0.0189,-0.36634 0.35234,0.0453 0.42416,-0.0166 0.42688,-0.36751 0.002,-0.26363 0.11329,-0.44312 0.29653,-0.47841 0.30625,-0.059 0.41484,-0.37052 0.12914,-0.37052 -0.0903,0 -0.1165,-0.12413 -0.0583,-0.27585 0.0665,-0.17327 -0.0297,-0.37813 -0.25877,-0.55088 -0.36462,-0.27503 -0.36462,-0.27503 0.0583,-0.76718 0.43678,-0.50831 0.55497,-1.25627 0.24715,-1.56409 -0.11165,-0.11165 -0.12043,-0.32484 -0.0241,-0.58459 0.17201,-0.46369 0.15564,-1.40946 -0.0342,-1.97622 -0.0988,-0.29481 -0.0631,-0.38125 0.15712,-0.38125 0.22949,0 0.26482,-0.10699 0.18188,-0.5507 -0.2188,-1.17047 -0.20135,-5.21858 0.0221,-5.13289 0.11649,0.0447 0.2118,-0.0244 0.2118,-0.15351 0,-0.1291 -0.20969,-0.3122 -0.46597,-0.40689 -0.46215,-0.17075 -0.46279,-0.17313 -0.0779,-0.28983 0.59272,-0.17973 0.88294,-0.93044 0.90999,-2.353934 0.0211,-1.112457 0.0716,-1.304797 0.39865,-1.519074 0.20595,-0.134938 0.42404,-0.493318 0.48465,-0.7964 0.0606,-0.303082 0.21345,-0.670437 0.33962,-0.816346 0.62905,-0.72747 0.50387,-1.157655 -0.47656,-1.637726 -0.91444,-0.447758 -0.92555,-0.462313 -1.03767,-1.359712 -0.0623,-0.49891 -0.17564,-0.868603 -0.25179,-0.82154 -0.0761,0.04706 -0.18635,0.0081 -0.24489,-0.08664 -0.0585,-0.09472 0.0124,-0.17221 0.15774,-0.17221 0.66866,0 0.17427,-0.720784 -0.62542,-0.911819 -0.25629,-0.06122 -0.46598,-0.178975 -0.46598,-0.26167 0,-0.0827 -0.1525,-0.110475 -0.33889,-0.06173 -0.18639,0.04874 -0.33889,0.153149 -0.33889,0.232015 0,0.260904 -1.41832,1.511544 -1.71421,1.511544 -0.30627,0 -0.90875,0.452984 -1.6339,1.228486 -0.23965,0.256288 -0.52935,0.465977 -0.64376,0.465977 -0.11442,0 -0.25192,0.114377 -0.30557,0.25417 -0.0536,0.139793 -0.21092,0.254169 -0.34949,0.254169 -0.13858,0 -0.52692,0.186586 -0.86296,0.414635 -0.33605,0.228048 -0.90132,0.552115 -1.25614,0.720146 -0.76229,0.360988 -0.93636,1.068021 -0.26294,1.068021 0.21136,0 0.42819,0.114377 0.48184,0.25417 0.11176,0.291242 -0.48007,0.366696 -0.65509,0.08352 -0.21433,-0.346803 -1.10511,-0.715906 -0.98739,-0.409139 0.0797,0.207754 0.009,0.26184 -0.30108,0.230531 -0.22289,-0.0225 -0.6199,0.04688 -0.88225,0.154176 -0.26236,0.107296 -0.54562,0.195083 -0.62946,0.195083 -0.19864,0 -0.52111,0.603464 -0.39166,0.732921 0.0548,0.05483 0.0496,0.23011 -0.0115,0.389507 -0.0848,0.220887 -0.15824,0.242774 -0.30899,0.09203 -0.31017,-0.310177 -0.7740695,-0.232056 -0.8955895,0.150818 -0.0608,0.19173 -0.29474,0.418595 -0.51976,0.504145 -0.22501,0.08555 -0.40911,0.233684 -0.40911,0.329186 0,0.0955 -0.1598,0.17364 -0.35511,0.17364 -0.19531,0 -0.57657,0.13082 -0.84723,0.2907 -0.49019,0.28956 -0.64498,0.55653 -0.32268,0.55653 0.0932,0 0.16945,0.11438 0.16945,0.25417 0,0.33393 -0.32144,0.32737 -0.45059,-0.009 -0.0878,-0.22878 -0.14828,-0.22017 -0.46066,0.0656 -0.19778,0.18093 -0.66971,0.4845 -1.04872,0.67459 -0.37902,0.1901 -0.7846,0.46068 -0.9013,0.6013 -0.1167,0.14061 -0.44386,0.30654 -0.72702,0.36874 -0.28316,0.0622 -0.78416,0.29584 -1.11334,0.51923 -0.32917,0.22338 -0.70953,0.40615 -0.84523,0.40615 -0.1357,0 -0.46177,0.15312 -0.72460004,0.34028 -0.26283,0.18715 -0.7011,0.38492 -0.97394,0.43949 -0.42843,0.0857 -0.48477,0.16058 -0.41323,0.54931 0.0807,0.43861 0.0742,0.44243 -0.25619,0.14949 -0.36662996,-0.32508 -0.71836996,-0.2666 -1.36198996,0.22646 -0.44737,0.34272 0.0252,0.5812 0.76724,0.38716 0.28127,-0.0736 0.37613996,-0.0246 0.37613996,0.19411 0,0.23448 -0.11759996,0.27874 -0.59305996,0.22324 -0.32618,-0.0381 -0.59306,-0.008 -0.59306,0.0662 0,0.0745 0.11438,0.13542 0.25417,0.13542 0.14121,0 0.25417,0.15062 0.25417,0.33889 0,0.39918 -0.37764,0.44638 -0.67779,0.0847 -0.11601,-0.13979 -0.31598,-0.25417 -0.44436,-0.25417 -0.13523,0 -0.23342,-0.17597 -0.23342,-0.4183 0,-0.3022 -0.0705,-0.39123 -0.25417,-0.32076 -0.28254,0.10842 -0.35113,0.56961 -0.0847,0.56961 0.0932,0 0.16945,0.0856 0.16945,0.1902 0,0.13517 -0.0704,0.13177 -0.24334,-0.0118 -0.18897,-0.15683 -0.33094,-0.15352 -0.63543,0.0148 -0.21564,0.11921 -0.49501,0.19566 -0.62082,0.16989 -0.34459,-0.0706 -1.5817,0.80479 -1.44649,1.02356 0.0787,0.12736 -0.019,0.15385 -0.30392,0.0823 -0.47883,-0.12018 -1.67513,0.27681 -2.93479,0.97391 -0.9671605,0.53522 -1.2672905,0.77653 -0.9658505,0.77653 0.11184,0 0.20334,0.0762 0.20334,0.16944 0,0.0932 -0.33817,0.16945 -0.75148,0.16945 -0.99742,0 -1.64393,0.25082 -1.51468,0.58764 0.0717,0.18694 -0.0122,0.26168 -0.29977,0.26707 -0.91792,0.0172 -3.0851,0.83975 -2.21246,0.83975 0.11184,0 0.20334,0.0754 0.20334,0.16745 0,0.0921 -0.17157,0.14929 -0.38126,0.12709 -0.27513,-0.0291 -0.37443,0.0438 -0.35676,0.26191 0.0182,0.22469 -0.0588,0.27583 -0.30019,0.19923 -0.33625,-0.10672 -1.33404,0.24617 -1.33404,0.47181 0,0.0704 -0.10593,0.12808 -0.2354,0.12808 -0.50574,0 -1.04375,0.6157 -0.7974,0.91254 0.25429,0.30639 0.0199,0.37908 -0.27412,0.085 -0.27135,-0.27136 -0.62978,-0.0186 -0.38754,0.27329 0.11967,0.1442 0.12631,0.26082 0.0186,0.32737 -0.092,0.0569 -0.23274,-0.0136 -0.31276,-0.15661 -0.12519,-0.22371 -0.20155,-0.20648 -0.54733,0.12352 -0.22101,0.21093 -0.82742,0.59537 -1.34758,0.85431 -0.68385,0.34043 -0.813,0.45181 -0.4664,0.4022 0.52232,-0.0748 0.80514,0.28255 0.48056,0.60713 -0.13571,0.13571 -0.37698,0.12944 -0.88589,-0.023 -0.59746,-0.179 -0.74217,-0.1708 -0.99309,0.0563 -0.16155,0.1462 -0.4093,0.26581 -0.55055,0.26581 -0.3101,0 -1.15678,0.69989 -1.15678,0.95621 0,0.10375 0.18336,0.14787 0.42362,0.10194 0.30479,-0.0583 0.42361,-0.007 0.42361,0.18221 0,0.16965 -0.19571,0.28798 -0.5507,0.33295 -0.50047,0.0634 -0.51592,0.0816 -0.16944,0.19994 0.76999,0.26292 0.43354,0.56844 -0.55071,0.50008 -0.54144,-0.0376 -0.93195,0.005 -0.93195,0.10182 0,0.0916 0.11438,0.16655 0.25417,0.16655 0.13979,0 0.25417,0.0789 0.25417,0.17528 0,0.15537 -1.65083,0.0591 -1.84383,-0.10755 -0.0356,-0.0307 -0.20249,0.018 -0.37097,0.10813 -0.19995,0.10701 -0.34279,0.10494 -0.41134,-0.006 -0.16283,-0.26347 -0.42389,-0.20041 -0.42389,0.1024 0,0.16978 0.0936,0.23636 0.24874,0.17684 0.28861,-0.11075 0.51653,0.15457 0.26586,0.30949 -0.0928,0.0573 -0.33036,0.0177 -0.52794,-0.088 -0.29764,-0.15929 -0.54149,-0.10252 -1.42223,0.33106 -0.58464,0.28782 -1.14445,0.52331 -1.24401,0.52331 -0.0996,0 -0.23497,0.0873 -0.30092,0.19402 -0.0853,0.138 0.0219,0.15956 0.37126,0.0747 1.00477,-0.24412 1.83378,-0.23767 2.17952,0.0169 0.34003,0.25041 0.33946,0.25244 -0.0401,0.14103 -0.53421,-0.15682 -1.48066,0.0629 -1.25273,0.29084 0.0962,0.0962 0.33346,0.1838 0.52726,0.19467 0.1938,0.0109 0.33232,0.096 0.30783,0.18921 -0.0245,0.0932 -0.37865,0.14309 -0.78702,0.11088 -0.49153,-0.0388 -0.79134,0.0185 -0.887,0.16944 -0.10723,0.1692 -0.14518,0.17338 -0.14711,0.0162 -10e-4,-0.11649 -0.19322,-0.2118 -0.42621,-0.2118 -0.23298,0 -0.42604,0.0953 -0.429,0.2118 -0.003,0.11979 -0.11294,0.0696 -0.25293,-0.11542 -0.2433,-0.3216 -0.25431,-0.32088 -0.64096,0.0424 -0.21638,0.20328 -0.53656,0.36959 -0.71153,0.36959 -0.3975,0 -2.62535,1.30903 -2.62535,1.54259 0,0.0945 -0.0796,0.12268 -0.1769,0.0626 -0.0973,-0.0601 -0.38323,0.0268 -0.63542,0.19328 -0.25219,0.16643 -0.76353,0.30644 -1.13631,0.31113 -0.53421,0.007 -0.67811,0.0727 -0.67929,0.31143 -8.3e-4,0.1666 -0.15976,0.39535 -0.35317,0.50834 -1.01138,0.59086 -2.27174,1.5068 -2.27174,1.65094 0,0.0903 -0.11438,0.16424 -0.25417,0.16424 -0.1398,0 -0.25417,0.0711 -0.25417,0.15803 0,0.0869 -0.1525,0.20643 -0.3389,0.26559 -0.18639,0.0592 -0.33889,0.24221 -0.33889,0.40679 0,0.16458 -0.0953,0.31321 -0.21181,0.3303 -0.11649,0.0171 -0.44056,0.0581 -0.72014,0.0911 -0.27959,0.033 -0.5274,0.0794 -0.5507,0.10308 -0.039,0.0396 -0.22381,0.0961 -0.48673,0.14893 -0.058,0.0117 -0.009,0.13794 0.10987,0.28065 0.17637,0.21251 0.16722,0.29683 -0.0505,0.46597 -0.14911,0.11582 -0.30611,0.57862 -0.35747,1.05375 -0.0504,0.46598 -0.14139,1.17884 -0.20227,1.58415 -0.13392,0.89156 0.40003,1.5032 1.63537,1.87331 0.41078,0.12307 0.89791,0.32957 1.08252,0.45887 0.18461,0.12931 0.48125,0.2351 0.6592,0.2351 0.17795,0 0.5613,0.24977 0.85189,0.55504 0.68483,0.71942 1.52596,1.30887 1.86771,1.30887 0.14871,0 0.27038,0.10256 0.27038,0.22791 0,0.26569 0.63662,0.88641 0.77115,0.75189 0.0502,-0.0502 0.29915,0.10911 0.55321,0.35405 0.25406,0.24493 0.80346,0.69318 1.22088,0.99609 1.56577,1.13623 2.17885,1.65827 2.1889,1.86386 0.006,0.11649 0.15104,0.21181 0.32298,0.21181 0.17195,0 0.45065,0.1525 0.61933,0.33889 0.16868,0.18639 0.3731,0.33889 0.45428,0.33889 0.21063,0 1.83324,1.23183 1.83324,1.39174 0,0.0733 0.1247,0.13328 0.2771,0.13328 0.15241,0 0.45377,0.19062 0.6697,0.42361 0.21592,0.23299 0.43972,0.42362 0.49733,0.42362 0.0576,0 0.46157,0.39948 0.89769,0.88774 1.30726,1.46357 1.68743,1.8234 1.92641,1.8234 0.12518,0 0.52593,0.34313 0.89057,0.76251 0.43693,0.50253 0.79983,0.76251 1.06436,0.76251 0.25534,0 0.70738,0.306 1.24236,0.84097 0.54748,0.54748 1.09166,0.91264 1.55931,1.04634 0.39508,0.11296 0.81031,0.27484 0.92272,0.35974 0.26834,0.20267 0.55812,0.0132 0.55812,-0.3649 0,-0.46455 0.17164,-0.53296 0.61249,-0.24411 0.30389,0.19912 0.40419,0.21095 0.40419,0.0477 0,-0.11945 0.0373,-0.17985 0.083,-0.13423 0.15712,0.15712 -0.33755,0.98758 -0.59129,0.99266 -0.41347,0.008 0.53943,0.66727 0.97109,0.67157 0.25491,0.003 0.41092,0.13481 0.47902,0.40614 0.0812,0.3234 0.24533,0.42215 0.83643,0.50317 0.40449,0.0554 1.09981,0.33188 1.54515,0.61431 0.57743,0.36619 1.01836,0.5135 1.53705,0.5135 0.63086,0 0.72198,0.0456 0.68697,0.34344 -0.0492,0.41831 1.89839,1.59243 2.0302,1.22394 0.0807,-0.2256 0.39896,-0.29886 0.36808,-0.0847 -0.0532,0.36896 0.28335,0.85971 0.90061,1.31321 0.38055,0.27958 0.9770205,0.73709 1.3255005,1.01667 0.67918,0.54491 1.6669,1.1563 1.94365,1.2031 0.0932,0.0158 0.3982,0.0465 0.67779,0.0683 0.50834,0.0396 0.50834,0.0396 0.0165,0.14663 -0.79669,0.1734 0.90719,1.44893 1.72944,1.29468 0.47456,-0.089 0.55276,-0.0589 0.50878,0.19613 -0.0399,0.23159 0.11469,0.33739 0.66818,0.45717 0.39608,0.0857 0.72015,0.2486 0.72015,0.36196 0,0.29394 1.49931,1.82818 2.20279996,2.25413 0.32618,0.19749 0.89806,0.5239 1.27084,0.72536 0.88617004,0.47888 0.86286004,0.44121 0.51248004,0.82838 -0.40852004,0.45141 0.0993,0.70188 0.56622,0.27929 0.16696,-0.15109 0.39287,-0.27472 0.50202,-0.27472 0.33523,0 0.21986,0.3419 -0.16318,0.4836 -0.4509,0.1668 0.26883,0.82799 1.0773,0.98969 0.25876,0.0517 0.47047,0.16478 0.47047,0.25117 0,0.0864 0.22876,0.23683 0.50834,0.33429 0.27959,0.0975 0.50834,0.27899 0.50834,0.40338 0,0.1244 0.16153,0.27745 0.35896,0.34011 0.19742,0.0627 0.75024,0.41059 1.22848,0.77319 0.47824,0.3626 0.95658,0.6596 1.06297,0.66 0.10639,4e-4 0.23915,0.18286 0.29502,0.40547 0.0559,0.2226 0.38821,0.64522 0.73852,0.93914 0.35031,0.29393 0.94943,0.83618 1.33136,1.20501 0.4612895,0.44546 0.8486395,0.67059 1.1537595,0.67059 0.25264,0 0.41428,0.0729 0.35922,0.162 -0.0551,0.0891 0.10618,0.29718 0.35832,0.46239 0.33519,0.21963 0.47712,0.24441 0.52786,0.0922 0.11106,-0.33318 0.30993,-0.24276 0.53042,0.24117 0.14274,0.31329 0.15098,0.50317 0.0272,0.62695 -0.30908,0.30908 -0.19449,0.44851 0.37314,0.45407 0.49415,0.005 0.52025,0.0285 0.25417,0.23048 -0.44327,0.33649 -0.36229,0.44641 0.29429,0.39945 0.70434,-0.0504 0.86242,-0.32496 0.41843,-0.72677 -0.49344,-0.44656 -0.20518,-0.64015 0.35706,-0.2398 0.46079,0.32811 0.95617,0.32307 0.75177,-0.008 -0.0496,-0.0803 -0.018,-0.19066 0.0703,-0.24522 0.0883,-0.0546 0.20397,-0.0289 0.2571,0.0571 0.0531,0.086 0.2437,0.11783 0.42348,0.0708 0.21217,-0.0555 0.40481,0.0393 0.54893,0.27007 0.38676,0.6193 1.20045,-0.27796 1.51281,-1.66818 0.27022,-1.20267 0.86489,-2.38186 1.20117,-2.38186 0.34836,0 0.4169,-0.27408 0.0953,-0.38123 -0.21587,-0.0719 -0.27569,-0.40423 -0.34318,-1.9063 -0.0209,-0.46597 -0.0965,-0.93732 -0.16799,-1.04744 -0.0781,-0.12031 0.0195,-0.30486 0.2444,-0.4624 0.31536,-0.22089 0.36713,-0.39767 0.32867,-1.12227 -0.0251,-0.47304 0.0416,-0.96518 0.14819,-1.09363 0.33108,-0.39893 -0.24742,-1.07471 -0.9728,-1.1364 -0.33497,-0.0285 -0.64424,-0.15882 -0.68727,-0.28961 -0.0637,-0.19361 0.0979,-0.21711 0.86939,-0.12644 0.94764,0.11137 0.94764,0.11137 0.86844,-0.5247 -0.23495,-1.88685 -0.23501,-3.22968 -1.6e-4,-3.42459 0.3962,-0.32882 -0.18213,-0.85457 -0.94002,-0.85457 -0.34385,0 -0.71322,-0.11307 -0.83032,-0.25417 -0.25136,-0.30286 0.0115,-0.35061 0.49773,-0.0904 0.20629,0.1104 0.45069,0.0966 0.75004,-0.0424 0.49014,-0.22753 0.58749,-0.4603 0.19252,-0.4603 -0.13979,0 -0.25417,-0.0763 -0.25417,-0.16945 0,-0.0932 0.14317,-0.16944 0.31815,-0.16944 0.3626,0 0.75636,-0.39403 0.57501,-0.57538 -0.16362,-0.16362 -0.0727,-1.26638 0.15169,-1.83939 0.13462,-0.34382 0.12985,-0.52959 -0.0182,-0.70797 -0.15644,-0.1885 -0.1423,-0.35481 0.0641,-0.75394 0.37421,-0.72364 0.34892,-1.37616 -0.0533,-1.37616 -0.62562,0 -0.8005,-0.49042 -0.24405,-0.6844 0.7391,-0.25765 1.1997,-1.96683 0.5046,-1.87248 -0.32628,0.0443 -0.32201,-0.009 0.0199,-0.24859 0.48863,-0.34225 0.48611,-0.75182 -0.005,-0.75667 -0.38125,-0.004 -0.38125,-0.004 0.0231,-0.31465 0.27186,-0.20904 0.34034,-0.35041 0.20904,-0.43155 -0.10739,-0.0664 -0.15139,-0.19166 -0.0978,-0.27842 0.0536,-0.0868 0.0167,-0.15774 -0.082,-0.15774 -0.41101,0 -0.13912,-0.49027 0.3289,-0.59306 0.59696,-0.13111 0.62953,-0.26141 0.16944,-0.67778 -0.39694,-0.35924 -0.4592,-0.84494 -0.0901,-0.70332 0.13681,0.0525 0.29381,0.0225 0.3489,-0.0666 0.0551,-0.0891 -0.0187,-0.16204 -0.16402,-0.16204 -0.1453,0 -0.26417,-0.11438 -0.26417,-0.25417 0,-0.14364 -0.15173,-0.25417 -0.3489,-0.25417 -0.19637,0 -0.3017,-0.0764 -0.24095,-0.17465 0.14755,-0.23875 1.22616,-0.0296 1.88069,0.36471 0.5956,0.35879 1.27397,0.40851 1.79188,0.13133 0.25747,-0.13779 0.38088,-0.13584 0.46942,0.007 0.0661,0.1069 0.81616,0.26637 1.66689,0.35439 0.85073,0.088 1.60668,0.16996 1.67989,0.1821 0.0732,0.0121 0.42354,0.013 0.77852,0.002 0.72671,-0.0226 0.70956,-0.34727 -0.02,-0.37845 -0.34572,-0.0148 -0.29209,-0.0513 0.22181,-0.15119 0.37278,-0.0724 0.75403,-0.0887 0.84723,-0.0361 0.0932,0.0526 0.0242,-0.07 -0.15335,-0.27242 -0.17753,-0.20242 -0.23922,-0.36802 -0.13708,-0.36802 0.10214,0 0.22497,0.0635 0.27297,0.14119 0.048,0.0777 0.31034,0.10845 0.583,0.0684 0.27265,-0.04 0.54738,0.0108 0.61052,0.11298 0.069,0.11171 -0.0243,0.18573 -0.23411,0.18573 -0.37073,0 -0.42666,0.12355 -0.21021,0.46436 0.13014,0.20491 0.99895,0.30053 4.35165,0.47896 0.83876,0.0446 1.79189,0.12293 2.11808,0.17399 0.4373,0.0685 0.52668,0.047 0.34031,-0.0816 -0.46624,-0.3217 0.0475,-0.60258 0.69151,-0.37807 0.44619,0.15554 0.60201,0.14361 0.83105,-0.0637 0.33187,-0.30034 0.67882,-0.33403 0.67882,-0.0659 0,0.11044 0.17634,0.15549 0.42362,0.10822 0.28406,-0.0543 0.42361,-0.005 0.42361,0.14969 0,0.28934 0.28615,0.30347 0.38194,0.0189 0.0556,-0.16512 0.13338,-0.16055 0.35302,0.0207 0.35453,0.29266 0.36183,0.52996 0.0163,0.52996 -0.18925,0 -0.25004,0.13285 -0.21181,0.46293 0.062,0.53505 1.39381,0.9004 2.10352,0.57703 0.22389,-0.10201 0.42622,-0.1058 0.52222,-0.01 0.0862,0.0862 1.10588,0.18904 2.26595,0.22852 1.16007,0.0395 2.27822,0.12379 2.48477,0.18734 0.20655,0.0636 0.76305,0.0226 1.23666,-0.091 0.76596,-0.18375 0.89786,-0.17333 1.19362,0.0943 0.27948,0.25292 0.42737,0.27179 0.92735,0.11835 0.45689,-0.14023 0.70207,-0.12949 1.05725,0.0463 0.48474,0.23989 0.99496,0.27013 4.42423,0.26223 1.15386,-0.003 2.15636,0.0313 2.2278,0.0754 0.15376,0.095 2.57198,0.2648 4.4874,0.31503 0.74661,0.0196 1.45036,0.093 1.56388,0.16316 0.11352,0.0702 0.36682,0.0417 0.56289,-0.0632 0.28359,-0.15177 0.41932,-0.13393 0.66373,0.0873 0.19601,0.17739 0.57434,0.2705 1.04495,0.2572 0.40573,-0.0115 1.042697,-0.0146 1.415477,-0.007 0.84377,0.0173 1.48163,-0.12786 1.36821,-0.31138 -0.0473,-0.0765 0.28201,-0.1037 0.73173,-0.0605 0.55595,0.0534 1.01091,-0.0131 1.42137,-0.2079 0.42082,-0.1997 0.69752,-0.23828 0.91344,-0.12736 0.91839,0.47176 3.7834,0.21258 3.7834,-0.34226 0,-0.13359 0.24889,0.0571 1.18123,0.90492 0.563,0.51197 2.11627,0.704 2.7009,0.33391 0.13147,-0.0832 0.39667,-0.093 0.58934,-0.0217 0.19267,0.0713 0.61453,0.0566 0.93748,-0.0325 0.39213,-0.10827 0.79122,-0.10099 1.20145,0.0219 0.47046,0.14096 0.88924,0.12579 1.78879,-0.0648 1.42211,-0.30126 1.47925,-0.30414 1.33275,-0.0671 -0.08,0.1294 0.009,0.14742 0.28653,0.0581 0.22136,-0.0712 0.47872,-0.12308 0.57192,-0.11522 0.0932,0.008 0.47445,0.0277 0.84723,0.044 0.37278,0.0163 0.98279,0.11083 1.35557,0.20997 1.08768,0.28926 2.59281,0.28645 2.70466,-0.005 0.0944,-0.24593 0.21749,-0.23952 1.78567,0.093 0.23299,0.0494 0.84299,0.0978 1.35557,0.10757 0.51257,0.01 1.17806,0.12053 1.47885,0.24618 0.34194,0.14283 0.78646,0.1862 1.18613,0.11572 1.37895,-0.2432 2.267919,-0.29008 2.465669,-0.13003 0.27906,0.22587 1.07351,0.23113 1.92403,0.0127 0.53137,-0.13643 0.79723,-0.12762 1.1014,0.0365 0.86665,0.46765 10.9596,0.2335 11.45894,-0.26584 0.23131,-0.23131 0.50533,-0.36817 0.60893,-0.30414 0.1036,0.064 0.33243,0.12703 0.50851,0.14 0.17607,0.013 0.3802,0.13096 0.45361,0.2622 0.10994,0.19653 0.53204,0.21668 2.39398,0.1143 1.24328,-0.0684 3.06114,-0.12126 4.03969,-0.11753 0.97856,0.004 1.8745,0.003 1.991,-7.7e-4 0.11649,-0.004 0.65025,-0.0177 1.18612,-0.03 0.53588,-0.0124 1.17901,-0.14114 1.42918,-0.28616 0.34727,-0.20129 0.51033,-0.21763 0.68934,-0.0691 0.17915,0.14869 0.32176,0.13345 0.60447,-0.0646 0.2035,-0.14253 0.44612,-0.21211 0.53915,-0.15462 0.093,0.0575 0.16915,-0.009 0.16915,-0.14821 0,-0.13901 -0.15361,-0.3015 -0.34135,-0.36109 -0.44383,-0.14086 -0.26559,-0.42283 0.26727,-0.42283 0.36166,0 0.4088,0.0685 0.37126,0.53956 -0.0694,0.87039 1.41093,0.98465 4.75553,0.36707 0.97826,-0.18063 1.54864,-0.21069 1.86391,-0.0982 0.63862,0.22781 2.18223,0.25883 2.31347,0.0465 0.21352,-0.34549 1.61447,-0.2168 1.61447,0.1483 0,0.38501 1.93168,0.6904 2.46811,0.3902 0.18975,-0.10619 0.4905,-0.11007 0.82185,-0.0106 0.63016,0.18919 3.09683,0.008 3.52865,-0.25984 0.23108,-0.14309 0.33971,-0.14089 0.43298,0.009 0.09,0.14449 0.78068,0.17727 2.49416,0.1184 1.30331,-0.0448 2.6556,-0.0757 3.00509,-0.0686 0.36775,0.007 0.63542,-0.0681 0.63542,-0.17913 0,-0.11702 0.15595,-0.15276 0.39965,-0.0916 1.1891,0.29845 2.83165,0.40758 3.92123,0.26053 2.79851,-0.37768 4.9663,-0.52761 8.38759,-0.58011 2.0037,-0.0308 3.83717,-0.1304 4.07438,-0.22145 0.29689,-0.11396 0.69291,-0.0991 1.27085,0.0476 0.58574,0.14874 0.98457,0.16265 1.31918,0.046 0.32382,-0.11287 0.59903,-0.10889 0.84723,0.0122 0.20219,0.0987 1.28262,0.26316 2.40097,0.3655 3.97188,0.36346 5.43136,0.52715 6.14486,0.6892 0.39742,0.0903 0.9834,0.16411 1.30218,0.16411 0.31878,0 0.79106,0.0804 1.04952,0.17866 1.03252,0.39256 7.25262,0.16233 11.837,-0.43814 1.21154,-0.15869 2.3553,-0.28152 2.54169,-0.27294 0.18639,0.009 0.56764,-0.0569 0.84723,-0.1454 0.27959,-0.0885 0.85147,-0.20209 1.27085,-0.25234 0.41938,-0.0503 1.02436,-0.21489 1.34441,-0.36587 0.45614,-0.21518 0.69418,-0.23601 1.1014,-0.0964 1.00058,0.34308 2.93764,0.59014 3.84254,0.49009 2.33105,-0.25771 2.51513,-0.40568 2.93494,-2.35927 0.16447,-0.76538 0.48216,-1.73561 0.70598,-2.15605 0.22681,-0.42606 0.40695,-1.05325 0.40695,-1.41686 0,-0.39583 0.13328,-0.82184 0.3389,-1.08324 0.36697,-0.46653 0.46873,-1.71253 0.16468,-2.01657 -0.1193,-0.11931 -0.0671,-0.41032 0.16573,-0.92348 0.4278,-0.94297 0.42753,-1.11712 -0.003,-1.94194 z"
       id="path69"
       inkscape:export-filename="next.svg"
       inkscape:export-xdpi="96"
       inkscape:export-ydpi="96" /></g></svg>
