<?xml version="1.0" encoding="UTF-8" standalone="no"?>
<!-- Created with Inkscape (http://www.inkscape.org/) -->

<svg
   width="139.96777mm"
   height="175.52158mm"
   viewBox="0 0 139.96777 175.52158"
   version="1.1"
   id="svg1"
   xml:space="preserve"
   xmlns:inkscape="http://www.inkscape.org/namespaces/inkscape"
   xmlns:sodipodi="http://sodipodi.sourceforge.net/DTD/sodipodi-0.dtd"
   xmlns="http://www.w3.org/2000/svg"
   xmlns:svg="http://www.w3.org/2000/svg"><sodipodi:namedview
     id="namedview1"
     pagecolor="#ffffff"
     bordercolor="#000000"
     borderopacity="0.25"
     inkscape:showpageshadow="2"
     inkscape:pageopacity="0.0"
     inkscape:pagecheckerboard="0"
     inkscape:deskcolor="#d1d1d1"
     inkscape:document-units="mm" /><defs
     id="defs1" /><g
     inkscape:label="Layer 1"
     inkscape:groupmode="layer"
     id="layer1"
     transform="translate(-28.756505,-79.462881)"><path
       d="m 58.471161,81.072362 c -0.803714,0.01733 -1.776073,0.06194 -2.746592,0.122283 -0.970519,0.06035 -1.940976,0.136923 -2.741652,0.219323 -0.800675,0.08241 -1.432777,0.170698 -1.726958,0.254213 -0.46326,0.131513 -0.983312,0.330887 -1.510158,0.569297 -0.526844,0.238409 -1.06152,0.51591 -1.554184,0.804038 -0.492666,0.28813 -0.94406,0.587565 -1.304779,0.868237 -0.360721,0.280673 -0.631535,0.543292 -0.762547,0.75933 -0.103418,0.170536 -0.51667,0.646281 -0.918137,1.056913 -0.229704,0.234948 -0.442563,0.486148 -0.638617,0.754487 -0.196054,0.268336 -0.375463,0.554354 -0.53877,0.859583 -0.163308,0.305233 -0.310692,0.630029 -0.44216,0.975659 -0.131466,0.345627 -0.247222,0.713135 -0.347752,1.102664 -0.201058,0.779055 -0.341624,1.649873 -0.424358,2.625552 -0.08273,0.975677 -0.107961,2.057984 -0.07961,3.25831 0.01735,0.736091 0.03336,1.28071 0.02831,1.684691 -0.005,0.403979 -0.03101,0.667908 -0.09778,0.842634 -0.03338,0.08736 -0.0774,0.152854 -0.133585,0.202189 -0.05618,0.04933 -0.124883,0.08292 -0.208779,0.107091 -0.167796,0.04833 -0.396322,0.05875 -0.704448,0.08355 -0.738762,0.05943 -1.293391,0.104218 -1.757737,0.157561 -0.46435,0.05334 -0.839232,0.115588 -1.219176,0.210108 -0.379944,0.09451 -0.765616,0.221636 -1.251164,0.404613 -0.485546,0.182976 -1.072029,0.422351 -1.853187,0.741054 -0.363635,0.148357 -0.73074,0.348468 -1.094187,0.590968 -0.363447,0.24249 -0.723628,0.52765 -1.074413,0.84623 -0.350786,0.31858 -0.692614,0.67086 -1.018263,1.04748 -0.325648,0.37663 -0.636129,0.77855 -0.924168,1.19519 -0.288037,0.41663 -0.554247,0.84868 -0.792198,1.28727 -0.237953,0.43857 -0.44789,0.88437 -0.623282,1.32687 -0.175393,0.4425 -0.316636,0.88303 -0.416992,1.31139 -0.100356,0.42838 -0.159944,0.84515 -0.172791,1.24134 -0.02249,0.69353 -0.06354,1.4325 -0.09109,1.64129 -0.04776,0.36188 0.117919,9.07048 0.199946,10.50834 0.02148,0.37733 0.0048,1.39889 -0.0371,2.2692 -0.06717,1.39578 -0.06364,6.27566 0.0066,9.51765 0.04854,2.24202 0.05893,7.06521 0.01641,7.62169 -0.02389,0.31259 -0.02114,2.15582 0.0065,4.09453 0.06225,4.3717 0.06904,5.70584 0.05024,10.45618 -0.0082,2.07851 0.03513,4.26066 0.09688,4.84734 0.118522,1.12609 0.183495,1.86392 0.19891,2.36438 0.01534,0.50043 -0.01852,0.76448 -0.09682,0.94394 -0.08015,0.18372 -0.149353,1.70379 -0.18068,3.23651 -0.03132,1.53273 -0.02489,3.08001 0.04661,3.31906 0.03934,0.13151 0.0095,0.64712 -0.06654,1.14506 -0.05761,0.37756 -0.1027,0.95478 -0.13454,1.64074 -0.03184,0.68596 -0.05032,1.48187 -0.05529,2.29621 -0.0099,1.62868 0.03497,3.33558 0.139089,4.39755 0.06977,0.71167 0.107382,1.22479 0.115213,1.62582 0.0078,0.40101 -0.01414,0.69072 -0.06489,0.95524 -0.08155,0.42501 -0.145052,0.7971 -0.192988,1.19602 -0.04794,0.39893 -0.08038,0.8254 -0.100915,1.35982 -0.04107,1.06889 -0.03384,2.57223 -0.0026,5.15279 0.034,2.80753 0.0425,4.66853 0.01296,6.24949 -0.02954,1.58095 -0.09728,2.88504 -0.215442,4.58056 -0.05336,0.76556 -0.07742,1.40518 -0.07011,2.12352 0.0073,0.71833 0.04607,1.51716 0.118203,2.59988 0.101374,1.52124 0.199282,3.07802 0.217458,3.4584 0.02077,0.43427 -0.0019,1.39239 -0.04572,2.37757 -0.04381,0.98517 -0.109047,1.99904 -0.173325,2.54388 -0.05335,0.45214 -0.09672,1.84341 -0.09685,3.09034 -1.28e-4,1.24694 -0.0089,2.83509 -0.01899,3.52818 -0.01009,0.69309 -0.01096,2.22459 -0.0022,3.40193 0.01136,1.52644 -0.0016,3.12929 -0.03184,4.478 -0.03029,1.34869 -0.07774,2.44553 -0.13496,2.96136 -0.054,0.48682 -0.0873,2.10477 -0.07358,3.59369 0.01371,1.48893 0.03054,3.55872 0.03696,4.59761 0.0042,0.68075 0.0289,1.29479 0.0778,1.85774 0.04886,0.56295 0.121855,1.07568 0.222311,1.55382 0.10045,0.47813 0.228384,0.92269 0.387346,1.34897 0.158963,0.42629 0.349004,0.8353 0.573402,1.24268 0.25016,0.45417 0.450107,0.80956 0.639827,1.11628 0.18972,0.30671 0.36962,0.5653 0.580538,0.82514 0.421838,0.51969 0.968379,1.047 1.964848,1.98264 0.286225,0.26876 0.522927,0.55244 0.525639,0.63007 0.0028,0.0777 0.206825,0.29563 0.45334,0.4847 0.509934,0.39111 0.952086,0.69829 1.406118,0.938 0.454033,0.23971 0.920676,0.41266 1.48001,0.53675 0.559336,0.12409 1.212204,0.19951 2.038048,0.24373 0.825844,0.0442 1.826617,0.0572 3.080177,0.0574 3.666739,4.1e-4 9.707428,0.0923 12.668963,0.19257 1.258935,0.0425 2.703119,0.0644 4.030854,0.0656 1.327732,0.001 2.541196,-0.0185 3.339816,-0.0592 0.691509,-0.0354 1.769898,-0.0204 2.395237,0.0332 1.122721,0.0962 5.112355,0.19571 7.313741,0.18256 0.623335,-0.004 1.815765,0.0332 2.648749,0.0817 0.832987,0.0486 2.081881,0.0733 2.773989,0.0551 0.692109,-0.0181 1.572211,0.006 1.954868,0.0533 0.382659,0.0472 1.82977,0.0756 3.214815,0.063 1.385044,-0.0127 3.144499,0.0142 3.908095,0.0595 0.763599,0.0453 2.297226,0.10734 3.406685,0.13803 2.050485,0.0568 3.36559,0.1235 5.742528,0.29172 0.729182,0.0516 2.887488,0.12543 4.79388,0.16405 1.90639,0.0386 4.17788,0.12416 5.04609,0.18987 0.86823,0.0658 2.03238,0.10811 2.58609,0.0938 0.55368,-0.0147 1.20713,0.021 1.45161,0.0791 0.24449,0.0579 0.87066,0.11261 1.39054,0.12156 1.04498,0.018 4.52512,0.2062 7.25799,0.39238 0.97214,0.0662 2.7052,0.15161 3.84956,0.18978 1.14436,0.0382 2.46227,0.10895 2.92748,0.15683 0.46524,0.0479 1.04763,0.0797 1.29363,0.0711 0.16777,-0.006 0.3116,0.0172 0.46099,0.0817 0.14938,0.0645 0.30472,0.17105 0.49557,0.33172 0.25444,0.21423 0.38187,0.32135 0.47257,0.32477 0.0907,0.003 0.14498,-0.0968 0.25333,-0.29737 0.0988,-0.18287 0.16319,-0.28193 0.25741,-0.32855 0.0942,-0.0466 0.21842,-0.0413 0.43538,-0.0146 0.26177,0.032 0.9154,0.073 1.45202,0.0905 0.53662,0.0175 1.71531,0.0883 2.6183,0.15727 2.4289,0.18561 4.39644,0.29095 5.7436,0.30772 0.6584,0.008 1.51087,0.0561 1.89363,0.10606 0.38275,0.0499 1.09174,0.0469 1.57478,-0.007 0.48305,-0.0537 1.04679,-0.0952 1.25224,-0.0924 0.45019,0.006 0.93695,-0.0244 1.42781,-0.0845 0.49088,-0.06 0.9868,-0.14964 1.45526,-0.26074 0.46847,-0.11112 0.91004,-0.24376 1.293,-0.39108 0.38298,-0.14732 0.70812,-0.30905 0.94251,-0.47761 0.34288,-0.24655 1.06162,-0.71412 1.59669,-1.03821 0.25992,-0.15743 0.52113,-0.34478 0.77191,-0.55024 0.25078,-0.20544 0.49138,-0.42922 0.71071,-0.65926 0.21933,-0.23007 0.41763,-0.46699 0.58319,-0.69826 0.16555,-0.23127 0.29884,-0.45755 0.38831,-0.66664 0.11006,-0.25714 0.42484,-0.81587 0.69919,-1.2411 0.22937,-0.35548 0.48574,-0.86514 0.72387,-1.42243 0.23816,-0.55729 0.45833,-1.16278 0.61505,-1.71077 0.0701,-0.2449 0.12905,-2.06237 0.13102,-4.03677 10e-4,-1.00613 8.4e-4,-1.7564 0.0125,-2.30764 0.0117,-0.55123 0.0353,-0.90453 0.085,-1.11778 0.0248,-0.10664 0.0562,-0.17803 0.0956,-0.22207 0.0393,-0.0441 0.087,-0.0606 0.14436,-0.0567 0.11484,0.008 0.26955,0.0969 0.4768,0.2088 0.26929,0.1454 0.4392,0.22392 0.62366,0.25381 0.18447,0.0299 0.38364,0.0114 0.71124,-0.0372 0.40741,-0.0605 0.95184,-0.0582 1.22567,0.005 0.18737,0.0435 0.34322,0.0603 0.50426,0.0475 0.16104,-0.0128 0.32744,-0.0553 0.53579,-0.1304 0.62234,-0.22404 1.23729,-0.48079 1.79559,-0.7468 0.55832,-0.26601 1.06098,-0.54161 1.45804,-0.80326 0.46401,-0.30577 0.88171,-0.55769 0.92776,-0.55931 0.0461,-0.002 0.34315,-0.22482 0.66006,-0.49566 0.31692,-0.27082 0.85727,-0.70064 1.2004,-0.95508 0.34051,-0.25249 0.65974,-0.54681 0.95729,-0.8835 0.29755,-0.33669 0.57426,-0.71649 0.82994,-1.13916 0.25568,-0.42267 0.49067,-0.88909 0.70555,-1.39954 0.21489,-0.51046 0.4099,-1.06578 0.58507,-1.66579 0.16199,-0.55504 0.28521,-0.99261 0.37516,-1.41386 0.09,-0.42126 0.14674,-0.82725 0.17731,-1.31905 0.0305,-0.49183 0.0346,-1.07055 0.0186,-1.83732 -0.0164,-0.76677 -0.0522,-1.72303 -0.10264,-2.96911 -0.085,-2.11572 -0.12676,-3.23969 -0.12119,-3.82629 0.003,-0.29331 0.0173,-0.45292 0.0444,-0.53517 0.0271,-0.0823 0.0666,-0.0876 0.11897,-0.0729 0.0735,0.0205 0.12735,-0.007 0.16217,-0.0796 0.0349,-0.0719 0.0505,-0.18784 0.0469,-0.34343 -0.006,-0.31116 -0.0913,-0.78091 -0.25115,-1.37286 -0.0793,-0.29385 -0.16545,-1.46407 -0.24607,-3.06337 -0.0806,-1.59932 -0.15589,-3.63059 -0.21265,-5.64529 -0.0569,-2.0147 -0.0956,-4.01654 -0.10399,-5.55652 -0.008,-1.54001 0.0152,-2.62093 0.0813,-2.79611 0.0739,-0.19591 0.10836,-0.31549 0.0937,-0.44073 -0.0147,-0.12522 -0.0781,-0.25627 -0.2007,-0.47594 -0.0756,-0.13539 -0.13607,-0.3957 -0.17953,-0.7285 -0.0434,-0.3328 -0.0703,-0.73868 -0.0796,-1.16634 -0.008,-0.42767 -7.2e-4,-0.8778 0.0266,-1.29776 0.0274,-0.41995 0.0738,-0.81049 0.13979,-1.12022 0.0431,-0.20212 0.0612,-0.78857 0.0541,-1.78167 -0.007,-0.9931 -0.0398,-2.39504 -0.0975,-4.22735 -0.10206,-3.24536 -0.12741,-5.86692 -0.0637,-6.54916 0.0851,-0.91228 0.14901,-1.96161 0.18444,-2.95121 0.0353,-0.98961 0.0424,-1.92168 0.0142,-2.59985 -0.0292,-0.69172 -0.0225,-2.10963 0.0136,-3.15001 0.0361,-1.04037 0.0309,-2.96887 -0.0111,-4.28361 -0.0454,-1.4134 -0.0213,-2.73894 0.0579,-3.24206 0.0419,-0.26415 0.0655,-0.60419 0.0702,-0.98127 0.005,-0.37707 -0.009,-0.79204 -0.0422,-1.20695 -0.0336,-0.42219 -0.0466,-0.90383 -0.039,-1.4056 0.007,-0.50177 0.0342,-1.02464 0.081,-1.52925 0.093,-1.00213 0.1387,-3.52566 0.13781,-6.28577 -9.8e-4,-2.76011 -0.0484,-5.76123 -0.14271,-7.7171 -0.0705,-1.46813 -0.0944,-2.70802 -0.0678,-3.88192 0.0264,-1.17391 0.10325,-2.28452 0.23422,-3.49484 0.0445,-0.41072 0.0703,-1.12687 0.0773,-2.11083 0.007,-0.98397 -0.005,-2.23758 -0.0357,-3.7207 -0.0485,-2.31684 -0.0609,-3.77665 -0.0226,-4.77961 0.019,-0.50146 0.0509,-0.88942 0.0972,-1.21336 0.0464,-0.32392 0.10745,-0.5847 0.18503,-0.83172 0.0691,-0.21974 0.10448,-0.38489 0.107,-0.54873 0.002,-0.16385 -0.028,-0.32697 -0.0903,-0.54238 -0.0565,-0.19514 -0.0892,-0.41853 -0.0992,-0.70854 -0.0101,-0.29001 0.003,-0.64721 0.0368,-1.10887 0.0517,-0.70237 0.078,-1.71425 0.0585,-2.24773 -0.0344,-0.95875 0.0433,-3.0561 0.19579,-5.26191 0.049,-0.70938 0.0134,-1.72657 -0.095,-2.70566 -0.0955,-0.86259 -0.28496,-4.00371 -0.42103,-6.97776 -0.13602,-2.97402 -0.34533,-6.14291 -0.46505,-7.039307 -0.11976,-0.896366 -0.24837,-2.841434 -0.28533,-4.320571 -0.0289,-1.142092 -0.0939,-2.165514 -0.2019,-3.088187 -0.10802,-0.922669 -0.25878,-1.746487 -0.45719,-2.490317 -0.1984,-0.743832 -0.44504,-1.40933 -0.74463,-2.014909 -0.2996,-0.60558 -0.6526,-1.15249 -1.06423,-1.660409 -0.13649,-0.168418 -0.52878,-0.731889 -0.87156,-1.25192 -0.44929,-0.681669 -0.85351,-1.250911 -1.22441,-1.716863 -0.3709,-0.465952 -0.70916,-0.829614 -1.02659,-1.101208 -0.31745,-0.271594 -0.61499,-0.451554 -0.90393,-0.550149 -0.14449,-0.0493 -0.28715,-0.07838 -0.42916,-0.08843 -0.14204,-0.01005 -0.28352,-0.0013 -0.42624,0.02523 -0.20178,0.03751 -0.38959,0.04492 -0.6122,0.01519 -0.22261,-0.02974 -0.48059,-0.09682 -0.82318,-0.207043 -0.49664,-0.159787 -1.11267,-0.283284 -1.36847,-0.274351 -0.25579,0.009 -0.66516,-0.03533 -0.90937,-0.09855 -0.26214,-0.06786 -0.82418,-0.116047 -1.64368,-0.144779 -0.81948,-0.02873 -1.89829,-0.03791 -3.19238,-0.02813 -2.58823,0.01955 -6.04611,0.115536 -10.03638,0.285328 -2.13989,0.09108 -3.90497,0.112539 -4.154,0.05044 -0.24539,-0.0612 -1.11451,-0.053 -2.0056,0.01937 -0.86457,0.0702 -1.62908,0.12461 -1.69851,0.120851 -0.658,-0.03614 -2.68512,-0.0049 -6.08898,0.09319 -3.40387,0.09812 -8.19087,0.263417 -14.3642,0.496405 -1.90252,0.07184 -5.4442,0.16601 -7.8673,0.209065 -2.42308,0.04305 -6.107885,0.111815 -8.184674,0.152926 -2.076794,0.04105 -4.3443,0.06893 -5.037304,0.06163 -0.692993,-0.0073 -3.925085,0.02123 -7.179496,0.06353 -3.254413,0.0423 -6.374612,0.03125 -6.930763,-0.02479 -0.556149,-0.05602 -2.115327,-0.04994 -3.463963,0.01341 -1.507584,0.07081 -2.648669,0.06793 -2.961049,-0.0073 -0.233581,-0.05622 -0.65398,-0.09523 -1.160834,-0.118207 -0.506857,-0.02298 -1.101166,-0.03008 -1.682326,-0.02243 -0.58116,0.0076 -1.150372,0.02978 -1.606866,0.06541 -0.456496,0.03565 -0.801064,0.0848 -0.933923,0.145854 -0.124403,0.05716 -0.471959,0.101992 -0.944186,0.133284 -0.472226,0.0313 -1.070192,0.0494 -1.695703,0.05351 -0.62551,0.0041 -1.279319,-0.0058 -1.863569,-0.03006 -0.58425,-0.0243 -1.099838,-0.06293 -1.448287,-0.116958 -0.300258,-0.04655 -0.937104,-0.05637 -1.740817,-0.039 z m -0.420856,5.583642 5.15e-4,-1.8e-5 c 0.477679,-0.0068 0.896609,0.02397 1.477322,0.08957 0.80247,0.09066 1.691133,0.143271 2.643137,0.157966 0.952007,0.0147 1.969233,-0.0086 3.028138,-0.07058 0.829598,-0.04849 1.934293,-0.09485 2.453573,-0.102736 2.277591,-0.03455 4.904615,-0.125347 7.180114,-0.238328 2.275497,-0.11298 4.203288,-0.248215 5.082883,-0.370369 0.778666,-0.108136 1.994256,-0.175561 3.138604,-0.194403 1.144349,-0.01887 2.219137,0.01088 2.716538,0.09801 0.294663,0.05162 0.715832,0.07871 1.332764,0.08118 0.616932,0.0025 1.430983,-0.01988 2.510701,-0.06596 1.252026,-0.05343 2.061677,-0.077 2.688523,-0.06751 0.626847,0.0095 1.072498,0.05247 1.597765,0.132939 0.477308,0.07312 0.939184,0.116379 1.504213,0.134137 0.565029,0.01776 1.23401,0.0097 2.123963,-0.0204 1.2986,-0.04395 2.425995,-0.0432 2.504262,0.0015 0.0783,0.04468 1.33957,0.05548 2.80187,0.02418 1.4623,-0.03133 3.87917,-0.05217 5.36875,-0.04684 1.93534,0.0069 3.44136,-0.01399 4.67354,-0.0691 1.23218,-0.05509 2.19309,-0.144406 3.04011,-0.275764 0.60578,-0.09395 1.01283,-0.145587 1.34914,-0.160353 0.3363,-0.01477 0.60274,0.0071 0.92871,0.06012 0.35076,0.05708 0.59699,0.07986 0.92844,0.0529 0.33146,-0.02696 0.74889,-0.103836 1.44132,-0.245788 0.74811,-0.153362 1.14951,-0.231545 1.44014,-0.249366 0.29063,-0.01785 0.47106,0.0248 0.77804,0.113476 0.29736,0.08591 0.46499,0.12832 0.59278,0.1246 0.1278,-0.0037 0.21596,-0.05339 0.35561,-0.152031 0.0967,-0.06838 0.25513,-0.123476 0.48289,-0.164747 0.22776,-0.04127 0.52557,-0.06886 0.90197,-0.08372 0.75279,-0.02969 1.82186,-0.0072 3.27536,0.06453 1.09459,0.05403 3.42184,0.07448 6.4047,0.06384 2.98288,-0.01065 6.62659,-0.05288 10.35019,-0.124094 2.28453,-0.04368 4.89167,-0.09179 5.79168,-0.107095 0.59404,-0.01013 1.14423,0.004 1.66036,0.04492 0.51614,0.04096 0.99939,0.108693 1.46017,0.205482 0.46078,0.09679 0.89972,0.222871 1.32769,0.380226 0.42799,0.157355 0.8457,0.346474 1.26345,0.569135 0.42353,0.225737 1.06997,0.546123 1.43544,0.711532 0.48394,0.21903 0.88578,0.446109 1.22997,0.720774 0.17209,0.137332 0.33019,0.286769 0.47653,0.452868 0.14635,0.166096 0.28146,0.349251 0.40819,0.554015 0.25344,0.409529 0.47407,0.906764 0.68583,1.530391 0.21175,0.623627 0.41473,1.374839 0.63382,2.291795 0.0865,0.361947 0.16572,0.870893 0.23696,1.484535 0.0712,0.613641 0.13482,1.333321 0.18922,2.116519 0.10895,1.566393 0.18267,3.391339 0.21533,5.143098 0.0326,1.75179 0.024,3.43324 -0.0319,4.71327 -0.0279,0.64 -0.0677,1.18086 -0.12012,1.57973 -0.0524,0.39887 -0.1174,0.65671 -0.19573,0.73229 -0.0765,0.0739 -0.1342,0.12944 -0.17228,0.18959 -0.0382,0.0602 -0.0567,0.12474 -0.056,0.21757 0.001,0.18567 0.0814,0.48367 0.24087,1.07849 0.14111,0.52607 0.21896,0.85924 0.25274,1.19597 0.0338,0.33674 0.0237,0.67794 -0.0101,1.21963 -0.0253,0.4056 -0.0299,0.81771 -0.0133,1.23214 0.0162,0.41446 0.054,0.8319 0.11228,1.2469 0.0741,0.52825 0.15672,1.94922 0.23577,3.8197 0.0791,1.87051 0.15541,4.19371 0.21597,6.52577 0.0609,2.33204 0.10684,4.67698 0.12673,6.58989 0.0199,1.91288 0.0137,3.39744 -0.0306,4.01049 -0.0432,0.59755 -0.0808,2.67497 -0.0834,4.61475 -0.003,1.93976 -0.0466,4.03961 -0.0977,4.66488 -0.0511,0.62524 -0.0435,4.05666 0.0169,7.62219 0.0602,3.5655 0.0736,7.25174 0.029,8.18848 -0.0486,1.0214 -0.0171,2.5595 0.0787,3.84018 0.0913,1.21766 0.14066,3.38337 0.1148,5.03597 -0.0249,1.59418 0.0604,6.55384 0.18931,11.01752 0.11648,4.03159 0.18391,6.67969 0.21216,8.56163 0.0279,1.88196 0.017,3.0018 -0.0244,3.98031 -0.0144,0.33924 -0.003,0.72021 0.0338,1.13949 0.0366,0.41928 0.0988,0.87805 0.186,1.37307 0.0699,0.3971 0.12703,0.90706 0.17033,1.47186 0.0434,0.5648 0.0727,1.18531 0.0868,1.80364 0.0148,0.61834 0.0136,1.23565 -0.005,1.7934 -0.0178,0.55776 -0.0522,1.05707 -0.10432,1.44009 -0.056,0.41198 -0.0596,1.40316 -5.2e-4,3.31604 0.0588,1.9129 0.18134,4.75116 0.37694,8.85423 0.13455,2.82048 0.23416,4.9546 0.27866,6.6332 0.0445,1.67858 0.0337,2.90492 -0.0516,3.91247 -0.0426,0.50378 -0.10404,0.95351 -0.18664,1.3778 -0.0826,0.42432 -0.18639,0.82397 -0.31391,1.22766 -0.25507,0.80737 -0.6056,1.63367 -1.07029,2.7117 -0.1087,0.25221 -0.23167,0.4706 -0.38876,0.66872 -0.15707,0.19813 -0.34836,0.37601 -0.5931,0.54762 -0.24473,0.1716 -0.54333,0.33711 -0.91501,0.50974 -0.37167,0.1726 -0.81718,0.35289 -1.35504,0.55405 -0.30773,0.11508 -1.00735,0.44549 -1.55406,0.73371 -0.27743,0.14625 -0.50866,0.25881 -0.71718,0.34098 -0.20852,0.0822 -0.39463,0.13362 -0.58188,0.15786 -0.18726,0.0243 -0.37607,0.0212 -0.58969,-0.006 -0.21364,-0.0275 -0.45247,-0.0794 -0.74011,-0.15255 -0.24265,-0.0617 -0.42805,-0.12031 -0.56921,-0.23453 -0.14117,-0.1142 -0.23851,-0.28417 -0.30574,-0.5669 -0.0672,-0.28273 -0.10447,-0.67921 -0.12518,-1.24643 -0.0208,-0.56725 -0.0258,-1.30645 -0.0277,-2.27419 -0.003,-1.52391 -0.0561,-4.61292 -0.11678,-6.86222 -0.0605,-2.2493 -0.16791,-6.81762 -0.23953,-10.1476 -0.0715,-3.32998 -0.18884,-6.36037 -0.25989,-6.73157 -0.071,-0.3712 -0.0944,-0.87474 -0.0524,-1.11867 0.0524,-0.30489 0.09,-0.95542 0.11247,-1.91764 0.0224,-0.96222 0.0298,-2.238 0.0227,-3.79253 -0.0144,-3.1091 -0.0879,-7.34197 -0.21897,-12.43018 -0.0795,-3.07994 -0.14173,-7.27178 -0.13853,-9.31139 0.003,-2.03961 -0.0395,-4.90242 -0.0933,-6.35939 -0.0538,-1.45697 -0.0892,-3.35913 -0.0778,-4.22545 0.0116,-0.86634 -0.0685,-3.96888 -0.1786,-6.8916 -0.0692,-1.83772 -0.10902,-3.20911 -0.12123,-4.16653 -0.0117,-0.95744 0.004,-1.50261 0.048,-1.68943 0.0437,-0.18582 0.0667,-0.94417 0.0733,-2.00416 0.007,-1.06002 -0.003,-2.42354 -0.0252,-3.81879 -0.0437,-2.7905 -0.13695,-5.71481 -0.24432,-6.61267 -0.0534,-0.44711 -0.0866,-2.19473 -0.0931,-3.96689 -0.007,-1.77213 0.0123,-3.5713 0.0619,-4.12173 0.0298,-0.33021 0.0341,-0.59822 0.005,-0.88284 -0.0287,-0.28463 -0.0906,-0.58642 -0.19359,-0.98293 -0.11213,-0.43169 -0.17288,-0.70416 -0.19026,-0.91738 -0.0174,-0.2132 0.009,-0.36745 0.0698,-0.56397 0.10883,-0.35094 0.20075,-0.84515 0.2685,-1.41739 0.0678,-0.57227 0.1112,-1.22356 0.12275,-1.88957 0.0114,-0.65849 0.0791,-1.84829 0.15022,-2.64286 0.0413,-0.46093 0.0621,-0.8492 0.0629,-1.14546 8.3e-4,-0.29625 -0.0188,-0.50142 -0.058,-0.59572 -0.096,-0.22828 -0.15463,-0.94406 -0.16872,-1.75217 -0.0141,-0.80812 0.0162,-1.70968 0.0978,-2.30855 0.11574,-0.84933 0.20428,-1.82134 0.25489,-2.72564 0.0505,-0.9043 0.0636,-1.74222 0.028,-2.32371 -0.12666,-2.0652 -0.21927,-3.59983 -0.30846,-4.77582 -0.0892,-1.17601 -0.17535,-1.99589 -0.2905,-2.63316 -0.11511,-0.63728 -0.2595,-1.09325 -0.46391,-1.54228 -0.20442,-0.44903 -0.46957,-0.892 -0.82656,-1.50324 -0.35685,-0.61102 -0.75549,-1.40574 -0.88586,-1.76489 -0.13039,-0.35912 -0.28545,-0.65138 -0.34429,-0.64932 -0.0589,0.002 -0.30663,-0.15945 -0.5503,-0.358758 -0.24365,-0.199318 -0.52787,-0.359552 -0.63189,-0.355926 -0.10399,0.0038 -0.50198,-0.230031 -0.88372,-0.519303 -0.26548,-0.201189 -0.61192,-0.419401 -0.99475,-0.633333 -0.38281,-0.213937 -0.80264,-0.424128 -1.21423,-0.61067 -0.41157,-0.186542 -0.81562,-0.349558 -1.16737,-0.468557 -0.35176,-0.119001 -0.65184,-0.194098 -0.85519,-0.205408 -0.36858,-0.0205 -0.77822,-0.12535 -0.90992,-0.232969 -0.0963,-0.07869 -0.22499,-0.124622 -0.47041,-0.144384 -0.24541,-0.01976 -0.60828,-0.01353 -1.17232,0.01196 -0.77141,0.03485 -1.88251,0.08379 -2.46835,0.108946 -0.58585,0.02516 -1.13284,-0.0058 -1.21497,-0.06926 -0.0843,-0.06515 -1.18513,-0.07669 -2.52478,-0.02611 -1.30589,0.04921 -2.48859,0.09251 -2.62703,0.09584 -2.19444,0.05346 -3.83526,0.127324 -4.99064,0.22805 -0.57769,0.05037 -1.0346,0.107742 -1.37924,0.172264 -0.34466,0.06452 -0.57762,0.136302 -0.70705,0.216527 -0.23566,0.146071 -0.37408,0.223692 -0.4703,0.243938 -0.0963,0.02024 -0.15039,-0.01656 -0.21752,-0.09892 -0.0703,-0.08625 -0.12483,-0.161587 -0.19147,-0.226516 -0.0667,-0.06493 -0.14585,-0.119859 -0.26583,-0.164456 -0.23998,-0.08919 -0.64396,-0.138625 -1.43919,-0.152438 -1.59048,-0.02762 -4.75109,0.08753 -11.29808,0.313879 -5.62771,0.194627 -9.42214,0.301862 -11.865933,0.325944 -1.221895,0.01203 -2.108004,0.0032 -2.717625,-0.02558 -0.609621,-0.02878 -0.943735,-0.07751 -1.063557,-0.145906 -0.05687,-0.03249 -2.63733,0.04434 -5.731551,0.170686 -6.448543,0.263301 -5.752679,0.242724 -12.678046,0.376536 -2.907556,0.05615 -5.599308,0.124851 -5.979353,0.152438 -0.548551,0.03984 -0.912694,0.05911 -1.398311,0.05553 -0.485616,-0.0035 -1.09353,-0.02987 -2.130102,-0.08126 -1.087565,-0.05391 -3.129351,-0.03935 -4.597757,0.03284 -1.638669,0.08057 -3.047379,0.134094 -4.245833,0.160154 -1.198454,0.02602 -2.189272,0.02446 -2.992018,-0.0057 -0.802747,-0.03011 -1.41921,-0.08871 -1.870758,-0.176665 -0.225773,-0.04398 -0.410772,-0.09502 -0.557093,-0.153767 -0.146319,-0.05875 -0.254076,-0.125317 -0.326505,-0.19905 -0.210676,-0.214471 -0.316318,-0.32198 -0.382949,-0.334622 -0.06663,-0.01264 -0.09474,0.06939 -0.150597,0.233291 -0.0372,0.109184 -0.07316,0.193067 -0.137852,0.257666 -0.06468,0.0646 -0.158058,0.11022 -0.3099,0.143195 -0.303688,0.06595 -0.841938,0.08161 -1.852349,0.09881 -0.612999,0.01044 -1.087015,-8.5e-4 -1.44554,-0.06793 -0.179262,-0.03355 -0.330254,-0.08094 -0.454974,-0.146475 -0.124718,-0.06553 -0.223288,-0.14938 -0.299514,-0.255319 -0.07622,-0.105938 -0.129765,-0.234587 -0.16355,-0.389338 -0.03379,-0.154748 -0.0481,-0.336097 -0.0455,-0.548066 0.0052,-0.423938 0.07732,-0.971009 0.1918,-1.674278 0.07525,-0.462288 0.123438,-0.857867 0.144214,-1.186045 0.02078,-0.328178 0.014,-0.589867 -0.01959,-0.784243 -0.0377,-0.217586 -0.02359,-0.526444 0.02875,-0.879523 0.05233,-0.353075 0.142953,-0.750676 0.258314,-1.146594 0.11536,-0.395919 0.255659,-0.790679 0.407058,-1.136794 0.151402,-0.346115 0.314093,-0.644371 0.474539,-0.848034 0.174091,-0.220988 0.404509,-0.578666 0.511569,-0.794518 0.09911,-0.199822 0.266731,-0.382254 0.488331,-0.541888 0.221599,-0.159635 0.497655,-0.297027 0.812619,-0.406363 0.314965,-0.109339 0.669333,-0.190901 1.048536,-0.239827 0.379203,-0.04893 0.783794,-0.06494 1.198107,-0.04344 0.496449,0.02587 1.773973,-0.04467 2.837954,-0.156498 0.81698,-0.08586 1.3546,-0.130474 1.832384,-0.137413 z M 164.05481,97.632058 c 0.003,6.86e-4 0.004,0.0015 0.007,0.0024 l 0.003,0.05678 c -0.002,-0.02112 -0.008,-0.0382 -0.01,-0.0591 z m 0.0703,1.554986 c 0.001,0.02158 0.002,0.04188 0.003,0.06095 -0.0116,-0.011 -0.0314,-0.01285 -0.032,-0.02994 -5.8e-4,-0.01659 0.0188,-0.01933 0.029,-0.03101 z m -118.96131,4.754036 -4.99e-4,5.3e-4 c 0.581373,0.0114 1.132641,0.0583 1.631268,0.14469 0.498628,0.0864 0.945404,0.2122 1.318434,0.3816 0.185829,0.0844 0.379118,0.14617 0.594878,0.18449 0.21576,0.0383 0.454635,0.0535 0.732198,0.0448 0.555122,-0.0177 1.266532,-0.13038 2.2601,-0.34211 0.353969,-0.0757 1.145603,-0.10521 1.82444,-0.0688 1.101242,0.0595 2.165689,0.0576 3.06377,0.002 0.449038,-0.0277 0.856931,-0.0693 1.207228,-0.12281 0.350299,-0.0535 0.643788,-0.11934 0.863378,-0.19664 0.251473,-0.0885 0.553791,-0.15987 0.889691,-0.21309 0.335898,-0.0533 0.706225,-0.0884 1.093062,-0.10489 0.386832,-0.0168 0.790939,-0.0144 1.195227,0.007 0.40429,0.0219 0.809526,0.0633 1.197773,0.12467 0.343826,0.0543 0.774645,0.0877 1.251279,0.10213 0.476634,0.0145 0.999664,0.0102 1.528065,-0.0121 0.528393,-0.0224 1.063002,-0.062 1.562145,-0.11708 0.49914,-0.0552 0.963709,-0.12611 1.352545,-0.21114 0.576167,-0.12634 1.141109,-0.19617 1.254674,-0.15602 0.113565,0.0401 0.491697,0.11507 0.839852,0.16613 0.348153,0.051 0.947877,0.17746 1.332493,0.28078 0.281086,0.0755 0.660296,0.12 1.386019,0.14033 0.725722,0.0202 1.799484,0.0165 3.469453,-0.004 2.285056,-0.0285 5.178091,-0.0206 6.426377,0.0181 1.248282,0.0385 2.589272,0.05 2.978758,0.0257 0.389486,-0.0243 1.178142,0.0585 1.752082,0.1839 0.494389,0.10802 0.799762,0.16253 1.377535,0.16391 0.577771,0.001 1.429653,-0.0503 3.015936,-0.15345 1.992095,-0.12939 2.85817,-0.19466 3.487695,-0.19263 0.629526,0.002 1.024187,0.0712 2.074626,0.21039 0.94772,0.12553 2.190058,0.2101 3.381948,0.24386 1.1919,0.0337 2.33536,0.0167 3.08588,-0.0609 0.37624,-0.0389 0.66012,-0.052 0.91604,-0.036 0.25593,0.0163 0.48456,0.0626 0.74956,0.14238 0.34403,0.10369 0.51631,0.15573 0.76701,0.12369 0.2507,-0.0321 0.58034,-0.14805 1.2391,-0.37988 0.64659,-0.22756 0.98446,-0.3437 1.37227,-0.40161 0.3878,-0.0579 0.82669,-0.0578 1.67501,-0.0534 3.02188,0.0153 6.90259,-0.0228 10.92266,-0.10734 2.14593,-0.0455 5.23701,-0.0383 6.8668,0.0146 1.62982,0.053 3.87139,0.0824 4.97919,0.0655 1.48024,-0.0228 2.81199,-0.0137 4.00503,0.037 1.19303,0.0506 2.24972,0.14278 3.18077,0.28709 0.4655,0.0722 0.90053,0.15746 1.30527,0.2569 0.40475,0.0994 0.78019,0.21347 1.12731,0.34275 0.34714,0.12927 0.66622,0.27433 0.9589,0.43602 0.29268,0.1617 0.5592,0.34002 0.80057,0.5367 0.24138,0.19668 0.45812,0.41211 0.65134,0.64636 0.19321,0.23424 0.36342,0.48803 0.51164,0.7624 0.14822,0.27437 0.27466,0.56988 0.38104,0.88694 0.10633,0.31707 0.1928,0.656 0.26049,1.01834 0.0677,0.36233 0.11689,0.74857 0.14904,1.15873 0.0322,0.41017 0.0476,0.84546 0.0476,1.30603 -4.2e-4,0.92116 -0.0625,1.94655 -0.17357,3.08476 -0.0742,0.76069 -0.10154,1.49636 -0.0603,1.634 0.0411,0.13767 0.0266,0.50524 -0.0315,0.81653 -0.0585,0.31131 -0.14512,1.11112 -0.19288,1.77671 -0.0477,0.66558 -0.1257,1.63744 -0.17282,2.15864 -0.0471,0.5212 -0.12784,2.08339 -0.17922,3.47068 -0.0514,1.38728 -0.14855,2.83731 -0.21589,3.22067 -0.0421,0.23995 -0.0604,0.5317 -0.0551,0.89286 0.006,0.36116 0.0346,0.79239 0.0877,1.31083 0.0854,0.82831 0.19888,2.38426 0.25202,3.45614 0.0542,1.09362 0.10647,1.91661 0.15919,2.48678 0.0528,0.57015 0.10592,0.88845 0.16071,0.97424 0.0504,0.0788 0.0564,0.84579 0.0283,1.90963 -0.028,1.06382 -0.0897,2.42654 -0.17552,3.69496 -0.078,1.15309 -0.0878,2.8956 -0.0471,4.51626 0.0202,0.81035 0.0536,1.59136 0.0968,2.25264 0.0435,0.66129 0.0972,1.20404 0.15922,1.53896 0.0827,0.4474 0.13852,1.32469 0.12393,1.94868 -0.0157,0.67048 -0.0235,1.01285 -0.005,1.48004 0.0194,0.46717 0.0643,1.06034 0.15447,2.23149 0.0939,1.22043 0.14852,2.16416 0.16586,2.94467 0.0176,0.7805 -0.002,1.39936 -0.0568,1.97205 -0.0498,0.525 -0.0321,3.53041 0.0397,6.67618 0.0839,3.67925 0.11764,5.31248 0.16784,6.56724 0.0498,1.25479 0.11688,2.13461 0.26682,4.30933 0.12428,1.80226 0.18889,3.02771 0.19642,4.14323 0.007,1.11552 -0.0418,2.12356 -0.14489,3.49121 -0.0398,0.52843 -0.113,1.03262 -0.16257,1.11947 -0.0469,0.0821 -0.0878,0.48145 -0.1283,1.31578 -0.0405,0.83434 -0.0809,2.10501 -0.12652,3.92853 -0.0294,1.1787 -0.0967,2.66489 -0.14946,3.30161 -0.036,0.43453 -0.0496,0.75794 -0.0383,1.02308 0.0116,0.26513 0.0479,0.4728 0.1109,0.67557 0.0529,0.16956 0.11177,0.66185 0.17239,1.41233 0.0606,0.75049 0.12294,1.76049 0.18106,2.9643 0.10183,2.10932 0.22556,4.40192 0.27451,5.09296 0.049,0.69102 0.13584,2.3048 0.19291,3.58438 0.057,1.27958 0.28137,4.05071 0.49834,6.156 0.17614,1.70922 0.2755,2.77562 0.33241,3.86286 0.0569,1.08726 0.0718,2.19787 0.0788,3.99738 0.009,2.21644 0.0556,4.79572 0.103,5.72924 0.0477,0.93356 0.0561,2.27251 0.0185,2.97412 -0.0229,0.42856 -0.0266,0.79931 -0.0116,1.11574 0.0155,0.31642 0.0488,0.57886 0.10202,0.79067 0.0716,0.28468 0.1044,0.45792 0.0876,0.62933 -0.0168,0.17141 -0.0831,0.34185 -0.20994,0.62163 -0.26374,0.582 -0.97749,2.57019 -1.39436,3.8849 -0.0705,0.22216 -0.25127,0.52634 -0.49577,0.86222 -0.24449,0.33589 -0.55319,0.70409 -0.87894,1.05399 -0.32574,0.34991 -0.66883,0.68222 -0.98301,0.94646 -0.31418,0.26425 -0.59968,0.46129 -0.8095,0.54017 -0.34187,0.12856 -0.99427,0.49784 -1.44916,0.82054 -0.80718,0.57266 -1.55911,1.03257 -2.24779,1.37586 -0.34433,0.17163 -0.67338,0.31433 -0.98562,0.42739 -0.31223,0.11308 -0.60831,0.19704 -0.88682,0.25073 -0.27524,0.053 -0.64161,0.12236 -0.8137,0.15354 -0.1721,0.0312 -0.45616,0.013 -0.63125,-0.0416 -0.17506,-0.0541 -1.17022,-0.12927 -2.21065,-0.16687 -1.04043,-0.0376 -2.4619,-0.13153 -3.15735,-0.20878 -0.70904,-0.0787 -2.70363,-0.11978 -4.53907,-0.0933 -1.80021,0.0264 -4.29581,0.0248 -5.54368,-0.002 -1.2479,-0.0271 -2.6376,-0.0262 -3.08691,0.002 -0.63368,0.0396 -1.38973,0.0356 -2.05801,-0.001 -0.66827,-0.0366 -1.25005,-0.10582 -1.53429,-0.19565 -0.29034,-0.0917 -1.25784,-0.16962 -2.21675,-0.17855 -0.87914,-0.008 -2.53132,-0.0772 -4.00453,-0.15592 -1.47322,-0.0787 -2.76942,-0.16708 -2.93779,-0.2149 -0.10496,-0.0298 -0.95799,-0.094 -1.89489,-0.14221 -0.93689,-0.0483 -2.09209,-0.16162 -2.56629,-0.25218 -0.47419,-0.0905 -1.07119,-0.12397 -1.32579,-0.0742 -0.14444,0.0282 -0.31396,0.0335 -0.49217,0.0176 -0.17822,-0.0163 -0.365388,-0.0541 -0.544255,-0.1118 -0.297676,-0.0961 -0.963012,-0.14225 -1.968707,-0.13862 -1.005697,0.004 -2.353646,0.0572 -4.015207,0.1604 -0.829493,0.0515 -2.360527,0.0637 -3.400895,0.0278 -1.040372,-0.036 -3.394606,-0.0477 -5.229624,-0.0263 -1.835019,0.0214 -3.791356,0.0292 -4.345963,0.0173 -0.554607,-0.0118 -1.321044,-0.0247 -1.702187,-0.0285 -0.381144,-0.004 -0.773857,-0.0536 -0.87254,-0.11017 -0.08475,-0.0485 -0.278295,-0.0877 -0.554816,-0.11818 -0.276524,-0.0306 -0.636458,-0.0526 -1.054582,-0.0666 -0.836243,-0.0278 -1.90654,-0.0235 -3.008131,0.007 -1.101585,0.0304 -2.236679,0.0871 -3.202214,0.16455 -0.965534,0.0775 -1.763552,0.17548 -2.191629,0.28905 -0.161661,0.0428 -0.306406,0.0649 -0.432068,0.0653 -0.125669,1.9e-4 -0.232055,-0.0204 -0.317597,-0.0624 -0.09402,-0.0462 -0.280503,-0.0625 -0.60301,-0.0472 -0.322505,0.0156 -0.782067,0.0623 -1.421105,0.14318 -0.800452,0.10148 -1.569649,0.16127 -2.278247,0.17782 -0.708598,0.0164 -1.35794,-0.0101 -1.918051,-0.0799 -0.229969,-0.0287 -0.678359,0.006 -0.996301,0.0772 -0.226557,0.0507 -0.387947,0.0724 -0.523144,0.0632 -0.135194,-0.009 -0.244799,-0.0491 -0.366773,-0.12318 -0.131671,-0.0798 -0.229249,-0.12067 -0.34868,-0.1233 -0.119441,-0.003 -0.260617,0.0331 -0.47928,0.10518 -0.425578,0.14031 -0.720519,0.22278 -0.919825,0.25343 -0.199304,0.0307 -0.303697,0.009 -0.349008,-0.0586 -0.03061,-0.0459 -0.129688,-0.0756 -0.280333,-0.091 -0.150644,-0.0154 -0.352783,-0.0161 -0.590082,-0.003 -0.474598,0.0266 -1.089997,0.10824 -1.710973,0.23815 -0.603239,0.1262 -1.302474,0.1938 -2.130511,0.20315 -0.828039,0.009 -1.786207,-0.0394 -2.906953,-0.14617 -0.485793,-0.0462 -0.899221,-0.0703 -1.240402,-0.072 -0.341186,-0.002 -0.610706,0.0197 -0.810169,0.0619 -0.334959,0.0719 -0.628358,0.0811 -0.66835,0.0217 -0.04989,-0.0747 -0.244523,-0.10231 -0.463836,-0.0893 -0.219323,0.0128 -0.463536,0.0667 -0.612558,0.15325 -0.08845,0.0514 -0.254455,0.0757 -0.462142,0.0777 -0.207669,0.003 -0.457493,-0.0188 -0.714498,-0.0562 -0.257005,-0.0373 -0.521471,-0.0916 -0.757872,-0.15813 -0.236403,-0.0665 -0.445441,-0.14519 -0.591321,-0.23066 -0.253651,-0.14861 -0.82657,-0.32201 -1.273058,-0.38523 -0.44649,-0.0632 -0.983311,-0.14189 -1.192273,-0.1745 -0.208963,-0.0327 -0.554259,-0.175 -0.767025,-0.31656 -0.212766,-0.14158 -0.540841,-0.32888 -0.728618,-0.41614 -0.143054,-0.0664 -0.309011,-0.1859 -0.479171,-0.33592 -0.170158,-0.15004 -0.344727,-0.33116 -0.504752,-0.52065 -0.160026,-0.1895 -0.306015,-0.38792 -0.418671,-0.57278 -0.112656,-0.18486 -0.192356,-0.35618 -0.220404,-0.49232 -0.05529,-0.26839 -0.209021,-0.71151 -0.342022,-0.98395 -0.131037,-0.26843 -0.328036,-0.9125 -0.51238,-1.62746 -0.184343,-0.71496 -0.356312,-1.50195 -0.437376,-2.05615 -0.05545,-0.37906 -0.221965,-1.11078 -0.369587,-1.62519 -0.147621,-0.51439 -0.343358,-1.4432 -0.435048,-2.06348 -0.09169,-0.62026 -0.307622,-1.66214 -0.479482,-2.31424 -0.130112,-0.49369 -0.238466,-1.25131 -0.321253,-2.1512 -0.08279,-0.89991 -0.140264,-1.94384 -0.169183,-3.00868 -0.02888,-1.06483 -0.02898,-2.15286 0.0025,-3.14134 0.03151,-0.98847 0.0948,-1.8789 0.193287,-2.54974 0.08901,-0.60626 0.156156,-1.45941 0.149443,-1.89515 -0.01285,-0.83338 -0.127214,-2.73567 -0.255106,-4.49175 -0.127887,-1.75608 -0.269567,-3.36869 -0.335947,-3.62333 -0.04941,-0.18955 -0.07378,-0.42897 -0.07376,-0.74978 2e-6,-0.32078 0.0246,-0.72389 0.07406,-1.24048 0.07662,-0.80045 0.147785,-2.02221 0.15806,-2.71448 0.01028,-0.69228 0.128007,-2.06929 0.261342,-3.05887 0.133337,-0.98957 0.264616,-2.25451 0.291762,-2.80966 0.02715,-0.55513 0.134906,-1.52298 0.239302,-2.15009 0.104396,-0.62713 0.226121,-2.0211 0.270374,-3.09641 0.04426,-1.0753 0.107875,-2.00393 0.141515,-2.06291 0.03364,-0.059 0.04941,-1.93132 0.03522,-4.15907 -0.01705,-2.67617 -0.01369,-4.80803 0.01121,-6.49026 0.02491,-1.68223 0.07142,-2.9181 0.1412,-3.80442 0.06671,-0.84786 0.06606,-2.00238 -0.0022,-2.77198 -0.0643,-0.72514 -0.08286,-1.55106 -0.04133,-1.83471 0.04342,-0.2965 0.0603,-0.78768 0.0543,-1.42129 -0.006,-0.63359 -0.03516,-1.4108 -0.0848,-2.27942 -0.09916,-1.73726 -0.279593,-3.84424 -0.518152,-5.90919 -0.0953,-0.82491 -0.190007,-3.4459 -0.242916,-5.94931 -0.0529,-2.50341 -0.06448,-4.89277 0.0057,-5.25579 0.03371,-0.17437 0.08216,-0.9705 0.107345,-1.76802 0.122323,-3.87531 0.20042,-5.5623 0.295564,-6.37298 0.06526,-0.556 0.115774,-1.7561 0.143609,-3.21711 0.02784,-1.46102 0.03323,-3.18519 0.0091,-4.78847 -0.02027,-1.35015 -0.03821,-3.59007 -0.03982,-4.97551 -0.003,-2.57971 -0.06875,-5.32513 -0.336607,-14.03677 -0.06449,-2.09593 -0.106427,-3.76002 -0.118048,-5.0979 -0.01162,-1.33788 0.0071,-2.35181 0.06378,-3.14865 0.05663,-0.79684 0.151318,-1.37817 0.29163,-1.85098 0.140312,-0.47283 0.326097,-0.83857 0.565511,-1.20438 0.177881,-0.27182 0.454154,-0.53185 0.80642,-0.77638 0.352265,-0.24454 0.781422,-0.47399 1.265218,-0.68329 0.483794,-0.20932 1.023151,-0.39893 1.595623,-0.56504 0.572471,-0.1661 1.179275,-0.30875 1.797568,-0.42369 0.618291,-0.11495 1.249308,-0.2024 1.870567,-0.25821 0.621256,-0.0558 1.23376,-0.0801 1.81511,-0.0694 z m 118.8065,-2.30181 c -0.002,0.0109 -0.003,0.0216 -0.006,0.0286 0.006,-0.007 0.0124,-0.013 0.0185,-0.0197 -0.007,0.007 -0.0104,0.0217 -0.016,0.0321 0.009,-0.0117 0.0173,4e-4 0.0254,-0.009 0.003,-0.004 0.005,-0.0138 0.007,-0.024 -0.002,0.009 -0.003,0.0177 -0.006,0.0224 l 5.2e-4,-2e-5 c 0.008,-0.008 0.0155,-0.006 0.0229,-0.0111 -9.7e-4,10e-4 -0.002,0.007 -0.004,0.008 -0.005,0.004 -0.009,0.0104 -0.0123,0.018 0.004,-0.006 0.007,-0.0124 0.0103,-0.0164 -0.007,0.004 -0.0141,0.001 -0.0208,0.0111 -0.0102,0.014 -0.0207,-0.007 -0.0309,0.0166 -8.9e-4,0.001 -0.002,0.003 -0.003,0.005 -2.5e-4,6e-4 -8.3e-4,10e-4 -9.3e-4,0.002 -3.8e-4,6.1e-4 -6.4e-4,0.001 -9.3e-4,0.002 9.3e-4,-0.002 7.9e-4,-0.006 0.002,-0.008 0.003,-0.005 0.003,-0.019 0.006,-0.024 0.005,-0.007 0.007,-0.0188 0.007,-0.0317 z m 0.0971,-10e-4 c -0.002,0.002 -0.004,0.003 -0.006,0.003 l 5.3e-4,5e-4 c 0.0105,0.004 0.0212,-0.004 0.0309,0.008 0.001,0.002 0.002,9.3e-4 0.004,8.6e-4 -9e-4,2.2e-4 -0.002,6.3e-4 -0.003,10e-5 l 1e-5,5.2e-4 0.003,0.006 c 0.008,0.0211 0.011,0.06 0.019,0.0852 -0.015,-0.0483 -0.0317,-0.0874 -0.0563,-0.10248 0.002,9.3e-4 0.005,-6.4e-4 0.007,-0.003 z m 0.0505,0.0681 c 4.2e-4,0.009 9.7e-4,0.0176 0.002,0.0243 0.003,0.0108 0.005,0.024 0.01,0.0363 0.003,0.0169 0.0149,0.0137 0.0177,0.0325 10e-4,0.007 -0.003,0.0169 -0.002,0.0243 0.001,0.0105 0.006,0.0125 0.006,0.0236 5.1e-4,0.01 6.1e-4,0.0172 7.4e-4,0.0212 -0.001,-0.0147 -0.006,-0.0198 -0.009,-0.0323 -2e-5,-8e-4 -3e-5,-0.002 -1.2e-4,-0.003 -0.002,-0.0221 -0.01,-0.0344 -0.0127,-0.0533 -10e-4,-0.007 -0.003,-0.0101 -0.005,-0.0163 -5.6e-4,-0.002 -0.002,-0.003 -0.003,-0.004 0.002,0.01 0.001,0.0216 0.005,0.0318 0.003,0.022 0.0127,0.0332 0.0154,0.0589 0,8.4e-4 3e-5,0.002 1.2e-4,0.003 6e-5,8.9e-4 -1e-4,0.001 6e-5,0.002 4.1e-4,0.0103 -0.003,0.0216 -0.001,0.032 0.001,0.0204 0.007,0.0307 0.008,0.051 1e-4,-0.001 7.5e-4,-0.003 8.6e-4,-0.004 -3.2e-4,0.003 -8.1e-4,0.005 -7.2e-4,0.008 3.7e-4,0.008 0.003,0.0103 0.003,0.0184 9e-5,-0.004 0.002,-0.007 0.002,-0.0109 l 4.4e-4,-0.032 7.6e-4,0.0367 7e-5,0.002 2e-5,5.1e-4 2e-5,5.2e-4 c -3e-5,0.007 -2.1e-4,0.0124 -3e-4,0.0202 2.7e-4,0.0196 0.006,0.0262 0.008,0.0448 2.2e-4,-0.003 3.4e-4,-0.006 0.002,-0.009 -4.5e-4,0.004 -2.7e-4,0.008 -0.002,0.0129 -3.5e-4,0.007 -0.002,0.0131 -0.003,0.0204 5e-5,-0.003 -5.9e-4,-0.004 -7.4e-4,-0.006 -2.9e-4,0.002 -7e-4,0.004 -7.8e-4,0.006 0.002,-0.0152 -0.002,-0.0236 -0.005,-0.0355 -0.002,0.023 -0.008,0.0468 -0.0131,0.0703 7.4e-4,-0.004 7.2e-4,-0.008 0.002,-0.0124 -0.005,0.0232 -0.007,0.046 -0.0131,0.0692 0.002,-0.008 0.004,-0.0164 0.006,-0.0245 -0.004,0.0164 -0.006,0.0327 -0.01,0.049 l 2e-5,5e-4 c -1.6e-4,7.1e-4 -4.2e-4,0.001 -4.6e-4,0.002 -6e-5,4.4e-4 1.1e-4,0.001 8e-5,0.002 -1.8e-4,0.002 -3.6e-4,0.003 -3.5e-4,0.005 1e-5,-0.001 -1.8e-4,-0.002 -1.4e-4,-0.004 -6.3e-4,0.003 -0.002,0.007 -0.003,0.0104 -8.6e-4,0.004 -7.3e-4,0.008 -0.003,0.0131 -8.6e-4,0.003 -7.5e-4,0.006 -0.002,0.01 -2.5e-4,5.9e-4 -1.9e-4,0.001 -4.4e-4,0.002 l 2e-5,5.2e-4 c -2.8e-4,0.001 -1.2e-4,0.002 -4.2e-4,0.003 -0.002,0.007 -3.4e-4,0.0138 -0.003,0.0212 -2.7e-4,9.8e-4 -7.1e-4,6.5e-4 -9.2e-4,0.002 -6.6e-4,0.002 -1.9e-4,0.004 -8e-4,0.006 -8.6e-4,0.004 -0.002,0.003 -0.004,0.007 -8.7e-4,0.003 -0.002,0.005 -0.002,0.008 1e-4,-9.1e-4 -2.6e-4,-0.002 -1.1e-4,-0.003 -9.2e-4,0.002 -0.003,0.002 -0.004,0.005 l 2e-5,5.2e-4 c -0.004,0.0131 -0.008,0.016 -0.0115,0.0257 0.002,-0.005 0.005,-0.006 0.007,-0.008 -0.003,0.003 -0.006,0.004 -0.009,0.0132 -8.2e-4,0.003 -0.002,0.003 -0.003,0.006 -2.7e-4,5.2e-4 -7.4e-4,0.001 -9.2e-4,0.002 -0.004,0.005 -0.007,0.006 -0.01,0.0149 -2.7e-4,7.1e-4 -7.5e-4,10e-4 -9.3e-4,0.002 -9.3e-4,0.002 -0.003,0.002 -0.004,0.005 -5.4e-4,0.001 -9.4e-4,0.002 -0.002,0.003 -3.7e-4,7.8e-4 -6.3e-4,0.001 -9.3e-4,0.002 -3e-4,5.7e-4 -7.1e-4,10e-4 -9.3e-4,0.002 l -5e-4,5.4e-4 c -4.7e-4,7.6e-4 -9.3e-4,0.002 -0.002,0.003 -9.3e-4,0.002 -0.002,0.003 -0.004,0.004 0.008,-0.0132 0.0141,-0.0222 0.0213,-0.0427 2e-4,-5.6e-4 2.7e-4,-10e-4 4.5e-4,-0.002 l 4.9e-4,-5.3e-4 c 1.4e-4,-4.1e-4 3.4e-4,-7.1e-4 4.8e-4,-0.001 l -2e-5,-5.2e-4 -1e-5,-5.2e-4 c 4.9e-4,-10e-4 9.3e-4,-0.002 0.002,-0.004 l 5.2e-4,-2e-5 c 0.006,-0.0105 0.0112,-0.0125 0.0166,-0.0301 0.002,-0.006 0.002,-0.0109 0.003,-0.0165 -0.005,0.0146 -0.01,0.0238 -0.0138,0.0336 0.005,-0.0106 0.01,-0.0201 0.0143,-0.0363 0.004,-0.0125 0.006,-0.0242 0.006,-0.0359 -0.002,0.0109 -0.004,0.0219 -0.005,0.0333 l 4.9e-4,-5.4e-4 c 9e-4,-0.003 0.002,-0.005 0.004,-0.009 0.008,-0.0268 0.006,-0.0496 0.0113,-0.0738 6.8e-4,-0.003 6.3e-4,-0.007 0.002,-0.0103 -2.8e-4,0.001 4.2e-4,0.003 1.4e-4,0.004 0.009,-0.05 0.0236,-0.10393 0.024,-0.15389 v -5.1e-4 c -6e-5,-0.003 -4.9e-4,-0.004 -7.3e-4,-0.006 -0.001,0.0316 -0.0102,0.0626 -0.0154,0.0921 3.5e-4,-0.002 4.6e-4,-0.005 7.5e-4,-0.007 4.4e-4,-0.003 7.6e-4,-0.007 0.002,-0.0103 8.2e-4,-0.005 0.002,-0.0103 0.003,-0.0156 0.005,-0.0205 0.009,-0.0407 0.0102,-0.0619 -1.3e-4,-0.007 -0.002,-0.0106 -0.002,-0.0165 0,-8.7e-4 -1.1e-4,-0.002 -1.1e-4,-0.003 -8.4e-4,-0.0239 -0.006,-0.0361 -0.008,-0.0587 -0.001,-0.0231 -0.005,-0.039 -0.008,-0.0603 -0.002,-0.0195 -0.005,-0.0361 -0.008,-0.0535 -0.002,-0.0127 -0.005,-0.0243 -0.01,-0.0354 0.001,0.002 0.003,0.004 0.004,0.006 -0.001,-0.005 -0.001,-0.0115 -0.002,-0.016 -4e-4,-9.9e-4 -8.4e-4,-0.003 -0.001,-0.004 -0.001,-0.007 -0.001,-0.0159 -0.002,-0.0232 10e-4,0.005 0.002,0.009 0.003,0.0137 -6.4e-4,-0.005 -7.8e-4,-0.01 -0.001,-0.015 z m -0.2151,0.2371 5.3e-4,4.9e-4 c -0.005,0.0324 -0.0153,0.0563 -0.0201,0.0902 6e-5,-0.005 -0.002,-0.009 -0.002,-0.0139 -8.6e-4,0.004 -0.003,0.007 -0.004,0.0116 7.2e-4,-0.008 0.002,-0.0168 0.003,-0.0254 3.9e-4,0.004 0.002,0.006 10e-4,0.0114 0.003,-0.016 0.007,-0.0266 0.009,-0.0407 -8.6e-4,0.004 -0.003,0.006 -0.005,0.008 0.003,-0.004 0.005,-0.007 0.007,-0.0147 3.2e-4,-0.002 6e-4,-0.003 8.3e-4,-0.005 7e-5,-3.7e-4 4e-4,-7.1e-4 4.8e-4,-10e-4 0.003,-0.008 0.008,-0.0102 0.01,-0.0211 z m -0.029,0.13338 5.2e-4,-2e-5 c -1.7e-4,0.001 -7e-4,0.002 -8.6e-4,0.004 -0.003,0.0358 -0.009,0.0723 -0.01,0.10788 2.9e-4,-0.0201 -9.3e-4,-0.0441 0.002,-0.0714 0.002,-0.0142 0.007,-0.0233 0.007,-0.0364 1.4e-4,-0.001 2.9e-4,-0.002 3.8e-4,-0.004 z m -0.0395,0.096 10e-4,9.7e-4 c -5e-5,0.007 -8e-5,0.0128 -3.3e-4,0.0191 -6.9e-4,0.009 -0.002,0.0182 -0.001,0.0284 8e-5,0.004 -7.2e-4,0.008 -6e-4,0.0114 l 2e-5,5.2e-4 c 7.1e-4,0.0218 7.9e-4,0.0339 0.002,0.0532 1.3e-4,0.002 3.7e-4,0.004 6.8e-4,0.005 -2.4e-4,-3.4e-4 -4.8e-4,-2.5e-4 -5.8e-4,-0.002 6.2e-4,0.0109 3.6e-4,0.0215 0.001,0.0305 -4.9e-4,-0.005 -0.002,-0.007 -0.003,-0.0123 -4e-4,-0.005 -0.002,-0.006 -0.002,-0.0114 l -2e-5,-5.1e-4 c -3.6e-4,-0.005 1.5e-4,-0.0103 -3e-5,-0.0155 -3.4e-4,-0.005 -0.002,-0.007 -0.003,-0.009 0.001,9.6e-4 0.003,0.004 0.003,0.006 1.8e-4,-0.003 7.8e-4,-0.006 7.2e-4,-0.008 l -2e-5,-5.1e-4 c -5.3e-4,-0.0102 -0.004,-0.0107 -0.004,-0.022 -3.5e-4,-0.0101 0.006,-0.0129 0.006,-0.0229 -2.6e-4,-0.009 -5.5e-4,-0.0137 -7.5e-4,-0.0217 7e-5,-6.6e-4 -7e-5,-10e-4 -8e-5,-0.002 4e-5,-0.0102 0.004,-0.017 0.004,-0.0271 z m 0.0271,0.25811 0.001,4.8e-4 c 2.8e-4,9e-4 5e-4,0.002 6.1e-4,0.003 6e-4,9.8e-4 0.001,0.003 0.002,0.004 2.9e-4,7.1e-4 3.3e-4,0.002 6.3e-4,0.003 l 5.2e-4,5e-4 c 0.006,0.0164 0.0142,0.029 0.0226,0.0395 -0.008,-0.01 -0.0153,-0.0212 -0.0214,-0.0365 0.002,0.009 0.002,0.0213 0.008,0.0293 8.6e-4,0.002 3.8e-4,0.004 0.001,0.006 1.7e-4,3.3e-4 3.9e-4,7.2e-4 5.5e-4,9.8e-4 4.2e-4,8e-4 7.4e-4,0.002 0.001,0.003 -2.4e-4,-4.5e-4 -8.4e-4,-2e-5 -0.001,-4.8e-4 l -2e-5,-5.2e-4 c -5.3e-4,-9.8e-4 -0.001,-9.7e-4 -0.002,-0.002 -3e-4,-5.9e-4 -7.9e-4,-4.2e-4 -0.001,-9.6e-4 -2e-4,-4e-4 1.5e-4,-0.001 -7e-5,-0.002 -1.6e-4,-3.2e-4 -4e-4,-7.4e-4 -5.6e-4,-9.8e-4 -2.5e-4,-5.2e-4 -3.1e-4,-10e-4 -5.8e-4,-0.002 -2.7e-4,-0.001 -9e-5,-0.003 -6.5e-4,-0.004 -0.001,-0.003 -0.001,-0.009 -0.002,-0.0119 -0.003,-0.008 -0.005,-0.0175 -0.007,-0.0256 6.9e-4,0.002 0.002,0.002 0.003,0.004 -3.6e-4,-0.001 -4.6e-4,-0.002 -6.2e-4,-0.003 -5.2e-4,-9.8e-4 -0.001,-0.002 -0.002,-0.003 z"
       style="opacity:1;fill:#cd2e70;stroke-width:0.264583"
       id="path68"
       inkscape:export-filename="copy.svg"
       inkscape:export-xdpi="96"
       inkscape:export-ydpi="96" /></g></svg>
