<?xml version="1.0" encoding="UTF-8" standalone="no"?>
<!-- Created with Inkscape (http://www.inkscape.org/) -->

<svg
   width="139.39967mm"
   height="150.17818mm"
   viewBox="0 0 139.39967 150.17818"
   version="1.1"
   id="svg1"
   xml:space="preserve"
   xmlns:inkscape="http://www.inkscape.org/namespaces/inkscape"
   xmlns:sodipodi="http://sodipodi.sourceforge.net/DTD/sodipodi-0.dtd"
   xmlns="http://www.w3.org/2000/svg"
   xmlns:svg="http://www.w3.org/2000/svg"><sodipodi:namedview
     id="namedview1"
     pagecolor="#ffffff"
     bordercolor="#000000"
     borderopacity="0.25"
     inkscape:showpageshadow="2"
     inkscape:pageopacity="0.0"
     inkscape:pagecheckerboard="0"
     inkscape:deskcolor="#d1d1d1"
     inkscape:document-units="mm"
     showguides="true" /><defs
     id="defs1" /><g
     inkscape:label="Layer 1"
     inkscape:groupmode="layer"
     id="layer1"
     transform="translate(-35.697541,-55.903929)"><path
       style="fill:#cd2e70;fill-opacity:1;stroke-width:0.523499"
       d="m 54.90197,205.91669 c -1.350825,-0.48812 -1.723884,-0.57206 -1.924642,-0.4331 -0.133005,0.092 -0.261485,0.0905 -0.365943,-0.004 -0.262652,-0.23931 -1.765488,-0.89017 -2.128825,-0.92194 -0.408333,-0.0357 -1.243353,-0.54252 -1.68806,-1.02454 -0.58675,-0.63596 -1.60815,-1.42388 -2.353983,-1.81586 -0.402102,-0.21133 -1.086758,-0.65971 -1.521459,-0.9964 -0.434701,-0.33669 -0.849799,-0.61737 -0.922441,-0.62372 -0.20318,-0.0178 -1.652566,-1.33668 -2.174529,-1.97877 -0.158182,-0.1946 -0.384674,-0.46468 -0.503314,-0.6002 -0.11864,-0.13551 -0.451642,-0.52264 -0.740003,-0.86028 -0.288362,-0.33764 -0.845413,-0.87681 -1.237888,-1.19816 -0.392475,-0.32135 -0.75558,-0.67626 -0.806898,-0.78867 -0.05132,-0.11242 -0.204779,-0.21417 -0.341025,-0.22608 -0.13626,-0.0114 -0.354438,-0.16426 -0.484869,-0.33851 -0.13043,-0.17427 -0.484484,-0.45033 -0.786788,-0.61348 -0.621528,-0.33544 -0.65623,-0.38648 -1.000535,-1.47142 -0.294757,-0.9288 -0.298438,-3.24428 -0.0061,-3.85012 0.09958,-0.20638 0.228561,-0.52918 0.286647,-0.71731 0.05809,-0.18814 0.35395,-0.5856 0.657477,-0.88323 0.303528,-0.29763 0.813773,-0.91852 1.133882,-1.37978 0.881735,-1.27052 1.96628,-2.7489 2.067387,-2.81816 0.206285,-0.14127 0.599935,-0.74897 0.809721,-1.25001 0.123548,-0.29508 0.310586,-0.62284 0.415634,-0.72835 0.105046,-0.10552 0.320035,-0.39917 0.477751,-0.65258 0.157716,-0.2534 0.54614,-0.75123 0.863165,-1.1063 0.317024,-0.35507 0.81148,-1.03171 1.09879,-1.50363 0.28731,-0.47192 0.642539,-0.97267 0.7894,-1.11277 0.146858,-0.14009 0.318125,-0.40977 0.380594,-0.5993 0.06247,-0.1895 0.384369,-0.59087 0.715337,-0.89189 0.330968,-0.30103 1.058447,-1.11019 1.616621,-1.79817 0.558172,-0.68797 1.291933,-1.53945 1.63058,-1.89219 0.338644,-0.35272 0.623654,-0.72445 0.633356,-0.82604 0.0097,-0.10161 0.350875,-0.49865 0.75816,-0.88231 0.407287,-0.38368 1.079341,-1.117 1.493458,-1.62962 0.710317,-0.87925 1.020035,-1.20343 1.957494,-2.04889 0.215725,-0.19456 0.510033,-0.53978 0.65402,-0.76714 0.143988,-0.22739 0.513047,-0.68802 0.820133,-1.02366 0.918546,-1.00393 1.458688,-1.67258 2.047572,-2.53471 0.495487,-0.7254 1.057638,-1.45441 2.231905,-2.8944 0.19435,-0.23833 0.530811,-0.61558 0.747694,-0.83834 0.216881,-0.22276 0.438226,-0.49958 0.491875,-0.61515 0.20327,-0.43793 2.230943,-2.78694 2.70798,-3.13714 0.548946,-0.403 1.661219,-1.73331 2.580075,-3.08582 0.326465,-0.48054 0.747848,-0.95654 0.936407,-1.05779 0.188558,-0.10126 0.519024,-0.46918 0.734367,-0.81761 0.215344,-0.34844 0.792636,-1.13784 1.282874,-1.75424 0.490235,-0.61639 0.981631,-1.32421 1.091987,-1.57292 0.110358,-0.2487 0.432987,-0.68199 0.716956,-0.96286 0.283965,-0.28084 1.046508,-1.37161 1.694536,-2.42393 1.515249,-2.4606 2.476083,-3.91796 2.903603,-4.40409 0.187337,-0.21302 0.385891,-0.48749 0.441235,-0.60992 0.108752,-0.2406 2.317116,-3.08845 3.083897,-3.97692 0.258215,-0.2992 0.473935,-0.59488 0.479377,-0.65709 0.0233,-0.2663 1.0417,-1.7204 1.463369,-2.08943 0.547919,-0.47951 0.514832,-0.7455 -0.135148,-1.0864 -0.697453,-0.3658 -1.653316,-1.18232 -2.09708,-1.79133 -0.21543,-0.29566 -0.645421,-0.74444 -0.955535,-0.99728 -0.310116,-0.25284 -0.850189,-0.7976 -1.20016,-1.21057 -0.349973,-0.41297 -1.063962,-1.13238 -1.586642,-1.59872 -0.52268,-0.46631 -1.375107,-1.27605 -1.894282,-1.79943 -0.519175,-0.52336 -1.023655,-0.95853 -1.121066,-0.96705 -0.09741,-0.009 -0.427226,-0.33459 -0.732921,-0.72456 -0.305695,-0.38999 -0.831914,-0.98347 -1.169372,-1.31889 -0.33746,-0.33541 -0.909765,-0.94859 -1.271789,-1.36261 -0.362026,-0.41403 -1.05936,-1.14722 -1.54963,-1.62932 -3.945368,-3.87954 -4.136996,-4.07529 -5.99242,-6.12146 -1.816725,-2.00352 -3.148298,-3.31177 -4.226591,-4.15257 -1.262285,-0.98428 -2.643631,-2.24294 -3.090542,-2.81605 -0.206271,-0.26452 -0.833645,-0.96019 -1.394167,-1.54595 -2.086041,-2.179972 -4.802217,-6.115845 -5.053742,-7.323105 -0.03647,-0.175043 -0.735275,-0.986456 -1.552905,-1.803139 -0.817626,-0.817106 -1.85074,-2.012403 -2.295804,-2.656638 -0.445065,-0.644234 -1.480123,-2.000538 -2.30013,-3.014007 -0.820008,-1.013469 -1.606765,-2.032827 -1.748351,-2.265239 -1.133954,-1.861377 -1.860092,-2.92632 -2.242621,-3.288999 -0.979298,-0.928481 -1.44743,-1.601879 -1.410113,-2.028416 0.03386,-0.387049 1.149488,-2.387838 1.569588,-2.814937 0.10389,-0.105618 0.50084,-0.696561 0.882119,-1.313206 0.381279,-0.616645 0.79143,-1.217756 0.911449,-1.3358 0.230581,-0.226788 0.418994,-0.493495 1.283566,-1.816962 0.294824,-0.451308 1.121253,-1.432707 1.836511,-2.180886 0.715259,-0.748179 1.383186,-1.500912 1.484281,-1.672739 0.101094,-0.171827 0.474601,-0.577119 0.830013,-0.90065 0.35541,-0.323531 0.654818,-0.650052 0.665351,-0.725601 0.01052,-0.07555 0.221711,-0.336263 0.469285,-0.579363 0.247573,-0.243099 0.455209,-0.50001 0.461413,-0.570912 0.0061,-0.07089 0.249154,-0.427412 0.539892,-0.792245 0.29074,-0.364834 0.648892,-0.892957 0.795897,-1.173606 0.147006,-0.28065 0.475112,-0.730202 0.729126,-0.999005 0.254015,-0.268802 0.475811,-0.648364 0.49288,-0.843471 0.01767,-0.201878 0.14436,-0.403205 0.294026,-0.467212 0.144645,-0.06186 0.403181,-0.369921 0.574525,-0.684578 0.716702,-1.316152 2.250299,-2.788066 3.409208,-3.272084 0.358511,-0.149732 0.797691,-0.383733 0.975959,-0.520003 0.457155,-0.349455 1.597926,-0.09503 2.228294,0.496965 0.248352,0.233236 0.586501,0.480264 0.751443,0.548952 0.164943,0.06869 0.293285,0.200441 0.285206,0.292781 -0.02146,0.245366 1.278838,1.731463 1.534573,1.753837 0.119736,0.01049 0.478134,0.292101 0.796439,0.625833 0.318304,0.333731 0.648886,0.612922 0.734626,0.620422 0.43502,0.03806 1.489402,0.901473 2.213844,1.812874 0.447777,0.563335 0.877501,1.061072 0.954943,1.106084 0.07745,0.04501 0.54942,0.638631 1.04884,1.319157 0.499419,0.680524 1.039855,1.311885 1.200967,1.403021 0.161114,0.09114 0.379857,0.340035 0.486096,0.55311 0.238101,0.477535 2.45222,3.158557 3.808721,4.611885 1.667092,1.786086 2.76107,2.980538 3.167196,3.458077 0.211699,0.248925 1.175885,1.303884 2.142634,2.34435 0.96675,1.040466 1.930122,2.125825 2.140828,2.411908 0.636934,0.864788 3.449561,4.159502 5.195111,6.085558 0.903272,0.996677 2.156051,2.42019 2.783953,3.163364 1.302101,1.541139 4.361256,5.071402 7.822038,9.026627 1.304246,1.490588 2.997252,3.437508 3.762238,4.326498 0.764983,0.889 1.459171,1.6219 1.542638,1.62868 0.15484,0.0127 0.844445,-0.75365 0.862336,-0.95815 0.0055,-0.0619 0.231971,-0.32723 0.503438,-0.58941 0.271476,-0.26218 0.838616,-0.84582 1.260316,-1.29697 0.42171,-0.45115 1.07803,-1.081879 1.45851,-1.401609 0.38048,-0.319731 0.74247,-0.726032 0.80441,-0.902889 0.0619,-0.17686 0.37544,-0.619239 0.69665,-0.983069 0.90126,-1.020829 2.24118,-2.954002 2.27174,-3.277525 0.007,-0.08554 0.11535,-0.225174 0.23839,-0.310347 0.12304,-0.08517 0.36159,-0.404999 0.53009,-0.71073 0.16851,-0.305728 0.52453,-0.807525 0.79114,-1.115101 0.26662,-0.307576 0.49032,-0.622711 0.49709,-0.7003 0.006,-0.0776 0.33942,-0.461429 0.73916,-0.85298 0.92688,-0.907855 1.50005,-1.638743 2.12658,-2.71173 0.13866,-0.237474 0.3452,-0.458452 0.45897,-0.491063 0.18599,-0.05331 1.09522,-1.102662 1.3903,-1.604562 0.0641,-0.109095 0.34443,-0.500999 0.62289,-0.870895 1.39997,-1.859726 4.41118,-6.051296 4.63728,-6.455034 0.0612,-0.109347 0.29231,-0.526919 0.5135,-0.927933 0.22118,-0.401014 0.52673,-0.843535 0.67899,-0.983382 0.15226,-0.139846 0.82646,-0.98827 1.4982,-1.885386 1.49309,-1.993955 2.70564,-3.368263 3.38187,-3.832993 0.49883,-0.34281 0.76353,-0.63233 2.17208,-2.375783 0.55138,-0.682488 0.75352,-0.843615 0.96402,-0.768431 0.22557,0.08057 0.27246,0.02534 0.30624,-0.360815 0.029,-0.331309 0.22853,-0.657145 0.72996,-1.191954 0.43322,-0.462063 0.70227,-0.87562 0.72287,-1.111103 0.0491,-0.561031 0.41939,-1.44889 0.7253,-1.739052 0.14863,-0.140982 0.3888,-0.464089 0.53372,-0.718016 0.14491,-0.253926 0.57559,-0.841063 0.95708,-1.304749 0.38148,-0.463686 0.82161,-1.065365 0.97807,-1.337063 0.15647,-0.271701 0.40111,-0.521919 0.54369,-0.556042 0.14256,-0.03413 0.2261,-0.10151 0.18563,-0.149749 -0.0406,-0.04825 0.0578,-0.205988 0.21832,-0.350559 0.16055,-0.144568 0.44933,-0.579586 0.64175,-0.966701 0.43507,-0.875355 0.80275,-1.350404 1.02981,-1.330539 0.0959,0.0084 0.2657,-0.07726 0.37753,-0.190308 0.41428,-0.418768 2.15019,0.223621 2.04921,0.758322 -0.0553,0.292727 0.63645,0.877382 0.88817,0.750681 0.0789,-0.03975 0.48727,0.0016 0.90735,0.09179 0.6052,0.12998 0.82959,0.253716 1.08063,0.595881 0.17425,0.23751 0.38265,0.437596 0.46309,0.444633 0.2406,0.02105 1.94179,1.159077 2.49495,1.66902 0.64298,0.592741 1.15236,0.928506 1.8404,1.213132 0.93499,0.386781 2.07284,1.318049 3.13217,2.563494 0.56446,0.663622 1.25026,1.351317 1.52402,1.528208 0.27375,0.176893 0.64845,0.491227 0.83268,0.698523 0.18422,0.207294 0.83954,0.817837 1.45623,1.35676 0.6167,0.538922 1.1164,1.035365 1.11046,1.103207 -0.006,0.06783 0.23833,0.315478 0.54278,0.550302 0.30446,0.234825 0.66586,0.573635 0.80311,0.752911 0.50466,0.659141 2.31347,2.436357 3.07279,3.019098 0.42996,0.329973 1.02298,0.795651 1.31781,1.034836 0.29484,0.239186 0.66744,0.489588 0.828,0.556447 0.16054,0.06685 0.45266,0.38997 0.64915,0.718024 0.50213,0.838357 0.4233,1.707247 -0.21638,2.381566 -0.25274,0.266569 -0.46954,0.599058 -0.48176,0.738868 -0.0276,0.316836 -0.51826,1.327191 -0.76946,1.584834 -0.10305,0.105693 -0.24831,0.343251 -0.32279,0.527911 -0.0745,0.184661 -0.58011,0.953798 -1.12357,1.709196 -0.54348,0.755397 -1.05313,1.618032 -1.13256,1.916968 -0.18553,0.698211 -0.60974,1.262896 -1.52692,2.032495 -0.66263,0.556018 -1.68014,2.004183 -1.71913,2.446775 -0.009,0.09552 -0.37284,0.505798 -0.80982,0.911737 -1.8595,1.727374 -2.3004,2.206391 -3.26785,3.55038 -0.56084,0.779114 -1.25187,1.654432 -1.53562,1.945154 -0.28375,0.290721 -0.71849,0.854981 -0.96607,1.253911 -0.24757,0.398931 -0.70669,0.970333 -1.02023,1.269786 -0.31356,0.29945 -0.69727,0.766418 -0.85268,1.037703 -0.67883,1.184899 -1.09874,1.831159 -1.34426,2.068819 -0.14489,0.14026 -0.35095,0.41933 -0.45788,0.62012 -0.10687,0.20081 -0.45593,0.60824 -0.77556,0.90543 -0.71316,0.66304 -1.90404,1.97551 -2.17972,2.40224 -0.11215,0.17352 -0.43364,0.50835 -0.71456,0.74406 -0.2809,0.23571 -0.66725,0.62104 -0.85851,0.85629 -0.57695,0.70957 -1.71062,1.93244 -2.06988,2.23276 -0.18565,0.15517 -0.34483,0.36564 -0.35377,0.46771 -0.009,0.10209 -0.15024,0.28711 -0.31405,0.41119 -0.16379,0.12409 -0.30492,0.30694 -0.31361,0.40633 -0.009,0.0995 -0.14152,0.23449 -0.29513,0.30019 -0.32844,0.14047 -1.02133,0.92904 -1.70571,1.94128 -0.26849,0.39709 -0.70099,1.01622 -0.96115,1.3758 -0.26015,0.3596 -0.58821,0.85532 -0.72902,1.10161 -0.14081,0.24629 -0.51665,0.68267 -0.83518,0.96972 -0.31854,0.28705 -0.89122,0.87002 -1.27262,1.29547 -0.3814,0.42546 -1.16508,1.20729 -1.74152,1.73741 -0.57643,0.53011 -1.3944,1.445 -1.81769,2.03308 -0.4233,0.58809 -0.92062,1.15032 -1.10514,1.24939 -0.18451,0.0991 -0.34101,0.24332 -0.34777,0.32054 -0.0148,0.16674 -0.55734,0.83331 -1.07419,1.31926 -0.20299,0.19083 -0.51691,0.54641 -0.69761,0.79015 -0.18069,0.24376 -0.69094,0.8418 -1.13388,1.32902 -0.44296,0.4872 -0.81493,0.98445 -0.82663,1.10498 -0.0111,0.12054 0.12776,0.30344 0.30993,0.40648 0.18216,0.10309 0.32353,0.27509 0.31414,0.38233 -0.01,0.10721 0.13477,0.24752 0.32033,0.31174 0.18555,0.0643 0.32959,0.20578 0.32007,0.3146 -0.0365,0.41729 0.24033,0.88579 0.67699,1.14569 0.24998,0.14879 0.66754,0.39784 0.92791,0.55346 0.52711,0.31503 2.36943,2.19505 3.62351,3.69762 0.4499,0.53907 1.03693,1.15468 1.3045,1.36808 0.26757,0.21337 0.48334,0.42899 0.47946,0.47914 -0.004,0.0502 0.46686,0.55851 1.04604,1.1297 0.57918,0.57118 1.73639,1.82587 2.57159,2.78817 0.83518,0.9623 1.77672,2.01654 2.09231,2.34273 0.31558,0.32622 0.61959,0.68162 0.67559,0.78977 0.0559,0.10818 0.21805,0.31007 0.36015,0.44863 0.14211,0.13857 0.35049,0.36262 0.46312,0.49789 0.42943,0.51581 1.39167,1.31331 1.72288,1.42793 0.19002,0.0657 0.76683,0.61103 1.28181,1.21172 1.34862,1.57303 2.28761,2.49709 2.82251,2.77765 0.25702,0.1348 0.55425,0.40705 0.66055,0.60499 0.10628,0.19796 0.43118,0.52243 0.72197,0.72107 0.29077,0.19864 0.52168,0.44136 0.5131,0.53939 -0.009,0.0981 0.19026,0.40108 0.44184,0.67347 0.2516,0.27241 0.53211,0.67665 0.62336,0.89833 0.0914,0.22165 0.67605,0.99235 1.29951,1.71262 0.62346,0.72027 1.25925,1.46378 1.41286,1.65225 3.58209,4.39482 7.25478,8.62292 9.18623,10.57543 0.59718,0.60369 1.19992,1.22346 1.33941,1.37725 0.13949,0.15379 0.55242,0.59438 0.91762,0.97909 0.36521,0.38471 0.69034,0.81714 0.7225,0.96094 0.0322,0.14382 0.16062,0.30923 0.28542,0.36757 0.12481,0.0583 0.44858,0.43314 0.71949,0.83286 0.27091,0.39971 0.68151,0.97878 0.9124,1.28681 0.2309,0.30802 0.61646,0.84658 0.85679,1.1968 0.24032,0.3502 0.70723,0.82614 1.03757,1.05764 0.65613,0.45978 1.1169,0.90448 1.80031,1.7375 0.24483,0.29841 1.01221,1.16213 1.70528,1.91932 0.83887,0.9165 1.3999,1.67569 1.67831,2.27111 0.3408,0.72889 0.515,0.93767 0.9413,1.12813 0.28769,0.12855 0.72827,0.42357 0.97908,0.65559 0.4535,0.41956 1.03932,0.83057 2.04831,1.43711 0.29061,0.17469 0.80033,0.60466 1.13274,0.95547 0.51721,0.5459 0.58707,0.68983 0.48441,0.99815 -0.066,0.19816 -0.18276,0.42737 -0.25956,0.5094 -0.0923,0.0985 -0.004,0.33413 0.26074,0.69446 0.31393,0.4276 0.39965,0.70186 0.39706,1.27043 -0.004,0.85287 -0.21086,1.15359 -1.67652,2.43557 -0.51269,0.44844 -1.15151,1.15235 -1.41958,1.56425 -0.26807,0.41189 -0.57652,0.77446 -0.68543,0.80566 -0.10891,0.0312 -0.39896,0.39025 -0.64453,0.7978 -0.24558,0.40758 -0.56702,0.79261 -0.7143,0.8556 -0.1473,0.063 -0.37799,0.28852 -0.51266,0.5012 -0.14914,0.2355 -0.51661,0.48865 -0.94012,0.64763 -1.13643,0.42659 -5.11217,4.16265 -5.17332,4.86142 -0.0195,0.22179 -2.225,2.08097 -3.27494,2.76056 -0.50781,0.32869 -1.13304,0.85179 -1.38939,1.16247 -0.71661,0.86843 -1.14097,0.99278 -2.77135,0.81202 -2.15582,-0.239 -3.55216,-0.55669 -3.75875,-0.85517 -0.0796,-0.11502 -0.21463,-0.21701 -0.30001,-0.22664 -0.0855,-0.008 -0.50487,-0.2966 -0.93223,-0.63771 -0.42733,-0.34111 -0.85041,-0.62662 -0.94016,-0.63447 -0.0898,-0.009 -0.31493,-0.23091 -0.50044,-0.49567 -0.53927,-0.76969 -3.3716,-3.34697 -3.93689,-3.58237 -0.17431,-0.0727 -0.57668,-0.38729 -0.89416,-0.69931 -0.31748,-0.31203 -0.82999,-0.74526 -1.1389,-0.96275 -0.30892,-0.21745 -1.06974,-0.98094 -1.69071,-1.69662 -0.62096,-0.71569 -1.18198,-1.30588 -1.24669,-1.31154 -0.0647,-0.005 -0.36989,-0.28796 -0.6782,-0.62733 -0.30828,-0.33938 -0.91171,-0.89373 -1.34095,-1.23189 -0.78866,-0.62133 -1.20139,-1.04194 -3.38289,-3.44748 -0.66256,-0.73061 -1.4954,-1.58089 -1.85073,-1.8895 -0.35536,-0.30862 -0.81839,-0.7851 -1.02897,-1.05883 -0.21058,-0.27374 -0.93627,-1.12769 -1.61264,-1.89766 -0.67638,-0.76996 -1.46926,-1.77944 -1.76197,-2.24328 -0.66564,-1.05487 -2.58198,-3.39577 -4.38523,-5.35681 -0.75789,-0.82423 -1.76617,-2.04622 -2.24062,-2.71554 -0.47446,-0.66933 -1.14617,-1.42754 -1.49272,-1.68495 -0.67441,-0.50094 -1.77438,-1.69024 -3.61121,-3.90447 -0.62923,-0.75851 -1.66135,-1.90267 -2.2936,-2.54259 -0.63225,-0.63993 -1.34918,-1.38471 -1.59316,-1.6551 -0.244,-0.27039 -1.04813,-1.0912 -1.78697,-1.82405 -0.73882,-0.73284 -1.67117,-1.67839 -2.07187,-2.10122 -0.4007,-0.42284 -0.90654,-0.87507 -1.1241,-1.00499 -0.21755,-0.12989 -0.41937,-0.34268 -0.4485,-0.47286 -0.0291,-0.13017 -0.37631,-0.5135 -0.77157,-0.85182 -0.39522,-0.33831 -0.95841,-0.87612 -1.25149,-1.1951 -0.51766,-0.56346 -2.33626,-2.10386 -3.04527,-2.57948 -0.19299,-0.12946 -0.57004,-0.39706 -0.83787,-0.59469 -0.26786,-0.19762 -0.54187,-0.36412 -0.60895,-0.36998 -0.12174,-0.0101 -1.700038,1.69758 -1.713805,1.85488 -0.0038,0.0456 -0.238584,0.35929 -0.521338,0.697 -1.175784,1.40438 -2.538062,3.38713 -2.677677,3.89726 -0.323457,1.18188 -0.523281,1.55575 -1.082329,2.0251 -0.51505,0.43241 -1.261949,1.37208 -2.564554,3.22646 -0.222059,0.31611 -0.540476,0.70582 -0.707589,0.86598 -0.167112,0.16017 -0.458404,0.55924 -0.647316,0.88683 -1.248722,2.1654 -3.237845,5.30071 -3.65002,5.75326 -0.269374,0.29578 -0.664702,0.74941 -0.878511,1.00807 -0.213808,0.25868 -0.650818,0.74128 -0.971133,1.07243 -0.320314,0.33114 -0.682569,0.78102 -0.805015,0.99972 -0.122445,0.21871 -0.638349,0.79473 -1.146457,1.28007 -0.508107,0.48533 -0.927604,0.92556 -0.932216,0.97828 -0.0079,0.0895 -1.022428,1.22188 -1.91603,2.13854 -0.215492,0.22106 -0.395028,0.43878 -0.398968,0.48383 -0.004,0.045 -0.358056,0.51684 -0.786924,1.04848 -0.428867,0.53165 -0.783899,1.01394 -0.788958,1.07179 -0.005,0.0578 -0.289444,0.38403 -0.631964,0.72492 -0.34252,0.34087 -0.907936,1.07225 -1.256478,1.6253 -0.348544,0.55303 -0.756708,1.07654 -0.907031,1.16336 -0.150323,0.0868 -0.395234,0.39914 -0.544249,0.69404 -0.149013,0.2949 -0.324659,0.53148 -0.390325,0.52574 -0.15936,-0.0136 -1.900216,1.77206 -2.220925,2.2785 -0.13941,0.22014 -0.420713,0.50966 -0.625117,0.64336 -0.204401,0.1337 -0.375544,0.28772 -0.380316,0.34227 -0.009,0.1029 -0.391848,0.51518 -1.496629,1.6117 -0.355905,0.35325 -0.652672,0.70593 -0.659479,0.78373 -0.0069,0.0778 -0.206902,0.35542 -0.444655,0.6169 -0.237753,0.26148 -0.771103,0.85246 -1.185222,1.3133 -0.414118,0.46081 -1.109857,1.16614 -1.546085,1.56739 -0.43623,0.40124 -0.887335,0.87178 -1.002456,1.04567 -0.115125,0.17391 -0.39292,0.5096 -0.617328,0.74603 -0.387985,0.40874 -1.185495,1.5875 -2.251264,3.32743 -0.26675,0.43549 -0.669965,0.96331 -0.896032,1.17295 -0.226069,0.20964 -0.51366,0.59116 -0.639093,0.84783 -0.451283,0.92347 -2.19574,2.28749 -2.645199,2.06833 -0.09979,-0.0487 -0.434567,0.0139 -0.743931,0.13912 -0.309365,0.12518 -0.682359,0.21711 -0.828875,0.20429 -0.146506,-0.0132 -0.54781,0.0759 -0.891763,0.197 -0.674636,0.23768 -0.823399,0.2393 -1.441713,0.0158 z m 5.646747,-13.68779 c 0.05354,-0.0718 0.03526,-0.13595 -0.04064,-0.14259 -0.0759,-0.006 -0.181786,0.0466 -0.235331,0.11845 -0.05354,0.0718 -0.03526,0.13595 0.04063,0.14259 0.0759,0.006 0.181787,-0.0466 0.235332,-0.11845 z m 7.909694,-10.15295 c 0.110526,-0.16919 0.122607,-0.26736 0.0338,-0.27513 -0.0759,-0.006 -0.215306,0.10629 -0.309816,0.25097 -0.110526,0.1692 -0.122607,0.26735 -0.0338,0.27512 0.0759,0.006 0.215307,-0.10629 0.309816,-0.25096 z M 123.3977,163.07686 c -0.0904,-0.10768 -0.1539,-0.12144 -0.16146,-0.0349 -0.0164,0.18417 0.13278,0.36163 0.23293,0.2776 0.0427,-0.0359 0.0115,-0.14491 -0.0714,-0.2426 z m 8.91996,-21.99172 c 0.0536,-0.0718 0.0316,-0.13629 -0.0488,-0.14331 -0.0804,-0.006 -0.15156,0.0493 -0.1582,0.12519 -0.006,0.0759 0.0154,0.14038 0.0488,0.14331 0.0335,0.004 0.10465,-0.0534 0.1582,-0.12519 z m -47.874476,-9.81132 c 0.003,-0.0335 -0.05341,-0.10466 -0.125197,-0.1582 -0.07179,-0.0536 -0.136274,-0.0316 -0.143308,0.0488 -0.007,0.0804 0.04931,0.15155 0.125198,0.1582 0.07589,0.006 0.140379,-0.0154 0.143307,-0.0488 z m 15.083641,-1.88644 c 0.149902,-0.25453 0.2186,-0.46751 0.152664,-0.47328 -0.14157,-0.0115 -0.619548,0.56758 -0.637569,0.77355 -0.02613,0.29866 0.223046,0.14437 0.484905,-0.30027 z m 0.972235,-0.46288 c 0.0216,-0.24732 -0.19306,-0.419 -0.39614,-0.31677 -0.104259,0.0525 -0.10678,0.14282 -0.008,0.28558 0.18651,0.26944 0.38194,0.28453 0.4041,0.0314 z m -15.46981,-2.76024 c 0.01037,-0.11831 -0.0477,-0.18163 -0.128994,-0.14071 -0.0813,0.0409 -0.11715,0.13533 -0.07967,0.2098 0.101539,0.20173 0.187457,0.17329 0.208661,-0.0691 z m 16.69666,-0.13815 c 0.0134,-0.15628 -0.0405,-0.25117 -0.12059,-0.21091 -0.08,0.0402 -0.15326,0.16267 -0.16284,0.27203 -0.01,0.10934 0.0447,0.20427 0.1206,0.21091 0.0759,0.006 0.14916,-0.11578 0.16283,-0.27203 z m 0.62826,-3.91872 c 0.0936,-0.19358 0.14173,-0.38599 0.10687,-0.42757 -0.11493,-0.13695 -0.51413,0.23141 -0.53726,0.49575 -0.0333,0.38062 0.23376,0.33833 0.43042,-0.0682 z m 14.71025,-2.32009 c 0.15999,-0.32814 0.14155,-0.46287 -0.0658,-0.48102 -0.19567,-0.0171 -0.43391,0.44025 -0.30768,0.5907 0.12464,0.14856 0.26819,0.10633 0.37354,-0.10968 z m -24.026126,-3.4924 c 0.179391,-0.3679 0.141327,-0.50735 -0.09403,-0.34444 -0.242271,0.16769 -0.329467,0.52732 -0.132036,0.5446 0.06776,0.006 0.169501,-0.0842 0.226066,-0.20016 z m -3.426297,-1.19212 c 0.0066,-0.0759 -0.08473,-0.14647 -0.203044,-0.15682 -0.118323,-0.0101 -0.182169,0.0465 -0.141912,0.12662 0.04026,0.08 0.131635,0.15056 0.203045,0.15681 0.0714,0.006 0.13527,-0.0507 0.141911,-0.12661 z m 22.095933,1.71636 c 0.01,-0.10934 -0.0757,-0.20698 -0.18958,-0.21694 -0.20783,-0.0181 -0.30914,0.26648 -0.15865,0.44582 0.1175,0.14002 0.32808,0.002 0.34823,-0.22888 z m -17.438228,-5.68858 c 0.03082,-0.35229 -0.14805,-0.47688 -0.331509,-0.2309 -0.131032,0.17569 -0.02621,0.5472 0.159017,0.56341 0.07828,0.006 0.155893,-0.14279 0.172492,-0.33251 z m 1.662061,-3.80032 c -0.165595,-0.40287 -0.536013,-0.70311 -0.69887,-0.56646 -0.09487,0.0797 0.585786,0.95682 0.75382,0.97153 0.06365,0.005 0.03891,-0.17671 -0.05495,-0.40507 z m 24.802837,1.66648 c 0.01,-0.11382 -0.0439,-0.21241 -0.11989,-0.21905 -0.0759,-0.006 -0.14612,0.0811 -0.15608,0.1949 -0.01,0.11384 0.0439,0.21241 0.11987,0.21906 0.0759,0.006 0.14614,-0.0811 0.1561,-0.19491 z m -16.27585,-1.49342 c 0.006,-0.0759 -0.05,-0.1434 -0.12591,-0.15005 -0.0759,-0.006 -0.1434,0.05 -0.15005,0.1259 -0.006,0.0759 0.05,0.14342 0.1259,0.15006 0.0759,0.006 0.14342,-0.05 0.15006,-0.12591 z m 30.93685,2.3739 c 0.004,-0.0298 -0.0853,-0.0981 -0.19529,-0.15176 -0.11,-0.0536 -0.20528,-0.0374 -0.21171,0.0361 -0.006,0.0735 0.0815,0.1418 0.19528,0.15175 0.11384,0.01 0.20912,-0.006 0.21172,-0.0361 z m -41.434236,-4.75171 c -0.161384,-0.20499 -0.320503,-0.34999 -0.353597,-0.32222 -0.08817,0.074 0.361475,0.66996 0.515652,0.68345 0.07225,0.006 -6.73e-4,-0.15623 -0.162055,-0.36123 z m -2.688385,-1.06177 c 0.003,-0.0335 -0.05341,-0.10466 -0.125197,-0.1582 -0.07179,-0.0536 -0.136275,-0.0316 -0.143308,0.0488 -0.007,0.0804 0.04931,0.15156 0.125197,0.1582 0.0759,0.006 0.140379,-0.0154 0.143308,-0.0488 z m 26.925311,2.1389 c 0.006,-0.0759 -0.0848,-0.14646 -0.20305,-0.15681 -0.11833,-0.0101 -0.18218,0.0465 -0.14191,0.12663 0.0402,0.08 0.13163,0.15056 0.20303,0.1568 0.0714,0.006 0.13528,-0.0507 0.14193,-0.12662 z m -26.872548,-4.37134 c -0.08895,-0.12851 -0.285184,-0.31172 -0.436068,-0.40712 -0.207973,-0.1315 -0.185741,-0.0609 0.09189,0.29227 0.364711,0.46377 0.652074,0.55968 0.344175,0.11482 z m -1.205101,-1.28301 c -0.12484,-0.1648 -0.260745,-0.27132 -0.30201,-0.23669 -0.04126,0.0346 0.02711,0.1978 0.151956,0.3626 0.124841,0.16479 0.260747,0.2713 0.302011,0.23668 0.04126,-0.0347 -0.02711,-0.1978 -0.151957,-0.36259 z M 65.088273,98.227379 c 0.01429,-0.162798 -0.239634,-0.360488 -0.347119,-0.270303 -0.107489,0.09018 0.04313,0.374544 0.205922,0.388786 0.0714,0.0062 0.134954,-0.04712 0.141197,-0.118483 z M 63.1382,95.632687 c -0.609098,-0.766352 -1.132195,-1.37643 -1.162438,-1.355732 -0.08627,0.05905 1.215053,1.977853 1.708334,2.518914 0.244213,0.267864 0.470468,0.429237 0.502789,0.358606 0.03233,-0.07066 -0.439588,-0.755438 -1.048685,-1.521788 z m 61.8062,4.08311 c 0.048,-0.06461 -0.14583,-0.12902 -0.43114,-0.143151 -0.28532,-0.01418 -0.66972,-0.08792 -0.85425,-0.163976 l -0.3355,-0.13828 0.32677,0.238019 c 0.36159,0.263388 1.15725,0.39089 1.29412,0.20738 z M 86.288547,96.073816 c -0.150802,-0.352613 -1.409456,-1.717814 -1.507726,-1.635357 -0.07304,0.06128 1.425598,1.874288 1.558942,1.885954 0.03197,0.0029 0.0089,-0.10997 -0.05121,-0.250597 z m 26.387213,0.438998 c -0.0904,-0.107677 -0.1539,-0.121442 -0.16147,-0.03498 -0.0164,0.184166 0.13279,0.361631 0.23293,0.277601 0.0427,-0.03577 0.0115,-0.144919 -0.0714,-0.242613 z m -0.39649,-3.705484 c 0.01,-0.113835 -0.0474,-0.174031 -0.12733,-0.133768 -0.08,0.04026 -0.15359,0.166345 -0.16356,0.280178 -0.01,0.113835 0.0474,0.17403 0.12735,0.133769 0.08,-0.04026 0.15359,-0.166345 0.16354,-0.280179 z m 11.94006,0.991506 c -0.0402,-0.07999 -0.13164,-0.150554 -0.20306,-0.156802 -0.0714,-0.0062 -0.13526,0.05073 -0.1419,0.126622 -0.006,0.0759 0.0848,0.146454 0.20304,0.156803 0.11832,0.01037 0.18218,-0.04663 0.14192,-0.126623 z M 56.394126,86.357035 c 0.01366,-0.156062 -0.480605,-0.681978 -0.570241,-0.606764 -0.09932,0.08335 0.271897,0.69815 0.429882,0.711972 0.07158,0.0064 0.134748,-0.04108 0.140359,-0.105208 z m 70.013894,3.879262 c 0.006,-0.0759 -0.0154,-0.140379 -0.0488,-0.143308 -0.0336,-0.003 -0.10465,0.05341 -0.15819,0.125198 -0.0536,0.07179 -0.0316,0.136275 0.0488,0.143308 0.0804,0.007 0.15155,-0.04931 0.15819,-0.125198 z M 52.498107,81.623132 c 0.01279,-0.145636 -0.246708,-0.229991 -0.336619,-0.109445 -0.05442,0.07295 -0.0021,0.141119 0.116181,0.15147 0.118313,0.01037 0.21751,-0.0086 0.220438,-0.04202 z m 0.829731,-0.308035 c -0.05577,-0.233478 -0.44669,-0.51102 -0.571847,-0.406001 -0.142757,0.119787 0.163103,0.534106 0.410249,0.555727 0.110869,0.0096 0.183586,-0.05767 0.161598,-0.149726 z m 85.379732,5.061422 c 0.20957,-0.238887 0.20722,-0.245636 -0.0315,-0.09 -0.14192,0.09254 -0.26371,0.233084 -0.27063,0.31233 -0.006,0.07926 0.007,0.119743 0.0314,0.09 0.0242,-0.02974 0.14604,-0.17029 0.27065,-0.312331 z m -3.30089,-2.053342 c 0.0169,-0.193235 -0.21342,-0.141305 -0.48312,0.108926 -0.20096,0.186468 -0.22012,0.259759 -0.0847,0.324193 0.16988,0.08082 0.54806,-0.207671 0.56779,-0.433119 z m -5.29757,-0.254828 c -0.11707,-0.139514 -0.26314,-0.211461 -0.32461,-0.159877 -0.0615,0.05157 -0.0255,0.159538 0.08,0.239908 0.31735,0.241838 0.47221,0.191174 0.24464,-0.08003 z m 2.62962,-0.93017 c 0.17358,-0.07423 0.28992,-0.261513 0.30721,-0.494517 l 0.0277,-0.375032 -0.37553,0.384261 c -0.5356,0.54808 -0.5208,0.725352 0.0405,0.48529 z m 8.74784,0.07292 c 0.15942,-0.06818 0.24864,-0.205741 0.21332,-0.328932 -0.0879,-0.306635 -0.441,-0.292242 -0.46825,0.01909 -0.013,0.145445 -0.10346,0.288996 -0.20171,0.318972 -0.13673,0.04173 -0.13625,0.06077 0.003,0.0813 0.0994,0.01472 0.30389,-0.02595 0.4546,-0.09041 z m -22.85931,-2.679706 c 0.37219,-0.436507 0.42519,-0.671287 0.15675,-0.694772 -0.21976,-0.01923 -0.39703,0.158036 -0.67126,0.671221 -0.27411,0.512955 0.0832,0.529309 0.51447,0.02357 z m 2.04878,-2.31989 c 0.31966,-0.413088 0.6579,-0.909621 0.75166,-1.103407 0.23874,-0.493499 -0.007,-0.616121 -0.33554,-0.167568 -0.14653,0.199914 -0.3964,0.521631 -0.5553,0.714929 -0.15888,0.193298 -0.29387,0.408454 -0.29997,0.478123 -0.006,0.06967 -0.111,0.195823 -0.2331,0.280339 -0.12208,0.08451 -0.22947,0.2392 -0.23861,0.343743 -0.0355,0.406226 0.35517,0.171954 0.91086,-0.546159 z m 10.20321,1.223413 c -0.0339,-0.117664 -0.11676,-0.218771 -0.18453,-0.2247 -0.0677,-0.006 -0.13137,0.08236 -0.14132,0.196192 -0.01,0.113835 0.0731,0.214948 0.18453,0.224703 0.12343,0.01086 0.17867,-0.06588 0.14132,-0.196195 z m 12.56553,0.419026 c 0.01,-0.105697 -0.0732,-0.2361 -0.18321,-0.289742 -0.2005,-0.09775 -0.30927,0.169022 -0.14752,0.361797 0.14118,0.168243 0.31299,0.130811 0.33073,-0.07205 z m -5.01954,-1.427295 c -0.0845,-0.122099 -0.22384,-0.226152 -0.30963,-0.231225 -0.0857,-0.0051 -0.0434,0.09249 0.0941,0.216795 0.32132,0.290353 0.41062,0.296333 0.21549,0.01443 z m 11.21259,0.883645 c -0.0807,-0.09628 -0.1967,-0.133265 -0.25759,-0.08218 -0.0609,0.05109 -0.0259,0.15606 0.0776,0.233275 0.24375,0.181809 0.3703,0.07562 0.18005,-0.151092 z m -13.95056,-1.404623 c -0.086,-0.124072 -0.19521,-0.192798 -0.24294,-0.152733 -0.0477,0.04006 -4.2e-4,0.138599 0.10493,0.218969 0.27593,0.210287 0.31609,0.191023 0.13801,-0.06623 z m 0.70089,-1.047625 c -0.0339,-0.117664 -0.11482,-0.218604 -0.18021,-0.224325 -0.0653,-0.0056 -0.0913,0.08586 -0.0576,0.203524 0.0339,0.117662 0.11482,0.218602 0.1802,0.224322 0.0653,0.0056 0.0913,-0.08585 0.0576,-0.203523 z m 7.24891,-0.174889 c 0.0588,-0.161618 0.12302,-0.466478 0.14248,-0.677471 0.0195,-0.211704 0.13092,-0.410992 0.24857,-0.444696 0.11721,-0.03359 0.17833,-0.130186 0.13581,-0.214648 -0.0424,-0.08446 -0.0324,-0.514995 0.0227,-0.956742 0.082,-0.66158 0.06,-0.806642 -0.12465,-0.822797 -0.1831,-0.016 -0.22975,0.115404 -0.2544,0.716657 -0.0172,0.404929 -0.0712,0.791218 -0.12113,0.858389 -0.0845,0.113374 -0.52497,1.598441 -0.54624,1.841432 -0.0201,0.229607 0.39577,-0.02137 0.4973,-0.300118 z m 4.86701,0.06764 c 0.0478,-0.06427 7.7e-4,-0.159075 -0.10531,-0.210691 -0.12839,-0.0626 -0.17275,-0.02505 -0.13323,0.112814 0.0686,0.239566 0.11781,0.259737 0.23854,0.09788 z m 1.12817,-0.872918 c 0.0114,-0.139966 -0.54525,-0.36713 -0.66151,-0.269574 -0.0971,0.08142 0.24795,0.351236 0.47855,0.37426 0.0948,0.0096 0.17708,-0.03766 0.18296,-0.104686 z m -17.5843,-2.461751 c -0.0859,-0.124072 -0.18705,-0.199649 -0.22481,-0.167956 -0.1041,0.08731 0.0674,0.366106 0.23422,0.380697 0.0915,0.008 0.088,-0.07209 -0.009,-0.212739 z m 1.47728,-0.128918 c 0.11397,-0.09564 0.17483,-0.212463 0.13526,-0.259622 -0.0727,-0.08667 -0.48052,0.195129 -0.49328,0.340855 -0.0114,0.134977 0.14194,0.100092 0.35802,-0.08123 z m -8.06775,-0.791906 c 0.006,-0.0759 -0.05,-0.143411 -0.12592,-0.150052 -0.0759,-0.0066 -0.14341,0.05002 -0.15006,0.125908 -0.006,0.0759 0.05,0.143415 0.12591,0.150056 0.0759,0.0066 0.14342,-0.05002 0.15007,-0.125912 z m 14.48453,-0.305151 c 0.0596,-0.715156 -0.10715,-1.117413 -0.34102,-0.821099 -0.20623,0.261286 -0.23944,0.723442 -0.0836,1.163605 0.17702,0.500013 0.36685,0.346898 0.42462,-0.34251 z m 2.21137,0.514512 c -0.026,-0.443149 -0.34475,-0.599256 -0.51417,-0.251771 -0.11095,0.227441 0.12003,0.634401 0.37254,0.656494 0.10614,0.0094 0.15732,-0.136894 0.14163,-0.404723 z m 3.15623,0.137095 c 0.006,-0.0759 -0.0537,-0.143735 -0.13405,-0.150766 -0.0804,-0.007 -0.11319,0.05266 -0.073,0.132654 0.0403,0.08 0.10059,0.147839 0.13406,0.150767 0.0335,0.003 0.0663,-0.05677 0.0729,-0.132657 z m 3.5451,-0.05866 c -0.38975,-0.340902 -0.72463,-0.290952 -0.35055,0.05229 0.17499,0.160571 0.379,0.261328 0.45334,0.223905 0.0744,-0.03743 0.028,-0.161711 -0.10279,-0.276195 z m -17.08517,-1.623944 c -0.38038,-0.332702 -0.58979,-0.281223 -0.22342,0.05493 0.17592,0.161403 0.35451,0.26437 0.39688,0.22882 0.0423,-0.03556 -0.0358,-0.163239 -0.17346,-0.283744 z m 5.53186,0.538795 c -0.0344,-0.113927 -0.0699,-0.08408 -0.0907,0.07607 -0.0186,0.144936 0.007,0.229277 0.0566,0.187438 0.0497,-0.04185 0.0651,-0.160423 0.034,-0.263514 z m 5.71123,0.381808 c 0.0164,-0.182729 -0.17223,-0.183396 -0.38919,-0.0014 -0.28323,0.237667 -0.2295,0.39409 0.0886,0.258025 0.15889,-0.06795 0.29413,-0.183455 0.30053,-0.256674 z m 2.69023,0.240281 c -0.0402,-0.07999 -0.13164,-0.150554 -0.20305,-0.156801 -0.0714,-0.0062 -0.13527,0.05073 -0.14192,0.126622 -0.006,0.0759 0.0848,0.146453 0.20306,0.156802 0.11831,0.01037 0.18216,-0.04663 0.14191,-0.126623 z m -9.84901,-1.054017 c 0.003,-0.02909 -0.11682,-0.09626 -0.26521,-0.149275 -0.14842,-0.053 -0.23996,-0.03703 -0.20346,0.03551 0.0638,0.126671 0.45914,0.22265 0.46867,0.113765 z M 51.203306,63.287688 c 0.0064,-0.07209 -0.05333,-0.159171 -0.132536,-0.193503 -0.0792,-0.03433 -0.15306,0.04106 -0.164126,0.16755 -0.01101,0.126485 0.04858,0.21356 0.132538,0.193503 0.08396,-0.02007 0.157817,-0.09545 0.164124,-0.16755 z m 88.251514,7.576791 c 0.0403,-0.276032 0.0106,-0.319749 -0.14708,-0.21116 -0.10882,0.07532 -0.17162,0.228545 -0.13955,0.340466 0.0909,0.317026 0.23066,0.253957 0.28663,-0.129306 z m -1.27789,-0.724088 c 0.0146,-0.162785 -0.23963,-0.360496 -0.34712,-0.270306 -0.10747,0.0902 0.0432,0.374542 0.20591,0.388783 0.0714,0.0062 0.13496,-0.04707 0.14121,-0.118477 z m 8.80819,0.381083 c -0.0873,-0.104067 -0.36611,0.06745 -0.3807,0.234215 -0.009,0.09147 0.0721,0.08796 0.21274,-0.0094 0.12407,-0.08588 0.19966,-0.187041 0.16796,-0.224812 z m -9.65036,-1.130957 c -0.0691,-0.05924 -0.11789,-0.19567 -0.10849,-0.30318 0.01,-0.107497 -0.0582,-0.228136 -0.15034,-0.268058 -0.092,-0.03991 -0.17427,0.0054 -0.1826,0.100529 -0.0191,0.219323 0.37063,0.743202 0.48292,0.648989 0.0463,-0.03882 0.0276,-0.119042 -0.0415,-0.178283 z m 2.45814,-0.239449 c 0.031,-0.353597 -0.42926,-0.353442 -0.53,1.5e-4 -0.0463,0.16279 0.0214,0.243595 0.2189,0.26087 0.19746,0.01727 0.29383,-0.06358 0.3111,-0.261052 z m 1.79976,-1.500804 c 0.006,-0.0759 -0.0153,-0.140378 -0.0488,-0.143308 -0.0335,-0.003 -0.10465,0.05341 -0.1582,0.125199 -0.0536,0.07179 -0.0316,0.136273 0.0488,0.143307 0.0804,0.007 0.15154,-0.04931 0.15818,-0.125198 z"
       id="path1"
       inkscape:export-filename="cross.svg"
       inkscape:export-xdpi="96"
       inkscape:export-ydpi="96" /><ellipse
       style="fill:#cd2e70;fill-opacity:1;stroke-width:0.264583"
       id="path2"
       cx="148.32803"
       cy="64.070129"
       rx="7.3666291"
       ry="8.2353897"
       transform="rotate(5)" /><ellipse
       style="fill:#cd2e70;fill-opacity:1;stroke-width:0.264583"
       id="path3"
       cx="138.08214"
       cy="64.772148"
       rx="4.3393431"
       ry="10.59136"
       transform="rotate(5)" /><ellipse
       style="fill:#cd2e70;fill-opacity:1;stroke-width:0.264583"
       id="path4"
       cx="133.89616"
       cy="91.071892"
       rx="13.205157"
       ry="11.421395"
       transform="rotate(5)" /><ellipse
       style="fill:#cd2e70;fill-opacity:1;stroke-width:0.264583"
       id="path5"
       cx="139.64908"
       cy="79.375092"
       rx="9.4205723"
       ry="18.933371"
       transform="rotate(5)" /><ellipse
       style="fill:#cd2e70;fill-opacity:1;stroke-width:0.264583"
       id="path6"
       cx="148.08955"
       cy="63.033737"
       rx="8.1788311"
       ry="14.457089"
       transform="rotate(5)" /><ellipse
       style="fill:#cd2e70;fill-opacity:1;stroke-width:0.264583"
       id="path7"
       cx="130.98314"
       cy="64.76947"
       rx="1.2465819"
       ry="3.9820306"
       transform="rotate(5)" /><ellipse
       style="fill:#cd2e70;fill-opacity:1;stroke-width:0.264583"
       id="path8"
       cx="126.10546"
       cy="70.438194"
       rx="2.4257774"
       ry="2.5006795"
       transform="rotate(5)" /><ellipse
       style="fill:#cd2e70;fill-opacity:1;stroke-width:0.264583"
       id="path9"
       cx="127.41753"
       cy="66.938438"
       rx="1.2497665"
       ry="2.1641304"
       transform="rotate(5)" /><ellipse
       style="fill:#cd2e70;fill-opacity:1;stroke-width:0.264583"
       id="path10"
       cx="123.26416"
       cy="85.518066"
       rx="5.5615945"
       ry="5.1389341"
       transform="rotate(5)" /><ellipse
       style="fill:#cd2e70;fill-opacity:1;stroke-width:0.264583"
       id="path11"
       cx="110.69314"
       cy="114.84991"
       rx="19.606281"
       ry="16.416391"
       transform="rotate(5)" /><ellipse
       style="fill:#cd2e70;fill-opacity:1;stroke-width:0.264583"
       id="path12"
       cx="95.030304"
       cy="94.811447"
       rx="5.3053732"
       ry="9.5374222"
       transform="rotate(5)" /><ellipse
       style="fill:#cd2e70;fill-opacity:1;stroke-width:0.329314"
       id="path13"
       cx="105.44704"
       cy="98.723557"
       rx="11.662993"
       ry="4.1109881"
       transform="rotate(5)" /><ellipse
       style="fill:#cd2e70;fill-opacity:1;stroke-width:0.264583"
       id="path14"
       cx="65.861519"
       cy="77.907494"
       rx="11.086503"
       ry="20.377016"
       transform="rotate(5)" /><ellipse
       style="fill:#cd2e70;fill-opacity:1;stroke-width:0.264583"
       id="path15"
       cx="56.265163"
       cy="59.30151"
       rx="1.4952358"
       ry="2.3014505"
       transform="rotate(5)" /><ellipse
       style="fill:#cd2e70;fill-opacity:1;stroke-width:0.264583"
       id="path16"
       cx="78.867455"
       cy="178.0934"
       rx="8.1337376"
       ry="10.013546"
       transform="rotate(5)" /><ellipse
       style="fill:#cd2e70;fill-opacity:1;stroke-width:0.264583"
       id="path17"
       cx="137.78999"
       cy="141.18869"
       rx="8.7642241"
       ry="17.953419"
       transform="rotate(5)" /></g></svg>
