<?xml version="1.0" encoding="UTF-8" standalone="no"?>
<!-- Created with Inkscape (http://www.inkscape.org/) -->

<svg
   width="16.698637mm"
   height="23.373859mm"
   viewBox="0 0 16.698637 23.37386"
   version="1.1"
   id="svg1"
   xml:space="preserve"
   xmlns="http://www.w3.org/2000/svg"
   xmlns:svg="http://www.w3.org/2000/svg"><defs
     id="defs1" /><g
     id="layer1"
     transform="translate(-21.987093,-30.345585)"><path
       style="fill:#000000;stroke-width:0.197223"
       d="m 23.907839,53.64118 c -0.921727,-0.223434 -1.690817,-1.026597 -1.865606,-1.948255 -0.07352,-0.387646 -0.07352,-18.931054 0,-19.318699 0.0883,-0.465602 0.329013,-0.908062 0.690895,-1.269943 0.631056,-0.631056 1.060503,-0.75757 2.575317,-0.758683 1.215412,-8.88e-4 1.475393,0.03661 1.984538,0.286299 0.639792,0.313758 1.126846,0.935704 1.296599,1.655706 0.11619,0.492809 0.11619,18.999132 0,19.491941 -0.107415,0.455598 -0.287077,0.78516 -0.629892,1.15544 -0.332057,0.358661 -0.852536,0.648425 -1.320607,0.735217 -0.425992,0.07899 -2.370924,0.05832 -2.731244,-0.02902 z m 10.018924,0 c -0.921725,-0.223434 -1.690816,-1.026597 -1.865605,-1.948255 -0.07352,-0.387646 -0.07352,-18.931054 0,-19.318699 0.0883,-0.465602 0.329013,-0.908062 0.690896,-1.269943 0.631056,-0.631056 1.060503,-0.75757 2.575317,-0.758683 1.215413,-8.88e-4 1.475392,0.03661 1.984537,0.286299 0.425026,0.208435 0.877677,0.654067 1.090032,1.073133 0.297142,0.58638 0.283698,0.09693 0.283698,10.328543 0,10.231614 0.01345,9.742163 -0.283698,10.328544 -0.07119,0.14049 -0.261687,0.398281 -0.423323,0.572867 -0.332056,0.358661 -0.852537,0.648425 -1.320608,0.735217 -0.425992,0.07899 -2.370924,0.05832 -2.731246,-0.02902 z"
       id="path1" /></g></svg>
