<?xml version="1.0" encoding="UTF-8" standalone="no"?>
<!-- Created with Inkscape (http://www.inkscape.org/) -->

<svg
   width="23.207014mm"
   height="25.779604mm"
   viewBox="0 0 23.207014 25.779604"
   version="1.1"
   id="svg1"
   xml:space="preserve"
   xmlns="http://www.w3.org/2000/svg"
   xmlns:svg="http://www.w3.org/2000/svg"><defs
     id="defs1" /><g
     id="layer1"
     transform="translate(-41.603568,35.531105)"><path
       style="fill:#000000;stroke-width:0.557256"
       d="m 43.444402,-9.7960567 c -0.848776,-0.1663812 -1.499901,-0.9057293 -1.748144,-1.9850103 -0.08841,-0.384373 -0.09269,-0.885353 -0.09269,-10.855001 0,-9.969649 0.0044,-10.47063 0.09269,-10.855002 0.296231,-1.287917 1.12892,-2.040035 2.258574,-2.040035 0.36738,0 0.97174,0.157956 1.42658,0.372853 0.566052,0.267437 17.594992,10.026566 18.099419,10.372608 0.20281,0.139131 0.499911,0.396108 0.660228,0.571064 1.095114,1.195126 0.827252,2.707659 -0.660228,3.728087 -0.504427,0.346041 -17.533367,10.105171 -18.099419,10.372608 -0.686072,0.3241449 -1.349484,0.4329989 -1.93701,0.3178283 z"
       id="path1" /></g></svg>
