<?xml version="1.0" encoding="UTF-8" standalone="no"?>
<!-- Created with Inkscape (http://www.inkscape.org/) -->

<svg
   width="24.073439mm"
   height="23.373205mm"
   viewBox="0 0 24.073439 23.373207"
   version="1.1"
   id="svg1"
   xml:space="preserve"
   xmlns="http://www.w3.org/2000/svg"
   xmlns:svg="http://www.w3.org/2000/svg"><defs
     id="defs1" /><g
     id="layer1"
     transform="translate(-61.513413,-146.27736)"><path
       style="fill:#000000;stroke-width:0.183432"
       d="m 75.317661,169.63514 c -0.06011,-0.0126 -2.00387,-1.37579 -4.319456,-3.02811 l -4.210156,-3.00424 -2.186599,-0.001 -2.186599,-0.001 -0.248243,-0.12376 c -0.276558,-0.13784 -0.467028,-0.35641 -0.573493,-0.65816 -0.106269,-0.30121 -0.106269,-9.39478 0,-9.69598 0.106465,-0.30175 0.296935,-0.52034 0.573493,-0.65816 l 0.248243,-0.12376 2.186599,-0.001 2.186599,-0.001 4.149589,-2.96331 c 2.282275,-1.62975 4.20419,-2.98585 4.270923,-3.0135 0.555913,-0.23035 1.241833,0.0258 1.500581,0.56023 l 0.101656,0.20999 -0.0124,10.89982 -0.0124,10.89981 -0.146955,0.2091 c -0.24366,0.34666 -0.490804,0.4886 -0.880076,0.50538 -0.182545,0.008 -0.381085,0.004 -0.441199,-0.01 z m 4.246658,-8.337 c -0.603874,-0.21549 -0.931207,-0.93776 -0.689675,-1.52177 0.04651,-0.11247 0.379852,-0.48655 0.884555,-0.99273 l 0.80993,-0.81228 -0.831589,-0.83785 c -0.714342,-0.7197 -0.839768,-0.86858 -0.889591,-1.05585 -0.241752,-0.90872 0.544207,-1.70089 1.443329,-1.45474 0.202622,0.0555 0.336021,0.16637 1.063909,0.88447 l 0.832239,0.82104 0.789688,-0.78377 c 0.434328,-0.43107 0.853976,-0.81702 0.93255,-0.85764 0.229961,-0.11888 0.618022,-0.13798 0.900424,-0.0442 0.312593,0.10383 0.645443,0.45558 0.735523,0.77733 0.07093,0.25333 0.04013,0.58276 -0.07628,0.81563 -0.04314,0.0863 -0.430909,0.5118 -0.861726,0.94557 l -0.783304,0.78866 0.783304,0.78867 c 0.430817,0.43375 0.818594,0.85926 0.861726,0.94556 0.04313,0.0863 0.0919,0.25524 0.108374,0.37543 0.08885,0.64818 -0.482464,1.28767 -1.15039,1.28767 -0.404574,0 -0.561603,-0.10634 -1.415821,-0.95832 l -0.8117,-0.80961 -0.83843,0.82614 c -0.670503,0.66066 -0.87844,0.83772 -1.038193,0.88396 -0.257212,0.0744 -0.529717,0.0704 -0.758865,-0.0111 z"
       id="path1" /></g></svg>
