<?xml version="1.0" encoding="UTF-8" standalone="no"?>
<!-- Created with Inkscape (http://www.inkscape.org/) -->

<svg
   width="35.75621mm"
   height="29.214359mm"
   viewBox="0 0 35.756209 29.214359"
   version="1.1"
   id="svg1"
   xml:space="preserve"
   xmlns="http://www.w3.org/2000/svg"
   xmlns:svg="http://www.w3.org/2000/svg"><defs
     id="defs1" /><g
     id="layer1"
     transform="translate(-50.6309,-54.107158)"><path
       style="fill:#000000;stroke-width:0.26974"
       d="m 65.550292,83.122535 c -0.149965,-0.1129 -2.097371,-1.935962 -4.327571,-4.051252 l -4.054908,-3.845982 -2.925747,-0.0037 c -2.514346,-0.0032 -2.958424,-0.01916 -3.158126,-0.113926 -0.472901,-0.224407 -0.452919,0.05758 -0.452919,-6.391566 0,-6.449146 -0.01998,-6.167158 0.452919,-6.391566 0.199712,-0.09477 0.643659,-0.110772 3.158126,-0.11384 l 2.925747,-0.0036 4.124821,-3.914682 c 2.268651,-2.153076 4.219201,-3.976059 4.334558,-4.051077 0.449724,-0.29246 1.084142,-0.08359 1.218783,0.401267 0.10337,0.372249 0.10337,27.774693 0,28.14694 -0.148767,0.535725 -0.803003,0.703824 -1.295683,0.332913 z m 13.80262,-1.175495 c -0.81256,-0.805236 -0.933678,-1.01737 -0.800295,-1.401698 0.04304,-0.123999 0.332509,-0.531812 0.643276,-0.906251 2.11699,-2.55073 3.410588,-5.512813 3.839035,-8.790615 0.143656,-1.099044 0.143656,-3.165604 0,-4.264646 -0.428897,-3.28126 -1.721276,-6.242083 -3.828865,-8.771889 -0.9517,-1.142352 -0.945259,-1.244412 0.146849,-2.326675 0.756836,-0.750017 0.759094,-0.751557 1.100935,-0.751557 0.33217,0 0.356567,0.01459 0.805382,0.481556 1.627572,1.693398 3.308524,4.603232 4.144173,7.173832 0.715082,2.199697 0.983704,3.92746 0.983704,6.327056 0,2.399595 -0.268622,4.127357 -0.983704,6.327055 -0.835649,2.5706 -2.516601,5.480435 -4.144173,7.173832 -0.448815,0.466968 -0.473212,0.481555 -0.805382,0.481555 -0.341841,0 -0.344099,-0.0016 -1.100935,-0.751555 z m -3.730336,-3.868688 c -0.131041,-0.03705 -0.497567,-0.349878 -0.961294,-0.820465 -0.724667,-0.735387 -0.749469,-0.770771 -0.74876,-1.068158 5.4e-4,-0.256797 0.05346,-0.376824 0.3201,-0.727047 1.67511,-2.200188 2.405741,-4.249131 2.405741,-6.746529 0,-2.497398 -0.730631,-4.546341 -2.405741,-6.74653 -0.26664,-0.350223 -0.319485,-0.470249 -0.3201,-0.727048 -8.09e-4,-0.29735 0.02415,-0.33281 0.747374,-1.066748 0.880958,-0.89399 1.190889,-1.031943 1.637875,-0.729032 0.354973,0.240555 1.465527,1.81436 2.002235,2.837434 1.100156,2.097119 1.576379,4.040202 1.576379,6.431924 0,2.391721 -0.476223,4.334804 -1.576379,6.431923 -0.536278,1.022256 -1.645959,2.595064 -2.002235,2.837872 -0.178125,0.121394 -0.443973,0.157777 -0.675195,0.0924 z m -5.498229,-5.357408 c -1.020967,-1.006081 -1.025792,-1.023972 -0.534256,-1.980251 0.434093,-0.844525 0.546437,-1.260757 0.546437,-2.02454 0,-0.763784 -0.112344,-1.180015 -0.546437,-2.024541 -0.491536,-0.956279 -0.486711,-0.974169 0.534256,-1.980251 0.75583,-0.744812 0.762323,-0.749239 1.09929,-0.749239 0.316969,0 0.36054,0.02298 0.67137,0.354052 0.412667,0.439546 1.046888,1.699513 1.24703,2.477393 0.331664,1.28908 0.331664,2.556092 0,3.845172 -0.200142,0.777879 -0.834363,2.037846 -1.24703,2.477392 -0.31083,0.331074 -0.354401,0.354053 -0.67137,0.354053 -0.336967,0 -0.34346,-0.0044 -1.09929,-0.74924 z"
       id="path1" /></g></svg>
