<?xml version="1.0" encoding="UTF-8" standalone="no"?>
<!-- Created with Inkscape (http://www.inkscape.org/) -->

<svg
   width="201.6935mm"
   height="32.551407mm"
   viewBox="0 0 201.6935 32.551407"
   version="1.1"
   id="svg1"
   xml:space="preserve"
   xmlns:inkscape="http://www.inkscape.org/namespaces/inkscape"
   xmlns:sodipodi="http://sodipodi.sourceforge.net/DTD/sodipodi-0.dtd"
   xmlns="http://www.w3.org/2000/svg"
   xmlns:svg="http://www.w3.org/2000/svg"><sodipodi:namedview
     id="namedview1"
     pagecolor="#ffffff"
     bordercolor="#000000"
     borderopacity="0.25"
     inkscape:showpageshadow="2"
     inkscape:pageopacity="0.0"
     inkscape:pagecheckerboard="0"
     inkscape:deskcolor="#d1d1d1"
     inkscape:document-units="mm" /><defs
     id="defs1" /><g
     inkscape:label="Layer 1"
     inkscape:groupmode="layer"
     id="layer1"
     transform="translate(-3.0271688,-145.76818)"><path
       style="fill:#fad43b;fill-opacity:1;stroke-width:1.16876"
       d="m 23.786466,178.09996 c -0.828463,-0.053 -1.557461,-0.26462 -1.619994,-0.47039 -0.06253,-0.20579 -0.191413,-1.33294 -0.286398,-2.50481 -0.182628,-2.25314 -0.220561,-2.18648 1.452689,-2.55312 0.945226,-0.20711 1.120528,-0.82679 0.402478,-1.42272 -0.343792,-0.28532 -1.313806,-0.31481 -3.841598,-0.11676 -3.117243,0.24419 -3.389151,0.31732 -3.477271,0.93528 -0.07782,0.54569 0.126343,0.72381 1.097599,0.95761 l 1.193195,0.28723 -0.02961,1.93066 c -0.01629,1.06278 -0.209771,2.14776 -0.430398,2.41359 -0.338913,0.40837 -1.478369,0.48293 -7.379994,0.48293 -5.2018942,0 -7.0615155,-0.0998 -7.3024453,-0.392 -0.1777851,-0.2156 -0.3714641,-1.166 -0.4303978,-2.11201 l -0.1071521,-1.72001 1.6272653,-0.78879 c 1.2773859,-0.6192 1.6734011,-0.99107 1.8418408,-1.72959 0.118017,-0.51743 0.5445848,-1.78752 0.9479282,-2.8224 2.0996919,-5.38729 5.1477609,-13.54496 5.1477609,-13.77716 0,-0.72923 2.680576,-7.62756 3.165998,-8.14753 0.504273,-0.54017 0.99953,-0.59573 4.972732,-0.55785 2.426973,0.0231 4.670329,0.17995 4.985234,0.34848 0.35362,0.18925 0.790687,1.12205 1.143015,2.43945 0.313755,1.17317 1.316153,3.96758 2.227551,6.20982 4.834568,11.89407 6.708178,16.28112 7.136054,16.70899 0.260706,0.2607 1.012795,0.56119 1.671306,0.66775 l 1.197294,0.19372 0.09072,2.37734 c 0.06347,1.6635 -0.03183,2.47905 -0.317385,2.71604 -0.394333,0.32727 -11.702882,0.66198 -15.07802,0.44628 z m 11.993306,-1.29742 c 1.493745,-0.28829 2.213784,-0.969 2.213784,-2.09286 0,-0.54577 -0.385557,-0.87759 -1.740513,-1.49791 -1.641462,-0.75149 -1.79996,-0.92679 -2.785159,-3.08059 -0.574555,-1.25606 -2.135657,-5.17671 -3.469113,-8.71255 -1.333457,-3.53583 -3.13058,-8.08695 -3.993607,-10.11359 l -1.56914,-3.6848 h -3.521425 c -2.96811,0 -3.594248,0.0863 -3.984895,0.5488 -0.254908,0.30184 -1.777155,4.0768 -3.382768,8.38879 -6.3928521,17.1685 -6.6476294,17.71839 -8.2092279,17.71839 -0.8257224,0 -1.4437067,1.38247 -0.9070414,2.02912 0.3315019,0.39943 1.3753948,0.47888 6.2397023,0.47489 3.212879,-0.002 6.023485,-0.12021 6.24579,-0.26125 0.222306,-0.14104 0.433985,-0.65699 0.4704,-1.14654 0.06158,-0.828 -0.04292,-0.9138 -1.497759,-1.22972 -1.115958,-0.24232 -1.596277,-0.5074 -1.676765,-0.92534 -0.151958,-0.78905 0.842761,-2.93198 1.476831,-3.18154 0.747406,-0.29417 7.353794,-0.58473 8.239649,-0.3624 0.499214,0.12529 0.995498,0.67886 1.453186,1.62092 0.974044,2.00487 0.906991,2.27611 -0.637738,2.57966 -1.102447,0.21664 -1.346839,0.39597 -1.414037,1.03766 -0.13238,1.26411 0.357426,1.63456 2.47941,1.8752 2.844694,0.3226 8.33535,0.33122 9.970436,0.0157 z M 16.253444,165.58455 c -0.2275,-0.3681 0.141764,-1.8295 1.409218,-5.57711 1.482914,-4.38469 1.558278,-4.5472 2.108758,-4.5472 0.389036,0 0.894333,1.14522 2.032427,4.60635 1.431286,4.35277 1.483708,4.62899 0.952254,5.0176 -0.309327,0.22618 -1.00866,0.41124 -1.554072,0.41124 -0.545412,0 -1.839586,0.0886 -2.87594,0.19695 -1.107402,0.11571 -1.961943,0.0713 -2.072645,-0.10788 z m 5.118697,-1.6501 c 0.408566,-0.25827 0.367703,-0.5921 -0.3136,-2.56202 -0.430856,-1.24577 -0.943186,-2.31571 -1.13851,-2.37766 -0.428753,-0.13597 -2.152802,4.42664 -1.854842,4.90875 0.256692,0.41534 2.663265,0.43785 3.306952,0.031 z m 31.429767,14.10519 c -0.73812,-0.15635 -1.751111,-0.57555 -2.251089,-0.93156 l -0.909051,-0.64731 -0.100911,0.71093 c -0.09938,0.70017 -0.167297,0.71093 -4.491307,0.71093 h -4.390397 l 0.07327,-1.2544 c 0.380188,-6.50915 0.416551,-11.88456 0.1097,-16.21699 -0.501662,-7.08307 -0.574527,-7.44373 -1.625821,-8.04708 -1.343321,-0.77096 -1.39032,-1.38318 -0.430386,-5.60632 0.158335,-0.69658 0.226236,-0.7056 5.310299,-0.7056 2.832454,0 5.220466,0.11419 5.306694,0.25368 0.08623,0.13951 0.256605,2.39743 0.378615,5.01759 0.12201,2.62017 0.327624,4.76393 0.456919,4.76393 0.129295,0 0.849246,-0.35111 1.599891,-0.78023 3.677243,-2.10217 8.27677,0.23022 10.710648,5.4313 1.155534,2.46931 1.445669,5.75639 0.868231,9.83657 -0.759938,5.36972 -2.622065,7.40271 -6.988668,7.62993 -1.256531,0.0655 -2.888519,-0.009 -3.62664,-0.16537 z m 5.837846,-1.38753 c 2.057981,-1.07086 2.960691,-2.9436 3.544063,-7.35243 0.607917,-4.59435 -0.695004,-9.27775 -3.038313,-10.92133 -0.44392,-0.31136 -1.186395,-0.86326 -1.649944,-1.22645 -0.974075,-0.76317 -3.072077,-1.23546 -3.610584,-0.81278 -0.202526,0.15897 -0.761866,0.38314 -1.242978,0.49815 -0.481111,0.11501 -1.313482,0.62839 -1.84971,1.14084 -1.790644,1.71124 -2.013408,1.42539 -2.244946,-2.8807 -0.11275,-2.09684 -0.205114,-4.60172 -0.205263,-5.56641 l -2.72e-4,-1.75396 -4.043025,-0.0636 -4.043026,-0.0636 -0.36337,1.44307 c -0.354862,1.40929 -0.339753,1.46745 0.645272,2.48374 0.931151,0.9607 1.040484,1.30044 1.423081,4.42211 1.009306,8.23508 1.103552,16.55518 0.227084,20.0473 l -0.185463,0.73895 h 3.169996 3.169994 v -1.20214 c 0,-0.66117 0.09458,-1.29671 0.210167,-1.4123 0.270767,-0.27076 1.494898,0.5354 2.810145,1.85065 0.615321,0.61531 1.454205,1.09454 2.065511,1.17994 1.57696,0.2203 4.280355,-0.0645 5.211581,-0.54907 z m -8.494205,-4.45991 c -0.30184,-0.0865 -0.561108,-0.32322 -0.576152,-0.52616 -0.01504,-0.20296 -0.0827,-2.30223 -0.150345,-4.66507 -0.133968,-4.6794 -0.02123,-5.04944 1.667495,-5.47329 1.079969,-0.27105 2.235608,0.40196 3.032159,1.76585 1.129991,1.9348 0.681906,7.01332 -0.731669,8.29258 -0.60858,0.55076 -2.318363,0.87046 -3.241488,0.60609 z m 1.977369,-1.37487 c 0.957555,-0.51247 1.553367,-2.00917 1.51937,-3.81672 -0.04282,-2.27694 -0.312042,-3.06739 -1.294522,-3.80092 -0.696579,-0.52008 -0.923458,-0.5586 -1.325335,-0.22508 -0.386931,0.32113 -0.484882,1.14431 -0.484882,4.07496 0,4.25753 0.123188,4.55029 1.585369,3.76776 z m 53.925582,6.5485 -0.83636,-0.9157 -1.70051,0.79158 c -2.25817,1.05118 -4.921675,1.08689 -6.868499,0.0921 -2.811949,-1.43683 -3.446955,-3.45574 -3.452283,-10.97599 l -0.0037,-5.2528 h -0.880861 c -0.484474,0 -1.136711,-0.18708 -1.449417,-0.41574 -0.54838,-0.40098 -0.547096,-0.51505 0.0362,-3.21439 l 0.604756,-2.79867 h 5.313459 5.313455 l 0.0271,7.45946 c 0.0179,4.93169 0.143,7.57531 0.36904,7.80135 0.18908,0.18908 0.70261,0.25138 1.14887,0.13937 0.79424,-0.19934 0.80692,-0.24817 0.80424,-3.09736 -0.004,-4.67813 -0.27078,-6.18789 -1.15076,-6.52246 -0.71611,-0.27226 -0.73786,-0.37007 -0.53491,-2.40488 0.35841,-3.59345 -0.006,-3.3514 5.1182,-3.39627 3.5999,-0.0316 4.55387,0.0525 4.936,0.4346 0.40748,0.40748 0.44333,1.44151 0.25654,7.39953 -0.24518,7.82069 -0.1413,8.42639 1.56765,9.14043 1.09521,0.45761 1.0996,0.46749 1.0996,2.47322 0,2.43173 -0.36084,3.49579 -1.28492,3.78908 -0.38149,0.1211 -2.24679,0.25821 -4.14508,0.3047 l -3.45145,0.0845 z m 8.45238,-0.87379 c 0.17855,-0.33362 0.32463,-1.16322 0.32463,-1.84355 0,-1.08917 -0.11687,-1.28537 -0.97789,-1.64202 -0.53784,-0.22279 -1.24516,-0.83966 -1.57183,-1.37085 -0.55395,-0.90075 -0.57986,-1.43489 -0.38478,-7.93118 0.16332,-5.43886 0.12138,-7.07116 -0.19136,-7.44799 -0.30108,-0.36278 -1.03342,-0.48146 -2.94933,-0.47799 -2.8889,0.005 -3.92275,0.39303 -4.55317,1.70782 -0.41001,0.85511 -0.38633,0.94998 0.39201,1.5706 l 0.82836,0.66052 v 5.38003 c 0,5.20407 -0.0228,5.396 -0.69698,5.86822 -0.74244,0.52003 -2.33815,0.64217 -2.98922,0.2288 -0.59414,-0.37723 -0.99942,-4.67099 -0.93751,-9.93262 0.0305,-2.58719 -0.0541,-4.8804 -0.18778,-5.096 -0.17255,-0.27821 -1.332347,-0.39199 -3.995577,-0.39199 -4.221695,0 -4.029113,-0.11719 -4.509215,2.744 -0.220144,1.31194 -0.209475,1.3328 0.682003,1.3328 1.579307,0 1.666946,0.31994 1.454702,5.31084 -0.215689,5.07195 0.111979,7.48653 1.240999,9.14497 1.131735,1.66242 2.140211,2.2164 4.334483,2.38101 1.903545,0.14281 2.096645,0.0895 4.097315,-1.13068 2.42055,-1.47628 2.76117,-1.54615 2.76117,-0.56633 0,0.39283 0.21968,1.02786 0.48818,1.4112 0.45131,0.64432 0.73477,0.69697 3.75217,0.69697 2.90605,0 3.29958,-0.0665 3.58862,-0.60658 z m 11.68401,1.5279 c -1.47731,-0.29113 -4.17275,-1.65192 -4.93038,-2.48909 -0.78618,-0.86871 -1.39915,-4.59253 -1.41961,-8.62422 -0.0305,-6.01377 -0.59657,-7.62705 -2.54281,-7.24734 -0.72149,0.14076 -0.85067,0.0389 -1.01919,-0.80373 -0.10613,-0.53071 -0.19299,-1.78393 -0.19299,-2.78492 0,-2.00287 0.48644,-2.80561 1.70015,-2.80561 0.393,0 1.28896,-0.4161 1.99101,-0.92466 1.18021,-0.85494 1.31564,-1.10919 1.79574,-3.3712 0.28561,-1.34559 0.57466,-2.62293 0.64234,-2.83853 0.13152,-0.41893 3.84993,-0.49657 5.63075,-0.11755 l 0.94079,0.20022 0.15681,3.29067 0.1568,3.29066 2.9792,0.1568 2.97919,0.1568 0.21776,2.352 c 0.12242,1.32232 0.0829,2.86683 -0.0905,3.528 l -0.30823,1.176 h -2.7918 c -1.5355,0 -2.86725,0.12205 -2.95945,0.27123 -0.23653,0.38272 0.42321,7.57663 0.77379,8.43746 0.41239,1.01259 1.49182,1.33019 3.248,0.95564 0.81637,-0.17412 1.54833,-0.25257 1.62658,-0.17432 0.29673,0.29671 1.38145,4.65522 1.38145,5.55075 0,1.24926 -0.87996,1.67769 -5.13056,2.49798 -1.85266,0.35752 -3.3966,0.63459 -3.43096,0.61569 -0.0344,-0.0189 -0.66611,-0.15333 -1.40389,-0.29873 z m 6.57479,-2.02509 c 2.15111,-0.74615 2.33031,-1.08288 1.62412,-3.05216 l -0.59013,-1.64566 -2.14004,-0.15681 c -2.46729,-0.18077 -2.81124,-0.47791 -3.32474,-2.87236 -0.48052,-2.24052 -0.4372,-8.94108 0.0598,-9.25501 0.2156,-0.13618 1.56246,-0.21328 2.99301,-0.17134 l 2.60102,0.0762 -0.0922,-2.27757 -0.0922,-2.27757 -2.9792,-0.1568 -2.9792,-0.1568 -0.0887,-2.78385 c -0.11888,-3.73113 -0.26504,-3.95855 -2.54426,-3.95855 h -1.82688 l -0.18317,1.54655 c -0.34519,2.91467 -1.75031,4.82574 -4.37299,5.94759 -1.41615,0.60575 -1.4896,0.69791 -1.4896,1.86916 0,1.30139 0.33635,1.6127 1.74239,1.6127 1.46132,0 1.80967,1.38225 2.01529,7.9968 0.24271,7.80781 0.62774,8.69645 4.29289,9.90805 2.12249,0.70164 5.01438,0.62611 7.3748,-0.19264 z m 14.30139,2.08614 c -0.81203,-0.12335 -1.57721,-0.32507 -1.70041,-0.44826 -0.27862,-0.27862 -0.46275,-3.32347 -0.24467,-4.04606 0.0885,-0.29301 0.44869,-0.62414 0.80057,-0.73582 1.08355,-0.3439 1.62466,-2.1789 1.61416,-5.47382 -0.005,-1.63856 -0.17265,-3.5726 -0.37206,-4.29789 -0.34219,-1.24462 -0.51902,-1.49967 -1.7791,-2.56592 -0.43188,-0.36545 -0.47931,-0.8168 -0.29656,-2.8224 0.11965,-1.31306 0.31082,-2.47526 0.42482,-2.58268 0.11396,-0.10741 2.21367,-0.28561 4.66595,-0.396 l 4.45867,-0.2007 0.48286,0.93376 0.48288,0.93376 1.12679,-0.76467 c 2.09454,-1.4214 5.49329,-1.46255 8.24679,-0.0998 1.24607,0.61667 1.67099,0.70578 1.92219,0.40311 0.17736,-0.21371 1.0536,-0.70308 1.94722,-1.0875 3.21576,-1.3834 7.73026,-0.29739 8.8857,2.13751 0.72699,1.53204 1.05031,4.49911 1.06593,9.78227 l 0.0134,4.5472 1.22244,0.51323 c 1.20383,0.50541 1.22581,0.5447 1.4439,2.58113 0.12179,1.13733 0.14699,2.2619 0.056,2.49903 -0.23558,0.6139 -3.81752,0.82641 -13.95102,0.82771 -7.42017,9.6e-4 -8.58135,-0.0631 -8.74224,-0.48237 -0.15778,-0.41121 -0.27515,-0.38727 -0.78511,0.1601 -0.5118,0.54935 -0.9813,0.64357 -3.20695,0.64357 -1.43406,0 -3.43953,0.0598 -4.45658,0.13293 -1.01706,0.0732 -2.51359,0.032 -3.32562,-0.0914 z m 10.10041,-2.41449 c 0,-0.70993 -0.28639,-1.494 -0.78399,-2.1464 -0.76536,-1.00342 -0.78401,-1.15493 -0.78401,-6.36947 0,-4.50474 0.0783,-5.40658 0.49972,-5.75632 0.77753,-0.64529 2.55271,-0.51222 3.31332,0.24839 0.63688,0.63688 0.6612,0.92756 0.61526,7.35391 -0.0263,3.67995 0.0649,6.86121 0.20259,7.06947 0.2852,0.43124 5.95285,0.62501 7.3643,0.25178 1.25704,-0.33238 1.21281,-1.90809 -0.0856,-3.04738 l -0.94796,-0.83182 0.0855,-5.74521 0.0856,-5.74522 1.47893,-0.0951 c 2.82655,-0.18183 2.76954,-0.33727 2.54335,6.93363 -0.10869,3.49433 -0.10565,6.8426 0.007,7.44062 l 0.20447,1.0873 4.13113,0.0823 c 4.71102,0.0939 5.2786,-0.0105 5.27261,-0.96583 -0.009,-1.54784 -0.36608,-2.08677 -1.59966,-2.41894 l -1.21845,-0.3281 -0.0137,-3.8295 c -0.007,-2.10624 -0.13454,-5.28883 -0.28226,-7.07244 -0.24276,-2.93109 -0.35211,-3.33011 -1.13726,-4.14963 -2.02258,-2.11112 -5.72329,-2.44245 -7.90552,-0.70781 -1.83664,1.45993 -1.89992,1.47345 -3.14499,0.67209 -1.8704,-1.20386 -2.80857,-1.50932 -4.63568,-1.50932 -1.61007,0 -1.82276,0.0928 -3.23217,1.4112 -0.82977,0.77615 -1.67547,1.4112 -1.8793,1.4112 -0.20384,0 -0.64284,-0.63505 -0.97554,-1.4112 l -0.60491,-1.4112 -2.75514,0.0312 c -3.9468,0.0448 -4.30257,0.18525 -4.41761,1.74425 -0.0788,1.06717 0.059,1.43355 0.82802,2.2026 1.30418,1.30418 1.75464,3.72821 1.4949,8.04446 -0.22583,3.75289 -0.64521,5.11149 -1.87685,6.0803 -0.57173,0.44972 -0.822,0.94316 -0.822,1.62065 v 0.97407 h 5.48799 5.488 z m 1.36701,-7.52053 c -0.0518,-2.8542 -0.17723,-5.32379 -0.27871,-5.48799 -0.10144,-0.1642 -0.45842,-0.29855 -0.7932,-0.29855 -0.57708,0 -0.60869,0.25975 -0.60869,5.00049 v 5.00048 l 0.86239,0.45425 c 0.47432,0.24984 0.87365,0.46921 0.8874,0.48752 0.0138,0.0182 -0.0174,-2.302 -0.0692,-5.1562 z m 10.96251,-0.6905 c -0.0317,-2.71658 -0.067,-5.05489 -0.0784,-5.19625 -0.0117,-0.14135 -0.33824,-0.21191 -0.72631,-0.1568 -0.69128,0.0982 -0.70737,0.19546 -0.79276,4.79043 -0.0479,2.57962 -0.0171,4.87283 0.0686,5.096 0.0857,0.22318 0.47766,0.40579 0.87114,0.40582 l 0.71545,4e-5 z m 21.79017,10.56207 c -3.64912,-0.54147 -6.59917,-2.86158 -7.64602,-6.01333 -0.40925,-1.23216 -0.48693,-2.3831 -0.3727,-5.52228 0.176,-4.83675 0.83808,-6.86484 2.92106,-8.94782 1.58986,-1.58986 3.16185,-2.21658 6.92433,-2.76058 2.26505,-0.32749 2.81848,-0.3081 4.27069,0.14967 4.39317,1.38483 6.50933,5.07134 6.50933,11.33973 v 2.3685 h -2.30321 c -3.86683,0 -8.98638,0.39259 -8.98638,0.68911 0,0.1541 0.34639,0.62659 0.76973,1.04995 1.04549,1.04547 3.48317,1.05218 6.233,0.0172 1.09971,-0.41393 2.14746,-0.66089 2.32835,-0.5488 0.18088,0.11208 0.88293,1.35834 1.5601,2.76946 l 1.23122,2.56565 -2.06281,0.94157 c -3.70689,1.69202 -7.97875,2.40621 -11.37669,1.90202 z m 9.07869,-2.32195 c 1.35307,-0.51467 2.2736,-1.04563 2.2736,-1.3114 0,-0.34022 -1.05887,-2.75104 -1.3848,-3.15288 -0.0293,-0.0361 -1.14631,0.28138 -2.4822,0.7056 -2.87721,0.91369 -4.06338,0.96127 -5.53474,0.22203 -1.14072,-0.57311 -2.51849,-2.31953 -2.51025,-3.18188 0.0123,-1.28054 0.36765,-1.36824 6.1557,-1.51912 3.31775,-0.0865 5.68099,-0.27676 5.79949,-0.46697 0.47406,-0.76096 -0.6994,-6.449 -1.64664,-7.98166 -1.92721,-3.11832 -7.59836,-3.99463 -11.86375,-1.83319 -1.59605,0.80877 -3.30991,2.54657 -3.83185,3.88535 -0.62539,1.60412 -1.2527,6.45734 -1.04855,8.11218 0.3098,2.51138 1.76166,5.08014 3.48525,6.16644 2.67618,1.68666 8.64599,1.85525 12.58874,0.3555 z m -8.80693,-11.03642 c -0.36797,-0.36799 -0.22415,-1.98812 0.25955,-2.92347 0.85303,-1.64958 2.30877,-2.28895 3.39804,-1.49244 0.66221,0.4842 1.23759,3.65792 0.76744,4.23297 -0.3358,0.41072 -4.04394,0.56403 -4.42503,0.18294 z m 3.24053,-1.99598 c 0,-1.26266 -0.84107,-1.59294 -1.61684,-0.63491 -0.89506,1.10535 -0.73779,1.58555 0.51925,1.58555 1.01301,0 1.09759,-0.0733 1.09759,-0.95064 z M 73.116737,177.55217 c -2.782524,-0.77267 -3.802716,-1.43335 -5.058579,-3.27595 -3.3772,-4.95501 -3.345209,-12.12688 0.07063,-15.83262 2.285204,-2.47916 5.969687,-3.76937 10.139301,-3.55052 5.785509,0.30366 9.651759,3.79928 10.612105,9.59479 0.604247,3.64651 -0.688793,8.06442 -3.081333,10.52793 -0.614994,0.63324 -1.850222,1.53009 -2.744949,1.993 -1.410726,0.72988 -2.064089,0.85365 -4.919575,0.932 -2.24273,0.0615 -3.842834,-0.0624 -5.017597,-0.38863 z m 8.885302,-1.71531 c 1.997492,-0.74736 3.989998,-2.69587 4.963026,-4.85344 0.550249,-1.2201 0.709936,-2.15941 0.719732,-4.23359 0.01526,-3.23054 -0.621538,-4.84278 -2.856567,-7.2322 -2.779823,-2.97186 -5.383225,-3.75703 -9.890204,-2.98284 -3.407498,0.58532 -4.879196,1.42203 -6.21999,3.53625 -1.430515,2.25568 -1.655411,3.29308 -1.474596,6.80201 0.194848,3.7813 0.836794,5.77326 2.384219,7.3983 2.231713,2.34365 8.257202,3.10594 12.37438,1.56551 z m -5.418537,-3.5282 c -1.281768,-0.64494 -1.958301,-2.22084 -2.264677,-5.27531 -0.442304,-4.40963 0.294706,-6.12569 2.771969,-6.45428 1.93896,-0.2572 2.562499,0.67243 2.970708,4.42902 0.392665,3.61353 0.165244,5.55465 -0.771265,6.58307 -0.883938,0.97069 -1.74821,1.19979 -2.706735,0.7175 z m 2.202201,-2.65287 c 0.231111,-0.70027 0.311855,-2.22948 0.215244,-4.07651 -0.179484,-3.43138 -0.591268,-4.17524 -2.031019,-3.66891 -1.364895,0.48001 -1.717801,1.49949 -1.521106,4.39416 0.208742,3.072 0.66342,4.48824 1.548777,4.82422 0.8521,0.32333 1.323402,-0.0649 1.788104,-1.47296 z"
       id="path2" /></g></svg>
