<?xml version="1.0" encoding="UTF-8" standalone="no"?>
<!-- Created with Inkscape (http://www.inkscape.org/) -->

<svg
   width="175.97807mm"
   height="34.344303mm"
   viewBox="0 0 175.97807 34.344303"
   version="1.1"
   id="svg1"
   xml:space="preserve"
   xmlns:inkscape="http://www.inkscape.org/namespaces/inkscape"
   xmlns:sodipodi="http://sodipodi.sourceforge.net/DTD/sodipodi-0.dtd"
   xmlns="http://www.w3.org/2000/svg"
   xmlns:svg="http://www.w3.org/2000/svg"><sodipodi:namedview
     id="namedview1"
     pagecolor="#ffffff"
     bordercolor="#000000"
     borderopacity="0.25"
     inkscape:showpageshadow="2"
     inkscape:pageopacity="0.0"
     inkscape:pagecheckerboard="0"
     inkscape:deskcolor="#d1d1d1"
     inkscape:document-units="mm" /><defs
     id="defs1" /><g
     inkscape:label="Layer 1"
     inkscape:groupmode="layer"
     id="layer1"
     transform="translate(-8.5802548,-191.20457)"><path
       style="fill:#f9d33b;fill-opacity:1;stroke-width:1.22816"
       d="m 49.079329,225.2772 c -6.55527,-1.10765 -11.031143,-7.09144 -10.619775,-14.19757 0.338412,-5.84588 3.959886,-9.86563 10.207871,-11.3305 6.384081,-1.49679 12.118333,0.89231 14.685517,6.11852 1.378715,2.80674 1.861467,5.80046 1.388514,8.61067 -1.002297,5.95547 -4.873771,9.84107 -10.745846,10.78505 -2.349693,0.37774 -2.755893,0.37888 -4.916281,0.0139 z m 7.957873,-2.71993 c 2.143331,-1.04864 3.88648,-2.90282 5.038221,-5.35913 0.736847,-1.57147 0.856295,-2.25683 0.856295,-4.91323 0,-2.26435 -0.166043,-3.51757 -0.623066,-4.70262 -0.868017,-2.25074 -3.024228,-4.44223 -5.474832,-5.5644 -1.762276,-0.80699 -2.406318,-0.92586 -4.95038,-0.91375 -4.883351,0.0232 -8.328839,1.91399 -10.393598,5.70361 -0.787743,1.4458 -0.971013,2.2154 -1.083217,4.54872 -0.179389,3.73044 0.664239,6.39079 2.768932,8.73172 2.485685,2.76467 4.741577,3.62081 9.097711,3.45266 2.42892,-0.0937 3.322137,-0.27818 4.763934,-0.98358 z m -6.915153,-4.61388 c -2.550749,-2.14632 -2.417308,-8.79068 0.218182,-10.86376 0.887309,-0.69796 2.668205,-0.84718 3.67568,-0.308 2.514828,1.34589 2.769047,8.80934 0.38139,11.19699 -1.122107,1.12212 -2.924353,1.11147 -4.275252,-0.0252 z m 3.189223,-0.96761 c 2.665502,-2.24287 1.836212,-8.91522 -1.108051,-8.91522 -2.270135,0 -3.267373,6.9929 -1.280571,8.97971 0.965783,0.96579 1.170793,0.96025 2.388622,-0.0645 z m 46.800048,8.01706 c -3.209733,-0.66143 -5.018897,-2.62563 -6.018148,-6.5339 -0.432035,-1.68978 -0.499799,-2.96495 -0.338853,-6.37647 l 0.201177,-4.26431 -1.601701,-0.21248 c -1.589451,-0.21085 -1.603267,-0.22297 -1.806451,-1.58478 -0.305705,-2.04895 -0.07069,-4.19065 0.492495,-4.48811 0.268084,-0.14161 0.856036,-0.33365 1.306561,-0.42678 1.861192,-0.38474 4.610366,-4.05771 4.742633,-6.33627 0.04566,-0.78659 0.275215,-1.55205 0.510119,-1.70102 0.60462,-0.3834 5.058748,-0.34652 5.795908,0.048 0.81329,0.43525 1.28862,2.25861 1.29084,4.95166 l 10e-4,2.1934 h 2.55981 c 1.66953,0 2.67862,0.14316 2.90144,0.41165 0.1879,0.22641 0.44296,1.66042 0.56681,3.1867 0.29528,3.63923 0.0878,3.87549 -3.40374,3.87549 h -2.52845 l -0.19401,2.68083 c -0.29045,4.01333 0.33543,6.41775 1.67057,6.41775 0.28491,0 1.15266,-0.24238 1.92835,-0.53861 1.29213,-0.49347 1.45387,-0.49509 1.92967,-0.0193 0.67989,0.67989 1.3698,6.56065 0.83269,7.09778 -0.95657,0.95657 -8.54999,2.09056 -10.83954,1.61877 z m 7.01747,-2.33441 2.18457,-0.67475 -0.14612,-1.76199 c -0.0803,-0.9691 -0.22598,-1.84187 -0.32359,-1.93948 -0.0976,-0.0976 -0.8201,-0.0157 -1.60552,0.1821 -1.75099,0.44091 -2.92446,0.0674 -3.75198,-1.19416 -0.48303,-0.73639 -0.60534,-1.74648 -0.69796,-5.764 -0.12895,-5.59337 -0.0604,-5.75144 2.37317,-5.47713 0.78949,0.089 1.96344,0.0627 2.60876,-0.0583 l 1.17332,-0.22011 -0.0969,-1.85079 -0.0969,-1.8508 -2.48949,-0.0944 c -1.8073,-0.0685 -2.6087,-0.23801 -2.92454,-0.61851 -0.26581,-0.32022 -0.49828,-1.73734 -0.59754,-3.64254 l -0.16248,-3.1184 -1.67665,-0.0971 c -1.660113,-0.0963 -1.678953,-0.0866 -1.908495,0.97484 -0.630363,2.91486 -3.046786,5.95654 -5.549682,6.98569 -1.472951,0.60565 -1.584933,0.8469 -1.226055,2.64128 0.177614,0.88807 0.300321,0.97978 1.097625,0.82031 0.493709,-0.0987 1.196568,-0.0195 1.561906,0.17597 0.626573,0.33534 0.670301,0.70122 0.770907,6.45043 0.09626,5.50122 0.17479,6.22155 0.806097,7.39474 0.812368,1.50964 1.887862,2.58847 3.037501,3.04689 1.433746,0.57172 5.292916,0.41529 7.640096,-0.30968 z m 9.72601,1.83912 c -2.57613,-1.30907 -4.04335,-3.84574 -4.04335,-6.9905 0,-2.12358 1.33453,-4.69593 3.01226,-5.80619 1.17491,-0.77752 1.65733,-0.8756 4.75305,-0.96635 4.70536,-0.13795 4.90771,-0.19575 4.90771,-1.40171 0,-2.29821 -1.23983,-2.89112 -2.66039,-1.27224 -0.84873,0.96724 -0.88212,0.97484 -4.27554,0.97484 -5.0402,0 -5.85789,-0.48029 -5.10363,-2.99781 0.63968,-2.13509 3.29473,-4.54129 6.00675,-5.4438 3.74675,-1.24683 9.15709,-0.89792 12.5318,0.80818 1.80873,0.91441 2.37731,1.53174 3.30051,3.58345 0.63493,1.41107 0.74829,2.3447 0.90602,7.46196 l 0.18028,5.84909 1.05567,0.10181 c 0.60234,0.0581 1.16048,0.33716 1.29979,0.6499 0.30999,0.69593 0.32068,4.8032 0.0133,5.11116 -0.4382,0.43904 -3.02863,0.77034 -6.10568,0.78088 -4.0812,0.014 -5.56889,-0.24567 -5.7679,-1.00667 -0.20557,-0.78613 -0.43462,-0.76179 -2.44787,0.26009 -2.52946,1.2839 -5.40673,1.39953 -7.56279,0.30393 z m 4.75253,-1.35366 c 0.97074,-0.28284 2.53045,-0.94086 3.46603,-1.46227 2.28137,-1.27145 2.92618,-1.24167 3.18673,0.14721 l 0.20546,1.09524 3.25449,0.15671 c 1.78997,0.0862 3.71476,0.0634 4.27732,-0.0507 0.90929,-0.18438 1.03433,-0.34673 1.12654,-1.4626 0.11507,-1.39176 -0.2498,-1.79594 -1.62806,-1.80378 -0.48093,-0.002 -0.98489,-0.18372 -1.11992,-0.40218 -0.13501,-0.21846 -0.21044,-2.83382 -0.1676,-5.8119 0.0958,-6.66054 -0.18434,-8.00709 -1.98668,-9.54983 -4.05216,-3.46849 -12.71881,-2.89671 -16.20062,1.06884 -1.69789,1.93379 -0.96778,2.57474 3.00102,2.63458 1.92331,0.029 2.27742,-0.0699 3.37542,-0.94246 1.47874,-1.17516 2.53104,-1.23542 3.56247,-0.20398 0.76067,0.76066 1.47361,2.67531 1.46745,3.9409 -0.007,1.46787 -0.39376,1.60656 -5.01161,1.79773 -4.85731,0.2011 -5.44521,0.42257 -6.95218,2.61896 -0.96894,1.41223 -0.82597,3.13474 0.47639,5.73963 0.67252,1.34515 1.25114,2.02556 2.07065,2.43496 1.38673,0.69275 1.40657,0.69304 3.5967,0.0549 z m 2.35257,-3.71322 c -1.0436,-0.42036 -1.83518,-1.788 -1.59311,-2.75247 0.3993,-1.59093 3.46238,-2.70238 4.5234,-1.64135 0.72026,0.72025 0.74228,3.50231 0.0334,4.21125 -0.55613,0.55612 -1.8399,0.63522 -2.96364,0.18257 z m 1.84952,-2.25235 c 0,-0.87499 -0.61472,-1.16847 -1.20695,-0.57623 -0.59224,0.59223 -0.29876,1.20695 0.57623,1.20695 0.4077,0 0.63072,-0.22302 0.63072,-0.63072 z m 47.54867,7.77969 c -2.73696,-0.57045 -4.13711,-1.71849 -5.35022,-4.3869 -0.65545,-1.44176 -0.75236,-2.25046 -0.86035,-7.18053 l -0.12171,-5.5558 -1.51742,-0.29329 -1.51742,-0.2933 -0.24542,-2.11218 c -0.34514,-2.97041 -0.16487,-3.48267 1.37123,-3.89628 2.54046,-0.68409 5.21069,-3.98318 5.21069,-6.43787 0,-1.71213 0.53466,-2.01392 3.56786,-2.01392 2.02015,0 2.41109,0.10034 3.10838,0.7976 0.68915,0.68916 0.79821,1.09785 0.80204,3.00578 0.007,3.7028 -0.0185,3.67045 2.94657,3.67045 3.08174,0 3.15622,0.0871 3.26693,3.82083 0.10403,3.50789 -0.0349,3.65301 -3.49566,3.65301 h -2.72228 l 0.001,3.16826 c 0.002,3.48905 0.42033,5.53837 1.19091,5.83407 0.2763,0.10599 1.30733,-0.0609 2.29121,-0.37111 2.15057,-0.67791 2.38268,-0.52176 2.73597,1.84067 0.70577,4.71949 0.7043,4.61188 0.0705,5.17023 -1.24362,1.09562 -8.16785,2.11505 -10.73367,1.58028 z m 7.64608,-2.42056 1.74057,-0.54979 -0.22843,-1.84559 c -0.12563,-1.01509 -0.26802,-1.88713 -0.31641,-1.93789 -0.0484,-0.0507 -0.75106,0.0564 -1.56147,0.23795 -2.0383,0.45678 -3.27248,-0.0195 -4.01452,-1.54932 -0.48618,-1.00231 -0.56946,-1.95565 -0.51433,-5.88814 0.0453,-3.23009 0.18701,-4.76715 0.45481,-4.93266 0.21397,-0.13224 1.07823,-0.15881 1.92058,-0.0591 0.84234,0.0997 2.05671,0.0829 2.69858,-0.0376 1.10962,-0.20816 1.16706,-0.28324 1.16706,-1.52538 0,-2.28489 -0.33467,-2.56351 -3.07927,-2.56351 -1.57223,0 -2.49513,-0.1408 -2.66215,-0.40618 -0.14058,-0.22341 -0.40512,-1.86846 -0.58783,-3.65568 l -0.3322,-3.24949 h -1.58889 c -1.57231,0 -1.59293,0.0135 -1.97739,1.29979 -0.98405,3.29213 -3.25943,5.9702 -5.69164,6.69891 -1.15678,0.34658 -1.16255,0.35743 -0.98954,1.86157 0.17254,1.50008 0.1837,1.51222 1.31134,1.42741 2.08845,-0.15707 2.11128,-0.0885 2.12034,6.36801 0.009,5.81658 0.009,5.81919 0.98218,7.72307 1.44465,2.82479 2.68334,3.44971 6.48349,3.2709 1.6085,-0.0756 3.7078,-0.38501 4.66512,-0.68738 z M 20.36335,224.44049 C 13.748213,222.96814 9.8586466,219.15465 8.8058523,213.10906 8.0752462,208.91361 9.1846375,202.35215 11.189488,199.0111 c 2.088016,-3.47963 6.25176,-6.30999 10.885098,-7.39929 4.160013,-0.97801 10.51286,-0.11851 13.053881,1.766 1.901613,1.41034 2.123726,2.06679 2.247679,6.64302 0.140911,5.20231 0.207831,5.11518 -3.929224,5.11518 -2.621548,0 -2.948081,-0.0709 -3.674811,-0.7976 -0.667289,-0.66728 -0.797604,-1.11206 -0.797604,-2.72228 0,-2.20487 -0.32903,-2.63684 -2.180664,-2.8629 -3.456739,-0.42203 -5.948324,4.53693 -5.540372,11.02693 0.297696,4.73599 1.366263,6.0091 5.309287,6.32561 1.736555,0.13938 2.096793,0.0685 2.695516,-0.53019 0.404248,-0.40425 0.691082,-1.10456 0.691082,-1.68729 0,-1.81336 0.421848,-2.16443 2.899902,-2.41329 2.513889,-0.25246 4.381607,0.16964 4.731523,1.06933 0.360745,0.92753 0.595982,6.0403 0.352588,7.66338 -0.326825,2.17942 -1.673808,3.61656 -3.853254,4.11118 -2.807576,0.63715 -11.071248,0.71041 -13.716765,0.12158 z m 9.763479,-1.60424 c 5.21622,-0.73223 5.979763,-1.43956 6.213459,-5.75596 0.0799,-1.47577 0.01621,-2.86987 -0.141534,-3.09799 -0.417189,-0.60334 -3.519653,-0.91015 -4.124809,-0.4079 -0.267603,0.22208 -0.582777,1.12919 -0.700388,2.01578 -0.326298,2.45976 -0.645648,2.63628 -4.487904,2.48075 -2.286088,-0.0925 -3.596794,-0.30435 -4.347419,-0.70253 -3.386558,-1.79647 -4.957087,-9.35174 -3.015688,-14.50743 1.305111,-3.46593 3.80178,-5.17931 7.565077,-5.19165 2.657742,-0.009 3.186683,0.51449 3.186683,3.15218 0,2.29038 0.697106,3.01472 2.901333,3.01472 2.367205,0 2.622805,-0.39968 2.622805,-4.10122 0,-2.07682 -0.155865,-3.38135 -0.478559,-4.00538 -1.394095,-2.69587 -9.667435,-3.8087 -14.874884,-2.00077 -5.891275,2.04534 -9.378262,6.87537 -9.877426,13.68182 -0.563623,7.68539 3.85439,13.87428 11.01471,15.42974 2.707841,0.58824 4.330039,0.58744 8.544544,-0.004 z m 117.129251,1.5298 c -2.39085,-0.79232 -3.08501,-1.19281 -4.78773,-2.76233 -4.978,-4.58856 -4.69491,-14.11546 0.55984,-18.83991 3.07965,-2.76888 7.23642,-3.66154 12.5141,-2.68742 3.58255,0.66127 6.25771,1.87042 6.52892,2.95105 0.35796,1.42621 -1.2e-4,7.49896 -0.47591,8.07119 -0.35869,0.4314 -1.06638,0.53637 -3.61589,0.53637 -3.58431,0 -3.85009,-0.14615 -4.13552,-2.27424 -0.48424,-3.61027 -4.31691,-1.13623 -4.31135,2.78303 0.006,4.61226 1.98641,5.71154 6.99614,3.88437 2.22866,-0.81283 2.50372,-0.84854 3.00794,-0.39049 0.87012,0.79047 2.55804,5.98087 2.15352,6.62217 -0.18292,0.28999 -1.64102,0.96203 -3.24022,1.49343 -3.78803,1.25871 -8.47111,1.51508 -11.19384,0.61278 z m 10.13138,-1.99906 c 2.88146,-0.88999 3.05395,-1.14439 2.33099,-3.43789 -0.31986,-1.01474 -0.77581,-1.91951 -1.01322,-2.01061 -0.2374,-0.0911 -1.37826,0.14512 -2.53525,0.52494 -6.23574,2.04705 -8.95308,-0.65081 -7.57367,-7.51939 0.49712,-2.47539 1.70311,-3.65069 3.74596,-3.65069 1.20673,0 1.60912,0.1628 2.25331,0.91172 0.43133,0.50145 0.78424,1.16679 0.78424,1.47852 0,0.31173 0.17547,0.74226 0.38994,0.95672 0.55036,0.55038 3.66215,0.50161 4.13219,-0.0647 0.24314,-0.29296 0.34397,-1.52474 0.28349,-3.463 l -0.0938,-3.0083 -1.78722,-0.65614 c -1.41896,-0.52095 -2.62418,-0.66108 -5.84909,-0.6801 -3.60462,-0.0213 -4.25308,0.0625 -5.7604,0.74397 -3.51677,1.59001 -5.57136,5.11063 -5.86182,10.04444 -0.19305,3.27917 0.38049,5.04968 2.31594,7.1494 3.16173,3.43007 8.53679,4.44222 14.23846,2.68116 z m -91.917056,2.01069 c -0.584859,-0.37189 -1.076414,-1.90813 -1.076414,-3.36408 0,-1.10837 0.193647,-1.47625 1.299797,-2.46927 l 1.299799,-1.16685 v -3.1372 c 0,-3.7804 -0.59473,-6.0189 -1.942059,-7.30972 -0.913059,-0.87477 -0.982134,-1.10347 -0.97751,-3.23638 0.0027,-1.2623 0.136071,-2.50219 0.296297,-2.75533 0.2246,-0.35482 1.441433,-0.48976 5.312967,-0.58917 4.238616,-0.10881 5.100846,-0.0497 5.529581,0.37901 0.660966,0.66097 1.146441,0.64056 2.868932,-0.1206 2.171715,-0.95963 4.448599,-1.15449 6.504903,-0.55671 2.050105,0.59598 3.190508,1.65867 4.235929,3.94727 0.671479,1.47 0.753463,2.20776 0.86068,7.74523 l 0.118504,6.12046 0.913277,0.31838 c 0.533924,0.18612 1.078007,0.71606 1.309857,1.27579 0.460495,1.11174 0.198583,3.34287 -0.521596,4.44329 -0.461955,0.70587 -0.651491,0.73114 -5.484505,0.73114 -5.971208,0 -6.019561,-0.0242 -6.042832,-3.02899 -0.0086,-1.10425 -0.140361,-4.485 -0.292909,-7.5128 -0.237524,-4.71438 -0.36089,-5.56614 -0.858931,-5.93031 -0.747263,-0.54642 -0.950734,-0.53537 -1.57147,0.0853 -0.412016,0.41202 -0.510634,1.32923 -0.510634,4.74918 v 4.23855 l 1.218559,1.11616 c 1.15035,1.05367 1.218561,1.22599 1.218561,3.07832 0,3.11483 -0.210862,3.20564 -7.428598,3.19955 -3.24188,-0.002 -6.067963,-0.11545 -6.280185,-0.25032 z m 11.820427,-1.39277 c 0.633572,-0.24089 0.751033,-0.51786 0.751033,-1.77097 0,-1.30845 -0.115533,-1.55138 -0.969761,-2.03897 -0.533368,-0.30446 -1.060728,-0.77289 -1.171909,-1.04097 -0.321923,-0.77624 -0.567558,-7.59994 -0.320906,-8.9147 0.29431,-1.56881 1.21808,-2.4598 2.543814,-2.45356 2.397109,0.0111 2.641621,0.77553 2.840006,8.87667 0.202484,8.26847 -0.11649,7.78024 4.985559,7.63116 3.038935,-0.0888 3.582939,-0.18907 3.98063,-0.73363 0.792314,-1.08493 0.579098,-2.34953 -0.504014,-2.98934 -0.530561,-0.31341 -1.067955,-0.79693 -1.194208,-1.07447 -0.126254,-0.27753 -0.313624,-3.35604 -0.416378,-6.84113 -0.165206,-5.60326 -0.264065,-6.46799 -0.854293,-7.47273 -0.910934,-1.55066 -2.386268,-2.46945 -4.392694,-2.73561 -1.504162,-0.19953 -1.941709,-0.10058 -4.113108,0.93066 -1.336438,0.63468 -2.653841,1.15395 -2.92756,1.15395 -0.27372,0 -0.822845,-0.35087 -1.22028,-0.7797 -0.699143,-0.7544 -0.837525,-0.77412 -4.261604,-0.60773 -1.946449,0.0946 -3.721782,0.31715 -3.945184,0.49455 -0.223403,0.17741 -0.406187,0.87961 -0.406187,1.56043 0,0.99778 0.184553,1.3693 0.951453,1.91539 1.294298,0.92162 1.577686,2.03882 1.837581,7.24436 l 0.222954,4.46562 -1.343519,1.2281 c -1.099249,1.00481 -1.343518,1.44112 -1.343518,2.39976 0,1.41364 0.41412,1.80558 2.11629,2.00292 1.815213,0.21045 8.250571,-0.10587 9.155803,-0.45006 z"
       id="path4" /></g></svg>
