<?xml version="1.0" encoding="UTF-8" standalone="no"?>
<!-- Created with Inkscape (http://www.inkscape.org/) -->

<svg
   width="187.17575mm"
   height="33.077621mm"
   viewBox="0 0 187.17575 33.077621"
   version="1.1"
   id="svg1"
   xml:space="preserve"
   xmlns:inkscape="http://www.inkscape.org/namespaces/inkscape"
   xmlns:sodipodi="http://sodipodi.sourceforge.net/DTD/sodipodi-0.dtd"
   xmlns="http://www.w3.org/2000/svg"
   xmlns:svg="http://www.w3.org/2000/svg"><sodipodi:namedview
     id="namedview1"
     pagecolor="#ffffff"
     bordercolor="#000000"
     borderopacity="0.25"
     inkscape:showpageshadow="2"
     inkscape:pageopacity="0.0"
     inkscape:pagecheckerboard="0"
     inkscape:deskcolor="#d1d1d1"
     inkscape:document-units="mm" /><defs
     id="defs1" /><g
     inkscape:label="Layer 1"
     inkscape:groupmode="layer"
     id="layer1"
     transform="translate(-8.0418064,-59.25598)"><path
       style="fill:#fad33b;fill-opacity:0.956863"
       d="m 59.915584,91.824135 c -2.42428,-0.90027 -3.756169,-1.56277 -3.901099,-1.94045 -0.07407,-0.19302 0.08855,-0.84252 0.361375,-1.44333 0.272827,-0.60081 0.681415,-1.60704 0.907975,-2.23607 0.566515,-1.57291 0.964936,-1.77835 2.153423,-1.11038 1.102783,0.61979 1.679423,0.51718 2.130557,-0.37916 0.441065,-0.87632 0.624783,-11.83013 0.206862,-12.3337 -0.154361,-0.18599 -0.639104,-0.33817 -1.077208,-0.33817 -1.095052,0 -1.202874,-0.46216 -0.553095,-2.37075 0.670839,-1.97046 1.111564,-2.41828 2.157066,-2.19181 1.030716,0.22327 1.970519,0.24633 4.725367,0.11594 l 2.321076,-0.10986 0.216306,0.81783 c 0.124473,0.47062 0.164122,4.24034 0.09339,8.8793 -0.172955,11.34346 -0.534994,13.25396 -2.743972,14.48015 -0.860287,0.47754 -1.422344,0.58976 -3.259374,0.65077 -1.887658,0.0627 -2.447095,-0.0107 -3.738651,-0.49031 z m 5.836984,-1.26362 c 1.422614,-0.71474 1.873983,-1.68614 1.873983,-4.03303 0,-1.1201 0.107914,-2.60293 0.239809,-3.29518 0.466212,-2.44692 0.679801,-6.68072 0.533526,-10.57564 l -0.14807,-3.9427 -1.773043,0.19853 c -0.975173,0.1092 -2.433838,0.20102 -3.241478,0.20405 -1.046186,0.004 -1.532289,0.1063 -1.690498,0.35601 -0.42452,0.67005 -0.241777,1.15681 0.560086,1.49185 0.434117,0.18139 0.865541,0.45315 0.95872,0.60391 0.304178,0.49217 0.392782,8.45135 0.122073,10.96568 -0.303262,2.81667 -0.613587,3.70761 -1.5497,4.44912 -0.582126,0.46112 -0.848153,0.51321 -2.010539,0.39373 -1.314423,-0.13512 -1.346638,-0.12418 -1.711305,0.58101 -0.204415,0.39529 -0.337057,0.75332 -0.29476,0.79562 0.0423,0.0423 1.127833,0.55613 2.412303,1.14185 2.649025,1.20797 4.264553,1.39588 5.718893,0.66519 z M 8.2170558,85.231435 c -0.096387,-0.0996 -0.1752493,-1.05499 -0.1752493,-2.12299 0,-2.14363 0.1834285,-2.42706 1.7866796,-2.76074 1.5268949,-0.31779 1.5303349,-0.33395 1.6645299,-7.81683 l 0.121431,-6.77108 -0.676409,-0.1437 c -1.2710802,-0.27002 -1.3730787,-0.41727 -1.4469767,-2.08902 -0.038265,-0.86564 0.03482,-1.69967 0.1624097,-1.8534 0.2836231,-0.341749 9.96194,-0.348895 10.303223,-0.008 0.543547,0.54354 2.703169,5.38345 3.535484,7.92333 1.005136,3.06725 1.213004,3.51495 1.538568,3.31375 0.119493,-0.0739 0.599221,-1.00739 1.066063,-2.07452 0.466841,-1.06713 1.431804,-3.27365 2.144361,-4.90338 0.734839,-1.68069 1.23323,-3.12557 1.151546,-3.33844 -0.08026,-0.20916 0.03972,-0.57831 0.271041,-0.83392 0.384504,-0.424869 0.739707,-0.458625 4.82599,-0.458625 6.059165,0 6.265253,0.108296 6.265253,3.292305 0,1.28592 -0.348602,1.61467 -1.712132,1.61467 -0.52141,0 -0.85852,0.13116 -0.950024,0.36961 -0.07801,0.20329 -0.141832,3.35777 -0.141832,7.00997 v 6.64036 h 0.807241 c 0.731456,0 0.817999,0.0713 0.921815,0.75942 0.06302,0.41767 0.09407,1.43972 0.069,2.2712 -0.06427,2.1323 -0.0041,2.11326 -6.471374,2.04703 l -5.257477,-0.0538 -0.189274,-1.73912 c -0.271122,-2.49117 -0.185735,-2.67719 1.532101,-3.33782 l 1.461161,-0.56192 -0.07527,-1.50338 c -0.0414,-0.82686 -0.158546,-1.87141 -0.260332,-2.32121 l -0.185065,-0.81783 -0.403585,0.93466 c -0.589902,1.36615 -1.772594,3.69311 -2.048642,4.03073 -0.172206,0.21062 -1.239527,0.29208 -3.826637,0.29208 -3.464166,0 -3.59954,-0.0181 -3.927881,-0.52575 -0.187033,-0.28916 -0.414677,-0.84119 -0.505875,-1.22674 -0.219428,-0.92766 -0.913819,-2.29639 -1.347689,-2.65647 -0.299469,-0.24854 -0.369314,-0.0844 -0.503679,1.18396 -0.0858,0.80988 -0.121038,1.89189 -0.07831,2.40446 0.07318,0.87785 0.128694,0.94016 0.956513,1.07354 0.483355,0.0779 0.951452,0.21423 1.040216,0.303 0.216517,0.21651 0.535824,3.19831 0.394804,3.68681 -0.0615,0.21304 -0.291821,0.46406 -0.511832,0.55784 -0.556235,0.2371 -11.1083556,0.43242 -11.3238902,0.20961 z m 10.2185712,-1.36648 c 0.484902,-0.1217 0.588466,-0.28791 0.588466,-0.94438 0,-1.03504 -0.572392,-1.61521 -1.425269,-1.44463 -0.429862,0.086 -0.821688,-0.0113 -1.164757,-0.28907 -0.507334,-0.41082 -0.512126,-0.46626 -0.25673,-2.9704 0.143139,-1.40348 0.327209,-3.3148 0.409045,-4.24739 0.133034,-1.51603 0.205832,-1.70993 0.687324,-1.83078 0.853825,-0.2143 1.438512,0.24757 1.571849,1.24168 0.154145,1.14924 1.751804,4.73444 2.346942,5.26661 0.396818,0.35484 0.770342,0.39309 2.709336,0.27743 3.09497,-0.18461 3.130002,-0.19676 3.56193,-1.23562 0.208012,-0.50031 0.976266,-1.97523 1.707231,-3.27759 1.873663,-3.33832 2.301766,-3.20868 2.597394,0.78655 0.104606,1.41368 0.197832,3.24454 0.207171,4.06858 l 0.01698,1.49826 -1.346255,0.44985 c -1.442035,0.48185 -1.881717,0.97977 -1.76422,1.99792 l 0.07282,0.63102 4.322814,0.0664 c 5.233573,0.0804 5.375484,0.0554 5.370733,-0.94712 -0.0046,-0.9744 -0.203864,-1.26499 -1.005259,-1.46613 -1.034479,-0.25964 -1.327716,-0.93299 -1.064041,-2.44332 0.123401,-0.70683 0.199453,-3.23042 0.169005,-5.60797 -0.107434,-8.389 -0.120996,-8.30684 1.411694,-8.55193 1.203158,-0.19239 1.394416,-0.34049 1.569364,-1.21523 0.110052,-0.55026 0.06469,-0.74904 -0.171731,-0.75249 -0.176709,-0.003 -0.978684,-0.0998 -1.782166,-0.21599 -0.877016,-0.12684 -2.369024,-0.12536 -3.733152,0.004 -2.870037,0.27153 -3.114584,0.49576 -4.696329,4.30613 -0.640187,1.5422 -1.752376,4.00248 -2.471531,5.4673 -0.719154,1.46483 -1.307554,2.79423 -1.307554,2.95424 0,0.35383 -0.58356,0.60499 -1.018167,0.43821 -0.174444,-0.0669 -0.447916,-0.5631 -0.607716,-1.10257 -0.930733,-3.14211 -3.148945,-8.74649 -3.918528,-9.90028 -1.470034,-2.20394 -1.593827,-2.25362 -5.568656,-2.23482 -1.885829,0.009 -3.530552,0.11799 -3.654941,0.24238 -0.465073,0.46507 -0.09696,1.29692 0.660266,1.49206 0.401515,0.10347 0.852631,0.33585 1.002479,0.51641 0.1982,0.23882 0.25397,2.36738 0.204636,7.81023 l -0.06782,7.48194 -0.547906,0.5829 c -0.301349,0.3206 -0.827096,0.64799 -1.168328,0.72755 -1.4188388,0.3308 -1.9055838,0.64338 -1.9055838,1.22376 0,1.34699 0.049469,1.36111 4.6462478,1.32628 2.323444,-0.0176 4.489254,-0.0985 4.81291,-0.1797 z m 24.071865,1.28807 c -1.218082,-0.54065 -2.224361,-2.50289 -2.214692,-4.31864 0.01273,-2.39067 2.181268,-4.72192 5.252346,-5.64644 l 0.934663,-0.28137 -0.934663,-0.26469 c -0.514065,-0.14558 -1.512985,-0.33113 -2.219824,-0.41234 -1.66492,-0.19128 -2.102991,-0.4331 -2.102991,-1.16089 0,-0.83426 1.889492,-3.66056 2.834011,-4.23911 0.433294,-0.26541 1.247147,-0.60474 1.808562,-0.75406 1.326282,-0.35277 5.586219,-0.34308 6.782787,0.0154 1.351467,0.40491 2.471799,1.43531 3.222308,2.96366 0.625878,1.27455 0.6582,1.50144 0.673407,4.72697 0.0088,1.86348 0.03507,3.51607 0.05842,3.67243 0.02334,0.15635 0.521367,0.82353 1.10672,1.4826 0.902251,1.01589 1.053438,1.32481 0.993079,2.02916 -0.116966,1.36492 -0.878355,1.75157 -3.373268,1.71301 -2.550858,-0.0394 -3.822986,-0.31581 -4.329106,-0.94053 -0.386303,-0.47682 -0.394019,-0.47524 -2.417615,0.49575 -1.736796,0.83337 -2.288435,0.9851 -3.818442,1.05029 -0.983602,0.0419 -1.998667,-0.0171 -2.255699,-0.13122 z m 3.988322,-1.53814 c 0.633778,-0.18973 1.880741,-0.77214 2.77103,-1.29425 0.890289,-0.52212 1.762759,-0.89403 1.938823,-0.82647 0.176063,0.0676 0.428762,0.43451 0.561553,0.81543 0.201833,0.57898 0.401244,0.71538 1.215664,0.83154 2.160562,0.30815 3.863348,0.24772 4.263301,-0.15131 0.35979,-0.35896 0.344441,-0.41355 -0.22031,-0.78359 -0.696111,-0.45611 -1.484183,-1.64203 -1.782588,-2.68251 -0.122531,-0.42724 -0.106041,-1.58331 0.04106,-2.87826 0.337795,-2.97372 0.0098,-4.53697 -1.235565,-5.88798 -1.16145,-1.26003 -2.408681,-1.63832 -5.349147,-1.62242 -2.620753,0.0142 -4.017016,0.51557 -4.99074,1.79219 -0.915932,1.20085 -0.815325,1.51554 0.609509,1.90653 2.519883,0.69148 2.452492,0.69589 3.033303,-0.19836 0.932414,-1.4356 2.582558,-1.54174 3.191487,-0.20529 0.340186,0.74663 0.336179,3.27638 -0.0055,3.48757 -0.145726,0.0901 -1.170934,0.17806 -2.27824,0.19556 -2.338953,0.037 -3.605717,0.50467 -5.153083,1.90262 -1.137427,1.02759 -1.652439,1.91545 -1.645216,2.83627 0.0068,0.86759 0.775958,2.52881 1.316266,2.84288 0.617864,0.35915 2.377624,0.32121 3.71842,-0.0801 z m 1.502821,-2.61996 c -1.978183,-0.75479 -1.209652,-3.51946 1.098732,-3.95251 1.249404,-0.23439 1.590326,0.0938 1.578181,1.51918 -0.0082,0.95925 -0.126193,1.31624 -0.584164,1.76702 -0.609113,0.59955 -1.513258,0.88742 -2.092749,0.66631 z m 1.35983,-2.11971 c 0.08532,-0.59805 -0.147274,-0.66125 -0.766703,-0.20831 -0.249757,0.18262 -0.357587,0.4336 -0.25654,0.5971 0.273736,0.44291 0.940741,0.18948 1.023243,-0.38879 z m 0.27583,-4.79944 c 0,-0.73888 -0.338233,-1.3319 -0.759653,-1.3319 -0.168201,0 -0.876007,1.3974 -0.876007,1.72947 0,0.0598 0.289162,0.15262 0.642581,0.20616 0.353419,0.0535 0.721443,0.1131 0.81783,0.13235 0.09639,0.0193 0.175249,-0.31198 0.175249,-0.73608 z m 33.180525,10.86722 c -0.530531,-0.43098 -0.584165,-0.63811 -0.584165,-2.25599 v -1.78145 l 0.955835,-0.88259 0.955835,-0.88258 0.163535,-2.52949 c 0.08995,-1.39122 0.09033,-4.26299 8.49e-4,-6.3817 l -0.162687,-3.8522 -1.258196,-0.55643 -1.258195,-0.55644 0.06785,-1.90209 0.06785,-1.902093 6.149147,-0.06742 c 5.816992,-0.06378 6.173557,-0.04301 6.601055,0.384491 0.506487,0.50649 0.589509,1.5939 0.181925,2.38282 -0.148491,0.28742 -0.340015,0.67404 -0.425609,0.85917 -0.08559,0.18512 -0.463562,0.43583 -0.839928,0.55712 -1.263042,0.40704 -1.323914,0.54512 -1.145467,2.59831 0.08998,1.03526 0.217363,1.97231 0.283081,2.08234 0.117112,0.19607 4.500897,-4.01166 4.500897,-4.32015 0,-0.0863 -0.300144,-0.26163 -0.666986,-0.38951 -0.713292,-0.24866 -0.972046,-0.94253 -0.965095,-2.58799 0.0062,-1.474164 -0.09417,-1.447361 5.153859,-1.37594 l 4.77335,0.065 0.0702,1.48179 c 0.0847,1.78946 -0.27113,2.45442 -1.59755,2.98515 -0.68572,0.27437 -1.23779,0.80229 -2.13241,2.03909 -0.66392,0.91788 -1.45273,1.90044 -1.7529,2.18346 -0.330587,0.3117 -0.545771,0.78446 -0.545771,1.19905 0,0.94126 3.049331,7.03543 4.104991,8.20392 0.62959,0.69688 1.10445,0.99074 1.774,1.0978 1.13536,0.18155 1.45293,0.71833 1.30931,2.21307 -0.17921,1.8651 -0.0938,1.83569 -5.01145,1.72549 -2.387019,-0.0535 -4.45193,-0.20175 -4.607438,-0.33081 -0.154991,-0.12863 -0.907021,-1.60228 -1.671179,-3.27477 -1.443393,-3.15912 -1.751808,-3.47638 -2.536527,-2.60928 -0.385648,0.42614 -0.362769,0.46584 0.570856,0.99057 1.233677,0.69336 1.627789,1.46391 1.627789,3.18255 0,2.05691 -0.052,2.08725 -3.855483,2.24915 -1.799226,0.0766 -4.27024,0.20539 -5.491143,0.28621 -2.009238,0.13301 -2.275242,0.10193 -2.803988,-0.3276 z m 4.924238,-1.11378 c 1.339927,-0.20035 3.119702,-0.3501 3.955057,-0.33277 0.835355,0.0173 1.638329,0.0235 1.784388,0.0138 0.401839,-0.0268 0.515577,-1.36812 0.159161,-1.87698 -0.172465,-0.24623 -0.838041,-0.78753 -1.479059,-1.20289 -1.7339,-1.12353 -1.547413,-2.03587 0.712577,-3.4861 1.013514,-0.65037 1.237239,-0.71558 1.5019,-0.43772 0.171042,0.17957 0.910773,1.64086 1.643848,3.24731 0.733074,1.60645 1.453566,3.0408 1.601094,3.18744 0.162557,0.16158 1.718116,0.33064 3.948466,0.42913 l 3.68024,0.16251 v -0.56889 c 0,-0.43851 -0.2161,-0.66634 -0.94289,-0.99407 -0.51858,-0.23385 -1.30557,-0.82664 -1.74886,-1.31731 -1.27146,-1.40735 -4.551892,-8.27617 -4.551892,-9.5311 0,-0.27011 0.402958,-0.93565 0.895461,-1.47897 0.492504,-0.54332 1.440451,-1.7239 2.106541,-2.62352 0.67703,-0.91436 1.64745,-1.90005 2.20062,-2.23522 0.72835,-0.44132 0.98952,-0.74968 0.98952,-1.16833 v -0.56876 l -3.68024,-0.0643 c -3.073098,-0.0537 -3.68023,-0.009 -3.68023,0.27131 0,0.3504 1.278686,1.54553 1.653587,1.54553 0.118656,0 0.215738,0.27105 0.215738,0.60233 0,0.83135 -6.19973,7.38931 -6.893137,7.29143 -0.435153,-0.0614 -0.479692,-0.31375 -0.646843,-3.66467 -0.203081,-4.07119 -0.169074,-4.17933 1.468436,-4.66994 0.802712,-0.2405 0.930899,-0.3707 0.930899,-0.94552 0,-0.36664 -0.131437,-0.70416 -0.292082,-0.75004 -0.160645,-0.0459 -2.52651,-0.0531 -5.257477,-0.016 l -4.965396,0.0674 v 0.54363 c 0,0.68757 0.840669,1.77499 1.372221,1.77499 0.917592,0 0.964436,0.33999 0.964436,6.99982 0,3.54147 0.09954,6.7861 0.221194,7.2103 0.294154,1.02565 0.09744,1.44547 -0.67731,1.44547 -1.076739,0 -1.802388,1.18519 -1.396133,2.28027 0.271118,0.73082 0.831038,1.22472 1.388421,1.22472 0.209833,0 1.477818,-0.16393 2.817744,-0.36428 z m 21.948282,1.02396 c -1.52796,-0.78955 -2.09522,-1.92302 -2.10011,-4.1964 -0.005,-2.36722 0.76895,-3.95432 2.42921,-4.98078 1.00113,-0.61895 1.33978,-0.6985 3.02732,-0.71117 l 1.90009,-0.0143 0.0712,-1.10334 c 0.0633,-0.98048 0.0178,-1.10335 -0.40891,-1.10335 -0.26408,0 -0.48014,0.14143 -0.48014,0.31428 0,0.67446 -0.87953,1.15851 -1.80562,0.99372 -0.48484,-0.0863 -1.51243,-0.26075 -2.28353,-0.38773 -1.93173,-0.3181 -2.66984,-0.65308 -2.82806,-1.28348 -0.18746,-0.74693 0.062,-1.39996 0.89882,-2.35306 0.91415,-1.04117 2.15907,-1.67254 4.11542,-2.0872 2.13926,-0.45343 3.69543,-0.41819 5.44176,0.12324 1.88782,0.58529 3.03903,1.54081 3.84769,3.19365 0.59681,1.21983 0.64157,1.5223 0.6649,4.49329 0.0213,2.71747 0.0981,3.34591 0.5224,4.27781 0.40049,0.87955 0.62665,1.10717 1.16087,1.16832 l 0.66347,0.076 -0.0794,1.75249 c -0.10463,2.31008 -0.2662,2.46687 -2.19579,2.13085 -0.82597,-0.14384 -2.13404,-0.26152 -2.90682,-0.26152 -1.08642,0 -1.49669,-0.10125 -1.80911,-0.44647 -0.39694,-0.43862 -0.42531,-0.43681 -1.61345,0.10322 -0.80957,0.36796 -1.86606,0.59848 -3.19557,0.69724 -1.78714,0.13275 -2.09143,0.0931 -3.03669,-0.39531 z m 4.74816,-1.21981 c 0.59662,-0.17955 1.41002,-0.60015 1.80756,-0.93466 0.92895,-0.78166 1.56755,-0.78814 1.76087,-0.0179 0.0815,0.32468 0.33946,0.6927 0.57326,0.81783 0.53963,0.2888 4.66179,0.30024 4.66179,0.0129 0,-0.118 0.0618,-0.37561 0.13734,-0.57246 0.0955,-0.24888 -0.10023,-0.45721 -0.64258,-0.68391 -1.41348,-0.59084 -1.46918,-0.77494 -1.60343,-5.2997 -0.11349,-3.82535 -0.16592,-4.21412 -0.71216,-5.28043 -0.69057,-1.34804 -2.06065,-2.21818 -4.21123,-2.67457 -2.28691,-0.48531 -6.01623,0.38938 -7.08732,1.6623 -0.93528,1.11152 -0.80335,1.30567 1.09252,1.60771 0.93174,0.14843 1.83543,0.31616 2.0082,0.37273 0.17276,0.0566 0.60926,-0.21311 0.96999,-0.59927 0.49247,-0.5272 0.86404,-0.70212 1.49141,-0.70212 1.2615,0 1.64163,0.72751 1.48969,2.85109 -0.15366,2.14753 -0.37249,2.32624 -2.61626,2.13658 -1.41209,-0.11937 -1.81369,-0.0658 -2.6311,0.35126 -2.12313,1.08314 -2.90434,3.70565 -1.77335,5.95307 0.6265,1.24493 2.98631,1.69123 5.2848,0.99948 z m -1.11062,-3.07838 c -0.5192,-0.5192 -0.46686,-1.8698 0.0942,-2.43085 0.58198,-0.58198 1.60044,-0.84678 2.08669,-0.54254 0.68638,0.42947 0.61828,2.24383 -0.11163,2.97374 -0.47194,0.47195 -1.59715,0.47176 -2.06926,-3.5e-4 z m 1.26847,-1.39909 c 0,-0.20036 -0.10515,-0.29931 -0.23366,-0.21988 -0.12852,0.0794 -0.23367,0.24336 -0.23367,0.36429 0,0.12093 0.10515,0.21988 0.23367,0.21988 0.12851,0 0.23366,-0.16393 0.23366,-0.36429 z m 15.77244,5.99226 c -1.036,-0.25495 -1.70782,-0.66824 -2.0129,-1.23828 -0.14911,-0.27861 -0.67652,-2.08378 -1.17203,-4.01148 -1.33187,-5.18143 -2.83938,-8.08918 -4.1938,-8.08918 -0.96892,0 -1.43546,-1.68191 -0.8959,-3.22971 0.1981,-0.56827 0.42974,-0.76206 1.04996,-0.87842 0.43768,-0.0821 1.08564,-0.0714 1.4399,0.0237 0.35427,0.0951 2.43166,0.23815 4.61644,0.3178 l 3.97231,0.14481 0.0713,1.24571 c 0.0767,1.33957 -0.1992,1.90878 -0.92506,1.90878 -0.77721,0 -0.71923,0.60063 0.1974,2.04529 0.48952,0.77151 1.00133,1.59113 1.13735,1.82139 0.20851,0.35296 0.38265,0.10361 1.10991,-1.58929 0.47443,-1.10437 0.8626,-2.06042 0.8626,-2.12455 0,-0.0641 -0.36802,-0.23806 -0.81783,-0.38651 -0.973,-0.32112 -1.06515,-0.95148 -0.36466,-2.49433 l 0.44291,-0.9755 2.29753,0.10466 c 1.26365,0.0576 2.92843,0.1623 3.69953,0.23274 0.7711,0.0704 1.71744,0.14687 2.10299,0.16984 0.64714,0.0386 0.70644,0.11638 0.77178,1.01292 0.12258,1.68185 -0.2136,2.4499 -1.36777,3.12492 -1.35779,0.7941 -1.96758,2.01012 -3.62897,7.23672 -0.71491,2.24903 -1.4279,4.45717 -1.58443,4.90697 l -0.2846,0.81783 -2.91148,0.0378 c -1.60131,0.0208 -3.22693,-0.0398 -3.61247,-0.13467 z m 6.15945,-2.4405 c 0.70496,-2.79965 2.72458,-8.58573 3.38124,-9.68704 0.44659,-0.74901 1.13466,-1.49109 1.73326,-1.86933 0.77843,-0.49187 0.99275,-0.76722 0.99308,-1.2759 l 4.1e-4,-0.64867 -3.5442,0.0645 c -3.7492,0.0682 -4.33246,0.26024 -2.88596,0.95003 0.4597,0.21921 0.82219,0.56553 0.82219,0.78551 0,0.21639 -0.57833,1.74359 -1.28516,3.39378 -0.70684,1.65019 -1.28517,3.14436 -1.28517,3.32038 0,0.47041 -0.58445,0.87465 -1.02187,0.70679 -0.25387,-0.0974 -0.38012,-0.4259 -0.38012,-0.98898 0,-0.62756 -0.41818,-1.54246 -1.63566,-3.57855 -0.89961,-1.5045 -1.63566,-2.8943 -1.63566,-3.08846 0,-0.35962 0.22347,-0.46348 1.58962,-0.73884 1.54927,-0.31227 0.55331,-0.56882 -2.75795,-0.71042 -5.97704,-0.25559 -5.48259,-0.28034 -5.56228,0.27842 -0.052,0.36478 0.16774,0.64603 0.81783,1.04662 2.29752,1.41574 2.54408,1.96231 5.11286,11.33401 0.18033,0.6579 0.50223,1.34137 0.71533,1.51883 0.43055,0.35853 5.53187,0.67896 6.18865,0.38872 0.20858,-0.0922 0.49639,-0.63281 0.63956,-1.20141 z m 13.06027,2.4198 c -2.05535,-0.19505 -3.07729,-0.59919 -4.31676,-1.70712 -0.77378,-0.69166 -1.43414,-3.21999 -1.01446,-3.88407 0.30592,-0.48406 5.08896,-0.55396 5.47194,-0.08 1.05946,1.31124 1.88221,1.6294 2.18347,0.84434 0.16812,-0.43813 -0.95572,-1.47836 -1.5993,-1.4803 -0.21137,-6.4e-4 -1.10286,-0.2231 -1.98111,-0.49436 -2.17297,-0.67116 -3.1983,-1.69437 -3.59036,-3.58292 -0.66392,-3.19809 0.10754,-5.01948 2.67287,-6.31055 1.23674,-0.62243 1.64264,-0.69927 4.16973,-0.78937 3.3968,-0.12111 5.08586,0.19156 5.77627,1.06927 0.41802,0.53142 0.47151,0.88456 0.4135,2.72984 l -0.0666,2.11945 -1.51883,0.13566 c -0.83535,0.0746 -1.77469,0.21926 -2.08742,0.32143 -0.53302,0.17414 -0.50188,0.21109 0.49785,0.59058 1.52867,0.58027 2.59444,1.47349 3.27932,2.74839 1.22062,2.27215 1.05222,3.73783 -0.64655,5.62728 -1.83528,2.04126 -3.57396,2.5286 -7.64353,2.14241 z m 4.29116,-1.17137 c 2.64406,-0.73445 4.21062,-3.50874 3.14494,-5.56954 -0.18291,-0.3537 -0.80265,-1.07641 -1.37721,-1.60602 -0.81039,-0.74699 -1.2991,-0.9993 -2.17934,-1.12511 -1.59169,-0.22751 -3.33125,-1.21122 -3.77041,-2.13215 -0.32623,-0.6841 -0.32258,-0.80423 0.0412,-1.35949 0.38055,-0.5808 1.22457,-1.05556 1.87655,-1.05556 0.16674,0 0.70576,0.31995 1.19782,0.71099 0.80745,0.64168 1.03266,0.70432 2.31037,0.64258 l 1.41571,-0.0684 0.0707,-1.22787 c 0.0653,-1.13402 0.0246,-1.24538 -0.53195,-1.45698 -0.33144,-0.12601 -1.5361,-0.3534 -2.67703,-0.5053 -1.78781,-0.23804 -2.29262,-0.22235 -3.65375,0.11355 -1.89165,0.46681 -3.5539,1.39015 -3.83536,2.13046 -0.2735,0.71935 0.34112,3.38338 1.00935,4.37496 0.51985,0.77141 1.07331,1.04241 3.48257,1.70521 1.744,0.47978 2.98101,1.64708 2.98101,2.81301 0,0.98452 -0.60718,1.44845 -2.17735,1.66367 -1.03916,0.14243 -1.13673,0.10644 -1.89688,-0.69955 -0.75047,-0.79573 -0.8914,-0.84969 -2.21905,-0.84969 -1.27336,0 -1.41768,0.0488 -1.41768,0.47893 0,0.80237 0.66728,1.82776 1.46436,2.25021 1.62873,0.86324 5.01648,1.25124 6.74142,0.7721 z M 152.631,73.399345 c -0.46307,-0.69742 -0.9797,-0.99239 -1.43327,-0.81833 -0.7764,0.29793 0.27174,1.24476 1.45321,1.31274 0.26501,0.0152 0.26155,-0.0705 -0.0199,-0.49441 z m 13.5431,11.70879 c -2.49884,-0.58893 -5.18468,-2.80516 -6.40066,-5.28153 -0.58414,-1.18963 -0.66678,-1.62005 -0.66678,-3.47303 0,-1.97214 0.0591,-2.23463 0.87388,-3.88328 1.03272,-2.08957 2.23921,-3.40962 3.81921,-4.1787 1.65263,-0.80444 5.43753,-0.9546 6.77519,-0.2688 1.97974,1.01498 2.90492,2.80569 3.08545,5.97197 0.0959,1.68165 0.042,2.23339 -0.27595,2.82372 -0.38602,0.71679 -0.37794,0.77386 0.35081,2.47711 0.41026,0.95888 0.74514,2.03762 0.74419,2.39721 -0.004,1.39009 -2.42949,2.98535 -5.20832,3.42512 -1.7311,0.27396 -1.89529,0.27344 -3.09702,-0.01 z m 4.99971,-1.99992 c 0.73916,-0.33171 1.51776,-0.7952 1.73023,-1.02998 0.35937,-0.3971 0.35898,-0.50917 -0.006,-1.60655 -0.2155,-0.64882 -0.4913,-1.24115 -0.61287,-1.31629 -0.12158,-0.0751 -0.77073,0.0476 -1.44255,0.27265 -1.58747,0.5319 -3.1485,0.53014 -3.96295,-0.004 -0.64417,-0.42284 -1.58136,-1.72725 -1.58136,-2.201 0,-0.5855 1.14794,-0.85856 4.08915,-0.97268 l 3.03766,-0.11788 -0.0205,-2.0266 c -0.0177,-1.74663 -0.11454,-2.21469 -0.701,-3.38815 -0.89522,-1.79127 -1.31653,-1.98629 -4.06861,-1.8833 -1.85208,0.0693 -2.42241,0.18747 -3.4427,0.7133 -1.34341,0.69235 -2.87854,2.42681 -3.62163,4.09189 -1.29088,2.89253 0.26475,7.08883 3.28383,8.85813 2.73323,1.60178 4.73803,1.76913 7.31885,0.61092 z m -6.16953,-8.58925 c -1.29354,-1.29354 0.0568,-3.41075 2.17533,-3.41075 1.0702,0 2.09151,1.15308 2.09151,2.36137 0,0.5541 -0.11422,0.92321 -0.29208,0.94386 -0.16065,0.0186 -0.66011,0.0567 -1.10992,0.0846 -0.4498,0.0279 -1.19384,0.12855 -1.65341,0.22373 -0.62853,0.13018 -0.92871,0.0799 -1.21143,-0.20279 z m 2.22226,-0.9904 c 1.01978,-0.16856 1.15587,-0.6673 0.28978,-1.06192 -0.50414,-0.2297 -0.66817,-0.19048 -1.16833,0.2794 -0.96692,0.90837 -0.79723,1.05951 0.87855,0.78252 z m 2.5525,4.78414 c 1.87181,-0.41031 1.8116,-0.5766 -0.27168,-0.75034 -2.21057,-0.18435 -2.93886,0.0393 -2.08205,0.63946 0.65277,0.45721 0.75236,0.46191 2.35373,0.11088 z m 8.03062,6.88962 c -1.70969,-0.10278 -2.19814,-0.31742 -2.19823,-0.966 -3e-5,-0.21633 -0.0756,-0.85617 -0.16805,-1.42185 -0.15788,-0.96658 -0.12208,-1.066 0.59436,-1.65073 l 0.76235,-0.6222 -0.0365,-4.72036 c -0.0371,-4.80215 -0.26832,-7.85967 -0.67516,-8.92855 -0.29886,-0.78519 -0.71004,-1.10059 -1.55984,-1.19647 l -0.701,-0.0791 0.0747,-1.98616 c 0.10415,-2.76866 0.0773,-2.751741 4.31819,-2.715721 2.36261,0.02007 3.47114,0.11806 3.72562,0.329341 0.46153,0.38318 1.28046,3.69499 1.65486,6.69231 0.15937,1.27588 0.39142,2.34789 0.51567,2.38225 0.12425,0.0344 0.78516,-0.7214 1.4687,-1.67949 0.68353,-0.95808 1.52473,-1.88702 1.86932,-2.0643 0.3446,-0.17729 1.41516,-0.34854 2.37903,-0.38055 3.15282,-0.10474 3.48372,-0.0507 4.22395,0.68951 0.58714,0.58713 0.68303,0.86107 0.68303,1.95129 0,2.55523 -0.56194,3.1861 -2.87762,3.23062 -1.59308,0.0306 -2.36057,0.26025 -2.45171,0.73352 -0.0923,0.47947 2.17899,6.29589 2.71896,6.96272 0.25007,0.30882 0.78079,0.53732 1.44443,0.62187 0.57701,0.0735 1.18054,0.2375 1.34119,0.36439 0.42309,0.33421 0.39253,3.54465 -0.0378,3.97503 -0.23853,0.23853 -1.27387,0.37069 -3.73757,0.4771 -1.8742,0.0809 -3.54839,0.0932 -3.72041,0.0272 -0.17203,-0.066 -0.55059,-0.69381 -0.84126,-1.3951 -0.62138,-1.49917 -1.01653,-1.88202 -0.67835,-0.65721 0.16488,0.59713 0.15906,1.02671 -0.0192,1.41793 -0.22659,0.49731 -0.39538,0.55682 -1.4814,0.52235 -0.67412,-0.0214 -2.06687,0.0113 -3.095,0.0726 -1.02813,0.0613 -2.60099,0.0675 -3.49524,0.0138 z m 15.77805,-1.25072 c 0.31383,-0.16795 0.45197,-0.49024 0.45197,-1.05444 0,-0.75796 -0.0844,-0.84988 -1.25601,-1.36802 -1.33992,-0.59258 -1.36642,-0.63103 -3.02808,-4.39495 -0.32402,-0.73397 -0.96475,-1.7101 -1.42384,-2.16919 -0.45909,-0.45909 -0.83471,-0.93109 -0.83471,-1.04887 0,-0.47806 1.49571,-2.38778 2.02889,-2.5905 0.31452,-0.11958 1.29736,-0.21742 2.18408,-0.21742 1.88669,0 2.096,-0.20681 2.096,-2.07094 0,-1.65777 -0.32458,-1.90167 -2.52859,-1.90007 -3.17458,0.002 -4.01251,0.49641 -5.64776,3.33037 -0.71841,1.24504 -0.94883,1.46902 -1.57456,1.53054 -0.94827,0.0932 -1.09143,-0.20201 -1.45126,-2.99289 -0.41052,-3.18395 -0.93053,-5.64343 -1.32158,-6.25055 -0.31979,-0.49649 -0.49241,-0.52575 -3.10174,-0.52575 h -2.76312 l -0.41232,0.91436 c -0.22678,0.5029 -0.35023,1.01484 -0.27433,1.13764 0.0759,0.1228 0.54726,0.28871 1.04748,0.3687 0.50022,0.08 1.03601,0.29787 1.19063,0.48419 0.17315,0.20863 0.36702,1.89228 0.50472,4.38332 0.12296,2.22451 0.3127,5.56924 0.42163,7.43272 0.21133,3.61527 0.11778,4.22241 -0.78039,5.06474 -0.37656,0.35316 -0.50811,0.68525 -0.43108,1.08824 0.15233,0.79684 1.04502,0.92933 4.88898,0.72562 2.77633,-0.14713 3.12033,-0.21129 3.12033,-0.58204 0,-0.62582 -0.25042,-1.15494 -0.55074,-1.16369 -0.34897,-0.0101 -1.16956,-0.7021 -1.47062,-1.24005 -0.16593,-0.2965 -0.1436,-0.7858 0.0742,-1.62527 0.17136,-0.66059 0.31316,-1.57246 0.31513,-2.02639 0.004,-0.99761 0.26728,-1.47021 0.72113,-1.29605 0.47097,0.18072 0.81231,0.78222 2.1107,3.71939 1.65633,3.74688 2.06782,4.29775 3.29255,4.40777 2.12367,0.19077 3.96939,0.1612 4.40236,-0.0705 z m -8.67079,-3.20468 c -0.005,-0.0964 -0.21127,-0.54327 -0.45753,-0.99308 l -0.44775,-0.81783 -0.01,0.8373 c -0.005,0.46052 0.0603,0.90741 0.14598,0.99308 0.21205,0.21205 0.78123,0.19764 0.76909,-0.0195 z m -35.91574,-14.66252 c -0.19797,-0.38555 -0.87054,-1.26151 -1.49462,-1.94657 -1.33178,-1.46195 -1.49453,-2.29036 -0.4921,-2.5048 0.35342,-0.0756 0.88412,-0.235325 1.17933,-0.354947 1.03175,-0.418079 1.63762,-0.246272 2.52902,0.717167 0.47564,0.51407 0.99923,0.93466 1.16354,0.93466 0.16431,0 0.78783,-0.42329 1.38559,-0.94065 1.04148,-0.901394 1.14452,-0.937426 2.46888,-0.863384 2.30883,0.12908 2.35258,0.553464 0.37748,3.661844 l -1.25471,1.97464 -2.75124,0.0115 -2.75124,0.0115 z m 5.12433,-0.84066 c 0.41927,-0.22438 2.06033,-2.25036 2.06033,-2.54359 0,-0.0894 -0.26975,-0.28546 -0.59946,-0.43568 -0.5566,-0.25361 -0.69591,-0.18113 -1.94886,1.01398 -0.74218,0.70792 -1.39578,1.28712 -1.45245,1.28712 -0.0567,0 -0.65425,-0.52574 -1.32795,-1.16832 -1.28032,-1.22116 -1.76399,-1.38424 -2.50294,-0.8439 -0.42426,0.31022 -0.39959,0.38159 0.56311,1.62943 l 1.00681,1.30501 1.89585,-0.0124 c 1.04272,-0.007 2.08022,-0.11106 2.30556,-0.23166 z m -89.618307,0.88359 c -1.308689,-0.40241 -2.437441,-1.64503 -2.623932,-2.88865 -0.189884,-1.26623 0.170101,-2.188735 1.210598,-3.102304 1.687326,-1.481491 4.18735,-1.038434 5.175263,0.917166 1.513584,2.996178 -0.720294,6.009058 -3.761929,5.073788 z m 2.545805,-1.66797 c 1.344883,-1.34488 0.272989,-3.866102 -1.643668,-3.866102 -1.098303,0 -1.664337,0.315013 -2.108143,1.173242 -0.400498,0.77448 -0.272178,1.72613 0.326005,2.41774 0.865198,1.00032 2.564163,1.13677 3.425806,0.27512 z"
       id="path1" /></g></svg>
