<?xml version="1.0" encoding="UTF-8" standalone="no"?>
<!-- Created with Inkscape (http://www.inkscape.org/) -->

<svg
   width="147.81952mm"
   height="36.051491mm"
   viewBox="0 0 147.81952 36.051491"
   version="1.1"
   id="svg1"
   xml:space="preserve"
   xmlns:inkscape="http://www.inkscape.org/namespaces/inkscape"
   xmlns:sodipodi="http://sodipodi.sourceforge.net/DTD/sodipodi-0.dtd"
   xmlns="http://www.w3.org/2000/svg"
   xmlns:svg="http://www.w3.org/2000/svg"><sodipodi:namedview
     id="namedview1"
     pagecolor="#ffffff"
     bordercolor="#000000"
     borderopacity="0.25"
     inkscape:showpageshadow="2"
     inkscape:pageopacity="0.0"
     inkscape:pagecheckerboard="0"
     inkscape:deskcolor="#d1d1d1"
     inkscape:document-units="mm" /><defs
     id="defs1" /><g
     inkscape:label="Layer 1"
     inkscape:groupmode="layer"
     id="layer1"
     transform="translate(-26.42323,-91.07977)"><path
       style="fill:#fad43b;fill-opacity:1;stroke-width:1.29574"
       d="m 54.153028,126.46819 c -0.955126,-1.78467 -0.106614,-5.85069 1.220949,-5.85069 0.279657,0 1.100764,-0.30217 1.824682,-0.67148 1.267328,-0.64654 1.324903,-0.75262 1.550168,-2.85611 0.128681,-1.20155 0.131763,-2.59179 0.0069,-3.08943 -0.20444,-0.81456 -0.375267,-0.60034 -1.712854,2.14788 -0.846512,1.73925 -1.854816,3.29448 -2.343515,3.61469 -0.685804,0.44935 -1.717326,0.55673 -5.145745,0.53561 -2.358397,-0.0145 -4.654931,-0.16592 -5.103409,-0.33643 -0.592758,-0.22537 -1.115431,-1.04415 -1.914144,-2.99858 -2.125706,-5.20152 -2.115441,-5.19421 -2.020521,-1.43825 0.0967,3.82644 0.538975,4.64402 2.605485,4.81646 l 1.249253,0.10417 0.206047,2.57124 c 0.113326,1.41419 0.141951,2.74699 0.06361,2.96179 -0.185433,0.50844 -17.202969,0.84375 -17.853287,0.35178 -0.308706,-0.23353 -0.412097,-1.10876 -0.342833,-2.90214 0.105227,-2.72439 0.146308,-2.78865 2.156167,-3.37291 2.297733,-0.66793 2.924817,-4.5641 2.495711,-15.50624 -0.266368,-6.792335 -0.395806,-7.208035 -2.25245,-7.233805 -0.76228,-0.0104 -0.782328,-0.0936 -0.685666,-2.83928 l 0.09958,-2.82836 7.542315,-0.18859 c 4.372552,-0.10936 7.857895,-0.054 8.293225,0.13142 0.805203,0.34313 3.087923,5.72884 5.255348,12.399145 0.612693,1.88558 1.186491,3.55535 1.275107,3.71062 0.294564,0.51612 1.188611,-1.16383 3.712887,-6.97661 2.405367,-5.538995 3.94234,-8.451465 4.741583,-8.985025 0.690697,-0.46111 14.414918,-0.30921 15.012592,0.16616 0.714218,0.56806 1.157243,5.57622 0.529254,5.98291 -0.232519,0.15058 -1.193162,0.4312 -2.134762,0.62359 -1.510074,0.30854 -1.737801,0.47029 -1.930725,1.37133 -0.357745,1.670825 -0.324323,17.375615 0.03977,18.686155 0.223431,0.80424 0.710324,1.42654 1.455125,1.85976 1.550733,0.90202 1.622407,1.07092 1.628336,3.83724 0.0041,1.9201 -0.111836,2.49379 -0.537038,2.65697 -0.298258,0.11441 -4.61252,0.20808 -9.587246,0.20808 -8.591612,0 -9.062747,-0.0333 -9.399855,-0.66312 z m 17.36352,-1.63672 c 0.248438,-0.0954 0.451707,-0.5938 0.451707,-1.10772 0,-0.70268 -0.317673,-1.13994 -1.281108,-1.76341 -2.268851,-1.46822 -2.311615,-1.7033 -2.37913,-13.078 -0.0688,-11.591805 -0.113352,-11.391235 2.63174,-11.849755 l 1.542746,-0.2577 0.104489,-1.62058 0.104489,-1.62057 -5.589812,0.005 c -3.074396,0.003 -5.944331,0.0996 -6.377633,0.21571 -0.896651,0.24016 -2.995062,4.17625 -5.274269,9.893175 -2.572486,6.45255 -4.445071,9.28863 -5.398603,8.17632 -0.137289,-0.16014 -1.450119,-3.60808 -2.9174,-7.66207 -1.467279,-4.054 -2.959306,-7.978415 -3.315613,-8.720915 -0.356306,-0.74251 -0.64783,-1.55282 -0.64783,-1.8007 0,-0.36275 -1.287347,-0.41672 -6.599525,-0.27665 l -6.599525,0.17402 -0.10708,1.02207 c -0.09174,0.8756 0.0652,1.10422 1.095151,1.59537 0.703988,0.3357 1.377179,0.99566 1.62437,1.59243 0.57243,1.38197 0.548183,19.501435 -0.02808,20.984745 -0.591324,1.52209 -2.037675,2.87693 -3.330074,3.11938 -1.067853,0.20034 -1.139863,0.30134 -1.139863,1.59873 v 1.38488 l 3.342617,-0.22135 c 1.838439,-0.1218 5.242255,-0.22215 7.564036,-0.22312 l 4.221419,-0.001 -0.10743,-1.06241 c -0.09511,-0.94056 -0.303966,-1.12734 -1.820953,-1.62845 -2.452522,-0.81018 -2.693543,-1.48285 -2.720981,-7.59412 -0.02597,-5.78405 0.187071,-6.95018 1.241027,-6.7932 1.072028,0.15968 1.848311,1.41201 3.693502,5.95856 2.066335,5.09144 2.178569,5.16926 6.832948,4.73789 l 3.274883,-0.30351 1.008888,-1.50686 c 0.554888,-0.82878 1.675152,-2.98863 2.489477,-4.79966 1.472992,-3.27589 2.090971,-3.90518 3.051872,-3.1077 0.397562,0.32994 0.49778,1.52818 0.49778,5.95158 0,6.50348 -0.06843,6.67549 -3.094276,7.77876 -1.948451,0.71045 -2.048211,0.80299 -2.048211,1.90004 v 1.15323 l 7.776272,-0.0341 c 4.27695,-0.0187 7.979541,-0.11195 8.227979,-0.20733 z m 13.209714,1.92342 c -4.350042,-0.54581 -8.194348,-3.03194 -9.819052,-6.35002 -0.887094,-1.81169 -0.975083,-2.31061 -0.923855,-5.23857 0.08794,-5.02622 1.311119,-8.53221 3.743373,-10.72961 3.043228,-2.74937 8.600476,-3.65396 12.336029,-2.00803 3.801776,1.67513 6.246602,5.92324 6.246602,10.85406 0,3.41402 -0.259049,3.56362 -6.170984,3.56362 -4.004508,0 -4.799655,0.0838 -4.799655,0.50635 0,0.27849 0.376007,0.75271 0.83557,1.05383 0.891135,0.5839 0.615894,0.62468 6.477124,-0.95975 1.127421,-0.30476 1.400586,-0.26323 1.931577,0.29368 0.841739,0.88282 2.182979,5.11971 1.934328,6.11042 -0.487677,1.94305 -6.887551,3.51929 -11.791057,2.90402 z m 7.811941,-2.62474 c 1.518192,-0.53112 1.905243,-0.82213 1.986504,-1.49361 0.08737,-0.72196 -0.762927,-3.39037 -1.080353,-3.39037 -0.06224,0 -1.009959,0.30855 -2.106065,0.68566 -2.392879,0.82328 -4.875916,0.88559 -5.927875,0.14876 -0.817316,-0.57247 -2.128688,-2.86587 -2.128688,-3.72277 0,-0.95045 1.297245,-1.22564 5.777574,-1.22564 2.448227,0 4.695351,-0.0937 4.993609,-0.20809 0.728293,-0.27948 0.731757,-3.57053 0.006,-5.70051 -1.135893,-3.33366 -5.087751,-5.93711 -8.891604,-5.85772 -2.239973,0.0468 -4.945622,1.02569 -6.290056,2.27581 -1.794002,1.66816 -3.137837,5.84601 -3.137837,9.75525 0,4.70464 2.108962,7.37408 7.143385,9.04181 2.429991,0.80497 6.87872,0.66278 9.655406,-0.30858 z M 82.96611,112.59373 c -1.005861,-1.21199 1.164001,-4.3182 3.016504,-4.3182 1.172413,0 1.881601,0.82246 2.254454,2.61454 0.332732,1.59924 -0.439695,2.18512 -2.880858,2.18512 -1.290862,0 -2.130976,-0.16924 -2.3901,-0.48146 z m 3.378253,-1.79525 c 0.08171,-0.074 -0.02746,-0.31057 -0.242594,-0.5257 -0.292986,-0.29299 -0.523866,-0.28102 -0.919935,0.0477 -0.778805,0.64636 -0.64303,1.12188 0.242595,0.84966 0.424255,-0.1304 0.838226,-0.29764 0.919934,-0.37164 z m 54.533217,16.22583 c -0.0943,-0.097 -1.71417,-0.21182 -3.59975,-0.25499 -5.93916,-0.13598 -6.68523,-0.569 -6.68523,-3.8802 0,-1.72406 0.44009,-2.41238 2.057,-3.21714 l 1.19991,-0.59722 v -4.62824 c 0,-5.6902 -0.16398,-6.35826 -1.72018,-7.00848 l -1.1939,-0.49885 v -2.37535 c 0,-1.61258 0.15342,-2.50266 0.47777,-2.77185 0.33956,-0.28181 1.90158,-0.33622 5.39961,-0.18809 5.35648,0.22684 6.9732,0.55771 7.49572,1.53407 0.19616,0.36653 0.3402,3.90536 0.3402,8.35842 0,6.69069 0.0739,7.78183 0.55248,8.16481 2.32355,1.85917 2.53318,2.2135 2.52776,4.27255 -0.003,1.0987 -0.14567,2.21957 -0.31729,2.49081 -0.22038,0.3483 -1.20064,0.53473 -3.33736,0.6347 -1.66393,0.0779 -3.10246,0.0621 -3.19674,-0.035 z m 4.43961,-2.4435 c 0.22526,-0.27144 0.35986,-0.91413 0.29909,-1.4282 -0.0903,-0.76393 -0.36098,-1.00445 -1.4818,-1.31668 l -1.37134,-0.38201 -0.20062,-8.48685 c -0.13198,-5.58286 -0.33281,-8.61902 -0.5869,-8.87311 -0.22838,-0.22838 -2.2135,-0.45226 -4.85616,-0.54769 l -4.46986,-0.1614 v 1.17452 c 0,1.02926 0.1378,1.21509 1.1142,1.50254 1.7254,0.50796 2.0039,1.50782 2.07391,7.44557 0.07,5.93173 -0.29331,7.34481 -2.13261,8.29594 -0.72487,0.37485 -1.0555,0.7984 -1.0555,1.35213 0,1.54407 0.11156,1.56507 9.81445,1.8476 1.77693,0.0517 2.5553,-0.0635 2.85314,-0.42236 z m 7.78413,2.05044 c -2.79445,-0.99637 -4.45442,-3.68571 -4.46247,-7.22976 -0.009,-4.02411 2.4375,-6.98502 6.25367,-7.56819 1.55491,-0.23762 1.56508,-0.24734 0.55543,-0.53044 -0.56567,-0.15863 -2.19998,-0.24899 -3.63177,-0.20083 -2.9999,0.10094 -3.74314,-0.28263 -3.73159,-1.92568 0.004,-0.58974 0.29322,-1.68933 0.64243,-2.44356 1.76393,-3.80993 6.51263,-5.58953 12.39799,-4.64622 7.34382,1.17707 8.38882,2.48336 8.8838,11.10511 0.16412,2.85858 0.38994,5.43029 0.50183,5.71492 0.11195,0.28463 0.89541,0.8846 1.74114,1.33327 1.31846,0.69944 1.53771,0.96814 1.53771,1.88457 0,0.58786 0.14046,1.55861 0.31215,2.15722 0.22351,0.77935 0.18436,1.26314 -0.13792,1.70388 -0.39859,0.54509 -1.05102,0.61641 -5.70428,0.62351 l -5.25422,0.008 -0.45373,-0.94072 -0.45373,-0.94071 -1.26792,0.64577 c -1.54139,0.78508 -4.73036,1.75546 -5.70123,1.73486 -0.39004,-0.008 -1.30232,-0.22653 -2.02729,-0.48502 z m 6.93803,-2.90965 c 2.48319,-1.25352 3.51973,-1.25858 3.80709,-0.0187 0.18844,0.81314 0.3685,0.87283 3.51206,1.16414 2.83923,0.26311 3.43601,0.22675 4.16979,-0.25405 0.75666,-0.49578 0.8158,-0.67741 0.50802,-1.56029 -0.2135,-0.61245 -0.75565,-1.16794 -1.4007,-1.43512 -1.71279,-0.70946 -2.3447,-2.64428 -2.54216,-7.78375 -0.21917,-5.70471 -0.33992,-6.37382 -1.3714,-7.59966 -0.98466,-1.1702 -3.06073,-1.90443 -6.92047,-2.44754 -3.56374,-0.50145 -5.989,0.0439 -7.66988,1.72482 -1.30155,1.30155 -1.97579,2.92299 -1.43878,3.46 0.16663,0.16663 1.38182,0.34217 2.70042,0.39006 2.35814,0.0856 2.41795,0.0662 3.64878,-1.18516 1.42041,-1.44413 2.65974,-1.64658 3.70165,-0.60466 0.98193,0.98192 1.47216,3.10675 1.01761,4.41065 -0.44451,1.27511 -1.16561,1.55552 -3.21131,1.24874 -5.9515,-0.89248 -10.29051,4.81067 -7.3484,9.65866 1.50153,2.47424 4.94242,2.79807 8.83768,0.83177 z m -0.55547,-2.70973 c -0.42006,-0.12258 -1.09246,-0.50574 -1.49421,-0.85137 -1.47963,-1.27294 0.22147,-4.34266 2.40649,-4.34266 1.28214,0 1.80678,0.70704 1.9975,2.69191 0.22865,2.37956 -0.67317,3.15504 -2.90978,2.50212 z m 0.59231,-2.45137 c 0,-0.37711 -0.15428,-0.68566 -0.34283,-0.68566 -0.18856,0 -0.34283,0.30855 -0.34283,0.68566 0,0.37712 0.15427,0.68567 0.34283,0.68567 0.18855,0 0.34283,-0.30855 0.34283,-0.68567 z m -0.28511,-8.23094 c -0.0626,-0.46976 -0.32352,-1.07104 -0.57998,-1.33615 -0.39758,-0.41099 -0.55442,-0.29728 -1.06402,0.77137 -0.32874,0.68938 -0.72341,1.25342 -0.87705,1.25342 -0.15364,0 -0.27934,0.12607 -0.27934,0.28016 0,0.1541 0.65568,0.19133 1.45704,0.0828 1.31321,-0.17795 1.44582,-0.28175 1.34335,-1.05155 z m -55.50136,15.58509 c -5.610284,-2.79573 -7.68909,-13.17628 -4.06922,-20.31974 1.8201,-3.59182 6.52246,-5.55237 10.83554,-4.51768 1.48554,0.35637 1.85159,0.34626 2.26029,-0.0625 0.80048,-0.80048 0.25916,-2.423125 -1.00892,-3.024235 -1.02632,-0.4865 -1.09034,-0.62943 -1.18672,-2.64929 -0.11429,-2.39488 0.27303,-3.40821 1.47762,-3.8662 1.38972,-0.52837 10.3297,-0.52658 10.96685,0.003 0.48408,0.40174 0.53971,1.73803 0.47703,11.454905 -0.084,13.00986 0.0974,15.24058 1.36119,16.7425 0.75311,0.89502 0.91731,1.47409 1.0255,3.61653 0.0956,1.8934 0.008,2.6273 -0.33927,2.84741 -0.25744,0.16311 -2.5956,0.29891 -5.19592,0.3018 -4.19048,0.005 -4.8334,-0.0726 -5.65673,-0.67893 l -0.92891,-0.68418 -2.05699,0.84746 c -2.83326,1.16727 -5.60572,1.16375 -7.96134,-0.0104 z m 5.45799,-1.19626 c 0.69729,-0.19368 2.07269,-0.89377 3.05642,-1.55578 0.98376,-0.66202 1.98139,-1.12969 2.217,-1.03929 0.23559,0.0904 0.63591,0.59853 0.88959,1.12915 0.44136,0.92316 0.57939,0.96938 3.20044,1.07144 1.50656,0.0587 3.40473,0.009 4.21815,-0.11001 1.45219,-0.21274 1.47477,-0.23638 1.24862,-1.30659 -0.12673,-0.59945 -0.50296,-1.39845 -0.83615,-1.77557 -1.54238,-1.74569 -1.54858,-1.80467 -1.54858,-14.7418 0,-6.788095 -0.12478,-12.534825 -0.27736,-12.770515 -0.19718,-0.30467 -1.49954,-0.42854 -4.50585,-0.42854 -4.61493,0 -4.64469,0.0135 -4.64469,2.10287 0,0.82008 0.19747,1.08713 1.01449,1.37195 1.13974,0.39731 1.24412,0.6383 1.5619,3.605795 0.36779,3.43461 -0.82221,4.61035 -3.18153,3.14341 -1.0108,-0.62848 -1.75174,-0.79226 -3.51858,-0.77777 -5.8635,0.0481 -8.52687,3.87547 -8.14954,11.71131 0.24774,5.14481 2.04291,8.59328 5.24521,10.0759 1.58153,0.73222 2.25494,0.78159 4.01046,0.29403 z m 0.10664,-5.53098 c -2.70377,-2.12679 -2.95049,-7.4649 -0.46719,-10.10826 1.6662,-1.77359 4.04572,-1.8794 4.67825,-0.20802 0.54336,1.4357 0.81234,10.18241 0.32805,10.6667 -0.69239,0.69238 -3.48775,0.47658 -4.53911,-0.35042 z m 2.90714,-3.83478 c -0.005,-3.19055 -0.32115,-5.0201 -0.86769,-5.0201 -0.2414,0 -0.83831,0.47465 -1.32647,1.0548 -1.44787,1.72068 -1.02987,5.45539 0.72017,6.43477 1.15031,0.64374 1.47794,0.0948 1.47399,-2.46947 z m 22.35028,-14.95248 c -1.4316,-0.898225 -2.61031,-3.401645 -2.32138,-4.930235 0.35763,-1.89188 1.39984,-3.18455 3.08705,-3.8289 1.49447,-0.57074 1.64855,-0.57094 3.13311,-0.004 2.16597,0.82719 3.40973,2.72678 3.40973,5.20768 0,1.58872 -0.13861,1.95692 -1.09773,2.91605 -0.93395,0.933945 -1.39431,1.116795 -3.08549,1.225415 -1.57223,0.10094 -2.22556,-0.0215 -3.12529,-0.58603 z m 4.36995,-1.368005 c 1.04378,-0.5586 1.52462,-2.18375 1.0614,-3.58732 -1.02721,-3.11249 -4.51689,-3.51223 -5.71106,-0.65418 -0.6044,1.44652 -0.15986,3.23967 1.00551,4.05593 0.83257,0.58315 2.72153,0.67936 3.64415,0.18557 z"
       id="path1" /></g></svg>
