<?xml version="1.0" encoding="UTF-8" standalone="no"?>
<!-- Created with Inkscape (http://www.inkscape.org/) -->

<svg
   width="148.94463mm"
   height="37.417866mm"
   viewBox="0 0 148.94463 37.417866"
   version="1.1"
   id="svg1"
   xml:space="preserve"
   xmlns:inkscape="http://www.inkscape.org/namespaces/inkscape"
   xmlns:sodipodi="http://sodipodi.sourceforge.net/DTD/sodipodi-0.dtd"
   xmlns="http://www.w3.org/2000/svg"
   xmlns:svg="http://www.w3.org/2000/svg"><sodipodi:namedview
     id="namedview1"
     pagecolor="#ffffff"
     bordercolor="#000000"
     borderopacity="0.25"
     inkscape:showpageshadow="2"
     inkscape:pageopacity="0.0"
     inkscape:pagecheckerboard="0"
     inkscape:deskcolor="#d1d1d1"
     inkscape:document-units="mm" /><defs
     id="defs1" /><g
     inkscape:label="Layer 1"
     inkscape:groupmode="layer"
     id="layer1"
     transform="translate(-26.214377,-47.756022)"><path
       style="fill:#fad43b;fill-opacity:0.933333"
       d="m 35.459021,84.916893 c -2.883561,-0.20037 -6.742785,-0.87748 -8.003492,-1.40424 l -1.241152,-0.51858 0.256611,-5.53639 c 0.159202,-3.43476 0.407298,-5.6372 0.653572,-5.80197 0.218329,-0.14607 2.063836,-0.22545 4.101128,-0.17639 l 3.704166,0.0892 0.294173,1.41111 c 0.681219,3.26773 0.798629,3.53218 1.776958,4.00238 1.295851,0.62281 3.084978,0.2715 4.444874,-0.87278 2.192407,-1.84479 1.218014,-2.89815 -4.367335,-4.72128 -4.897067,-1.59846 -6.339684,-2.44867 -7.643644,-4.50481 -2.048453,-3.23007 -2.106601,-7.57375 -0.154794,-11.5631 2.7047,-5.52821 7.818747,-7.42584 17.097974,-6.34442 2.554088,0.29766 4.966759,0.71404 5.36149,0.9253 0.679441,0.36362 0.711263,0.65229 0.597054,5.41608 -0.08627,3.59845 -0.258572,5.19799 -0.604807,5.61467 -0.383024,0.46096 -1.133146,0.58268 -3.590774,0.58268 -3.54322,0 -4.215335,-0.36561 -4.215335,-2.29305 0,-1.67518 -0.844412,-2.41008 -2.435527,-2.11965 -1.779265,0.32477 -2.85614,1.10641 -2.85614,2.0731 0,1.21108 0.79715,1.68096 5.468055,3.22318 3.820603,1.26147 4.406487,1.57029 6.009351,3.1675 3.860329,3.84672 4.037459,10.68605 0.399232,15.41521 -2.576987,3.3497 -6.967759,4.49796 -15.051638,3.93625 z m 7.126386,-1.57378 c 3.879076,-0.8222 6.542288,-2.70912 8.032375,-5.69105 0.902654,-1.80637 1.069016,-2.5477 1.069016,-4.76366 0,-2.97463 -0.508815,-4.35305 -2.218483,-6.01005 -1.287559,-1.24789 -5.244522,-2.98895 -8.176425,-3.59761 -2.673286,-0.55497 -3.735497,-1.52142 -3.971278,-3.61327 -0.166177,-1.47432 -0.07731,-1.75556 0.846684,-2.67956 1.619101,-1.6191 5.266108,-1.91267 6.643965,-0.53481 0.289046,0.28905 0.525538,1.06424 0.525538,1.72265 0,1.52891 0.827337,1.99857 3.271816,1.85737 1.726292,-0.0997 1.853404,-0.17143 2.064356,-1.1646 0.415986,-1.95847 0.329897,-6.71547 -0.1327,-7.33259 -0.61194,-0.81635 -5.121607,-1.7424 -8.73125,-1.79294 -2.675281,-0.0375 -3.250557,0.0771 -5.335191,1.06275 -2.715521,1.2839 -5.026553,3.24681 -5.947131,5.0513 -1.006569,1.97303 -1.46899,5.08572 -1.041879,7.01317 0.79492,3.58729 3.124043,5.63444 7.960058,6.9964 4.123694,1.16135 5.677121,2.00135 6.363695,3.44111 0.52663,1.10436 0.519935,1.27428 -0.100256,2.54432 -0.912597,1.86883 -2.485631,2.59582 -5.603463,2.58969 -1.358194,-0.003 -2.697865,-0.14938 -2.977046,-0.32603 -0.280076,-0.17722 -0.686433,-1.40028 -0.906569,-2.72862 l -0.398968,-2.40745 -2.334809,0.0269 c -3.388513,0.039 -3.478918,0.17022 -3.359644,4.87529 l 0.09926,3.91548 1.400156,0.45807 c 3.997859,1.30789 9.67226,1.78422 12.958174,1.08775 z m 10.93957,-1.26776 0.102099,-3.0985 1.234722,-0.17639 1.234723,-0.17639 0.0928,-11.83869 0.0928,-11.8387 -1.415722,-0.79568 c -0.778647,-0.43762 -1.415722,-1.01154 -1.415722,-1.27536 0,-1.25924 0.879584,-4.28599 1.359628,-4.67865 0.384127,-0.3142 2.256811,-0.44097 6.514035,-0.44097 h 5.974921 l -0.255794,5.64444 c -0.252826,5.57897 -0.129216,6.32059 0.855691,5.13385 0.900495,-1.08503 3.435265,-1.71745 6.016357,-1.50106 2.979492,0.24979 4.132626,0.76273 5.166082,2.298 1.296138,1.9255 1.63727,4.57848 1.460399,11.35755 -0.08862,3.39671 -0.09532,6.37327 -0.01488,6.61458 0.08044,0.24131 0.569582,0.44118 1.08699,0.44415 1.674274,0.01 1.878147,0.38689 1.978664,3.66158 0.05162,1.68178 -0.01135,3.1228 -0.139928,3.20227 -0.128583,0.0795 -3.157549,0.17417 -6.731035,0.21044 l -6.497248,0.066 -0.433528,-1.01519 -0.433528,-1.01518 -0.01591,0.97014 c -0.0088,0.53357 -0.0556,0.98597 -0.104107,1.00533 -0.04851,0.0194 -3.626639,0.104 -7.951404,0.18808 l -7.863211,0.15288 z m 14.320734,-0.36168 c -0.09164,-1.42585 -0.250477,-1.74113 -1.075515,-2.13489 -0.532395,-0.25409 -1.059583,-0.82691 -1.171529,-1.27294 -0.111946,-0.44603 -0.1526,-3.36238 -0.09034,-6.48078 0.108593,-5.43922 0.14798,-5.7068 0.96844,-6.57915 1.125362,-1.19654 2.569873,-1.19899 3.508313,-0.006 1.335451,1.69776 1.59723,4.30175 1.128408,11.2246 -0.252834,3.73346 -0.297682,6.43658 -0.109906,6.62436 0.174472,0.17447 2.686133,0.27313 5.58147,0.21925 l 5.264249,-0.098 0.103681,-1.95748 0.103681,-1.95749 -1.514792,-0.33557 -1.514792,-0.33557 v -8.46666 c 0,-8.23396 -0.02198,-8.49748 -0.799686,-9.5878 -0.439828,-0.61662 -1.312953,-1.28021 -1.940278,-1.47464 -3.792169,-1.17536 -6.418126,-0.73257 -8.476682,1.42932 -1.936813,2.03405 -2.475504,1.59716 -2.47655,-2.00855 -5.6e-5,-0.19403 0.110161,-2.45621 0.244928,-5.02708 l 0.245031,-4.67431 h -4.928081 c -5.447663,0 -5.026498,-0.19385 -5.483657,2.52397 -0.203252,1.20833 -0.137261,1.3301 1.051503,1.94028 l 1.268364,0.65103 0.06422,12.22181 c 0.06021,11.45806 0.02334,12.26699 -0.589981,12.94487 -0.359811,0.39769 -0.994811,0.77163 -1.411111,0.83097 -0.634128,0.0904 -0.774352,0.37973 -0.864433,1.7836 l -0.107524,1.67569 h 6.565047 6.565047 z m 1.877038,-6.64554 c 0.07031,-7.98985 -0.10591,-8.96767 -1.616166,-8.96767 -1.080037,0 -1.160467,0.51037 -1.111905,7.05556 l 0.03795,5.11528 1.146528,0.33753 c 1.11231,0.32747 1.146528,0.39502 1.146528,2.26366 0,1.05937 0.07469,1.85143 0.165975,1.76015 0.09129,-0.0913 0.195276,-3.49532 0.231087,-7.56451 z m 22.291589,9.07437 c -3.818092,-1.31934 -6.32381,-3.7846 -7.346295,-7.22769 -0.709216,-2.38818 -0.687482,-8.02481 0.04039,-10.47583 0.892935,-3.00684 2.226967,-4.63715 4.969622,-6.07334 7.3943,-3.87202 15.557715,-1.7664 18.814365,4.85288 0.77503,1.57527 0.86813,2.21657 0.87068,5.99722 0.002,2.32833 -0.12181,4.82016 -0.27418,5.53739 -0.35908,1.69032 -2.64598,4.72009 -4.36812,5.78706 -3.50032,2.16867 -9.044287,2.86778 -12.706465,1.60231 z m 9.766902,-1.97269 c 3.69119,-1.85324 5.58333,-4.43853 6.35515,-8.68324 1.06894,-5.87878 -1.4844,-10.75045 -6.65604,-12.69947 -2.907341,-1.09568 -7.55651,-0.86683 -10.282441,0.50614 -3.999593,2.01448 -5.268941,4.28386 -5.557395,9.93571 -0.204443,4.00576 0.09256,5.32849 1.692292,7.53686 3.082452,4.2552 9.66445,5.8059 14.448434,3.404 z m -6.243332,-3.72629 c -1.41486,-0.56978 -1.984196,-2.31174 -2.131702,-6.52222 -0.151062,-4.312 0.2508,-5.64562 2.112521,-7.01064 1.195013,-0.87619 2.472611,-0.53693 3.580646,0.9508 0.640607,0.86013 0.758567,1.59368 0.866255,5.38693 0.06856,2.41517 0.02484,4.78894 -0.09717,5.27506 -0.485373,1.93388 -2.299242,2.73811 -4.330552,1.92007 z m 2.983403,-2.46528 c 0.500912,-1.39225 0.284419,-7.78753 -0.300629,-8.8807 -0.436392,-0.8154 -2.177298,-0.85275 -2.834439,-0.0608 -0.347191,0.41841 -0.484168,1.70785 -0.484168,4.55775 0,3.73794 0.05167,4.02926 0.869027,4.89923 1.168872,1.24413 2.185698,1.05355 2.750209,-0.51547 z m 20.095329,8.59235 c -0.10226,-0.16614 -0.60847,-1.88957 -1.12492,-3.82985 -1.26493,-4.75224 -2.53286,-8.66631 -3.77123,-11.64167 -0.80001,-1.92211 -1.34309,-2.68746 -2.45028,-3.4531 l -1.42248,-0.98365 0.23879,-2.01496 c 0.44472,-3.75254 0.42686,-3.73884 5.28049,-4.04991 2.32623,-0.14909 5.46709,-0.22847 6.9797,-0.17639 l 2.75019,0.0947 0.11477,2.64583 c 0.1259,2.90232 0.004,3.5598 -0.61727,3.33282 -0.22648,-0.0827 -0.64936,5.5e-4 -0.93973,0.18505 -0.45691,0.29032 -0.39053,0.72891 0.49335,3.25949 0.56172,1.60822 1.13811,3.14927 1.28086,3.42456 0.30846,0.59483 2.12387,-6.90073 2.42817,-10.02553 l 0.20613,-2.11666 2.99861,-0.1094 c 1.64923,-0.0602 3.65537,-0.0134 4.45807,0.10384 l 1.45946,0.21323 1.28672,5.14006 c 1.29259,5.16349 2.17635,7.79064 2.50887,7.45812 0.24119,-0.24118 1.22299,-5.4263 1.22299,-6.45886 0,-0.6315 -0.25169,-0.87816 -1.08217,-1.06056 -0.5952,-0.13073 -1.17556,-0.48105 -1.2897,-0.77849 -0.11414,-0.29745 0.14387,-1.63185 0.57335,-2.96535 l 0.78087,-2.42454 h 5.07895 5.07895 l 0.17583,1.14653 c 0.0967,0.63059 0.27114,1.74878 0.38764,2.48487 0.26043,1.64555 -0.0476,2.74679 -0.69838,2.49705 -0.26595,-0.10206 -0.79677,-0.0179 -1.1796,0.18696 -0.80335,0.42994 -1.32842,2.55498 -2.71074,10.9707 -1.57235,9.57273 -1.27198,9.17222 -6.87889,9.17222 -3.48807,0 -4.2067,-0.0952 -4.6604,-0.61736 -0.29503,-0.33954 -1.04585,-2.83986 -1.6685,-5.55625 -1.44055,-6.28456 -1.44581,-6.30197 -1.79792,-5.94454 -0.34615,0.35139 -1.21471,7.3031 -1.21595,9.73205 -5.8e-4,1.1443 -0.16434,1.73357 -0.51964,1.86991 -0.89655,0.34404 -11.55975,0.60629 -11.75496,0.2891 z m 24.86766,-1.80138 c 0.46741,-0.53693 1.66554,-5.50934 3.80392,-15.7868 0.55503,-2.66761 0.65908,-2.86088 1.89925,-3.52778 1.22398,-0.6582 1.29688,-0.78824 1.08615,-1.93759 -0.12424,-0.67762 -0.30022,-1.35231 -0.39107,-1.49931 -0.28602,-0.46279 -6.98638,-0.31038 -7.63608,0.17371 -0.32552,0.24253 -0.68901,0.93592 -0.80776,1.54086 -0.19466,0.99166 -0.10834,1.1374 0.8772,1.48096 1.31678,0.45903 1.32837,0.62372 0.41443,5.88581 -0.80302,4.62343 -0.97358,5.11528 -1.77384,5.11528 -1.19924,0 -1.88466,-1.45754 -3.40933,-7.24993 -0.8493,-3.22656 -1.63344,-6.0109 -1.74254,-6.18743 -0.10911,-0.17654 -1.49869,-0.32053 -3.08797,-0.31998 l -2.88959,9.8e-4 -1.35975,5.73166 c -1.76219,7.42799 -1.95106,8.0247 -2.54004,8.0247 -0.70528,0 -1.35737,-1.13852 -2.75807,-4.81546 -0.67631,-1.77537 -1.42979,-3.54842 -1.6744,-3.9401 -0.52701,-0.84389 0.0653,-1.82777 1.10031,-1.82777 0.9632,0 1.46707,-0.8824 1.34568,-2.35663 l -0.11096,-1.34754 -4.40972,0.0748 c -2.42535,0.0411 -5.07044,0.16785 -5.87799,0.28155 -1.34341,0.18915 -1.49502,0.3178 -1.78275,1.51269 -0.29745,1.23526 -0.23551,1.38327 1.14431,2.73439 1.36985,1.34135 1.6286,1.94895 4.24412,9.96597 l 2.78533,8.53754 h 4.64123 c 5.33143,0 5.05339,0.20264 5.08238,-3.70417 0.0163,-2.1997 0.54595,-6.89802 0.90518,-8.02983 0.16439,-0.51798 0.49967,-0.62903 1.64187,-0.54386 l 1.43529,0.10702 0.6231,2.29306 c 0.34271,1.26118 0.80867,3.32379 1.03546,4.58357 0.59991,3.33232 1.19524,4.53039 2.5419,5.11549 1.69914,0.73824 4.97068,0.68847 5.64475,-0.0859 z m 13.74609,1.48435 c -1.80859,-0.2458 -3.33507,-0.50174 -3.39218,-0.56875 -0.0571,-0.067 -0.18891,-1.42256 -0.2929,-3.01233 -0.22204,-3.39443 0.0352,-3.92472 2.03569,-4.19598 3.27049,-0.44347 3.29144,-0.45916 1.76014,-1.31812 -3.0325,-1.70103 -4.75063,-5.5482 -4.25378,-9.52487 0.76246,-6.10251 7.83047,-8.71207 17.30915,-6.39066 1.35819,0.33264 2.57434,0.70199 2.70256,0.82079 0.12821,0.11879 0.28696,1.67727 0.35278,3.46329 0.142,3.85357 0.25303,3.76826 -4.43541,3.40788 -2.85877,-0.21974 -3.01139,-0.27439 -3.33156,-1.19284 -0.23736,-0.68089 -0.62938,-1.00431 -1.33974,-1.1053 -1.64929,-0.23447 -2.23891,0.0232 -2.23891,0.97849 0,1.10537 1.7207,1.89557 4.13381,1.89838 5.3691,0.006 8.91897,3.24483 8.91897,8.13684 0,3.81915 -1.65916,6.74073 -4.6841,8.24812 -1.64474,0.81961 -2.16515,0.89488 -5.88031,0.85058 -2.24173,-0.0267 -5.55562,-0.24972 -7.36421,-0.49552 z m 12.69315,-2.01351 c 3.02079,-2.02476 3.91189,-3.72027 3.75451,-7.14375 -0.0815,-1.77252 -0.31166,-2.74198 -0.81559,-3.43514 -1.00159,-1.37769 -3.86013,-2.7353 -5.79841,-2.75384 -2.81244,-0.0269 -4.70273,-0.55635 -5.5649,-1.55869 -1.68126,-1.95457 -0.35401,-4.42317 2.37813,-4.42317 1.77832,0 2.74893,0.4857 3.16675,1.58464 0.24911,0.65521 0.67823,0.89022 1.98274,1.08584 2.3044,0.34557 2.75859,-0.0341 2.88576,-2.41252 l 0.1049,-1.96206 -2.04518,-0.62069 c -8.94025,-2.71326 -16.73044,1.33341 -15.31073,7.95326 0.75782,3.53364 2.45906,5.48202 5.06514,5.801 7.41357,0.9074 8.02402,1.15391 8.02402,3.24029 0,1.66419 -0.70473,2.15646 -3.4872,2.43589 -3.09777,0.3111 -3.78233,0.0853 -4.32965,-1.42833 -0.44043,-1.21799 -0.44167,-1.21855 -2.22094,-0.99754 -2.44534,0.30375 -2.79504,0.71089 -2.49353,2.90309 l 0.24517,1.78257 1.89628,0.39366 c 1.8904,0.39245 6.58429,0.91546 9.03495,1.00672 0.98132,0.0365 1.8274,-0.31151 3.52778,-1.45123 z m -3.98593,-4.26228 c 0.74048,-0.89222 -0.32124,-1.55935 -2.89507,-1.81916 -2.41349,-0.24361 -2.41492,-0.24323 -2.16169,0.58168 0.13937,0.454 0.41216,1.02389 0.6062,1.26642 0.47962,0.5995 3.94772,0.57695 4.45056,-0.0289 z"
       id="path3"
       inkscape:export-filename="about.svg"
       inkscape:export-xdpi="96"
       inkscape:export-ydpi="96" /></g></svg>
