<?xml version="1.0" encoding="UTF-8" standalone="no"?>
<!-- Created with Inkscape (http://www.inkscape.org/) -->

<svg
   width="159.20454mm"
   height="163.46303mm"
   viewBox="0 0 159.20454 163.46303"
   version="1.1"
   id="svg1"
   xml:space="preserve"
   inkscape:version="1.4.2 (ebf0e940d0, 2025-05-08)"
   sodipodi:docname="home"
   xmlns:inkscape="http://www.inkscape.org/namespaces/inkscape"
   xmlns:sodipodi="http://sodipodi.sourceforge.net/DTD/sodipodi-0.dtd"
   xmlns="http://www.w3.org/2000/svg"
   xmlns:svg="http://www.w3.org/2000/svg"><sodipodi:namedview
     id="namedview1"
     pagecolor="#ffffff"
     bordercolor="#000000"
     borderopacity="0.25"
     inkscape:showpageshadow="2"
     inkscape:pageopacity="0.0"
     inkscape:pagecheckerboard="0"
     inkscape:deskcolor="#d1d1d1"
     inkscape:document-units="mm"
     inkscape:zoom="1.2056825"
     inkscape:cx="330.51818"
     inkscape:cy="682.18621"
     inkscape:window-width="3840"
     inkscape:window-height="2075"
     inkscape:window-x="0"
     inkscape:window-y="850"
     inkscape:window-maximized="1"
     inkscape:current-layer="layer1"><inkscape:page
       x="0"
       y="-1.70031e-13"
       width="159.20454"
       height="163.46301"
       id="page2"
       margin="0"
       bleed="0" /></sodipodi:namedview><defs
     id="defs1"><style
       id="style1">
      .cls-1 {
        fill: #fad547;
        stroke-width: 0px;
      }
    </style></defs><g
     inkscape:label="Layer 1"
     inkscape:groupmode="layer"
     id="layer1"
     transform="translate(-19.760071,-81.726346)"><path
       style="fill:#fad547;fill-opacity:1;stroke-width:0.905794"
       d="m 41.212407,245.18523 c -5.245725,-6.30167 -1.905347,-14.84922 -4.123075,-21.9682 -0.212227,-12.94596 -2.331498,-25.78675 -3.287615,-38.68507 0.813457,-10.20365 1.423117,-20.43173 0.117241,-30.63611 -0.195292,-4.22233 1.316584,-14.89864 -4.546223,-6.73621 -7.348579,5.68036 -14.339943,-5.2545 -5.421012,-8.43079 7.461484,-6.74557 16.447811,-12.31109 23.855366,-19.11335 6.56723,-3.18686 9.075079,-9.37859 15.158634,-12.9465 5.990682,-5.08895 12.305396,-9.689095 18.50139,-14.53492 6.930547,-6.265241 18.740257,-16.538862 26.966827,-5.588324 9.30727,7.389205 20.19662,13.345754 28.92685,21.257024 7.19984,5.07798 14.43224,10.12283 21.15751,15.6568 7.99103,4.01648 12.5613,10.89936 19.80201,15.5442 3.52119,6.50271 -8.41211,5.73645 -11.12824,2.03166 -0.0545,6.04812 0.56328,12.72118 0.92179,19.13236 1.0487,12.91513 0.19586,25.8774 1.57409,38.77458 -0.2884,13.35958 1.89758,26.67027 1.70809,40.01044 -0.70158,9.33147 -13.92136,3.39145 -21.10064,4.78096 -21.5352,0.62577 -43.07306,-0.42635 -64.603876,0.24065 -10.660207,0.62886 -21.317502,1.40236 -31.975762,0.95949 -4.165955,0.13013 -8.33341,0.28253 -12.503355,0.25131 z m 3.708908,-5.18259 c 7.972908,-3.64536 17.033551,0.0749 25.506847,-1.08413 6.99048,-0.26631 17.577388,2.24145 14.506417,-6.67532 -1.066236,-7.41617 -0.165121,-14.8679 -1.11195,-22.31644 -0.528965,-6.01791 -2.052481,-19.50264 9.779115,-14.25076 7.863106,-0.58982 15.907846,-2.01403 23.683316,-1.44077 3.29078,6.31414 -0.86374,14.21307 1.64935,21.40617 1.26646,7.11937 -3.36955,17.9232 2.31104,22.71573 9.17601,0.7809 18.34066,-0.0481 27.5134,0.17351 7.37825,-0.28879 19.64956,0.19838 14.78758,-9.06359 -1.29263,-11.54869 -0.0976,-23.17906 -1.49216,-34.69884 0.68836,-12.78182 -1.05699,-25.5024 -1.3432,-38.27289 -2.69833,-4.92398 2.06808,-15.47752 -6.85185,-15.95304 -8.32408,0.53885 -16.79704,0.19137 -24.9389,2.11835 -13.0285,0.58527 -26.00771,-0.5412 -38.966424,-1.23479 -10.749657,-1.01162 -20.6715,2.95031 -31.465973,1.34462 -6.806376,-0.36959 -19.919979,-3.92094 -16.363517,5.53141 1.358215,7.60572 -1.363202,15.26231 0.520146,22.81193 0.510392,14.2552 2.862363,28.5037 1.287681,42.76626 0.267676,8.66615 -1.674403,17.64341 0.989082,26.12259 z m 0.08472,-104.7585 c 9.426819,-1.80089 19.165003,0.14104 28.725556,-0.72718 12.920626,-0.004 25.836218,0.68942 38.742919,-0.0381 9.90844,0.36392 19.78842,-0.23732 29.69221,-0.007 3.68307,-1.22573 18.75179,1.35847 10.46209,-4.30601 -7.32549,-5.97215 -13.96184,-12.51397 -21.55155,-18.30576 -6.69205,-4.53954 -14.4833,-8.05538 -20.67291,-13.186399 -5.60061,-4.023234 -14.194147,-12.728278 -19.491238,-3.432235 -6.163172,6.648274 -15.661571,10.552324 -20.91491,17.869574 -8.808527,7.29248 -18.519184,14.04661 -26.786161,21.74071 -0.247047,0.72194 1.844902,0.47914 1.793994,0.3916 z"
       id="path1" /></g></svg>
