<?xml version="1.0" encoding="UTF-8"?>
<svg id="Layer_1" data-name="Layer 1" xmlns="http://www.w3.org/2000/svg" xmlns:xlink="http://www.w3.org/1999/xlink" viewBox="0 0 378.17 330.43">
  <defs>
    <style>
      .cls-1 {
        fill: #fad547;
      }

      .cls-1, .cls-2 {
        stroke-width: 0px;
      }

      .cls-2 {
        fill: none;
      }

      .cls-3 {
        clip-path: url(#clippath);
      }
    </style>
    <clipPath id="clippath">
      <rect class="cls-2" width="378.17" height="330.43"/>
    </clipPath>
  </defs>
  <g class="cls-3">
    <path class="cls-1" d="m347.34,96.84C297.94,4.54,310.83-25.41,205.11,22.77c-50.09,22.83-124.86,57.28-172.15,85.35C-3.26,129.61-8.3,144.17,11.33,197.74c2.52,6.89,23.86,46.91,21.97,19.76-.58-17.22-.45-39.65.71-51.31,1.76-17.81,3.01-39.76,15.98-53.48,29.18-30.32,74.49-23.2,112.8-23.49,60.41.22,127.95,1.35,184.55,7.62"/>
    <path class="cls-1" d="m340.1,195.7c-46.75,2.83-94.59-2.71-141.72-3.54,4.53-11.92,42.43-4.62,55.22-5,8.61,2.13,96.83-1.35,86.5,8.54m-3.99,47.21c-31.96,4.37-67.42-3.05-100.19-.71-15.65-11.98,100.29-4.15,100.19.71m-136.88,30.97c-43.36,1.9-89.33,3.71-131.33-3.06,8.66-42.93,62.52-45.24,96.9-34.78,9.85,2.99,39.41,28.24,34.43,37.83m-91.78-87.18c-1.85-32.76,56.12-35.64,56.55-2.99,5.06,38.36-60.29,40.8-56.55,2.99m269.82-35.13c-1.95-52.38-24.37-44.83-69.94-48.92-46.26-4.16-93.17-4.7-139.57-3.55-121.59-3.32-123.24,7.85-125.86,125.42-.86,38.33-5.82,96.85,34.29,100,37.8,2.97,78.88,3.73,117.01,4.79,52.26,1.47,102.26,1.96,144.86-1.58,12.85-1.07,40.17-19.42,39.92-47.69-.43-47.95,1.07-80.54-.71-128.47"/>
  </g>
</svg>