<?xml version="1.0" encoding="UTF-8"?>
<svg id="Layer_2" data-name="Layer 2" xmlns="http://www.w3.org/2000/svg" viewBox="0 0 137.19 103.91">
  <defs>
    <style>
      .cls-1 {
        fill: #fad43c;
        stroke-width: 0px;
      }

      .cls-2 {
        fill: none;
        stroke: #fad43c;
        stroke-miterlimit: 10;
        stroke-width: 3px;
      }
    </style>
  </defs>
  <g id="Layer_1-2" data-name="Layer 1">
    <g>
      <g>
        <path class="cls-1" d="m13.65,43.82c.03-4.88,0-9.99-.1-15.69-.04-2.71-2.88-7-5.68-7.31-5.05-.63-5.41-4.24-5.41-9.61C2.46,2.29,3.56,1.72,11.09,2.15l-.12,2.12c-2.73-.15-4,1.67-4.26,4.36-.26,2.77-.63,6.17,3.51,6.31,6.12.22,5.69,3.7,5.61,8.42-.11,6.82-.26,13.65-.33,20.47h-1.85Z"/>
        <path class="cls-1" d="m88.57,99.05c-1.08.09-1.93.08-2.57-.91-.83-1.28-1.3-2.84-1.41-4.42-.23-3.45,1.3-7,4.78-8.01,3.3-.99,4.43-1.54,5.33-1.87,3.11-1.13,4.4-.27,4.31-2.86-.32-9.89-2.63-19.57-2.62-29.48,0-1.29.44-3.12-1.04-3.56-1.86-.55-2.27,1.48-2.91,2.71-3.94,7.63-8.77,14.79-11.96,22.81-.38.97-.7,1.87-1.94,2.41-3.47,1.5-8.24.77-12.56,1.18-5.82.05-7.55,1.31-12.2.07-2.03-.83-2.82-1.59-3.57-3.6-.82-2.19-1.8-4.32-2.82-6.44-2.37-4.94-4.91-9.81-5.94-15.14-.42-2.22,1.1-4.15-4.47-3.72-2.69.19-1.7,2.76-1.84,4.38-.66,7.44-1.07,14.9-1.86,22.31-.3,2.8-1.39,5.61-.45,8.36,1.36,3.99,4.88,1.52,7.36,1.99,6.08,1.17,4.86,4.82,5.2,8.51.02.23.03.45.03.66,0,3.45-2.75,4.24-4.95,4.75-12.34.61-18.67,0-30.31-.37-1.6-.05-3.73.37-4.33-1.98-.97-3.79-1.93-7.44,1.45-9.11,3.29-1.62,4.75-2.05,6.44-5.32,1.67-3.22,2.61-5.42,2.37-9.25-.62-9.77-.69-19.54-.59-29.32.07-6.82.22-13.65.33-20.47.08-4.72.51-8.2-5.61-8.42-4.14-.14-3.77-3.54-3.51-6.31.26-2.69,1.53-4.51,4.26-4.36.31.01.65.06,1,.13,5.08,1.03,10.14.79,15.32.56,4.13-.19,8.39-1.21,12.64.15,6.48,2.09,8.24,8.53,11.9,13.04,2.14,2.65,2.98,6.88,4.39,10.39l4.15,11.11c4.82,14.35,5.83,17.44,6.86,20.53.63,1.9,3.34,1.8,3.84-.13.36-1.4.75-2.78,1.25-4.11.67-1.27,1.32-2.53,1.95-3.79,6.61-12.96,11.87-25.31,17.11-38.67,2.26-3.81,4.15-7.01,9.3-7.75,11.13-1.19,20.17-2.22,30.4.27,1.23.3,2.26.24,2.42-1.11,0,.8.91,1.65.85,2.64-.49,8.19-.49,8.56-8.86,9.74-2.46.35-3.56,1.79-3.91,3.84-.46,2.77-1.08,5.51-.86,8.39.73,9.35,1.33,18.52,1.26,27.68-.05,7.85-.6,15.7-1.99,23.66-.06.33-.09.65-.09.94,0,1.03.4,1.89,1.68,2.88.01.01,1.46.63,1.73.68,3.51.61,5.47,1.01,5.79,4.09.64,6.26,1.3,8.54-5.08,9.6-2.12.35-5.87.17-7.98,0-9.12-.75-18.4-.73-27.47.02Z"/>
        <path class="cls-1" d="m16.09,73.15c.24,3.83-.7,6.03-2.37,9.25-1.69,3.27-3.15,3.7-6.44,5.32-3.38,1.67-2.42,5.32-1.45,9.11.6,2.35,2.73,1.93,4.33,1.98,11.64.37,17.97.98,30.31.37,2.2-.51,4.95-1.3,4.95-4.75,0-.21-.01-.43-.03-.66l1.38.02c.04.65.12,1.24.27,1.68,1.6,4.73-1.27,5.55-4.7,5.74-8.52.48-14.75,1.24-24.34.9-1.36-.05-2.71-.18-4.08-.17-4.2.04-3.99-.06-7.82.41-2.37.3-4.22-.58-4.15-2.72.06-1.83-.45-3.58-.45-5.41,0-3.99.25-5.13.51-6.64.34-1.95,1.88-3.46,3.83-3.79,5.95-1,6.37-1.96,6.7-7.73.7-12.22,1.06-21.72,1.11-32.24h1.85c-.1,9.79-.03,19.56.59,29.33Z"/>
        <path class="cls-1" d="m13.81,2.32c7.26.96,14.46-.1,21.68-.04,4.02.02,8.88-.31,11.7.62.88.5,1.24.78,1.42,1.5,2.25,9.11,9.14,16.26,11.19,25.28.71,3.14,1.65,6.18,2.71,9.21l-2.14.76-4.15-11.11c-1.41-3.51-2.25-7.74-4.39-10.39-3.66-4.51-5.42-10.95-11.9-13.04-4.25-1.36-8.51-.34-12.64-.15-5.18.23-10.24.47-15.32-.56-.35-.07-.69-.12-1-.13l.12-2.12c.82.05,1.73.11,2.72.17Z"/>
        <path class="cls-1" d="m133.68,85.37c2.01,4.24.04,9.93.91,13.9.55,2.52-4.9,2.04-6.24,2.21-4.32.56-6.01-.07-12.07.31-1.56.1-4.13.11-5.7.03-7.58-.42-15.27.07-22.9.45-2.95.14-3.09-1.83-2.99-3.99.07-1.46-.03-3-.14-4.56h.04c.11,1.58.58,3.14,1.41,4.42.64.99,1.49,1,2.57.91,9.07-.75,18.35-.77,27.47-.02,2.11.17,5.86.35,7.98,0,6.38-1.06,5.72-3.34,5.08-9.6-.32-3.08-2.28-3.48-5.79-4.09-.27-.05-1.72-.67-1.73-.68-1.28-.99-1.68-1.85-1.68-2.88,0-.29.03-.61.09-.94,1.39-7.96,1.94-15.81,1.99-23.66h1.41c-.08,6.81.31,13.59,0,20.38-.17,3.82,2.86,7.2,8.19,5.29,1.89-.67,1.56,1.39,2.09,2.52Z"/>
        <path class="cls-1" d="m134.31,3.77c.98-.2,2.04,14.7.85,15.22-2.2.94-4.78.92-7.09,1.07-3.47.23-3.61,1.81-4.07,4.57-1.46,8.86.23,17.72-.38,26.49-.14,2.03-.21,4.05-.23,6.07h-1.41c.07-9.17-.53-18.34-1.26-27.69-.22-2.88.4-5.62.86-8.39.35-2.05,1.45-3.49,3.91-3.84,8.37-1.18,8.37-1.55,8.86-9.74.06-.99-.85-1.84-.85-2.64,0-.02.01-.05,0-.07,0-.02.01-.05.01-.07.05-.33.27-.66.8-.98Z"/>
        <path class="cls-1" d="m53.78,77.12c4.65,1.24,6.38-.02,12.2-.07,4.32-.41,9.09.32,12.56-1.18,1.24-.54,1.56-1.44,1.94-2.41,3.19-8.02,8.02-15.18,11.96-22.81.64-1.23,1.05-3.26,2.91-2.71,1.48.44,1.04,2.27,1.04,3.56-.01,9.91,2.3,19.59,2.62,29.48.09,2.59-1.2,1.73-4.31,2.86-.9.33-2.03.88-5.33,1.87-3.48,1.01-5.01,4.56-4.78,8.01h-.04c-.09-1.61-.2-3.25-.13-4.87.13-3.15.67-4,3.7-4.96,10.76-3.44,8.9-1.59,7.39-14.33-.57-4.74-.93-9.51-1.48-15.24,0-.01-.01-.02-.02-.01-4.14,4.37-5.28,9.78-7.57,14.58-.33.68-1.31,2.8-1.89,3.76-.55.91-2.16,2.92-2.94,5.97-.14.57-.42.91-1.57.9-7.45.49-12.04,1.58-17.93.54-11.2-1.99-12.12,1.13-15.32-10.26-.22-.77-.46-1.46-.73-2.09l1.33-.63c1.02,2.12,2,4.25,2.82,6.44.75,2.01,1.54,2.77,3.57,3.6Z"/>
        <path class="cls-1" d="m133.5,4.89c-.16,1.35-1.19,1.41-2.42,1.11-10.23-2.49-19.27-1.46-30.4-.27-5.15.74-7.04,3.94-9.3,7.75l-2.87-.67c.43-.97.87-1.97,1.3-3.02.39-.95.98-1.49.4-3.3-.29-.74-.4-.68-.58-1.23-.17-.53,1.86-3.45,2.48-3.48,6.59-.33,12.75.03,19.32.12,6.83.11,12.91-1.46,19.87.96,1.16.4,2.24.21,2.22,1.7,0,.07,0,.13-.01.19,0,.02-.01.05-.01.07.01.02,0,.05,0,.07Z"/>
        <path class="cls-1" d="m60.37,39.65l2.14-.76c1.36,3.9,2.89,7.76,4.33,11.78.81,2.25,3.93,2.37,4.9.19l2.53,1.29c-.63,1.26-1.28,2.52-1.95,3.79-.5,1.33-.89,2.71-1.25,4.11-.5,1.93-3.21,2.03-3.84.13-1.03-3.09-2.04-6.18-6.86-20.53Z"/>
        <path class="cls-1" d="m88.51,12.81l2.87.67c-5.24,13.36-10.5,25.71-17.11,38.67l-2.53-1.29c3.88-8.75,7.67-17.16,11.13-25.7,1.84-4.55,3.75-8.15,5.64-12.35Z"/>
        <path class="cls-1" d="m47.39,67.08l-1.33.63c-1.91-4.38-5.03-5.74-7.28-11.91,0-.02-.03-.01-.03,0-1.07,10.28-2.59,15.09-2.43,24.16.03,1.65,1.77,3.36,3.52,3.7,1.61.31,3.09-.36,4.52.44,2.07,1.16,2.39,1.5,2.43,5.65.01,1.03-.1,2.66-.02,4.04l-1.38-.02c-.34-3.69.88-7.34-5.2-8.51-2.48-.47-6,2-7.36-1.99-.94-2.75.15-5.56.45-8.36.79-7.41,1.2-14.87,1.86-22.31.14-1.62-.85-4.19,1.84-4.38,5.57-.43,4.05,1.5,4.47,3.72,1.03,5.33,3.57,10.2,5.94,15.14Z"/>
      </g>
      <g>
        <path class="cls-2" d="m133.51,4.75c.05-.33.27-.66.8-.98.98-.2,2.04,14.7.85,15.22-2.2.94-4.78.92-7.09,1.07-3.47.23-3.61,1.81-4.07,4.57-1.46,8.86.23,17.72-.38,26.49-.14,2.03-.21,4.05-.23,6.07-.08,6.8.31,13.58,0,20.37-.17,3.82,2.86,7.2,8.19,5.29,1.89-.67,1.56,1.39,2.09,2.52,2.01,4.24.04,9.93.91,13.9.55,2.52-4.9,2.04-6.24,2.21-4.32.56-6.01-.07-12.07.31-1.56.1-4.13.11-5.7.03-7.58-.42-15.27.07-22.9.45-2.95.14-3.09-1.83-2.99-3.99.07-1.46-.03-3-.14-4.56-.09-1.61-.2-3.25-.13-4.87.13-3.15.67-4,3.7-4.96,10.76-3.44,8.9-1.59,7.39-14.33-.57-4.74-.93-9.51-1.48-15.24,0-.01-.01-.02-.02-.01-4.14,4.37-5.28,9.78-7.57,14.58-.33.68-1.31,2.8-1.89,3.76-.55.91-2.16,2.92-2.94,5.97-.14.57-.42.91-1.57.9-7.45.49-12.04,1.58-17.93.54-11.2-1.99-12.12,1.13-15.32-10.26-.22-.77-.46-1.46-.73-2.09-1.91-4.38-5.03-5.74-7.28-11.91,0-.02-.03-.01-.03,0-1.07,10.28-2.59,15.09-2.43,24.16.03,1.65,1.77,3.36,3.52,3.7,1.61.31,3.09-.36,4.52.44,2.07,1.16,2.39,1.5,2.43,5.65.01,1.03-.1,2.66-.02,4.04.04.65.12,1.24.27,1.68,1.6,4.73-1.27,5.55-4.7,5.74-8.52.48-14.75,1.24-24.34.9-1.36-.05-2.71-.18-4.08-.17-4.2.04-3.99-.06-7.82.41-2.37.3-4.22-.58-4.15-2.72.06-1.83-.45-3.58-.45-5.41,0-3.99.25-5.13.51-6.64.34-1.95,1.88-3.46,3.83-3.79,5.95-1,6.37-1.96,6.7-7.73.7-12.22,1.06-21.72,1.11-32.24.03-4.88,0-9.99-.1-15.69-.04-2.71-2.88-7-5.68-7.31-5.05-.63-5.41-4.24-5.41-9.61C2.46,2.29,3.56,1.72,11.09,2.15c.82.05,1.73.11,2.72.17,7.26.96,14.46-.1,21.68-.04,4.02.02,8.88-.31,11.7.62.88.5,1.24.78,1.42,1.5,2.25,9.11,9.14,16.26,11.19,25.28.71,3.14,1.65,6.18,2.71,9.21,1.36,3.9,2.89,7.76,4.33,11.78.81,2.25,3.93,2.37,4.9.19,3.88-8.75,7.67-17.16,11.13-25.7,1.84-4.55,3.75-8.15,5.64-12.35.43-.97.87-1.97,1.3-3.02.39-.95.98-1.49.4-3.3-.29-.74-.4-.68-.58-1.23-.17-.53,1.86-3.45,2.48-3.48,6.59-.33,12.75.03,19.32.12,6.83.11,12.91-1.46,19.87.96,1.16.4,2.24.21,2.22,1.7,0,.07,0,.13-.01.19"/>
        <path class="cls-2" d="m133.5,4.89c-.16,1.35-1.19,1.41-2.42,1.11-10.23-2.49-19.27-1.46-30.4-.27-5.15.74-7.04,3.94-9.3,7.75-5.24,13.36-10.5,25.71-17.11,38.67-.63,1.26-1.28,2.52-1.95,3.79-.5,1.33-.89,2.71-1.25,4.11-.5,1.93-3.21,2.03-3.84.13-1.03-3.09-2.04-6.18-6.86-20.53l-4.15-11.11c-1.41-3.51-2.25-7.74-4.39-10.39-3.66-4.51-5.42-10.95-11.9-13.04-4.25-1.36-8.51-.34-12.64-.15-5.18.23-10.24.47-15.32-.56-.35-.07-.69-.12-1-.13-2.73-.15-4,1.67-4.26,4.36-.26,2.77-.63,6.17,3.51,6.31,6.12.22,5.69,3.7,5.61,8.42-.11,6.82-.26,13.65-.33,20.47-.1,9.78-.03,19.55.59,29.32.24,3.83-.7,6.03-2.37,9.25-1.69,3.27-3.15,3.7-6.44,5.32-3.38,1.67-2.42,5.32-1.45,9.11.6,2.35,2.73,1.93,4.33,1.98,11.64.37,17.97.98,30.31.37,2.2-.51,4.95-1.3,4.95-4.75,0-.21-.01-.43-.03-.66-.34-3.69.88-7.34-5.2-8.51-2.48-.47-6,2-7.36-1.99-.94-2.75.15-5.56.45-8.36.79-7.41,1.2-14.87,1.86-22.31.14-1.62-.85-4.19,1.84-4.38,5.57-.43,4.05,1.5,4.47,3.72,1.03,5.33,3.57,10.2,5.94,15.14,1.02,2.12,2,4.25,2.82,6.44.75,2.01,1.54,2.77,3.57,3.6,4.65,1.24,6.38-.02,12.2-.07,4.32-.41,9.09.32,12.56-1.18,1.24-.54,1.56-1.44,1.94-2.41,3.19-8.02,8.02-15.18,11.96-22.81.64-1.23,1.05-3.26,2.91-2.71,1.48.44,1.04,2.27,1.04,3.56-.01,9.91,2.3,19.59,2.62,29.48.09,2.59-1.2,1.73-4.31,2.86-.9.33-2.03.88-5.33,1.87-3.48,1.01-5.01,4.56-4.78,8.01.11,1.58.58,3.14,1.41,4.42.64.99,1.49,1,2.57.91,9.07-.75,18.35-.77,27.47-.02,2.11.17,5.86.35,7.98,0,6.38-1.06,5.72-3.34,5.08-9.6-.32-3.08-2.28-3.48-5.79-4.09-.27-.05-1.72-.67-1.73-.68-1.28-.99-1.68-1.85-1.68-2.88,0-.29.03-.61.09-.94,1.39-7.96,1.94-15.81,1.99-23.66.07-9.16-.53-18.33-1.26-27.68-.22-2.88.4-5.62.86-8.39.35-2.05,1.45-3.49,3.91-3.84,8.37-1.18,8.37-1.55,8.86-9.74.06-.99-.85-1.84-.85-2.64"/>
        <path class="cls-2" d="m133.5,4.89s.01-.05,0-.07c0-.02.01-.05.01-.07"/>
      </g>
    </g>
  </g>
</svg>