<?xml version="1.0" encoding="UTF-8"?>
<svg id="Layer_1" data-name="Layer 1" xmlns="http://www.w3.org/2000/svg" xmlns:xlink="http://www.w3.org/1999/xlink" viewBox="0 0 394.6 335.61">
  <defs>
    <style>
      .cls-1 {
        clip-path: url(#clippath-2);
      }

      .cls-2 {
        fill: #fad547;
      }

      .cls-2, .cls-3 {
        stroke-width: 0px;
      }

      .cls-3 {
        fill: none;
      }

      .cls-4 {
        clip-path: url(#clippath-1);
      }

      .cls-5 {
        clip-path: url(#clippath);
      }
    </style>
    <clipPath id="clippath">
      <rect class="cls-3" width="394.6" height="335.61"/>
    </clipPath>
    <clipPath id="clippath-1">
      <rect class="cls-3" x=".98" y=".98" width="392.65" height="333.66"/>
    </clipPath>
    <clipPath id="clippath-2">
      <rect class="cls-3" x=".98" y=".98" width="392.65" height="333.66"/>
    </clipPath>
  </defs>
  <g class="cls-5">
    <g class="cls-4">
      <g class="cls-1">
        <path class="cls-2" d="m331.46,1c.15-.05.34-.01.51,0,1.22.11,2.43.24,3.65.36.08.01.17.05.25.02,1.99-.55,3.89.16,5.82.4.38.04.76.04,1.15.05,3.06.1,6.13.15,9.19.31,2.29.12,4.54.41,6.75,1.22,2.01.75,4.06,1.47,6.15,2.01,1.26.34,2.15,1.19,3.28,1.67.39.16.78.32,1.14.52.52.28,1.01.59,1.5.89.89.55,1.85.99,2.61,1.67,1.18,1.07,2.92,1.23,3.92,2.57.26.35.78.5,1.17.75.87.55,1.56,1.21,2.04,2.2.95,1.99,2.09,3.9,3.12,5.86,1.12,2.1,2.23,4.21,2.86,6.53.28,1.03.68,2.03,1.09,3.01.14.33.45.6.73.85.49.45.81.96.87,1.65.1,1.32.28,2.63.39,3.95.05.51,0,1.03-.02,1.54-.11,2.34-.25,4.69-.32,7.04-.02.54.2,1.08.26,1.63.16,1.51.33,3.04.43,4.57.06.88,0,1.78-.03,2.68-.07,2.77.16,5.53.34,8.3.16,2.5.08,5.02.13,7.54.05,3.15-.32,6.3.13,9.46.21,1.46-.03,2.97,0,4.46.08,3.02.22,6.03.31,9.04.03,1.07,0,2.13.02,3.21.03,2.73.05,5.45.1,8.18,0,.55.03,1.13.17,1.66.65,2.51.6,5.07.57,7.64-.03,2.59-.14,5.2.38,7.78.15.74.16,1.56,0,2.29-.32,1.56-.06,3.05.11,4.58.17,1.43.17,2.89.12,4.33-.07,1.83-.28,3.65-.36,5.48-.08,1.79-.09,3.58-.14,5.38,0,.26-.06.52-.02.77.2,1.3.39,2.58.14,3.92-.13.73.14,1.51.2,2.27.07.94.15,1.88.14,2.81-.04,3.16-.16,6.31-.18,9.48,0,1.49.18,2.99.21,4.48.04,2.01.06,4,0,6-.07,2.6-.27,5.19-.34,7.79-.05,2.09.1,4.18.02,6.27-.11,3.02-.42,6.03-.53,9.06-.06,1.74.1,3.49.11,5.25,0,.54-.18,1.09-.2,1.62-.05,1.23-.12,2.47-.06,3.69.06,1.36.25,2.71.37,4.07,0,.04.01.09,0,.12-.64,1.59-.11,3.25-.24,4.87-.11,1.26.03,2.55,0,3.82-.04,1.88-.06,3.76-.24,5.63-.08.79.43,1.2.97,1.84-.53.14-.75.21-.95.26-.02.13-.07.24-.04.3.65.96.45,2.1.37,3.08-.11,1.08,0,2.1.12,3.15.12.97.07,1.95.15,2.92.08,1.07.27,2.11-.1,3.18-.18.53,0,1.17,0,1.77.07,4.25.12,8.5.22,12.75.06,2.56.2,5.11.27,7.67.02.97-.13,1.94-.07,2.91.11,1.96.28,3.91.48,5.86.04.5.29.98.39,1.48.25,1.17.47,2.31.09,3.53-.18.57-.02,1.25.02,1.88.07.97.19,1.94.23,2.91.06,1.7.08,3.41.14,5.11.04,1.05.07,2.09.04,3.14h0c-.15.52-.27,1.06-.32,1.61-.26,2.4-.2,4.17-.83,6.53-.52,1.92-.7,3.82-1.52,5.65-1.04,2.33-1.9,4.68-2.86,7.01-.03.06-.07.11-.1.17-2.32,4.06-5.81,7.56-9.82,10.26.15-.15.3-.3.45-.44,1.69-1.57,3.35-3.15,4.39-5.25.13-.26.32-.5.56-.87-.44-.02-.71.02-.94-.06-1.08-.34-2.05-.16-3.08.28-1.07.46-1.98.05-2.68-.88-.27-.36-.6-.73-.99-.91-1.38-.64-1.21-1.74-.5-2.7.23-.3.32-.7.52-1.16-.74-.13-1.07-.67-1.8-.5-1.41.33-2.85.5-4.27.7-1.26.19-2.54.35-3.8.52-1.89.25-3.78.5-5.67.73-.65.07-1.24-.04-1.72-.6-.45-.53-1.06-.8-1.84-.64-.44.09-.93.03-1.4-.02-2.42-.29-4.83-.41-7.26-.29-.3.02-.6-.04-.9-.06-1.69-.06-3.38-.18-5.08-.16-1.46.01-2.91.13-4.18-.77-.48-.34-.91-.76-1.41-1.05-1.23-.7-1.51-.55-1.85.77-.12.46-.37.89-.58,1.37-.45-.16-.73-.28-1.01-.34-.79-.18-1.27-.59-1.45-1.42-.06-.34-.35-.63-.6-1.05-.39.36-.75.55-.92.86-.41.74-.98,1.17-1.94,1.1.23.83-.34,1.2-.78,1.64-.3.29-.64.55-.92.87-.88,1.02-1.56.94-1.98-.36-.23-.71-.25-1.51-.3-2.27-.07-.95-.44-1.35-1.32-1.37-1.7-.04-3.4-.14-5.1-.14-.9,0-1.83-.04-2.39,1.03-.41.77-1.11.77-1.84.22-.27-.21-.5-.47-.7-.75-.3-.43-.65-.52-1.19-.52-1.95-.02-3.91-.15-5.86-.25-.59-.04-1.18-.15-1.77-.16-2.04-.01-4.08.05-6.12,0-2.3-.06-4.6-.24-6.9-.34-1.48-.07-2.97-.12-4.46-.12-.89,0-1.83-.03-2.66.23-.94.28-1.83.32-2.76.18-.29-.04-.59-.02-.88-.02-1.03.04-2.06.09-3.1.14-.19.66-.34,1.28-.54,1.87-.36,1.02-.8,1.25-1.82,1.08-.28-.05-.61-.16-.84-.05-.39.18-.75.48-1.16.11-.32-.28-.66-.56-.87-.91-.38-.6-.67-1.27-1.06-2.02-1.04.05-2.11.1-2.88.14-.99.95-1.75,1.73-2.59,2.42-.16.13-.76.04-.89-.14-.48-.67-1.17-.48-1.76-.46-.48.02-.98.24-1.41.49-.56.32-.95.26-1.3-.28-.09-.13-.25-.19-.34-.26-.15.04-.27.03-.32.08-.64.72-1.32.91-2.28.51-.34-.14-.92.22-1.36.43-.3.13-.53.39-.78.6-.52.44-.94.37-1.24-.23-.37-.75-.71-1.51-1.11-2.33-1.37-.12-2.81-.15-4.21-.39-1.86-.31-3.74.3-5.58-.27-.1-.03-.24.04-.36.07-1.66.44-3.35.03-5.02.13-1.9.1-3.8-.27-5.7.09-.28.05-.59.01-.89-.04-1.45-.26-2.87-.07-4.3.24-.41.09-.83.16-1.25.15-1.96-.03-3.92-.1-5.87-.12-.92-.01-1.73.25-2.34,1.03-.21.27-.59.54-.92.57-.95.08-1.94.19-2.86.02-1.53-.26-3.06-.16-4.54.09-.93.16-1.81.34-2.75.21-.92-.12-1.8-.12-2.26.93-.09.21-.34.43-.55.49-.7.19-.82.71-.99,1.32-.25.94-.6,1.89-1.73,2.16-.09-.04-.18-.06-.23-.12-.73-.6-.78-1.47-.95-2.31-.05-.24-.27-.56-.48-.62-.17-.04-.44.23-.64.4-.15.13-.25.31-.47.59-.63-.4-1.24-.75-1.8-1.16-.36-.27-.62-.33-1.03-.06-.5.33-.87.17-1.03-.45-.05-.19-.21-.34-.36-.55-.4.26-.75.48-1.11.7-.2-.25-.36-.44-.57-.69-.59.13-1.2.36-1.81.38-1.83.08-3.66.13-5.5.1-1.55-.04-3.06-.23-4.64.01-1.92.28-3.9.08-5.86.06-2.6-.04-5.18-.15-7.77-.13-.88,0-1.77.27-2.63.46-1.41.32-2.79.74-4.21,1.02-.75.15-1.48.2-2.14.69-.74.56-1.48.35-1.89-.48-.4-.8-1.01-.92-1.73-.77-.39.39-.78.79-1.25.96-.55.19-.97.41-1.3.92-.73,1.12-1.53.62-2.13-.15-.25-.31-.38-.72-.66-1.29-.48,1.12-1.32.75-2.02.72-.13.15-.21.25-.29.35-.32.4-.59.83-.95,1.19-.78.76-1.69.66-2.36-.2-.3-.38-.56-.85-.96-1.08-1.16-.65-2.37-1.19-3.62-1.81-.58.34-1.4.57-1.48,1.55,0,.1-.16.19-.25.28-.89.81-2.07.76-3.03-.26-.71-.75-1.53-.98-2.51-.95-1.44.05-2.88.03-4.32.07-.32,0-.74.07-.94.27-.69.71-1.51.69-2.38.62-1.03-.08-2.02-.47-3.1-.29-.74.13-1.52-.03-2.28.01-1.73.11-3.45.24-5.18-.06-.38-.07-.76-.07-1.15-.09-1.82-.1-3.61.09-5.35.64-.02.03-.06.07-.06.11-.27,1.66-1.5,2.92-3.37,2.06-.07-.04-.16-.05-.25-.05-1.86-.09-3.72-.2-5.58-.28-.76-.03-1.53.09-2.25-.05-1.16-.21-1.76.07-2.01,1.16-.07.29-.05.6-.12.89-.15.55-.34,1.08-.5,1.58-2.05-.22-2.68-.91-2.61-2.73.02-.54.07-1.03-.62-1.48-.47.23-.96.49-1.45.72-.61.28-1.21.39-1.73-.21-.48-.57-1.15-.71-1.85-.66-1.6.12-3.2.24-4.8.43-.65.08-1.28.34-1.93.5-.25.06-.52.14-.75.08-.49-.1-.89.03-1.34.23-1.07.46-1.86-.03-2.04-1.16-.03-.21-.01-.43-.01-.63,0-.47-.25-.69-.71-.76-.52.61-1.02,1.23-1.44,1.73-1.8.01-3.44.02-5.09.03-.12,0-.25.03-.38.03-1.86,0-3.72-.11-5.57,0-2.5.15-4.99.47-7.47.69-2.18.2-4.32.73-6.54.59-1.3-.09-2.62.12-3.93.19-.77.04-1.53.01-2.29.07-2.47.2-4.95.13-7.38.68-.16.04-.34.08-.5.07-1.55-.19-3.02-.04-4.44.69-.21.12-.63.07-.84-.08-.46-.32-.85-.76-1.27-1.15.23-.37.34-.61.5-.8.69-.82,1.27-1.62,2.58-1.73.88-.08,1.79-.39,2.73-.44.17-.02.32-.2.67-.43-.41-.2-.63-.38-.87-.4-.63-.05-1.28-.1-1.9.01-1.01.18-1.98-.26-3.02-.01-.78.18-1.66-.05-2.12-1.01-.18-.36-.69-.76-1.08-.78-1.03-.05-1.48-.8-1.98-1.44-.8-1.03-.49-1.96.73-2.42.55-.2,1.14-.31,1.87-.5,0-1.37.05-2.74-.02-4.09-.09-2.1-.41-4.18-.41-6.28,0-1.03,0-2.05-.05-3.08-.05-1.17-.22-1.32-1.32-1.47-.63-.08-1.26-.2-1.89-.32-1.05-.19-2.1-.67-2.38-1.67-.28-.96-.11-2.06,0-3.1.03-.27.47-.64.79-.72.65-.16,1.34-.17,2.01-.21.4-.03.83.18,1.23-.23-.2-.28-.35-.53-.53-.75-.82-.96-.63-1.59.46-2.17,1.13-.6,2.23-.94,3.51-.53.34.11.75.01,1.16.01.44-.89.88-1.73,2.01-1.78.11,0,.21-.13.31-.22.7-.61,1.61-.55,2.31-.3,1.71.61,3.46.53,5.17.43,2.34-.13,4.66.42,6.99-.06.49-.1.99-.14,1.49-.2.5-.06,1.01-.15,1.51-.14.72.03,1.43.18,2.14.21,1.39.06,2.81-.03,4.17.17,1.14.16,2.27.22,3.4.19,2.72-.07,5.44-.15,8.17-.26.79-.04,1.59-.25,2.38-.24,1.54,0,3.07.17,4.61.14,2.77-.07,5.53-.23,8.3-.34.85-.03,1.71-.01,2.56-.04.75-.02,1.5-.07,2.29-.11,0-1.34.57-2.26,1.33-3.1.74.07,1.16.55,1.48,1.11.3.52.52,1.1.8,1.69.26-.02.59-.04.91-.05.02-1.1.28-1.9.92-2.74.78-1.05,2.49-.96,3.04.23.29.62.39,1.35.46,2.05.17,1.72.98,2.62,2.71,2.83.51.07,1.03.07,1.53.08,1.87.03,3.75.08,5.62.05,1.83-.03,3.65-.13,5.48-.23,1.06-.06,2.11-.28,3.16-.24.93.03,1.83.21,2.79.04.71-.14,1.5.14,2.24.2.68.05,1.45.28,2.02.05,1.02-.39,1.99-.61,3.06-.43.17.03.42-.12.56-.25.23-.23.41-.27.76-.22,1.33.16,2.67.21,4,.28.54.03,1.09,0,1.63.03,1.05.05,2.1.13,3.17.2.25-.93.86-1.45,1.69-1.67.44-.12.93-.05,1.39-.12.73-.11,1.17.2,1.32.89.13.64.45.84,1.09.72.5-.09,1.02-.08,1.53-.09.94-.01,1.86-.04,2.7-.57.22-.14.62-.04.93.02.78.16,1.57.55,2.32.49,1-.08,2.36.2,2.56-1.46,1.17.17,2.24-.41,3.34-.23.05.52.08.88.12,1.35,2.79,0,5.51.04,8.23-.02,2.51-.05,5.02-.22,7.53-.34,1.84-.09,3.7-.17,5.54-.25,1.78-.07,3.56-.16,5.26-.67,1.05-.31,2.03-.52,3.1-.18.67.22,1.45.07,2.01.68.12.12.39.14.59.14.94,0,1.88,0,2.81-.04,1.35-.05,2.7-.12,4.06-.16,1.74-.05,3.49.03,5.2-.18,1.29-.16,2.55-.5,3.88-.37.77.06,1.29-.65,1.34-1.52.03-.37.08-.77.23-1.11.44-.99,1.22-1.05,1.81-.15.35.53.63,1.1.91,1.58.5-.03.87-.04,1.26-.06.36.46.68.88,1.1,1.43.35-.29.68-.46.87-.73.74-1.01,1.44-1.03,2.1.05.26.43.52.64,1,.6,1.48-.1,2.96-.13,4.43-.31,2.49-.3,5.02-.15,7.47-.78.57-.15,1.18-.23,1.72-.46,1.06-.45,2.15-.24,2.94.68.51-.14.96-.32,1.53.12.46.34,1.21.31,1.83.42.28.05.66-.06.85.09.79.58,1.44.28,2.17-.34.26.63.64.66,1.22.39.61-.27,1.31-.32,1.97-.47.32-.5.71-.94,1.18-1.2.51-.28,1.09-.44,1.66-.58.36-.09.75-.07,1.12-.04,1.48.17,2.95.4,4.44.53.64.05,1.3-.16,1.94-.1.67.05,1.32.35,1.99.43,1.19.12,2.38.21,3.58.21,1.01,0,2.03-.12,3.04-.25.58-.08,1-.41,1.1-1.08.25-1.73.54-3.45.82-5.16.05-.29.09-.65.27-.85.3-.32.7-.64,1.1-.71.23-.05.62.35.82.64.31.44.52.97.8,1.49.18-.05.33-.09.5-.14,1.01-.29,1.1-.28,1.42.65.37,1.07.66,2.15.99,3.26.53-.05,1.33-.1,1.58.56.41,1.08,1.13,1.24,2.08,1.15.13,0,.26.03.38.04,1.5.23,3,.75,4.52.03.2-.09.5.02.76.05.74.09,1.41.01,2.05-.48.26-.2.75-.28,1.06-.19,1.74.53,3.53.18,5.28.32.97.07,1.85-.37,2.86-.27.75.09,1.87.16,2.23-1.04.06-.19.48-.35.73-.37,1.05-.09,2.11-.14,3.17-.18,1.95-.07,3.91-.17,5.86-.17.82,0,1.64.28,2.47.32,1.39.06,2.78-.06,4.15.05,2.66.22,5.32.3,7.98.19.24,0,.5.09.74.12.62.1,1.27.36,1.85.25,1.28-.23,2.55-.11,3.82-.09.62,0,1.26.26,1.85-.21.13-.11.48-.1.61,0,.81.61,1.66.52,2.56.33.22-.05.48.15.74.16.95.06,1.99.37,2.85.1,1.44-.44,2.87.11,4.27-.26.07-.02.16.04.24.07,1.16.34,2.32.75,3.52.1.14-.07.34-.07.5-.05.91.11,1.81.24,2.72.35.34.04.68.07,1.02.05,1-.05,1.99-.19,2.99-.19,2.31.01,4.62.08,6.93.14,1.94.06,3.88-.21,5.83-.02.57.06,1.18-.04,1.76-.15,1.48-.29,2.94-.3,4.41.09.45.11.92.2,1.38.2,2.5,0,5-.07,7.49,0,1.56.04,3.25-.34,4.57.96.08.07.22.11.35.13.75.12,1.51.24,2.26.34.53.08.95-.01,1.31-.53.48-.71.81-.73,1.47-.19.38.31.72.54,1.25.55.25,0,.52.21.75.37.28.18.52.39.87.66.16-.48.26-.84.4-1.19.33-.8,1-.96,1.6-.36.24.23.4.55.57.85.48.82.95,1.65,1.27,2.21,1.34.25,2.33.44,3.41.64-.1-.6-.17-1.06-.25-1.51-.21-1.11-.14-1.3.8-1.9.14-.1.32-.15.45-.24,1.07-.72,1.16-.92.85-2.21-.19-.78-.21-1.49.28-2.21.21-.31.31-.81.25-1.18-.3-1.73-.37-3.47-.13-5.22.03-.17-.01-.34-.02-.51-.06-2.05-.15-4.08-.2-6.12-.03-1.49.07-3-.08-4.48-.14-1.41-.05-2.77.09-4.18.14-1.33-.04-2.69-.11-4.04-.07-1.32-.21-2.64-.26-3.96-.09-2.77-.13-5.54-.19-8.31-.04-1.37-.23-2.75-.09-4.09.34-3.12-.16-6.22-.06-9.33.05-1.83-.11-3.67-.02-5.5.11-2.64.4-5.27.18-7.92-.14-1.6.06-3.24.14-4.86.09-1.93.09-3.84-.34-5.73-.07-.27.03-.58.08-.87.17-1.13.44-2.26.49-3.4.16-3.88.23-7.77.36-11.65.05-1.48.14-2.97.29-4.45.16-1.51-.35-3.03.14-4.54.12-.37-.07-.84-.1-1.26-.06-.84-.17-1.68-.15-2.53.02-.89.23-1.78.26-2.68.1-2.72.15-5.45.2-8.18,0-.25-.08-.5-.12-.76-.09-.62-.25-1.26-.28-1.89-.05-1.32-.05-2.64-.05-3.96,0-3.75-.04-7.51,0-11.26.02-2.13.18-4.27.18-6.4,0-1.99-.11-3.99-.16-5.99-.01-.55.05-1.11.07-1.66.03-1.06.09-2.12.08-3.17-.02-1.02-.16-2.04-.18-3.06-.06-2.56-.05-5.13-.16-7.69-.1-2.26-.32-4.51-.47-6.76-.19-2.68-.41-5.35-.53-8.03-.09-1.91.15-3.81-.02-5.74-.23-2.63-.1-5.29-.1-7.93,0-.68.11-1.37.11-2.05-.02-3.71-.07-7.43-.11-11.14,0-.51-.09-1.02-.12-1.53-.05-.81-.09-1.62-.1-2.43-.04-1.58.03-3.17-.09-4.74-.18-2.46-.57-4.91-.68-7.37-.09-2.27-.29-4.52-.64-6.76-.2-1.3-.33-2.63-.35-3.95-.05-2.21.02-4.43.04-6.65,0-.66.18-1.4-.73-1.7-.13-.05-.28-.37-.26-.55.1-1.2-.21-2.27-.87-3.26-.09-.12-.04-.34-.09-.5-.59-1.74-1.09-3.51-1.8-5.19-.86-1.99-1.89-3.92-2.89-5.85-.76-1.45-1.76-2.72-3.2-3.59-.76-.46-1.52-.92-2.28-1.38-.53-.34-1.05-.73-1.6-1.05-1.69-.98-3.39-1.93-5.09-2.91-.73-.43-1.42-.94-2.18-1.32-.8-.39-1.63-.76-2.48-1-1.87-.53-3.82-.8-5.62-1.51-2.49-.98-5.02-1.09-7.62-1.04-.8.01-1.61.04-2.42.02-.57,0-1.06.07-1.54.45-.32.26-.85.34-1.29.36-1.49.04-2.99,0-4.48,0-.63,0-1.28.13-1.9.04-1.16-.18-2.24-.76-3.47-.61-.22.03-.55-.1-.69-.26-.98-1.07-2.22-.9-3.46-.8-1.27.11-2.57.37-3.82.23-1.52-.18-2.99.04-4.44.26-2.26.34-4.5.36-6.76.3-.3,0-.6,0-.89.06-2.79.7-5.47,1.94-8.45,1.67-.04,0-.08,0-.13,0-1.53.02-3.06.09-4.59.04-1.04-.04-2.1-.44-3.11-.34-1.26.13-2.54.22-3.76.47-1.99.41-3.97.52-5.98.59-2.16.09-4.33.18-6.48-.25-.75-.15-1.53-.34-2.28-.27-1.44.11-2.87.26-4.31.03-.4-.07-.84.08-1.26.16-.58.11-1.15.31-1.74.36-1.1.09-2.21.16-3.31.14-2.08-.03-4.09.63-6.18.61-1.6-.02-3.22.2-4.81.44-.8.12-1.58.28-2.38.1-.12-.04-.25.02-.38.02-.58.05-1.17.18-1.73.12-1.86-.23-3.69-.57-5.55-.78-2.66-.31-5.3-.92-8.01-.75-.46.02-.92.21-1.37.17-1.8-.15-3.57-.02-5.29.56-.34.12-.76.01-1.14.02-.9,0-1.79.01-2.69.03-.41,0-.83.07-1.23,0-2.15-.39-4.32-.39-6.48-.2-1.44.14-2.88.36-4.33.44-1.1.06-2.22-.14-3.31-.06-1.11.07-2.2.25-3.29-.12-.23-.07-.51-.05-.76-.04-.62.04-1.25.13-1.88.16-.81.03-1.62,0-2.42.03-2.72.09-5.43.2-8.15-.03-.92-.08-1.88-.03-2.77-.24-1.03-.23-2-.21-3.03-.04-1.25.21-2.5.54-3.79.25-1.19-.26-2.36-.08-3.55.1-1.09.16-2.2.23-3.3.26-.59.01-1.18-.24-1.76-.23-1.82.02-3.66-.04-5.45.23-2.34.34-4.58.05-6.85-.43-1.51-.32-3.05-.91-4.62-.2-.11.04-.26.03-.38.02-.97-.11-1.94-.21-2.9-.34-1.85-.24-3.68-.61-5.57-.44-.83.07-1.67.14-2.49.05-1.17-.11-2.32-.64-3.51-.09-.14.06-.34-.04-.51-.04-1.86.08-3.65-.41-5.46-.77-.24-.05-.5.03-.75.04-.34.01-.72.12-1.01,0-1.01-.4-2.03-.52-3.1-.37-.92.13-1.84.23-2.77.3-1.12.1-2.26.32-3.35.18-.59-.07-1.13-.2-1.72-.05-.61.15-1.25.37-1.85.33-2.52-.15-4.97.85-7.5.43-.78-.13-1.59-.21-2.38-.27-.33-.03-.7-.02-1,.1-1.39.51-2.76.3-4.16.09-1.92-.29-3.86-.64-5.82-.08-.56.16-1.17.17-1.76.23-1.41.15-2.75.75-4.2.71-.34-.01-.66.09-1,.11-.59.02-1.19.01-1.77.01-1.71-.01-3.42-.02-5.12-.05-1.35-.03-2.7-.09-4.06-.13-.76-.03-1.54-.16-2.28-.03-1.59.27-3.15.64-4.78.18-.39-.11-.84.02-1.27.04-1.1.06-2.21.23-3.3.15-1.61-.12-3.19-.42-4.78-.68-1.01-.16-2-.5-3-.54-2.26-.06-4.5-.52-6.76-.23-.59.07-1.19.1-1.78.15-.93.08-1.85.25-2.77.23-1.44-.05-2.87-.23-4.29-.35-.5.58-.88,1.38-1.49,1.67-1.02.48-1.15,1.07-.91,2.05.12.45.08,1.22-.2,1.43-1.03.79-2.03,1.66-3.37,1.97-.78.18-1.55.46-2.27.83-.32.17-.62.64-.65.99-.02.24.39.62.69.77.41.21.89.32,1.35.37,1.35.13,2.71.25,4.07.3,1.83.08,3.65.29,5.46.4,2.64.16,5.28.4,7.92.32.74-.02,1.49-.28,2.21-.52.89-.28,1.71-.76,2.7-.6,2.49.39,4.98.76,7.47,1.1.72.1,1.44.1,2.17.15.46.03.83-.06,1.07-.52.25-.48.68-.57,1.19-.56.33,0,.67-.12.98-.24.84-.31,1.66-.68,2.5-.98.52-.18.92-.36,1.09-.96.07-.25.41-.42.71-.69.6,1.25,1.54,1.7,2.67,1.76,2.29.13,4.59.28,6.89.32.69.02,1.55-.08,2.06-.48,1-.78,2.17-.91,3.26-.95,3.29-.12,6.58-.1,9.86.02,3.58.13,7.15.41,10.73.67,2.26.17,4.5.41,6.76.64,1.23.13,2.44.36,3.68.48.93.09,1.87.1,2.81.12.75.01,1.51-.02,2.27,0,.37,0,.85-.06,1.09.13.6.48,1.26.44,1.95.46.93.04,1.88.17,2.81.13.79-.05,1.64-.16,2.34-.49.59-.28,1.1-.32,1.7-.27.54.05,1.26.28,1.62.02,1.31-.95,2.67-.6,4.05-.43.13.02.26.02.39.02,2.13-.05,4.26-.13,6.39-.15,1.92-.02,3.84.03,5.76.05,2.05.03,4.09.08,6.14.1,1.37,0,2.74,0,4.1-.07,2.53-.13,5.06-.6,7.62-.39.61.05,1.28.11,1.82-.4.12-.12.39-.11.6-.11.68.03,1.37.04,2.04.12.99.13,2.05-.11,2.95.55.25.18.66.18.99.2,1.58.07,3.17,0,4.73.19,3.56.43,7.14.3,10.71.41,1.52.05,3.05-.13,4.58-.2,1.99-.08,3.97-.13,5.95-.22.46-.02.97-.05,1.38-.23,1.72-.81,3.55-.86,5.38-.82,1.99.05,3.99.18,5.98.3,4.51.28,9.01.63,13.53.86,2.63.13,5.27.26,7.91-.16,1.68-.27,3.46-.53,4.8,1.01.04.05.16.05.27.09.53-.3,1.06-.72,1.65-.88,2.39-.66,4.75-1.5,7.31-1.33.79.05,1.6-.04,2.4-.06,1.95-.04,3.9-.11,5.85-.09,3.03.02,6.07.12,9.09.19,3.32.07,6.64.17,9.96.22,3.02.04,6.04.07,9.05-.01,2.42-.07,4.83-.36,7.24-.48,1.1-.06,2.12.02,2.83-1.19.46-.79.93-.64,1.63.07.29.29.66.62,1.04.68,1.25.21,2.5.09,3.91,0-.46-1.32.44-1.66,1.21-2.03.41-.2.91-.3,1.36-.33,3.24-.14,6.48-.35,9.72-.35,4.64.02,9.29.12,13.94.35,3.45.17,6.88.62,10.33.92,2.12.19,4.22.52,6.36.11,1.42-.27,2.9-.21,4.34-.3.67-.04,1.16.2,1.39.87-.23.82-1.36,1.11-1.25,2.14.45.1.95.06,1.25.28.73.56,1.51.43,2.32.38.94-.05,1.88-.09,2.81-.04.28.01.7.24.78.48.09.25-.08.66-.27.9-.22.3-.57.51-.87.76-.82.69-1.6,1.39-1.66,2.59-.02.27-.27.51-.39.74.34.81.83,1.56.95,2.37.25,1.67.68,3.32.59,5.05-.05,1.05.21,2.12.25,3.18.05,1.48.75,2.91.24,4.44-.15.44.02,1,.05,1.63.45,0,.83.06,1.19,0,1.28-.25,2.56-.45,3.87-.25.65.11,1.38-.08,1.79.71.1.2.49.27.75.33.28.07.57.07.84.09.26,1.44.06,1.85-1.09,2.4-.73.35-1.47.65-1.66,1.6-.11.48-.51.73-1.05.78-1.14.09-2.28.21-3.42.35-2.41.29-4.81.67-7.22.9-2.59.25-5.2.34-7.79.53-1.45.11-2.88.34-4.32.4-2.75.12-5.48.28-8.21.62-1.85.23-3.74.22-5.6.3-1.61.08-3.22.1-4.83.21-1.9.13-3.79.39-5.69.48-.75.04-1.35.2-1.75.82-.32.5-.72.54-1.21.43-.39-.09-.78-.18-1.37-.3v5.16c-1.03-.22-1.18-.34-1.32-.95-.26-1.16-.5-2.33-.78-3.49-.1-.43-.29-.85-.43-1.23-1.48.18-1.48.18-1.7,1.45-.07.38-.1.76-.16,1.14-.1.6-.5.87-1.08.88-.52,0-.89-.24-1-.8-.09-.41-.21-.82-.34-1.23-.4-1.26-.96-1.62-2.25-1.46-.55.06-1.1.17-1.65.14-2.1-.14-4.17.13-6.25.32-.93.09-1.84.34-2.76.44-.36.04-.81,0-1.1-.19-.48-.3-.86-.76-1.36-1.22-2.82.06-5.76.12-8.7.17-2.34.04-4.69.04-7.03.12-1.83.06-3.66.23-5.5.31-1.35.07-2.71.03-4.06.12-1.23.08-2.44.35-3.66.43-2.34.16-4.68.21-7.01.36-2,.12-4,.32-5.99.46-.75.05-1.5-.05-1.97-.7-.6-.84-1.35-.95-2.26-.7-.53.15-1.09.23-1.61.4-.93.28-1.85.62-2.79.91-.59.18-1.27.26-1.64-.32-.46-.72-1.09-.7-1.78-.67-3.91.22-7.82.43-11.72.64-1.44.08-2.9.08-4.35.2-1.42.12-2.85.02-4.28.07-4.6.17-9.2.07-13.8.14-2.81.04-5.63.18-8.44.32-1.65.08-3.3.24-4.95.35-.24.01-.52-.03-.73-.16-.59-.37-1.06-.39-1.56.21-.37.44-.88.57-1.28-.02-.54-.78-1.33-.84-2.17-.8-.43.02-.85.07-1.28.06-1.83-.07-3.68-.36-5.48-.18-2.73.27-5.42-.2-8.14-.01-4.03.27-8.08.34-12.13.39-3.62.05-7.24-.04-10.87-.03-.67,0-1.33.14-2.01.22-.23,1.6.13,3.18-.6,4.6-.95.03-1.51-.36-1.67-1.26-.07-.34-.12-.67-.2-1.01-.17-.82-.36-1.64-.53-2.49-1.01-.04-1.91-.15-2.79-.11-2.26.11-4.52.2-6.76.43-1.35.14-2.87.09-3.65,1.61-.02.04-.06.06-.1.08-.6.5-.93.44-1.3-.26-.21-.41-.35-.87-.58-1.28-.52-.91-.98-1.06-2-.78-.36.11-.75.11-1.13.13-.64.05-1.28.09-1.92.11-.71.02-1.43.06-2.15.01-.93-.07-1.86-.29-2.79-.3-1.74-.03-3.48.02-5.22.09-3.23.11-6.44-.25-9.68-.19-4.43.08-8.86-.14-13.29.2-.81.06-1.61.2-2.41.21-1.11.01-2.21-.07-3.32-.12-.53-.02-.99.03-1.35.53-.18.24-.61.48-.86.43-1.01-.25-1.37.31-1.7,1.1-.39.94-1.28.99-1.84.12-.25-.39-.39-.85-.58-1.27-.93-.34-1.78-1.06-2.87-.5-.2.1-.53.06-.75-.04-1.09-.48-2.18-.16-3.27-.1-1.79.11-3.57.28-5.36.46-1.78.18-3.54.41-5.31.64-.3.04-.57.17-.87.23-.87.18-1.4-.08-1.85-.76-.46-.69.16-.98.44-1.41.04-.05-.01-.16-.04-.34h-.87c-.25,1.61-.45,1.33-1.78,1.47-.08,0-.17-.02-.25-.04-1.14-.1-2.28-.21-3.43-.3-1.27-.12-2.53-.28-3.81-.32-1.09-.04-2.17.03-3.28-.18-.8-.15-1.66.07-2.49.06-2.82-.02-5.63-.1-8.45-.1-.84,0-1.68.25-2.53.28-1.18.06-2.37.03-3.55.05-1.32.02-2.65.23-3.9-.39-.18-.09-.4-.07-.8-.12,0,.5-.01.91,0,1.31.07,2,.19,4,.24,6,.02.67.02,1.4-.22,2.01-.26.66-.38,1.28-.3,1.98.07.75-.2,1.53.34,2.23.14.19.07.59,0,.88-.25,1.12-.55,2.22-.79,3.33-.34,1.54-.63,3.09-1,4.62-.14.57-.3,1.31-.71,1.6-.88.62-.88,1.46-1.01,2.34-.15,1.04-.21,2.17-1.02,2.97-.5.5-.68,1.09-.76,1.72-.13,1.06-.17,2.12-.3,3.18-.25,2.12-.55,4.23-.79,6.35-.13,1.17-.14,2.37-.28,3.55-.17,1.38-.55,2.75.02,4.12.06.15,0,.35.04.51.46,1.79-.13,3.56-.12,5.34,0,1.7-.39,3.39-.53,5.09-.36,4.47-.67,8.95-1.01,13.42-.1,1.32-.29,2.63-.32,3.95-.02,1.62.12,3.24.1,4.86-.01.94-.15,1.88-.33,2.8-.07.37-.41.7-.65,1.03-.2.26-.57.46-.62.73-.25,1.26-.53,2.53-.57,3.79-.1,3.15-.12,6.3-.09,9.45.02,2.13.23,4.26.23,6.39,0,1.88.04,3.75.38,5.59.32,1.74-.23,3.08-1.74,4.03,0,1.01-.01,2.03,0,3.06.03,1.06.03,2.12-.32,3.14-.39,1.18-.88,1.42-2.08,1.06-.07-.02-.16.05-.37.13-.08.41-.21.89-.27,1.39-.11.92-.58,1.5-1.51,1.61-.46.05-.76.24-1.07.58-.65.71-1.08.75-1.92.28-.34-.2-.68-.41-1.16-.68-.23.76-.49,1.31-.55,1.89-.1,1.05-.59,1.65-1.65,1.78-.44.06-.79.32-.71.75.19,1.05-.62,1.81-.68,2.81-.02.47-.63.97-1.08,1.33-.49.39-.84-.21-1.23-.4-.15-.07-.32-.1-.48-.14-.1.13-.24.23-.24.32-.04,1.41-.2,2.83-.02,4.2.14,1.07.26,2.11.12,3.18-.09.71-.23,1.44-.23,2.16,0,3.45.05,6.9.08,10.35.03,2.21.08,4.42.06,6.63-.01,1.57-.14,3.15.15,4.72.13.69.06,1.44.04,2.15-.01.68-.12,1.36-.13,2.05-.03,1.95-.1,3.9.06,5.86.16,1.98-.14,4-.15,6,0,.84.3,1.68.28,2.52-.07,1.91-.23,3.84-.38,5.75-.06.89-.25,1.78-.25,2.67,0,2.04.12,4.08.15,6.12.04,2.9-.5,5.78-.25,8.69.12,1.33-.07,2.7-.1,4.05-.01.72-.08,1.46.05,2.16.6,3.52.32,7.08.4,10.61.05,2.54-.23,5.1-.25,7.64-.02,2.21.11,4.43.17,6.64.03.85.15,1.72.02,2.56-.31,2.08.32,4.07.48,6.09.2,2.54.71,5.05,1.12,7.56.3,1.8.5,3.63,1.03,5.36.46,1.48,1.27,2.87,1.99,4.26.76,1.46,1.62,2.88,2.41,4.32.82,1.51,1.86,2.84,3.08,4.05.88.86,1.7,1.78,2.51,2.7.48.55.94,1.07,1.68,1.32.71.25,1.48.55,2.03,1.05.62.56,1.37.79,2.07,1.16.64.34,1.3.65,1.99.85,1.05.3,1.99.91,3.18.88.75-.02,1.55.2,2.31.59.65.34,1.46.69,2.3.4,1.17-.41,1.31-.37,1.9.69.16.29.3.6.43.92.09.22.2.43.34.59-2.88-.3-5.79-.71-8.48-1.57-3.94-1.25-7.72-1.99-11.17-4.36-.15-.1-.3-.21-.44-.31-.12-.16-.23-.34-.32-.53-.4-.75-1.15-1.35-1.83-1.91-2.33-1.92-3.53-4.57-4.74-7.21-.18-.4-.59-.68-.83-1.06-.66-1.08-1.25-2.19-1.92-3.26-.22-.34-.58-.6-.91-.85-1.21-.89-1.55-2.04-1.22-3.48.12-.52.11-1.11,0-1.64-.38-1.82-.6-3.66-.79-5.52-.17-1.69-.54-3.35-.78-5.03-.12-.8-.13-1.62-.19-2.42-.14-2.16-.34-4.32-.42-6.47-.07-1.91-.17-3.84.02-5.74.23-2.35.09-4.68.05-7.03-.02-.97.08-1.94.1-2.92.03-2.25.09-4.5-.34-6.73-.14-.74-.18-1.52-.16-2.28.05-3.37.08-6.73.21-10.09.09-2.09.35-4.17.53-6.25.03-.38.08-.77.08-1.15-.02-2.3-.06-4.6-.08-6.9-.02-1.53-.02-3.06-.04-4.59,0-.34,0-.68,0-1.02.03-1.52.07-3.04.08-4.57.02-1.61-.02-3.23,0-4.84,0-.41.17-.83.25-1.24.08-.42.22-.84.2-1.26-.14-2.59-.36-5.19-.47-7.78-.05-1.1.08-2.21.12-3.31.09-2.18.25-4.36.24-6.53-.01-2.01-.18-4-.32-6.01-.1-1.37-.22-2.72.34-4.04.12-.29.07-.68.01-1-.19-1.05-.46-2.07-.63-3.12-.09-.53-.07-1.09-.05-1.64.06-1.56.14-3.12.21-4.68.04-.81.15-1.61.15-2.41,0-1.58-.05-3.16-.12-4.73-.06-1.62-.18-3.23-.27-4.85-.05-.8-.11-1.62-.12-2.42-.06-2.6-.01-5.19-.18-7.79-.17-2.54.08-5.11.12-7.67,0-.76-.11-1.52-.14-2.28-.11-1.96-.25-3.91-.3-5.87-.04-2.25.03-4.51,0-6.77-.02-1.23-.14-2.46-.21-3.69-.01-.18-.06-.34-.06-.51-.22-3.63-.25-7.25-.09-10.87.07-1.45.21-2.9.3-4.35.02-.42-.06-.85-.09-1.26-.09-1.14-.28-2.29-.25-3.43.12-3.71.34-7.41.46-11.12.06-1.86.01-3.74-.03-5.6,0-.46-.11-.93-.26-1.37-.39-1.16-.45-2.26-.17-3.5.32-1.35.16-2.8.32-4.2.25-2.3-.11-4.59-.06-6.89.02-1.1.11-2.21.02-3.3-.2-2.64.27-5.23.39-7.85.11-2.17.3-4.33.47-6.49.08-.98.2-1.96.3-2.93.1-1.01.07-1.98-.13-3.02-.36-1.87-.38-3.82-.4-5.74-.03-3.11.35-6.22-.26-9.33-.21-1.1.07-2.29.13-3.45.15-2.68.3-5.36.44-8.04.02-.3.03-.62-.05-.89-.36-1.15-.03-2.21.39-3.24.52-1.26,1.07-2.51,1.75-3.68.71-1.23,1.61-2.33,2.62-3.36.74-.75,1.26-1.71,1.88-2.58.12-.17.19-.41.34-.54,1.07-.93,1.94-2,2.6-3.26.16-.31.55-.52.84-.75.71-.53,1.53-.96,2.12-1.6,1.01-1.1,2.19-1.86,3.59-2.35,1.7-.59,3.18-1.6,4.67-2.6.48-.32,1.06-.48,1.6-.69.16-.07.41-.03.48-.13.64-.88,1.46-.57,2.19-.28,1.17.47,2.18,0,3.2-.39.86-.34,1.71-.42,2.62-.48.99-.07,1.95-.48,3.01-.77-.64-.42-1.16-.75-1.77-1.16.54-.53.98-.52,1.49-.32,1.12.43,2.23.85,3.36,1.25.39.13.83.2,1.25.19,1.36-.03,2.72-.12,4.08-.17.25,0,.51.01.76.05,1.44.23,2.86-.07,4.28-.23.96-.11,1.96,0,2.92.09,1.82.18,3.63.51,5.44.61,1.7.09,3.41-.11,5.11-.06,2.21.07,4.41.21,6.61.43,1.64.16,3.28.45,4.89.78.66.14,1.23.09,1.87-.06.73-.18,1.52-.17,2.28-.14,1.66.07,3.32.13,4.97.32,1.58.18,3.15.11,4.73.05,1.3-.05,2.61-.22,3.91-.17,1.69.06,3.36.3,5.05.46.13.01.25.07.37.07,1.29-.05,2.59-.02,3.86-.19,2.99-.4,5.98-.7,9.01-.61,1.86.05,3.74-.1,5.58-.34,1.46-.19,2.89-.12,4.28.12,1.49.26,2.88-.18,4.31-.27,2.79-.19,5.59-.43,8.38-.69.71-.06,1.43-.46,2.12-.41,1.67.12,3.36-.41,5.01.32.46.2,1.09-.03,1.63.04,1.48.18,2.95.46,4.43.62,1.3.14,2.62.14,3.93.21.38.02.79-.05,1.14.07,1.21.42,2.42.05,3.63.08,1.61.05,3.22.34,4.83.46,1.63.12,3.24.78,4.9.19.19-.07.48-.11.62,0,1.41.87,3.08.41,4.55.96.34.12.76.01,1.14,0,2.25-.12,4.5-.26,6.74-.36.68-.03,1.36.12,2.03.08,1.17-.08,2.35-.24,3.52-.36.63-.06,1.28-.15,1.91-.12,2.4.11,4.8.09,7.2-.12,1-.09,2.03.17,3.04.23.93.05,1.87.07,2.8.06,2.17-.02,4.35-.07,6.52-.08,1.77-.02,3.55,0,5.32-.02.33,0,.66-.12.99-.22,1.08-.34,2.2-.56,3.28-.17,1.46.53,2.94.25,4.41.25.66,0,1.32-.31,1.97-.32,1.31-.02,2.64-.05,3.93.14,2.36.34,4.71.61,7.09.41,1.12-.09,2.29.03,3.36-.5.29-.14.67-.11,1.01-.12,1.48-.04,2.95-.13,4.43-.08.98.02,1.94.29,2.9.36,1.7.14,3.4.13,5.09.32,2.4.27,4.81.45,7.24.43,1.3-.01,2.6-.13,3.89-.23,1.57-.12,3.14-.3,4.71-.37.37-.01.75.28,1.21.46,1.39-.82,3.03-.81,4.63-.83,1.67-.04,3.33.02,5-.3,1.67-.32,3.36-.4,5.03.14.55.18,1.17.18,1.76.17,2.17-.04,4.35-.09,6.51-.19.5-.02,1-.23,1.5-.28,1.81-.18,3.61-.38,5.43-.48,2.45-.12,4.91-.23,7.36-.19.7.01,1.37,0,1.98-.23,2.34-.86,4.82-.37,7.2-.83,1-.19,1.99-.35,2.99-.49,1.68-.23,3.37-.42,5.08-.07.5.1,1.1-.04,1.61-.21,1.66-.55,3.35-.91,5.11-1.04,1.47-.12,2.96.17,4.42-.25m34.7,24.79c-1.1-.09-2.2-.34-3.3-.32-1.57.03-3.17.09-4.7.4-.87.17-1.71.5-2.6.46-1.44-.07-2.86-.27-4.32-.04-1.93.3-3.93.29-5.81.77-2.05.53-4.08.37-6.08.18-2.42-.23-4.81-.31-7.22,0-.28.04-.55.14-.93.24,0,1.57-.03,3.08.01,4.6.03.93.05,1.9.3,2.77.59,2,.32,4.07.62,6.08.14.94.32,1.38,1.22,1.35,2.03-.08,4.06-.19,6.1-.28,1.4-.07,2.8-.17,4.19-.2.85-.02,1.7.14,2.55.11,1.01-.05,2.01-.31,3.01-.35,1.99-.09,3.99,0,5.98-.14,2.54-.17,5.08-.48,7.62-.73,1.65-.17,3.3-.34,4.94-.5.42-1.66.3-3.22-.13-4.75-.71-2.54-1.13-5.09-.6-7.72.06-.32-.02-.68-.02-1.02,0-.56-.24-.86-.83-.92m-307.39-.24c-.79-.04-1.64.04-2.39.3-1.69.56-3.38.78-5.15.53-.32-.04-.66.11-.99.12-1.48.09-3,.37-4.44.16-1.47-.21-2.83-.21-4.22.26-.32.11-.67.11-1.01.15-1.9.23-3.8.46-5.69.68-.55.07-.81.32-.83.92-.03,1.07-.03,2.16-.27,3.18-.25,1.07-.33,2.11-.23,3.17.13,1.35.27,2.72.46,4.07.1.6.36,1.19.6,2.03-.02.17-.11.61-.23,1.25.67.1,1.23.19,1.8.28,2.08.35,4.14-.18,6.22-.18,3.35.01,6.71-.12,10.05-.63,1.3-.2,2.61-.27,3.93-.36,1.99-.13,3.98-.23,5.98-.31,1.1-.05,2.2-.07,3.29-.04.72.03,1.42.24,2.14.29,1.01.07,2.04.11,2.9-.46.05-4.94-.76-9.73-1.17-14.71-1.57-.12-2.92-.25-4.28-.34-2.16-.15-4.32-.32-6.49-.39m132.96,2.06c-.12-.61-.49-.83-1.12-.74-.63.08-1.27.04-1.91.08-.76.04-1.54.02-2.25.2-1.18.31-2.34.36-3.54.26-1.35-.11-2.76-.25-4.07,0-1.3.24-2.57.41-3.89.34-.84-.05-1.74-.23-2.49.02-1.88.64-3.78.05-5.66.27-1.21.15-2.46.2-3.7.27-1.39.08-2.76.44-4.18.26-.91-.11-1.86.11-2.79.19-.64.06-1.06.41-1.09,1.05-.06,1.48-.16,2.97-.06,4.45.09,1.18.44,2.35.68,3.52.05.25.02.56.15.75.79,1.11.89,2.32.68,3.64-.09.6.09,1.25.15,1.92.38.03.68.08.97.07,1.32-.03,2.64-.07,3.96-.14,1.92-.1,3.83-.23,5.74-.34,1.06-.06,2.14-.23,3.18-.12,1.55.17,3.06.03,4.58-.22.87-.14,1.82-.34,2.66-.16,1.71.37,3.39.2,5.07.04,1.61-.15,3.21-.43,4.82-.56,1.48-.12,2.96-.16,4.44-.19.62-.02.84-.28.81-.86-.05-1.11-.05-2.22-.14-3.33-.23-3.01-.49-6.03-.75-9.04-.05-.55-.17-1.1-.28-1.64m112.81-.46c-1.57-.15-3.04.02-4.53.49-1.17.37-2.35.75-3.61.27-.18-.07-.43-.02-.63.02-.82.13-1.65.36-2.48.41-1.06.07-2.12.02-3.18.01-.77,0-1.53-.1-2.29-.06-2.59.14-5.15.69-7.77.55-.92-.04-1.85.14-2.88.22-.06.38-.14.59-.12.8.19,1.69.22,3.4.68,5.06.2.73.26,1.5.34,2.26.14,1.31.25,2.62.37,3.93.07.66.45,1.03,1.04,1.32,1.54.76,3.15.54,4.75.49,1.78-.05,3.56-.19,5.34-.25,1.31-.05,2.62-.04,3.93-.06,1.48-.03,2.99-.21,4.45-.04,1.57.19,3.1-.18,4.68,0,1.57.17,3.2-.3,4.82-.44.89-.07,1.78-.02,2.67-.05.71-.02,1.42-.06,2.29-.1-.09-.67-.3-1.28-.24-1.89.19-2.33-.19-4.59-.85-6.81-.24-.81-.43-1.64-.57-2.47-.16-.96-.25-1.94-.34-2.92-.05-.57-.28-.79-.9-.78-1.65.07-3.32.18-4.96.02m-57.74.48c-.56-.02-1.11-.06-1.66-.02-1.27.09-2.54.31-3.8.31-2.72,0-5.46-.34-8.12.51-.08.02-.17.03-.25.03-2.12.15-4.24.28-6.36.45-1.05.08-2.11.21-3.16.37-1.48.21-2.97.39-4.4-.14-.95-.36-1.91-.4-2.89-.35-1.09.06-1.17.05-1.3,1.1-.13,1.18-.04,2.39-.14,3.57-.23,2.72.27,5.36.78,8,.04.25.14.48.26.85.64,0,1.28.02,1.91,0,1.49-.05,2.95.03,4.44.26,1.62.24,3.31.03,4.94.23,3.08.37,6.1-.3,9.16-.42,2.02-.08,4.03-.28,6.04-.54,1.76-.23,3.56,0,5.32-.17,1.32-.12,2.62-.53,3.92-.82.41-.09.81-.24,1.23-.34.55-.13,1.12-.25,1.79-.39-.13-1.75-.27-3.37-.37-4.98-.11-1.83-.16-3.67-.28-5.5-.1-1.49-.32-1.73-1.73-1.81-1.78-.1-3.56-.14-5.33-.2m-128.13.06c-2.34-.03-4.68.11-7.03.13-1.19.01-2.37-.11-3.56-.11-1.15-.02-2.31.18-3.44.04-2.84-.37-5.56.12-8.3.75-.55.12-.84.35-.9.88-.23,2.15-.47,4.31-.69,6.36.21,1.52.37,2.92.61,4.29.26,1.48.77,1.9,2.28,2.06.37.04.76-.01,1.14-.03.64-.02,1.3-.19,1.91-.06,1.79.4,3.56-.07,5.34.04.71.05,1.45.18,2.12.02,1.75-.41,3.52-.38,5.3-.45,1.35-.06,2.73.1,4.07-.04,1.17-.12,2.26-.11,3.4.21.64.19,1.34.28,2.01.27,2.41-.03,4.8.31,7.21.11,1.28-.11,1.5-.12,1.68-1.37.12-.75-.04-1.55.12-2.28.59-2.72-.23-5.34-.38-8-.05-.83-.5-1.31-1.36-1.42-1.64-.23-3.28-.5-4.92-.73-.85-.12-1.69-.2-2.54-.28-1.35-.14-2.71-.37-4.06-.38m161.23,256.21c-.21-.14-.58-.18-.83-.11-.57.16-1.1.43-1.65.64-.61.23-1.01.68-1.1,1.31-.15,1.13-.36,2.28-.32,3.42.12,3.35.34,6.69.53,10.03.01.2.16.38.27.65.53,0,1.03,0,1.54,0,1.95.02,3.91-.1,5.85.08,3.09.28,6.12-.41,9.18-.43,1.53-.01,3.06-.08,4.58-.1.76,0,1.57-.08,2.27.14,1.31.39,2.6.3,3.9.15,1.6-.19,3.2-.33,4.82-.21,1.18.09,2.37.02,3.63.02.04-.21.11-.46.11-.7,0-3.33.02-6.65,0-9.98,0-.73-.06-1.46-.2-2.17-.23-1.17-.64-1.51-1.81-1.55-1.06-.04-2.12-.02-3.18-.02-1.48,0-2.97.04-4.46,0-.63-.01-1.24-.19-1.87-.25-.27-.03-.64-.09-.79.05-.35.34-.66.24-1.05.15-1.89-.41-3.76-1.05-5.75-.6-.15.03-.33-.07-.5-.07-.5,0-1.06-.11-1.49.07-.85.34-1.57.18-2.34-.18-.34-.16-.73-.3-1.09-.3-.83,0-1.66.45-2.5,0-.08-.04-.27.03-.35.1-.44.45-.89.32-1.41.17-.5-.15-1.18-.35-1.56-.14-.93.53-1.66.34-2.46-.18m-57.6.83c-2.42-.33-4.73.14-7.07.57-.27.05-.69.36-.7.56-.04,1.56-.1,3.13.05,4.67.21,2.12.61,4.2.93,6.31.03.21.02.42.04.63.08.92.16,1.84.25,2.99.99-.5,1.73-1.56,2.6-.84.65-.32,1.15-.56,1.63-.8.23.43.39.73.56,1.03,4.86.05,9.69.57,14.52-.1h0s.04-.01.04-.01c.39-.12.75-.25,1.16-.27.34-.02.66,0,1-.02.38-.02.72-.18,1.1-.2.31-.03.62.01.93,0,.32-.02.61-.14.94-.11.39.04.76.11,1.16.07.36-.03.72-.1,1.07-.2.02.03.03.05.04.07.07-.06.14-.1.19-.13.13-.04.27-.07.39-.1.2-.02.46-.02.96-.1,1.25-.21,2.25.77,3.47.44.19-.05.43.07.66.14.04.03.07.05.12.07.02,0,.03.01.05.02,0,0,.01,0,.02.01.04.02.08.03.12.05.07.04.13.07.2.11.19.08.39.13.6.1.12-.01.23-.05.36-.07.14.03.27.06.41.04.12-.02.23-.06.31-.14,0,0,.02.01.03.02.02-.03.02-.07.04-.1.04-.06.08-.12.09-.2h0c.3-.69.35-1.25.17-1.71.02-.56-.04-1.12-.06-1.68-.04-1.07,0-2.2.17-3.26.02-.16.04-.34,0-.48.04-2.1.16-4.16-.11-6.28-.83-.06-1.57-.02-2.26-.18-1.72-.43-3.47-.53-5.21-.73-.43-.05-.87-.23-1.26-.14-2.45.58-4.95.19-7.42.33-2.44.14-4.9-.13-7.35-.22-1.64-.06-3.31.04-4.94-.18m122.76.07c-2.68-.14-5.33-.1-7.96.42-.32.06-.64.1-.74.11-.32.79-.47,1.45-.83,1.96-.45.64-.27.95.36,1.19-.77,1.32-1.12,7.56-.6,10.91.85.05,1.74.12,2.63.16,1.83.07,3.65.1,5.48.2,2.17.1,4.32.26,6.48.38,1.1.07,2.19.09,3.29.16,1.87.12,3.73.32,5.59.36,2.26.05,4.52-.03,6.78-.03,1.02,0,2.04.05,3.06.08,1.68.06,3.36.12,5.03.18.53-1.59.31-11.7-.36-15.5-.19-.04-.31-.08-.44-.09-3.23-.09-6.45-.21-9.68-.26-2.46-.05-4.93.02-7.39,0-3.57-.04-7.14-.03-10.7-.21m-151.93,2.13c-.62-.43-1.56-.73-2.27-.6-1.62.29-3.22.04-4.82.07-1.56.02-3.12-.13-4.69,0-2.19.17-4.4.02-6.6.04-2,.03-4,.08-6,.15-.75.02-1.5.12-2.26.18-.63.04-1.3.24-1.89.09-1.08-.26-2.01.15-2.99.34-.69.14-1.35.24-2.09.12-.98-.16-2.01-.04-3.13-.04-.39,2.61-.04,5.25-.08,7.87-.05,2.66.37,5.25,1.07,8.04,2.02,0,4.1.05,6.18-.01,1.57-.04,3.14-.26,4.7-.3,3.71-.1,7.43-.14,11.14-.21,1.43-.02,2.86-.07,4.3-.04.84.02,1.68.22,2.53.24,1.27.04,2.55,0,3.82-.02,1.44,0,2.91.16,4.27-.69-.19-.68-1.43-.45-1.26-1.51.32-.04.67-.08.96-.11.19-.44.54-.88.46-1.19-.34-1.21.08-2.32.21-3.47.04-.41.04-.84,0-1.26-.16-1.97-.28-3.94-.56-5.89-.1-.65-.5-1.43-1.01-1.79m-86.02,1.46c-.27-.09-.59-.04-.89-.01-1.68.17-3.37.28-5.04.53-1.58.23-3.24.05-4.75.92,0,.9.02,1.83,0,2.76-.03,1.26.29,2.56-.44,3.75-.09.14-.08.33-.1.5-.25,1.92.02,3.91-.78,5.76-.12.28-.02.68.02,1.01.07.54.19,1.08.3,1.7.52.06,1.01.17,1.52.17,4.29,0,8.6,0,12.89,0,.67,0,1.35.06,2.01-.01,1.26-.13,2.53-.38,3.79,0,.11.03.24-.09.36-.11,1.26-.1,2.53-.22,3.79-.3,1.83-.1,3.66-.15,5.48-.27.71-.05,1.45-.39,2.13-.3,1.26.18,2.47-.18,3.72-.16,1.32.02,1.67-.43,1.69-1.81.05-3.16.12-6.31.14-9.48.01-1.23-.08-2.47-.15-3.71-.01-.16-.13-.3-.18-.42-.13-.04-.21-.1-.28-.1-2.4.06-4.8.19-7.2.15-2.05-.04-4.06.02-6.03.63-.16.04-.39.08-.5,0-.8-.59-1.66-.25-2.51-.32-1.28-.1-2.6-.02-3.85-.25-1.7-.32-3.46-.02-5.13-.63m-47.25.51c-.79-.12-1.67-.35-2.37-.12-1.14.38-2.26.34-3.4.4-.84.04-1.67.22-2.49.39-.57.11-1.12.35-1.7.46-.36.07-.77-.08-1.13,0-1.24.29-2.48.37-3.75.32-.7-.03-1.41.14-2.12.19-.74.06-1.51.22-2.23.12-2.73-.38-5.44-.82-8.21-.48-.92.11-1.84.22-2.75.36-1.08.17-2.16.34-3.22.57-.59.13-.74.57-.72,1.17.04.89-.07,1.78-.08,2.68-.01.68-.03,1.36.04,2.03.27,2.46.59,4.9.84,7.36.13,1.23.64,1.78,1.9,1.86.3.02.6.03.9.03,1.79.02,3.58.06,5.36.06,1.1,0,2.21-.06,3.31-.08,1.92-.02,3.82-.08,5.73-.03,2.21.05,4.41.2,6.61.3.67.03,1.39.23,1.99.04,1.4-.44,2.83-.57,4.26-.71,1.51-.16,3.01-.6,4.56-.24.94.21,1.92.21,2.93.32.23-.78.43-1.46.25-2.27-.17-.78-.14-1.6-.13-2.41.04-1.88.15-3.75.17-5.62.03-1.28-.1-2.57-.04-3.84.04-1.01-.13-1.94-.48-2.93-.89,0-1.68-.12-2.41.04-.57.12-1.06.11-1.61.03"/>
        <path class="cls-2" d="m330.45,4.56c1.24-.1,2.48-.28,3.46.8.15.17.48.29.7.26,1.23-.15,2.31.43,3.47.61.62.09,1.26-.04,1.9-.04,1.49,0,2.99.03,4.48,0,.44-.01.97-.1,1.29-.36.48-.39.97-.46,1.54-.45.81.02,1.61-.02,2.42-.03,2.59-.05,5.13.06,7.62,1.04,1.79.71,3.75.98,5.62,1.51.85.25,1.68.61,2.48,1,.75.38,1.44.89,2.18,1.32,1.7.98,3.4,1.93,5.09,2.91.56.32,1.07.71,1.6,1.05.76.46,1.52.92,2.28,1.38,1.44.87,2.43,2.13,3.19,3.59,1.01,1.93,2.03,3.86,2.89,5.85.72,1.68,1.21,3.45,1.8,5.19.05.16,0,.37.09.5.66,1,.97,2.06.88,3.26-.02.18.12.5.26.55.91.3.73,1.04.72,1.7-.02,2.22-.09,4.44-.04,6.65.02,1.32.15,2.65.35,3.95.35,2.24.54,4.49.64,6.76.1,2.46.5,4.91.68,7.37.12,1.57.05,3.16.09,4.74.01.8.06,1.62.1,2.42.03.52.11,1.03.12,1.53.05,3.72.09,7.43.12,11.14,0,.68-.12,1.37-.12,2.05,0,2.65-.13,5.31.1,7.93.17,1.93-.07,3.83.02,5.74.13,2.68.35,5.35.53,8.03.16,2.26.37,4.51.47,6.76.11,2.56.1,5.13.16,7.69.03,1.02.16,2.04.18,3.06.02,1.06-.05,2.12-.08,3.17-.02.55-.09,1.11-.07,1.66.04,2,.16,4,.15,5.99,0,2.13-.16,4.27-.18,6.4-.02,3.75,0,7.51,0,11.26,0,1.32,0,2.65.06,3.96.02.63.18,1.26.28,1.89.04.25.12.5.11.76-.05,2.73-.1,5.46-.2,8.18-.03.9-.23,1.79-.26,2.68-.02.85.09,1.69.15,2.53.03.43.22.89.1,1.26-.49,1.51.02,3.03-.14,4.54-.16,1.48-.24,2.97-.29,4.45-.13,3.88-.2,7.77-.36,11.65-.05,1.14-.32,2.27-.49,3.41-.05.28-.14.6-.08.86.44,1.9.43,3.81.34,5.73-.08,1.62-.27,3.26-.14,4.86.22,2.66-.07,5.28-.18,7.92-.09,1.83.07,3.67.02,5.5-.1,3.11.41,6.21.06,9.33-.15,1.35.05,2.73.09,4.09.06,2.77.1,5.55.19,8.31.05,1.32.19,2.64.26,3.96.07,1.35.25,2.71.11,4.04-.14,1.4-.24,2.76-.1,4.18.15,1.48.05,2.99.08,4.48.05,2.04.14,4.08.2,6.12,0,.17.04.34.02.51-.24,1.75-.17,3.49.13,5.22.06.37-.04.87-.25,1.18-.49.71-.46,1.42-.28,2.21.31,1.29.22,1.5-.85,2.21-.13.09-.31.14-.45.24-.94.6-1.01.79-.79,1.9.08.46.15.92.25,1.51-1.08-.2-2.06-.39-3.41-.64-.32-.55-.78-1.39-1.27-2.21-.17-.3-.33-.61-.57-.85-.6-.6-1.28-.44-1.6.36-.14.34-.24.7-.4,1.19-.35-.27-.59-.48-.87-.66-.24-.16-.5-.36-.75-.37-.52,0-.87-.24-1.25-.55-.66-.54-.98-.52-1.46.19-.36.52-.78.61-1.31.53-.75-.11-1.51-.22-2.26-.34-.12-.02-.27-.06-.35-.13-1.32-1.3-3.01-.93-4.57-.96-2.5-.06-5,.02-7.5,0-.46,0-.93-.08-1.38-.2-1.47-.38-2.93-.37-4.41-.09-.57.11-1.18.21-1.75.15-1.95-.19-3.89.08-5.83.02-2.31-.06-4.62-.13-6.93-.14-1,0-1.99.14-2.99.2-.34.02-.68-.02-1.02-.05-.91-.11-1.81-.24-2.72-.35-.17-.02-.37-.03-.5.05-1.2.65-2.36.24-3.52-.1-.09-.03-.18-.09-.25-.07-1.39.37-2.83-.19-4.27.26-.85.27-1.89-.04-2.85-.1-.25-.01-.52-.21-.73-.16-.91.19-1.76.28-2.56-.33-.13-.1-.48-.11-.61,0-.59.46-1.23.21-1.84.21-1.27-.02-2.54-.14-3.82.09-.58.11-1.23-.15-1.85-.25-.25-.04-.5-.13-.74-.12-2.67.11-5.32.02-7.98-.2-1.37-.11-2.77.01-4.15-.05-.82-.04-1.64-.32-2.47-.32-1.96,0-3.91.1-5.86.17-1.06.04-2.12.09-3.17.18-.26.02-.68.18-.73.37-.36,1.19-1.48,1.12-2.22,1.04-1.01-.1-1.89.35-2.86.27-1.76-.14-3.54.22-5.28-.32-.31-.1-.8-.02-1.06.19-.63.5-1.3.57-2.05.48-.25-.04-.55-.14-.75-.05-1.52.72-3.02.2-4.52-.03-.12-.01-.25-.04-.38-.04-.95.09-1.68-.07-2.08-1.15-.25-.66-1.04-.61-1.58-.56-.33-1.11-.62-2.2-.98-3.26-.32-.94-.41-.94-1.42-.65-.16.05-.32.09-.5.14-.28-.53-.48-1.05-.8-1.49-.2-.29-.59-.69-.82-.64-.4.07-.8.4-1.1.71-.18.2-.21.55-.26.85-.28,1.71-.58,3.44-.83,5.16-.1.66-.52,1-1.1,1.08-1.01.14-2.03.25-3.04.25-1.19,0-2.39-.09-3.58-.21-.67-.07-1.32-.37-1.99-.43-.64-.06-1.3.15-1.94.1-1.48-.13-2.95-.36-4.44-.53-.37-.04-.76-.05-1.12.04-.57.14-1.15.29-1.66.58-.48.26-.86.69-1.18,1.2-.66.15-1.36.2-1.97.47-.58.26-.96.24-1.22-.39-.73.61-1.38.91-2.17.34-.19-.14-.57-.04-.85-.09-.62-.11-1.37-.08-1.83-.42-.57-.43-1.02-.25-1.53-.12-.8-.92-1.89-1.13-2.94-.68-.53.23-1.14.31-1.72.46-2.45.63-4.98.48-7.47.78-1.47.18-2.95.21-4.43.31-.48.04-.74-.17-1-.6-.66-1.09-1.37-1.07-2.1-.05-.19.27-.53.44-.87.73-.42-.55-.75-.98-1.1-1.43-.38.02-.75.03-1.26.06-.27-.48-.55-1.05-.91-1.58-.59-.9-1.37-.84-1.81.15-.16.34-.21.74-.23,1.11-.05.87-.57,1.58-1.34,1.52-1.33-.12-2.59.21-3.88.37-1.71.21-3.46.13-5.2.19-1.35.04-2.7.11-4.06.16-.94.03-1.88.04-2.81.04-.2,0-.48-.02-.59-.14-.56-.6-1.34-.46-2.01-.68-1.08-.34-2.06-.14-3.1.17-1.71.51-3.49.61-5.26.67-1.85.08-3.7.16-5.54.25-2.51.12-5.02.28-7.53.34-2.72.06-5.44.02-8.23.02-.04-.47-.07-.84-.11-1.35-1.1-.18-2.17.4-3.35.23-.21,1.67-1.56,1.39-2.56,1.46-.76.06-1.54-.33-2.32-.49-.31-.06-.72-.16-.94-.02-.84.53-1.77.56-2.7.58-.52,0-1.03,0-1.54.08-.64.12-.96-.08-1.09-.72-.14-.69-.59-1-1.32-.89-.46.07-.96,0-1.39.12-.83.22-1.43.74-1.69,1.67-1.08-.07-2.12-.15-3.17-.2-.54-.03-1.09,0-1.63-.03-1.33-.07-2.68-.12-4-.28-.36-.05-.53-.01-.76.22-.14.14-.39.28-.56.25-1.08-.18-2.05.04-3.06.43-.57.23-1.34,0-2.02-.05-.75-.06-1.54-.33-2.25-.2-.96.18-1.86,0-2.79-.04-1.05-.04-2.1.18-3.15.24-1.83.11-3.65.21-5.48.23-1.87.03-3.75-.02-5.62-.05-.51,0-1.02-.01-1.53-.08-1.72-.21-2.54-1.11-2.71-2.83-.07-.69-.17-1.43-.46-2.05-.55-1.19-2.26-1.27-3.04-.23-.63.84-.9,1.64-.91,2.74-.33.02-.66.04-.92.05-.28-.59-.5-1.17-.8-1.69-.32-.56-.73-1.04-1.48-1.11-.77.85-1.33,1.76-1.33,3.1-.8.04-1.55.09-2.3.11-.85.03-1.7,0-2.55.04-2.77.11-5.53.28-8.3.34-1.54.03-3.07-.14-4.61-.14-.8,0-1.6.2-2.39.24-2.72.11-5.44.19-8.16.26-1.14.03-2.26-.03-3.4-.19-1.37-.2-2.78-.11-4.18-.17-.71-.03-1.42-.18-2.14-.21-.5-.01-1.01.09-1.51.14-.5.06-1,.11-1.49.2-2.33.48-4.66-.07-6.99.06-1.71.1-3.47.18-5.18-.43-.7-.24-1.6-.31-2.31.3-.09.09-.2.22-.31.22-1.12.05-1.56.89-2.01,1.78-.4,0-.81.1-1.16-.01-1.28-.41-2.38-.06-3.51.53-1.1.58-1.28,1.21-.46,2.17.19.22.34.47.53.75-.4.41-.83.2-1.23.23-.67.04-1.36.05-2.01.21-.32.08-.76.45-.79.72-.1,1.03-.27,2.14,0,3.1.29,1.01,1.33,1.48,2.39,1.68.63.11,1.26.23,1.89.31,1.1.14,1.27.3,1.32,1.47.04,1.02.05,2.05.05,3.08,0,2.1.32,4.19.41,6.28.06,1.35.01,2.72.01,4.09-.73.19-1.32.3-1.87.5-1.23.46-1.53,1.39-.73,2.41.5.65.95,1.4,1.98,1.44.38.02.91.42,1.08.78.46.96,1.35,1.19,2.12,1.01,1.05-.25,2.01.19,3.02.01.61-.11,1.26-.06,1.9-.01.24.02.46.21.87.4-.35.23-.5.42-.67.43-.93.05-1.84.37-2.73.44-1.31.11-1.89.92-2.58,1.73-.16.19-.27.43-.5.8.42.39.8.83,1.27,1.15.21.15.63.2.84.08,1.41-.73,2.89-.88,4.44-.69.16.02.34-.03.5-.07,2.43-.55,4.92-.48,7.38-.68.76-.07,1.53-.04,2.29-.08,1.31-.07,2.63-.27,3.93-.19,2.22.14,4.36-.39,6.54-.59,2.49-.22,4.98-.54,7.47-.69,1.85-.11,3.72,0,5.57,0,.13,0,.26-.03.38-.03,1.64-.01,3.28-.02,5.08-.03.41-.5.92-1.11,1.44-1.73.45.07.7.29.7.76,0,.21-.02.43.01.63.18,1.12.98,1.62,2.04,1.16.46-.2.85-.32,1.34-.23.23.05.5-.02.75-.08.64-.16,1.28-.43,1.93-.5,1.59-.19,3.2-.3,4.8-.43.7-.05,1.37.09,1.85.66.52.6,1.12.5,1.73.21.5-.23.98-.48,1.45-.72.69.44.64.94.62,1.48-.07,1.82.57,2.51,2.61,2.73.16-.5.35-1.04.5-1.58.07-.28.06-.6.12-.89.25-1.1.85-1.37,2.01-1.16.72.14,1.49.02,2.25.05,1.86.09,3.72.19,5.58.28.09,0,.18.02.25.05,1.87.85,3.1-.4,3.37-2.06,0-.04.04-.08.07-.11,1.74-.55,3.53-.74,5.35-.64.38.02.77.02,1.15.09,1.73.3,3.45.17,5.18.06.76-.04,1.55.12,2.28-.01,1.09-.18,2.07.21,3.1.29.87.07,1.7.09,2.38-.62.2-.21.62-.27.94-.27,1.44-.05,2.88-.03,4.32-.07.98-.03,1.8.2,2.51.95.96,1.02,2.14,1.07,3.03.26.09-.09.25-.18.25-.28.08-.98.9-1.22,1.48-1.55,1.25.61,2.46,1.16,3.62,1.81.39.23.66.7.95,1.08.67.86,1.58.96,2.36.2.36-.36.64-.79.96-1.19.08-.1.16-.2.29-.35.7.03,1.54.4,2.02-.72.28.57.41.98.67,1.29.6.77,1.4,1.27,2.13.15.33-.51.75-.73,1.3-.92.46-.17.85-.57,1.24-.96.72-.15,1.33-.03,1.73.78.41.83,1.15,1.04,1.89.48.66-.5,1.39-.55,2.14-.69,1.41-.28,2.8-.69,4.21-1.02.86-.2,1.75-.46,2.63-.46,2.6-.02,5.18.09,7.77.13,1.96.03,3.95.23,5.86-.06,1.59-.24,3.1-.05,4.64-.01,1.83.03,3.66-.02,5.5-.1.61-.03,1.22-.25,1.81-.38.21.25.37.44.57.69.36-.23.71-.44,1.11-.7.14.21.31.36.36.55.16.62.53.78,1.03.45.41-.27.67-.21,1.03.06.56.41,1.17.76,1.8,1.16.22-.28.32-.46.47-.59.19-.17.47-.44.64-.4.21.06.43.38.48.62.17.84.22,1.71.95,2.31.06.05.14.07.23.11,1.13-.27,1.48-1.22,1.73-2.16.17-.61.28-1.13.99-1.32.22-.06.46-.28.55-.49.46-1.05,1.34-1.05,2.26-.93.94.13,1.82-.05,2.75-.21,1.48-.25,3.01-.36,4.54-.09.93.16,1.92.05,2.86-.03.33-.03.71-.3.92-.57.61-.78,1.42-1.05,2.34-1.03,1.96.02,3.91.09,5.88.12.42,0,.84-.06,1.25-.15,1.42-.31,2.85-.5,4.3-.24.3.05.6.09.89.04,1.9-.36,3.81.01,5.7-.09,1.68-.1,3.36.32,5.02-.13.12-.04.26-.11.36-.07,1.84.56,3.72-.04,5.58.27,1.4.23,2.84.27,4.21.39.39.82.74,1.58,1.11,2.33.3.6.73.67,1.24.23.25-.21.49-.46.78-.6.44-.21,1.03-.57,1.36-.43.96.4,1.64.21,2.28-.51.04-.05.16-.04.32-.08.09.07.26.13.34.26.35.54.74.6,1.3.28.43-.25.93-.47,1.41-.49.59-.02,1.27-.21,1.76.46.13.18.73.27.9.14.83-.69,1.59-1.47,2.58-2.42.77-.04,1.84-.09,2.88-.14.39.75.68,1.41,1.06,2.02.21.35.56.63.87.91.41.37.76.07,1.16-.11.23-.1.56,0,.84.05,1.03.17,1.46-.06,1.82-1.08.21-.59.36-1.21.54-1.87,1.04-.05,2.06-.1,3.1-.14.29,0,.59-.02.88.02.94.14,1.83.1,2.76-.18.83-.25,1.77-.23,2.66-.23,1.48,0,2.97.05,4.46.12,2.3.1,4.59.28,6.9.34,2.04.06,4.07,0,6.12,0,.59,0,1.19.12,1.77.16,1.96.1,3.91.23,5.87.25.53,0,.88.09,1.19.52.19.28.43.54.69.75.73.55,1.42.55,1.84-.22.57-1.07,1.49-1.03,2.39-1.03,1.71,0,3.4.1,5.1.14.88.02,1.25.41,1.32,1.37.06.76.07,1.56.3,2.27.42,1.31,1.1,1.39,1.98.36.28-.32.61-.58.92-.87.45-.44,1.01-.81.79-1.64.96.07,1.53-.36,1.94-1.1.17-.3.53-.5.92-.86.25.42.54.71.61,1.05.17.83.66,1.25,1.44,1.42.28.06.56.18,1.01.34.21-.48.46-.91.58-1.37.34-1.32.63-1.48,1.85-.77.5.29.93.71,1.41,1.05,1.28.9,2.73.79,4.18.77,1.7-.02,3.39.1,5.08.16.3.01.6.07.9.05,2.43-.12,4.85,0,7.26.29.46.05.95.11,1.4.02.78-.16,1.39.11,1.84.64.48.57,1.07.68,1.73.6,1.89-.23,3.78-.48,5.67-.73,1.26-.17,2.54-.33,3.8-.52,1.42-.21,2.86-.37,4.27-.7.73-.17,1.07.37,1.8.5-.2.46-.29.87-.52,1.16-.71.96-.88,2.06.5,2.7.39.18.73.55.99.91.7.93,1.61,1.33,2.68.88,1.03-.44,2.01-.62,3.08-.28.23.07.5.03.94.05-.24.37-.43.61-.56.87-1.04,2.1-2.7,3.68-4.39,5.25-.15.14-.3.29-.45.44-2.42,1.63-5.03,2.96-7.7,3.93-.68-.57-1.33-.55-2.39.04-1.19.68-2.44,1.17-3.72,1.58t-.01,0c-.59.1-1.18.21-1.77.3-.64.1-1.6.43-2.45.72-1.58-.11-3.17-.28-4.75-.43-.09,0-.18-.04-.26-.02-1.64.26-3.19-.32-4.78-.5-1.55-.18-3.14-.02-4.71.06-1.77.09-3.56.11-5.3.41-2.08.35-4.15.12-6.23.28-1.27.1-2.54.28-3.81.37-.97.06-1.95.07-2.92.02-1.57-.09-3.13-.25-4.7-.38-.8-.07-1.6-.18-2.42-.21-.96-.04-1.92-.01-2.89-.02-1.73-.02-3.48,0-5.21-.08-1.09-.04-2.17-.26-3.26-.36-.55-.05-1.11.02-1.66.03-1.96.04-3.93.18-5.88.1-1.48-.07-2.95-.43-4.43-.61-1.22-.16-2.45-.32-3.67-.34-1.65-.02-3.32.06-4.98.15-1.52.08-3.04.27-4.57.33-1.27.06-2.55.06-3.82-.02-.73-.05-1.45-.37-2.19-.48-2.51-.33-5.03-.32-7.52.03-1.54.21-3.03.21-4.57.14-1.22-.06-2.45.34-3.68.37-1.39.04-2.77-.1-4.13-.16-.27-1,1.29-.5,1.05-1.52-.67.08-1.33.08-1.95.25-.38.1-.83.36-1.02.68-.36.6-.86.58-1.43.61-1.77.09-3.57-.16-5.32.32-.12.04-.25,0-.38,0-1.57.02-3.16-.11-4.71.07-1.88.23-3.71-.18-5.57-.09-2.23.12-4.48.05-6.72,0-2.05-.03-4.08-.2-6.13-.2-2.29,0-4.58.12-6.87.21-2.04.08-4.08.19-6.12.3-.26.02-.52.05-.75.12-1.64.52-3.33.53-5.03.62-2.38.11-4.76.23-7.1.85-.83.22-1.77.09-2.66.08-.97-.03-1.96-.17-2.93-.14-2.34.06-4.68.17-7.03.28-2.64.13-5.27.32-7.91.42-.27,0-.53.02-.8.02-1.86.04-3.72-.01-5.58.09-2.54.13-5.09-.06-7.65.31-1.7.25-3.48-.01-5.22-.05-.72-.01-1.45-.04-2.17-.03-1.52.02-3.04.03-4.56.09-.96.04-1.9.21-2.85.21-1.37.01-2.76-.03-4.13-.13-.22-.02-.42-.41-.62-.62-.54.59-1.29.92-2.18,1-.98.09-1.96-.02-2.96.2-.78.16-1.66-.15-2.69-.28-.09.07-.34.28-.57.48-.09-.05-.19-.07-.23-.13-.52-.71-.98-.89-1.69-.61-1.1.44-2.21.73-3.42.59-.3-.04-.64.29-1.02.48-.28-.07-.67-.17-1.06-.25-.23-.05-.48-.02-.7-.09-.85-.28-.98-.24-1.42.53-1.52-.18-3.02-.36-4.52-.53-.16-.02-.36-.03-.5.03-.95.48-1.92.48-2.96.28-.54-.11-1.08-.05-1.51-.5-.12-.13-.38-.13-.65-.21-.15.39-.28.73-.43,1.12h-2.73c.13-.4.22-.69.32-.98-.14-.06-.27-.13-.28-.12-.66.85-1.66.41-2.49.65-1.53.45-3.11.02-4.66.01-1.61-.01-3.22.01-4.82,0-1.71-.02-3.4-.04-5.1-.07-1.02-.02-2.04-.13-3.06-.11-2.09.03-4.17.07-6.26.19-2.33.13-4.65.37-6.98.53-1.71.11-3.41.19-5.11.27-2.04.1-4.08.14-6.12.29-2.16.16-4.32.41-6.48.62-.26.03-.52.08-.76.06-2.99-.25-5.99.26-8.99-.04-.57-.06-1.17.17-1.76.28-1.65.31-3.29.12-4.95.05-1.17-.05-2.35.22-3.54.26-1.01.03-2.03-.02-3.04-.12-1.13-.12-2.22-.25-3.08.57-.36-.04-.72-.07-1.09-.11-.14-.16-.25-.37-.34-.59-.13-.32-.27-.63-.43-.92-.59-1.05-.73-1.1-1.9-.68-.84.29-1.66-.07-2.3-.4-.77-.4-1.56-.61-2.32-.59-1.19.03-2.13-.57-3.18-.88-.68-.2-1.35-.52-1.99-.85-.69-.36-1.44-.59-2.07-1.16-.55-.5-1.31-.8-2.03-1.05-.74-.26-1.19-.77-1.68-1.32-.81-.92-1.63-1.84-2.51-2.7-1.22-1.21-2.26-2.54-3.08-4.05-.79-1.45-1.64-2.86-2.41-4.32-.72-1.39-1.53-2.78-1.99-4.26-.52-1.73-.73-3.57-1.03-5.36-.41-2.51-.92-5.02-1.12-7.56-.16-2.02-.79-4.02-.48-6.09.13-.84,0-1.71-.02-2.56-.06-2.21-.2-4.43-.18-6.63.03-2.55.3-5.11.25-7.65-.07-3.54.2-7.09-.4-10.61-.12-.7-.06-1.44-.05-2.16.03-1.35.21-2.72.1-4.05-.25-2.92.29-5.79.25-8.69-.04-2.04-.14-4.09-.15-6.12,0-.89.18-1.78.24-2.67.15-1.92.32-3.84.38-5.75.02-.84-.28-1.68-.28-2.52.01-2,.32-4.02.15-6-.16-1.97-.09-3.91-.06-5.86.01-.68.12-1.36.14-2.05.02-.72.08-1.46-.05-2.15-.29-1.57-.16-3.15-.15-4.72.02-2.21-.03-4.42-.06-6.63-.02-3.45-.07-6.9-.08-10.35,0-.72.14-1.44.23-2.16.14-1.07.02-2.11-.12-3.18-.18-1.37-.02-2.79.02-4.2,0-.1.14-.2.25-.32.16.05.33.07.48.14.39.19.73.78,1.23.4.45-.36,1.06-.86,1.09-1.33.05-1,.87-1.77.68-2.81-.08-.43.27-.69.72-.75,1.06-.13,1.55-.73,1.65-1.78.06-.58.32-1.14.55-1.89.47.28.81.48,1.16.69.84.47,1.26.43,1.92-.28.31-.33.61-.53,1.07-.58.94-.11,1.41-.69,1.52-1.61.05-.5.18-.98.26-1.39.22-.08.31-.15.37-.13,1.19.36,1.69.11,2.08-1.07.35-1.03.34-2.08.32-3.14-.02-1.03,0-2.05,0-3.06,1.5-.95,2.06-2.29,1.73-4.03-.34-1.85-.38-3.72-.38-5.59,0-2.13-.21-4.26-.23-6.39-.02-3.15-.01-6.3.09-9.45.04-1.27.33-2.53.57-3.79.05-.27.43-.48.62-.73.25-.33.58-.66.65-1.03.18-.92.32-1.87.33-2.8.02-1.62-.12-3.24-.09-4.86.02-1.32.21-2.63.32-3.95.33-4.48.64-8.95,1-13.42.14-1.7.54-3.39.53-5.09,0-1.78.59-3.55.12-5.34-.04-.16.02-.36-.04-.51-.57-1.37-.18-2.74-.02-4.12.15-1.18.16-2.38.28-3.55.25-2.12.54-4.23.79-6.35.13-1.06.17-2.12.3-3.18.08-.63.26-1.23.76-1.72.8-.81.87-1.93,1.02-2.97.13-.89.13-1.72,1.01-2.34.41-.29.57-1.03.71-1.6.37-1.53.66-3.08,1-4.62.25-1.12.55-2.22.79-3.34.07-.28.14-.69,0-.88-.53-.7-.26-1.48-.34-2.23-.08-.69.04-1.32.3-1.98.24-.61.24-1.34.22-2.01-.05-2.01-.17-4-.25-6-.02-.41,0-.82,0-1.31.4.06.63.04.8.12,1.26.62,2.59.41,3.9.39,1.19-.02,2.37.01,3.56-.05.84-.04,1.68-.28,2.52-.28,2.82,0,5.63.08,8.45.1.83,0,1.7-.21,2.5-.06,1.1.21,2.19.14,3.27.18,1.27.05,2.54.21,3.81.32,1.14.09,2.28.2,3.43.3.08.02.17.04.25.04,1.33-.13,1.54.14,1.78-1.47h.87c.02.19.07.29.04.34-.29.43-.91.71-.45,1.41.45.69.98.94,1.85.76.3-.06.57-.19.87-.23,1.77-.23,3.54-.46,5.31-.64,1.79-.19,3.58-.36,5.36-.46,1.08-.06,2.18-.39,3.26.1.22.1.55.14.75.04,1.09-.56,1.94.16,2.87.5.19.42.32.89.57,1.27.56.86,1.46.81,1.84-.12.33-.79.69-1.35,1.7-1.1.25.06.68-.19.86-.43.37-.5.82-.55,1.35-.53,1.11.05,2.21.13,3.32.12.81,0,1.61-.15,2.41-.21,4.43-.34,8.86-.12,13.29-.2,3.24-.07,6.45.3,9.68.19,1.74-.07,3.48-.12,5.22-.09.93.01,1.86.23,2.79.3.71.05,1.43,0,2.15-.01.64-.02,1.28-.06,1.92-.1.38-.03.77-.03,1.13-.13,1.02-.28,1.48-.13,2,.78.23.41.37.87.58,1.28.37.71.69.76,1.3.26.03-.02.08-.04.09-.08.78-1.52,2.31-1.46,3.65-1.61,2.24-.23,4.51-.32,6.77-.43.88-.04,1.78.07,2.79.11.18.85.36,1.67.53,2.49.07.34.13.67.2,1.01.16.91.72,1.3,1.68,1.26.73-1.42.37-2.99.59-4.6.68-.08,1.34-.22,2.01-.22,3.63,0,7.25.08,10.87.03,4.04-.06,8.09-.12,12.13-.39,2.72-.19,5.41.28,8.13.01,1.8-.18,3.65.12,5.48.18.43.01.85-.04,1.28-.06.84-.04,1.63.02,2.17.8.4.59.9.46,1.28.02.5-.6.97-.57,1.56-.21.2.12.48.17.72.16,1.65-.11,3.3-.27,4.95-.35,2.81-.14,5.63-.27,8.45-.32,4.61-.07,9.2.02,13.8-.14,1.43-.05,2.85.05,4.28-.07,1.44-.11,2.9-.12,4.35-.2,3.91-.21,7.82-.42,11.73-.64.69-.03,1.32-.05,1.78.67.37.57,1.05.5,1.64.32.93-.29,1.85-.63,2.79-.91.52-.17,1.08-.25,1.6-.4.91-.25,1.66-.14,2.26.7.46.65,1.22.76,1.97.7,1.99-.14,3.99-.34,5.99-.46,2.33-.15,4.67-.2,7.01-.35,1.23-.09,2.44-.35,3.66-.43,1.35-.1,2.7-.06,4.06-.12,1.83-.08,3.66-.25,5.5-.31,2.34-.08,4.68-.08,7.03-.12,2.94-.05,5.88-.11,8.7-.17.5.46.87.92,1.35,1.22.29.19.73.23,1.1.19.92-.11,1.83-.36,2.76-.44,2.08-.19,4.15-.46,6.25-.32.54.03,1.1-.07,1.64-.14,1.29-.16,1.85.21,2.25,1.46.12.41.25.81.34,1.23.12.56.48.81,1,.8.57,0,.98-.28,1.08-.88.06-.38.09-.76.16-1.14.22-1.28.23-1.28,1.71-1.45.13.39.32.8.43,1.23.28,1.16.52,2.33.77,3.49.14.6.29.73,1.32.95v-5.16c.59.13.99.21,1.37.3.5.11.9.07,1.21-.43.4-.62,1-.78,1.75-.82,1.9-.09,3.79-.35,5.69-.48,1.61-.11,3.22-.13,4.83-.21,1.87-.08,3.75-.07,5.61-.3,2.73-.34,5.46-.5,8.21-.62,1.44-.07,2.88-.3,4.32-.4,2.59-.19,5.2-.28,7.79-.53,2.41-.23,4.81-.6,7.22-.9,1.14-.14,2.28-.26,3.42-.35.54-.05.95-.3,1.05-.78.2-.95.94-1.25,1.66-1.6,1.15-.55,1.35-.97,1.09-2.4-.27-.03-.56-.03-.84-.09-.26-.07-.65-.14-.75-.33-.41-.79-1.14-.6-1.79-.71-1.32-.2-2.59,0-3.87.25-.35.07-.73,0-1.19,0-.03-.63-.2-1.19-.05-1.63.51-1.53-.19-2.96-.24-4.44-.03-1.07-.29-2.13-.25-3.18.09-1.73-.34-3.38-.59-5.05-.12-.81-.61-1.56-.95-2.37.13-.23.38-.47.39-.74.06-1.2.84-1.9,1.66-2.59.3-.25.65-.45.87-.76.18-.24.35-.66.26-.9-.08-.23-.5-.46-.78-.48-.93-.05-1.88,0-2.81.04-.81.04-1.59.18-2.32-.38-.3-.23-.8-.19-1.25-.28-.1-1.03,1.02-1.32,1.25-2.14-.23-.67-.72-.91-1.39-.87-1.44.09-2.92.04-4.34.3-2.15.41-4.24.08-6.36-.11-3.45-.3-6.88-.75-10.33-.91-4.64-.23-9.3-.33-13.94-.35-3.24,0-6.48.21-9.72.35-.46.02-.95.13-1.36.33-.77.37-1.67.71-1.21,2.03-1.41.1-2.66.22-3.91,0-.37-.06-.75-.39-1.04-.68-.7-.71-1.17-.86-1.63-.07-.7,1.21-1.72,1.14-2.82,1.19-2.42.13-4.83.41-7.24.48-3.01.08-6.04.05-9.06.01-3.31-.05-6.64-.15-9.96-.22-3.02-.07-6.06-.16-9.09-.19-1.95-.02-3.9.05-5.85.09-.8.02-1.62.11-2.41.06-2.55-.17-4.92.67-7.31,1.33-.59.16-1.12.59-1.65.88-.11-.04-.22-.04-.27-.09-1.34-1.55-3.12-1.28-4.8-1.01-2.64.41-5.27.28-7.91.16-4.52-.23-9.02-.58-13.53-.86-1.99-.13-3.98-.25-5.98-.3-1.83-.04-3.66,0-5.38.82-.41.19-.92.21-1.38.23-1.98.09-3.96.14-5.94.22-1.53.07-3.06.25-4.58.2-3.58-.11-7.15.02-10.71-.41-1.56-.18-3.15-.12-4.73-.19-.34-.02-.74-.01-.99-.2-.91-.66-1.96-.43-2.95-.55-.67-.08-1.36-.09-2.04-.12-.21,0-.48-.01-.6.11-.53.51-1.21.45-1.82.4-2.56-.21-5.08.26-7.62.39-1.36.07-2.73.07-4.09.07-2.05-.02-4.1-.07-6.14-.1-1.92-.02-3.84-.07-5.76-.05-2.13.02-4.25.1-6.39.15-.13,0-.26,0-.39-.02-1.38-.18-2.74-.53-4.05.43-.36.26-1.08.04-1.62-.02-.6-.05-1.12-.02-1.7.27-.7.34-1.55.44-2.34.49-.93.04-1.87-.09-2.81-.13-.68-.02-1.34.02-1.95-.46-.25-.19-.72-.12-1.09-.13-.76-.01-1.52.02-2.27,0-.94-.02-1.88-.03-2.81-.12-1.23-.12-2.45-.35-3.68-.48-2.25-.23-4.5-.47-6.76-.64-3.57-.26-7.15-.54-10.73-.67-3.28-.12-6.57-.14-9.85-.02-1.09.04-2.26.16-3.26.94-.51.4-1.37.5-2.06.48-2.29-.04-4.59-.19-6.89-.32-1.13-.06-2.06-.52-2.67-1.76-.3.27-.64.44-.71.69-.16.59-.57.78-1.09.96-.84.3-1.66.67-2.5.98-.31.12-.65.25-.98.24-.51-.01-.95.09-1.19.56-.24.46-.61.55-1.07.52-.72-.05-1.45-.05-2.17-.15-2.49-.35-4.98-.71-7.47-1.1-1-.16-1.82.32-2.7.6-.71.23-1.46.5-2.21.52-2.64.09-5.28-.16-7.92-.32-1.82-.11-3.64-.32-5.46-.4-1.36-.06-2.72-.18-4.07-.3-.46-.04-.94-.16-1.35-.37-.3-.16-.71-.53-.69-.77.03-.35.34-.82.65-.99.71-.36,1.49-.64,2.27-.83,1.34-.31,2.33-1.18,3.36-1.97.28-.21.31-.98.2-1.43-.24-.97-.11-1.56.91-2.05.62-.3,1-1.1,1.49-1.67,1.42.12,2.85.3,4.29.35.92.03,1.84-.15,2.77-.23.59-.05,1.19-.08,1.78-.15,2.26-.28,4.5.17,6.76.23,1,.03,1.99.38,3,.53,1.59.26,3.18.55,4.78.68,1.09.09,2.2-.09,3.3-.15.43-.02.88-.15,1.27-.04,1.63.46,3.19.09,4.78-.18.74-.13,1.52,0,2.28.03,1.35.04,2.71.1,4.06.13,1.71.03,3.41.04,5.12.05.59,0,1.18,0,1.77-.01.34-.01.67-.12,1-.1,1.44.04,2.78-.56,4.19-.71.59-.06,1.2-.07,1.76-.23,1.96-.56,3.9-.21,5.82.08,1.41.21,2.77.42,4.16-.09.3-.11.67-.12,1-.1.79.06,1.6.14,2.39.27,2.53.42,4.98-.58,7.5-.43.6.04,1.25-.18,1.85-.33.59-.15,1.14-.02,1.72.05,1.1.13,2.23-.09,3.36-.18.92-.07,1.84-.17,2.77-.3,1.06-.15,2.09-.03,3.1.37.29.12.67.01,1.01,0,.25,0,.52-.08.75-.04,1.81.36,3.59.85,5.46.77.18,0,.37.1.51.04,1.19-.55,2.33-.02,3.51.09.82.09,1.66.02,2.49-.05,1.89-.17,3.72.2,5.57.44.97.12,1.94.22,2.9.34.12.01.27.02.38-.02,1.57-.71,3.11-.12,4.62.21,2.27.48,4.51.76,6.85.43,1.79-.26,3.63-.2,5.45-.23.58,0,1.17.25,1.76.23,1.1-.02,2.21-.1,3.31-.26,1.19-.18,2.36-.36,3.55-.1,1.29.29,2.54-.04,3.79-.25,1.03-.17,2.01-.2,3.03.04.9.21,1.85.16,2.77.24,2.72.23,5.43.12,8.15.03.81-.04,1.61,0,2.43-.03.62-.03,1.25-.12,1.88-.16.25-.02.53-.04.76.04,1.08.37,2.17.19,3.28.12,1.1-.08,2.21.12,3.31.06,1.45-.07,2.88-.3,4.33-.44,2.17-.2,4.33-.19,6.48.2.4.08.82,0,1.23,0,.9-.02,1.8-.02,2.69-.03.38,0,.8.1,1.14-.02,1.73-.59,3.49-.71,5.3-.56.44.04.91-.15,1.37-.17,2.71-.17,5.35.44,8.01.75,1.86.21,3.69.55,5.55.78.56.07,1.16-.07,1.74-.12.13,0,.26-.06.38-.02.81.18,1.58.02,2.39-.1,1.59-.25,3.21-.46,4.81-.44,2.1.02,4.09-.64,6.18-.6,1.1.01,2.21-.05,3.31-.14.59-.04,1.16-.25,1.74-.36.42-.08.85-.23,1.26-.16,1.44.23,2.87.08,4.32-.03.75-.07,1.53.12,2.28.27,2.15.43,4.32.34,6.48.25,2.01-.08,3.99-.19,5.98-.6,1.22-.25,2.5-.34,3.76-.47,1.01-.11,2.07.3,3.12.34,1.53.06,3.06-.02,4.59-.03.05,0,.09-.02.13,0,2.98.27,5.66-.97,8.45-1.67.28-.06.59-.07.89-.06,2.26.05,4.5.04,6.76-.3,1.44-.22,2.92-.44,4.44-.26,1.25.15,2.55-.12,3.82-.23m-177.95,92.36c-1.01.71-1.25,1.78-1.71,2.92-.41-.59-.69-1.02-1.01-1.48-.64.32-1.05.79-1.17,1.37-.26,1.2-.43,2.42-.57,3.65-.23,1.89.02,3.84-.9,5.62-.15.28-.12.67-.13,1.01-.19,2.98-.36,5.96-.54,8.93-.03.34-.04.69-.12,1.02-.43,1.62-.36,3.28-.28,4.93.02.55.11,1.1.08,1.64-.12,2.26-.32,4.51-.39,6.77-.1,3.02-.09,6.06-.14,9.09-.02,1.01-.13,2.03-.12,3.04.01,1.01.14,2.03.21,3.1-1.33.26-1.49,1.17-1.55,2.3-.07,1.3-.36,2.59-.59,3.89-.04.24-.16.54-.34.67-1.15.8-1.2,2.03-1.26,3.21-.14,3.07-.2,6.15-.3,9.21-.03.96-.32,1.91-.02,2.86.11.35.26.7.29,1.05.17,2.02.31,4.03.48,6.04.02.24.11.52.27.68.73.74,1.03,1.56.94,2.63-.08,1.04.81,1.51,1.84,1.05.14,1.85.33,3.66.41,5.48.11,2.74.12,5.48.2,8.23.06,2.29.55,4.57.32,6.87-.03.34-.02.72.12,1.01.39.83.41,1.71.46,2.6.06,1.07.09,2.13.15,3.19.06,1.28.12,2.55.24,3.82.04.41.25.8.39,1.2.44,1.18.97,2.29.87,3.66-.06.78.05,1.82.72,2.46.51.48.69,1.03.85,1.66.18.74.39,1.48.66,2.19.5,1.33.59,1.35,1.93.71.07-.03.16.02.32.05.16.34.25.8.53,1.07.82.77.99,1.79,1.11,2.79.11.92.62,1.63.92,2.45.16.43.62.65.93.43.75-.55,1.41-1.23,2.1-1.86.03-.02.03-.08.03-.12,0-1.17.26-2.35-.44-3.46-.45-.69-.33-.92.31-1.49.31-.27.56-.61.84-.92,2.55,1.2,5.21.95,7.83.42.81-.16,1.46,0,2.17.13.32.06.62.22.91.33.62-1.01.43-2.68-.55-4.58.53,0,1.09.16,1.28-.04.39-.41.76-.39,1.23-.43.44-.03.94-.24,1.28-.52.63-.52,1.31-.84,2.09-1.05.68-.19,1.43-.42,1.96-.86,1.25-1.07,2.9-1.3,4.22-2.19.14-.09.34-.07.5-.12.47-.15,1-.23,1.41-.47,1.29-.76,2.29-1.97,3.81-2.37.14-.03.21-.27.35-.36,1.01-.62,2.01-1.25,3.04-1.83.76-.43,1.64-.69,2.33-1.21,1.56-1.19,3.12-2.34,5.01-2.97.52-.17,1.03-.46,1.44-.81,1.56-1.37,3.41-2.26,5.19-3.25.78-.43,1.58-.82,2.36-1.25,1.48-.81,2.94-1.64,4.41-2.45.93-.51,1.92-.93,2.79-1.53,1.28-.88,2.48-1.89,3.72-2.83.14-.11.3-.16.46-.23,1.68-.63,3.22-1.46,4.63-2.59.7-.55,1.62-.9,2.49-1.14.5-.14.93-.24,1.37-.56,1.27-.92,2.63-1.7,4.11-2.24,1.19-.43,2.45-.8,3.52-1.44,1.73-1.06,3.35-2.31,5.01-3.5.68-.48,1.21-1.1,1.19-2-.02-.57.3-.83.74-1.06,1.59-.8,2.76-2.1,3.72-3.56.39-.59.67-1.28.92-1.95.53-1.37.5-2.96,1.57-4.14.12-.13.11-.41.13-.62.28-2.75.51-5.46-.45-8.19-.8-2.29-1.78-4.4-3.78-5.91-.38-.29-.83-.78-.85-1.2-.07-1.17-.78-1.86-1.64-2.38-.75-.46-1.35-1.34-2.46-1.09-.15.03-.36-.18-.53-.28-2.48-1.4-4.86-2.94-7.54-3.98-1.61-.62-3.05-1.64-4.61-2.39-1.72-.82-3.18-2.15-5.12-2.52-.19-.04-.37-.2-.52-.34-1.32-1.14-2.78-2.06-4.31-2.9-.85-.46-1.64-1.04-2.48-1.52-1.85-1.04-3.7-2.07-5.57-3.06-1.05-.55-2.16-.96-3.19-1.55-1.57-.89-3.09-1.89-4.64-2.81-1.62-.98-3.28-1.91-4.89-2.92-2.37-1.49-4.7-3.04-7.04-4.58-.53-.34-1-.87-1.58-1.02-1.96-.53-3.37-1.89-4.94-3.04-1.32-.97-2.82-1.68-4.01-2.84-.08-.08-.24-.08-.37-.12-1.75-.48-3.28-1.55-5.1-1.86-.09-.02-.15-.2-.27-.37.57-.73.25-1.5.05-2.28-.37-1.49-.69-2.99-1.11-4.47-.21-.75-.56-1.42-1.59-1.3-.28.04-.59-.29-.96-.49-.56.66-1.17.29-1.73-.04-.86.83-1.65,1.6-2.52,2.44-.34-1.04-.96-1.22-1.85-1.08-.39.05-.86-.23-1.25-.45-.24-.13-.39-.42-.57-.64-.5.14-.94.27-1.51.43-.11-1.05-.16-2.02-.31-2.97-.1-.66-.25-1.34-.56-1.92-.41-.76-.91-.8-1.57-.21-.3.27-.49.66-.68,1.03-.18.33-.3.69-.38.86-.8.12-1.43.22-2.09.32-.2-1.47.15-3.06-.99-4.37"/>
        <path class="cls-2" d="m150.79,99.83c.46-1.14.69-2.21,1.71-2.92,1.14,1.3.79,2.9.99,4.37.66-.11,1.28-.2,2.09-.32.08-.18.2-.53.38-.86.19-.36.39-.76.68-1.03.66-.58,1.16-.54,1.57.21.31.58.46,1.26.56,1.92.16.95.21,1.92.31,2.97.57-.17,1.01-.29,1.51-.43.19.22.34.51.57.64.39.22.86.51,1.25.45.89-.13,1.51.05,1.85,1.09.87-.84,1.67-1.61,2.53-2.44.56.32,1.17.7,1.73.03.36.2.68.52.96.49,1.03-.12,1.39.55,1.59,1.3.41,1.48.73,2.98,1.11,4.47.2.79.52,1.56-.05,2.28.12.17.18.35.27.37,1.82.31,3.36,1.38,5.11,1.86.13.03.28.04.37.12,1.19,1.16,2.69,1.87,4,2.84,1.57,1.15,2.98,2.5,4.94,3.04.57.15,1.05.68,1.57,1.02,2.35,1.53,4.68,3.08,7.04,4.58,1.61,1.01,3.27,1.94,4.89,2.92,1.55.93,3.07,1.92,4.64,2.81,1.03.59,2.14,1,3.18,1.55,1.87,1,3.72,2.03,5.57,3.06.85.48,1.64,1.05,2.49,1.51,1.53.84,2.99,1.76,4.31,2.9.15.14.34.3.52.34,1.94.37,3.4,1.7,5.12,2.52,1.56.75,3.01,1.77,4.61,2.39,2.67,1.04,5.06,2.58,7.54,3.98.17.09.38.31.53.28,1.1-.26,1.71.62,2.46,1.08.86.53,1.57,1.21,1.64,2.39.03.42.47.91.85,1.2,2,1.51,2.97,3.61,3.78,5.91.96,2.72.73,5.44.45,8.18-.02.21,0,.48-.13.62-1.08,1.17-1.04,2.76-1.57,4.13-.25.67-.53,1.36-.92,1.95-.96,1.46-2.12,2.75-3.72,3.56-.44.23-.76.48-.74,1.06.02.9-.5,1.51-1.19,2-1.66,1.19-3.28,2.45-5.01,3.5-1.07.64-2.32,1.01-3.52,1.44-1.48.54-2.84,1.32-4.11,2.24-.44.32-.87.42-1.37.56-.87.24-1.79.59-2.49,1.14-1.41,1.13-2.95,1.96-4.63,2.58-.16.07-.32.12-.46.23-1.24.94-2.44,1.95-3.72,2.83-.87.59-1.86,1.02-2.79,1.53-1.47.81-2.93,1.64-4.41,2.44-.78.43-1.58.82-2.35,1.25-1.79.99-3.63,1.89-5.19,3.25-.41.36-.92.64-1.44.81-1.89.63-3.45,1.78-5.01,2.97-.68.52-1.57.78-2.33,1.21-1.02.58-2.03,1.21-3.04,1.83-.14.09-.21.33-.35.36-1.52.4-2.53,1.61-3.81,2.37-.42.25-.94.32-1.41.47-.16.05-.36.03-.5.12-1.32.88-2.97,1.12-4.22,2.19-.52.44-1.27.67-1.96.86-.78.21-1.46.53-2.09,1.05-.34.28-.84.49-1.28.52-.47.03-.85.02-1.23.43-.19.2-.75.03-1.28.03.99,1.9,1.18,3.57.55,4.58-.29-.11-.59-.27-.91-.33-.71-.13-1.36-.29-2.17-.13-2.61.53-5.28.78-7.83-.42-.28.32-.53.65-.84.92-.64.57-.76.8-.31,1.49.71,1.1.45,2.29.44,3.46,0,.05,0,.1-.02.12-.69.63-1.35,1.31-2.1,1.86-.3.22-.77,0-.93-.43-.3-.82-.81-1.54-.92-2.45-.12-1-.28-2.02-1.11-2.79-.28-.27-.37-.73-.54-1.07-.16-.03-.26-.09-.32-.05-1.33.64-1.42.62-1.93-.71-.27-.72-.48-1.45-.67-2.19-.15-.63-.34-1.18-.85-1.66-.67-.65-.77-1.68-.71-2.47.1-1.37-.43-2.47-.87-3.66-.14-.4-.36-.79-.39-1.2-.12-1.27-.18-2.55-.24-3.82-.06-1.07-.09-2.13-.15-3.19-.05-.89-.07-1.77-.46-2.6-.14-.3-.15-.68-.12-1.01.23-2.31-.26-4.58-.32-6.88-.08-2.74-.09-5.48-.2-8.22-.08-1.82-.27-3.63-.41-5.48-1.03.46-1.92,0-1.84-1.05.08-1.08-.21-1.89-.94-2.63-.16-.16-.25-.44-.27-.68-.17-2.01-.3-4.02-.48-6.05-.04-.36-.19-.7-.29-1.05-.3-.96-.01-1.91.02-2.86.11-3.07.17-6.15.3-9.22.06-1.19.11-2.41,1.26-3.21.18-.13.3-.43.34-.66.23-1.3.53-2.59.59-3.89.06-1.14.23-2.05,1.55-2.3-.08-1.08-.2-2.09-.21-3.1-.02-1.01.09-2.03.11-3.04.05-3.03.05-6.06.14-9.09.07-2.26.27-4.51.39-6.76.03-.54-.07-1.09-.09-1.64-.07-1.65-.14-3.31.28-4.93.09-.33.1-.68.12-1.02.18-2.97.36-5.95.54-8.93.02-.34-.01-.72.14-1,.92-1.78.67-3.74.9-5.62.14-1.23.31-2.45.57-3.65.12-.57.53-1.05,1.17-1.37.31.46.6.89,1.01,1.48m15.15,15.76c-.66,0-1.4-.14-1.98.1-1.05.42-2.15.78-3.01,1.57-.5.46-.98.93-1.49,1.38-1.41,1.25-2.66,2.62-3.19,4.52-.14.48-.44.92-.64,1.39-.25.57-.78,1.24-.66,1.72.22.83,0,1.6.06,2.38.1,1.22.12,2.45.14,3.67,0,.46-.07.93-.17,1.39-.21.86-.58,1.7-.66,2.57-.21,2.33-.34,4.67-.44,7.01-.12,2.73-.18,5.46-.25,8.18-.05,1.5-.03,2.99-.08,4.49-.06,1.87-.12,3.74-.26,5.6-.19,2.5.4,4.99-.04,7.47-.01.09-.02.17-.02.25.04,2,.08,4,.12,6,0,.21.07.42.08.62.07,1.75.12,3.49.18,5.24.02.5-.02,1.01.03,1.52.18,2.03.4,4.06.58,6.09.04.38-.08.77-.05,1.15.15,1.61.35,3.21.47,4.82.05.67-.09,1.35-.06,2.03.08,1.58.21,3.15.31,4.73.09,1.44.12,2.9.22,4.34.05.67.07,1.38.29,2.01.37,1.03.85,2.03,1.38,2.99.27.5.71.94,1.14,1.33.94.85,1.94,1.65,2.94,2.43,1.46,1.14,2.95,2.07,4.74,2.6,1.02.3,2.02.18,2.98.11.82-.06,1.64-.62,2.41-1.06,1.29-.72,2.4-1.73,4.04-1.76.69-.01,1.43-.43,1.98-1.06.75-.88.93-.85,1.85-.3.94-.45,1.86-.86,2.75-1.32,1.39-.73,2.77-1.47,4.14-2.25,1.21-.69,2.39-1.42,3.58-2.15,1.09-.67,2.08-1.58,3.25-1.97,1.52-.51,2.83-1.38,4.11-2.21,1.67-1.08,3.77-1.58,4.95-3.39.04-.06.15-.09.23-.11,1.48-.32,2.72-1.07,3.96-1.91,1.32-.9,2.81-1.54,4.2-2.32.89-.49,1.8-.98,2.61-1.58,1.48-1.07,2.98-2.08,4.66-2.81.57-.25,1.12-.64,1.55-1.09.88-.91,1.96-1.43,3.11-1.91,1.01-.42,2.15-.84,2.86-1.61.85-.94,1.88-1.46,2.89-2.1.64-.41,1.17-1,1.8-1.42.86-.61,1.74-1.17,2.65-1.7.62-.36,1.3-.59,1.94-.91.79-.39,1.57-.81,2.36-1.22.34-1.33,1.32-1.96,2.52-2.41.5-.19.96-.52,1.43-.79.22-.13.45-.25.63-.43,1.03-1.04,1.95-2.19,2.8-3.38.34-.48.7-1.03.81-1.59.3-1.61.95-3.11,1.04-4.82.13-2.52-.42-4.73-1.83-6.75-.48-.69-1.19-1.23-1.68-1.92-1.11-1.59-2.82-2.6-3.97-4.16-.09-.13-.28-.19-.43-.28-1.75-1.11-3.52-2.15-5.46-2.97-1.78-.75-3.42-1.85-5.1-2.83-1.03-.59-1.96-1.42-3.06-1.82-1.73-.63-3.23-1.68-4.82-2.54-2.06-1.11-3.97-2.47-5.97-3.7-.71-.44-1.47-.81-2.22-1.19-.98-.5-1.96-.97-2.93-1.48-.56-.29-1.1-.61-1.67-.91-.45-.23-.95-.39-1.38-.65-1.71-1.02-3.39-2.09-5.1-3.11-1.63-.98-3.28-1.96-4.95-2.88-.55-.3-1.18-.45-1.78-.64-.52-.18-1.14-.19-1.55-.49-1.08-.8-2.06-1.73-3.12-2.58-.42-.34-.91-.59-1.4-.84-.53-.27-1.12-.42-1.62-.73-1.15-.71-2.24-1.52-3.4-2.22-.63-.39-1.36-.61-2.37-1.06-.05-.09-.16-.52-.43-.73-1.22-.92-2.4-1.95-3.77-2.58-1.68-.79-3.54-1.09-5.43-1.05-1.44.04-2.89-.04-4.34-.05"/>
        <path class="cls-2" d="m368.08,325.15c1.05-.59,1.7-.61,2.38-.04-.52.2-1.05.37-1.58.54-1.49.46-3,.8-4.52,1.08,1.28-.41,2.53-.9,3.72-1.58"/>
        <path class="cls-2" d="m258.84,324.92c.25,1.02-1.32.53-1.05,1.52,1.36.06,2.75.2,4.14.16,1.23-.04,2.45-.43,3.68-.37,1.53.07,3.02.06,4.57-.14,2.49-.34,5.02-.36,7.53-.02.74.1,1.46.43,2.19.48,1.27.08,2.55.08,3.82.02,1.52-.07,3.04-.25,4.57-.33,1.65-.09,3.32-.18,4.98-.15,1.23.02,2.45.18,3.67.34,1.48.19,2.95.55,4.43.61,1.96.09,3.92-.06,5.88-.1.55-.01,1.11-.08,1.66-.03,1.09.1,2.17.32,3.26.36,1.74.07,3.48.05,5.21.07.97,0,1.93-.02,2.89.02.81.04,1.61.14,2.42.21,1.57.14,3.13.3,4.7.38.97.06,1.95.04,2.92-.02,1.27-.09,2.54-.27,3.81-.37,2.07-.16,4.15.07,6.23-.28,1.74-.3,3.54-.32,5.3-.41,1.57-.07,3.16-.24,4.71-.06,1.59.19,3.14.76,4.78.5.08-.01.17.01.26.02,1.58.15,3.17.32,4.75.43-.86.31-1.62.6-1.87.66-2.38.59-4.85,1.03-7.33,1.34-.28-.03-.55-.06-.81-.11-1.12-.19-2.24-.17-3.29.06-.36-.01-.71-.04-1.08-.05-.3-.01-.59.04-.89.06-2.54.16-5.04.66-7.57.92-1.35.14-2.72.07-4.08.08-1.66.01-3.33-.11-4.98.03-1.77.15-3.48-.11-5.22-.32-.42-.05-.86-.22-1.26-.16-2.51.38-5.02-.28-7.52-.05-.09,0-.18-.04-.25,0-1.86.62-3.7-.07-5.55-.08-1.23,0-2.46.1-3.7.14-.29,0-.59,0-.87-.03-3.11-.3-6.2-.8-9.36-.71-2.53.07-5.08-.08-7.62-.11-1.7-.02-3.39.06-5.08.01-1.1-.03-2.18-.31-3.28-.33-2.12-.05-4.23,0-6.35,0-1.32,0-2.64-.01-3.96-.05-.78-.03-1.51.05-2.22.43-.34.18-.79.18-1.19.17-.64-.03-1.27-.13-1.9-.21-.96-.12-1.84,0-2.46.84-4.13-1.06-8.23-.71-12.35-.44-1.96.13-3.92.09-5.89.15-1.91.05-3.82.21-5.73.18-2.22-.05-4.45-.41-6.67-.38-2.45.04-4.88-.37-7.35-.28-1.72.06-3.47-.09-5.2.05-.5.05-.99.26-1.48.32-1.42.17-2.85.3-4.26.47-.44.05-.89.24-1.33.27-2.21.13-4.43.19-6.64.34-.92.06-1.85.25-2.76.44-1.16.25-2.28.53-3.48.03-.59-.25-1.32-.15-1.99-.13-.49.01-.98.13-1.46.2-1.14.15-2.27.18-3.41.19-4-.3-8-.59-11.99-.57v-1.78c.26,0,.52-.01.79-.02,2.64-.1,5.27-.29,7.91-.42,2.34-.12,4.68-.23,7.03-.28.98-.02,1.96.12,2.93.14.89.01,1.83.14,2.66-.08,2.34-.62,4.72-.74,7.1-.85,1.7-.09,3.39-.11,5.03-.62.24-.08.5-.11.75-.12,2.04-.11,4.08-.23,6.12-.3,2.29-.1,4.58-.21,6.87-.21,2.05,0,4.08.16,6.13.2,2.24.04,4.49.11,6.72,0,1.87-.09,3.7.32,5.57.09,1.55-.19,3.13-.06,4.71-.07.13,0,.27.04.38,0,1.76-.48,3.55-.23,5.32-.32.57-.03,1.07-.01,1.43-.61.19-.32.64-.58,1.02-.68.62-.17,1.28-.17,1.95-.25"/>
        <path class="cls-2" d="m178.42,329.35v1.77c-1.18,0-2.38.05-3.57.12-3.84.23-7.67.71-11.49,1.17-2.31-.07-4.62.07-6.93.14-1.34.04-2.69.29-4.03.36-1.17.07-2.38.14-3.53-.03-1.52-.22-2.97.05-4.45.18-.47.04-.94.08-1.41.12-2.29-.14-4.59-.28-6.9-.38-2.8-.13-5.6-.17-8.41-.15v-1.5c.43-.77.55-.81,1.41-.53.22.07.47.04.7.09.39.08.78.18,1.06.25.38-.19.72-.52,1.02-.48,1.21.14,2.33-.15,3.43-.59.71-.28,1.17-.1,1.68.61.04.05.14.08.23.13.23-.2.48-.41.57-.48,1.03.13,1.91.44,2.69.28,1-.22,1.98-.11,2.96-.2.89-.08,1.64-.41,2.18-1,.21.21.4.6.63.62,1.37.09,2.75.14,4.13.13.96,0,1.9-.18,2.85-.21,1.52-.06,3.04-.07,4.56-.09.72,0,1.45.02,2.17.03,1.74.04,3.52.29,5.22.05,2.56-.37,5.11-.18,7.65-.31,1.86-.09,3.72-.04,5.58-.08"/>
        <path class="cls-2" d="m114.44,330.24s.14.06.28.12c-.1.29-.19.58-.32.98h2.73c.15-.39.28-.73.43-1.12.27.09.53.09.65.21.43.44.97.39,1.51.5,1.04.21,2.01.21,2.96-.28.14-.06.34-.05.5-.03,1.5.17,2.99.36,4.52.53v1.5c-7.04.05-14.11.47-21.16.92-1.35-.04-2.71-.12-4.06.23-.07.02-.14.03-.21.04h0c-.22.02-.44.02-.66.04-.39-.01-.78-.06-1.17-.1-1.68-.13-3.35.07-5.02.2-.67.05-1.35-.1-2.04-.12-1.65-.07-3.31-.17-4.95-.14-1.23.03-2.44.3-3.66.38-.66.05-1.33-.07-2-.07-.62,0-1.24.02-1.86.05-1.59-.04-3.19-.07-4.79-.07-1.2,0-2.39.05-3.58.15-4.16-.23-8.28-.66-12.5-.43-4.55.25-9.07.84-13.62.91-2.03-.2-4.06-.44-6.01-.65-1.04-.11-2.11-.21-3.18-.32.85-.81,1.95-.68,3.08-.57,1.01.11,2.03.15,3.04.12,1.18-.04,2.36-.31,3.54-.26,1.66.07,3.3.26,4.95-.05.59-.11,1.19-.34,1.76-.28,3,.3,5.99-.21,8.98.04.25.02.51-.04.76-.06,2.16-.21,4.32-.46,6.48-.62,2.04-.15,4.09-.19,6.12-.29,1.7-.09,3.4-.16,5.11-.27,2.33-.16,4.65-.4,6.98-.53,2.08-.12,4.17-.16,6.26-.19,1.02-.02,2.04.09,3.06.11,1.7.04,3.4.06,5.1.07,1.6,0,3.21-.02,4.82,0,1.55,0,3.13.44,4.66-.02.83-.24,1.83.21,2.49-.64"/>
      </g>
    </g>
  </g>
</svg>