<?xml version="1.0" encoding="UTF-8"?>
<svg id="Layer_2" data-name="Layer 2" xmlns="http://www.w3.org/2000/svg" viewBox="0 0 144.34 158">
  <defs>
    <style>
      .cls-1 {
        fill: #fad547;
        stroke-width: 0px;
      }
    </style>
  </defs>
  <g id="Layer_2-2" data-name="Layer 2">
    <path class="cls-1" d="m42.82,107.94c.32-1.62.25-3.23.25-4.85s.08-3.17.1-4.76c0-.65-.09-1.31-.08-1.96,0-1.36.02-2.73.1-4.09.1-1.59.32-3.17.4-4.76.06-1.16-.06-2.33-.07-3.5,0-1.62,0-3.24,0-4.86v-1.97c-.03-1.08.04-2.17-.15-3.22-.26-1.44-.13-2.89-.27-4.33-.15-1.48,0-3.01.11-4.5.04-.53.22-1.05.02-1.58-.1-.27-.32-.52-.32-.78,0-.33.21-.65.25-.98.04-.39,0-.79-.02-1.18-.02-.62-.09-1.24-.06-1.85.04-.67.18-1.33.25-2,.02-.22.03-.49-.08-.67-.28-.45-.23-.93-.21-1.41.05-1.19.09-2.39.15-3.58.06-1.04.27-2.1.18-3.12-.1-1.14-.02-2.26.06-3.38.09-1.2,0-2.38,0-3.57,0-2.37.2-4.73.87-7,.6-2.02,1.4-3.97,2.48-5.79.42-.7.98-1.32,1.48-1.98.29-.39.6-.76.85-1.17.48-.79,1.2-1.36,1.86-1.98,1.44-1.37,2.91-2.7,4.52-3.86.41-.29.9-.48,1.37-.69.44-.2.92-.33,1.08-.88.02-.07.11-.14.18-.17,1.41-.58,2.84-1.1,4.32-1.5,1.2-.32,2.35-.82,3.52-1.25.13-.05.24-.2.37-.2,1.19,0,2.11-.79,3.2-1.1,1.83-.51,3.62-1.16,5.41-1.8,1.32-.48,2.6-1.08,3.93-1.54,1.58-.54,3.19-.98,4.78-1.47,1.06-.33,2.1-.7,3.17-1.01.87-.25,1.76-.42,2.64-.65.73-.19,1.45-.44,2.19-.6.83-.18,1.62-.64,2.42-.72.85-.09,1.51-.59,2.33-.7.8-.11,1.56-.49,2.37-.63,1.35-.24,2.53-.91,3.8-1.33,1.26-.42,2.54-.76,3.8-1.15.67-.21,1.32-.44,2.05-.45.49,0,1-.2,1.45-.4.94-.42,1.94-.57,2.94-.79,1.13-.25,2.26-.3,3.36-.15,2.18.3,4.35.13,6.52.09.11,0,.23-.05.34-.02.58.15,1.15.1,1.75.08,1.15-.05,2.3.14,3.46.2,1.51.08,2.88.77,4.34,1.05.08.02.17.05.24.09,1.12.72,2.24,1.44,3.35,2.18.27.19.49.47.7.73.98,1.23,1.83,2.52,2.33,4.03.45,1.34.96,2.66,1.5,3.97.73,1.77,1.05,3.63,1.37,5.5.24,1.37.55,2.73.85,4.09.34,1.51.29,3.05.35,4.58.09,2.29.23,4.58.3,6.88.07,1.93.05,3.87.12,5.81.07,1.87-.1,3.75.26,5.6.02.11.03.23.03.34,0,1.51-.03,3.02,0,4.52.02,1.11.11,2.22.15,3.33.03.8.02,1.6.05,2.39.04,1.25.15,2.5.15,3.75s-.06,2.51-.22,3.74c-.19,1.51-.05,3.01-.08,4.52,0,.62,0,1.24-.02,1.86,0,.11-.05.24-.02.34.38,1.14.02,2.31.12,3.45.02.25.06.51.1.76,0,.03.02.06.02.08-.08,1.06-.1,2.12-.25,3.17-.11.72-.09,1.46-.12,2.19,0,.16.08.35.02.49-.4,1.04-.14,2.08-.02,3.12.04.33,0,.66,0,.99-.03.48-.07.96-.12,1.44-.04.39-.09.79-.16,1.17-.06.36-.19.72-.23,1.08-.1.9-.2,1.8-.24,2.7-.04.74,0,1.47,0,2.21,0,1.85-.04,3.7-.52,5.5-.4,1.5-.42,3.02-.5,4.54-.04.76-.25,1.51-.36,2.27-.23,1.6-.45,3.21-.68,4.81-.03.19-.08.39-.15.57-.25.63-.5,1.22-.49,1.95,0,.67-.34,1.35-.54,2.03-.06.19-.15.37-.18.57-.06.51-.25.96-.46,1.44-.28.63-.33,1.37-.49,2.06-.24,1.02-.47,2.05-.74,3.06-.29,1.07-.61,2.12-.93,3.18-.09.29-.21.58-.34.85-.47,1-.9,2.03-1.46,2.97-.83,1.4-1.45,2.95-2.6,4.15-.1.1-.23.17-.33.26-.75.69-1.49,1.39-2.24,2.07-.41.37-.81.78-1.28,1.05-.67.39-1.23.88-1.77,1.41-.27.27-.69.37-1.01.61-1.07.79-2.11,1.62-3.18,2.4-.28.21-.58.5-1,.32-.98.48-2.16.36-3.06,1.08-.13.1-.3.17-.46.21-1.82.41-3.6.98-5.48,1.08-.96.05-1.93.31-2.87.2-1.11-.13-2.24.05-3.35-.31-.65-.21-1.4-.07-2.11-.09-.06,0-.11.03-.17.02-1.15-.16-2.33-.2-3.43-.53-.9-.27-1.82-.58-2.63-1.14-.41-.28-.96-.34-1.41-.57-1.24-.62-2.48-1.25-3.47-2.27-.35-.35-.85-.55-1.25-.86-1.79-1.41-3.24-3.14-4.71-4.86-.26-.3-.49-.63-.79-.89-.85-.73-1.24-1.76-1.68-2.73-.4-.89-.54-1.89-.8-2.84-.2-.71-.32-1.45-.63-2.11-.4-.86-.55-1.77-.76-2.67-.03-.14-.03-.3-.1-.41-.53-.87-.38-1.88-.59-2.81-.1-.47-.16-.94-.23-1.42-.1-.67-.19-1.34-.27-2.01-.01-.13.09-.26.13-.4.08-.3.18-.6.2-.9.05-.76.08-1.52.09-2.28.01-.45-.05-.9,0-1.34.11-1.09.61-2.05,1.03-3.04.38-.88.73-1.78,1.1-2.66.08-.18.19-.34.29-.52,1.35-2.55,3.02-4.88,4.91-7.04,1.51-1.73,3.13-3.38,4.77-4.99.57-.56,1.37-.89,2.07-1.31,1-.59,2.04-1.12,3.01-1.76,1.72-1.15,3.56-2,5.57-2.49.44-.11.89-.17,1.33-.25.08-.02.17-.04.24-.08.51-.35,1.01-.71,1.52-1.07.05-.03.1-.1.14-.09.86.14,1.65-.51,2.53-.25.18.05.41-.09.69-.16.12.84.99.57,1.46.95.03.03.12.01.16,0,.91-.38,1.47.17,2.03.75.11.11.27.18.43.23,1.25.39,2.49.78,3.75,1.15,1.44.43,2.9.79,4.32,1.27,1.69.57,3.42,1.07,4.81,2.26.08-.07.14-.11.14-.14-.21-1.85.11-3.69.07-5.53-.03-1.31-.08-2.61-.11-3.92-.02-.67,0-1.35,0-2.02-.03-1.56-.11-3.12-.08-4.68.05-2.79-.27-5.58-.06-8.37.07-.87-.14-1.76-.13-2.64.02-2.16.14-4.31.11-6.47-.02-1.22-.3-2.43-.38-3.65-.07-1.09-.36-2.12-.61-3.16-.38-1.63-.86-3.22-1.9-4.57-.43-.56-1.09-.69-1.73-.76-.72-.08-1.46-.05-2.18-.12-.95-.09-1.77.23-2.63.56-1.56.6-3.16,1.1-4.74,1.66-1.15.41-2.33.75-3.42,1.29-1.11.56-2.29.79-3.45,1.13-1.73.52-3.45,1.02-5.19,1.52-.59.17-1.2.28-1.8.42-.19.05-.4.09-.57.18-1.23.65-2.63.8-3.89,1.37-1.24.56-2.53,1.02-3.8,1.49-1.12.41-2.27.75-3.38,1.17-1.3.49-2.59,1.02-3.98,1.21-.19.03-.37.13-.56.2-.61.23-1.18.49-1.86.56-.69.07-1.35.4-2.03.6-1.05.31-2.11.6-3.16.91-1.06.31-2.12.65-3.19.92-.77.19-1.57.26-2.34.45-.91.22-1.79.52-2.69.78-.67.2-1.36.38-2.02.62-.9.33-1.79.68-2.66,1.08-1.15.54-2.27,1.14-3.41,1.7-1.23.61-1.91,1.65-2.37,2.89-.57,1.54-.82,3.11-.78,4.77.04,1.7-.12,3.41-.17,5.11-.04,1.67-.19,3.35.02,5.02.04.33-.02.68,0,1.01.07,2.5.19,5,.2,7.5,0,1.82-.16,3.63-.2,5.45-.03,1.51.04,3.02.03,4.53,0,1.02-.08,2.05-.12,3.07-.05,1.37-.07,2.73-.15,4.1-.08,1.27-.24,2.54-.35,3.81-.02.28.04.57.04.85-.03,1.36-.06,2.73-.12,4.09-.07,1.48-.17,2.95-.27,4.42-.05.76-.13,1.52-.16,2.28,0,.42.07.84.1,1.26,0,.11.03.24,0,.33-.55,1-.53,2.13-.33,3.14.18.88-.15,1.57-.27,2.35-.03.22-.05.45-.07.67-.1,1.47-.13,2.95-.33,4.41-.12.92-.54,1.79-.76,2.7-.36,1.47-.85,2.88-1.62,4.19-.17.29-.36.58-.53.87-.63,1.04-1.25,2.1-1.9,3.13-.95,1.52-1.94,3.01-3.23,4.27-.99.97-1.94,2-3,2.9-.64.54-1.43.92-2.2,1.27-1.46.68-2.95,1.32-4.45,1.9-.63.24-1.32.33-1.99.45-1.03.19-2.07.34-3.11.51-.2.03-.39.07-.59.08-.85.04-1.7.05-2.55.12-1.37.12-2.7.07-4.04-.28-.7-.18-1.46-.1-2.2-.16-.93-.08-1.88-.1-2.79-.28-1.51-.3-3.02-.64-4.22-1.72-.1-.09-.25-.14-.38-.17-1.05-.25-2.02-.68-2.87-1.36-.04-.04-.09-.07-.14-.1-1.69-.83-3.09-2.09-4.66-3.09-.63-.4-1.11-.93-1.54-1.54-.52-.73-1.16-1.38-1.75-2.07-.14-.17-.3-.33-.4-.52-.43-.75-.86-1.5-1.26-2.26-.17-.32-.27-.67-.4-1-.04-.11-.04-.24-.11-.32-.81-.88-.85-2.02-1.08-3.09-.29-1.36-.6-2.71-.86-4.08-.16-.84-.23-1.69-.34-2.54-.08-.56-.19-1.13-.24-1.69-.04-.53-.03-1.07-.03-1.6,0-2.43.14-4.83.81-7.19.52-1.84,1.1-3.64,2.01-5.34.67-1.25,1.15-2.61,1.88-3.82.43-.72.92-1.45,1.6-2.04.61-.53,1.34-.96,1.86-1.53,1.36-1.47,3.01-2.48,4.72-3.43,1.72-.96,3.51-1.76,5.44-2.19.82-.18,1.68-.2,2.53-.29.17-.02.34-.02.5-.05.52-.07,1.02-.27,1.59-.08.31.11.72-.07,1.09-.13,1.29-.19,2.56-.33,3.89-.21,1.83.16,3.65.33,5.48.55.56.07,1.12.22,1.65.4,2.02.72,4.04,1.45,6.05,2.22.6.23,1.14.59,1.77.93l-.05.07Z"/>
  </g>
</svg>