<?xml version="1.0" encoding="UTF-8"?>
<svg id="Layer_2" data-name="Layer 2" xmlns="http://www.w3.org/2000/svg" viewBox="0 0 111.04 116.72">
  <defs>
    <style>
      .cls-1 {
        fill: #fad547;
        stroke-width: 0px;
      }
    </style>
  </defs>
  <g id="Layer_1-2" data-name="Layer 1">
    <path class="cls-1" d="m70.72,48.04c-.23-.49-.19-.16-.12-1.08.33-1.8,1.01-1.65,2.52-3.43,2.89-3.41,4.98-5.68,8.49-8.58h0c2.88-2.73,3.54-3.35,4.84-5.11.81-1.1,1.78-2.12,2.77-3.06.46-.44,2.59-3.03,3.04-3.46,1.59-1.5,1.7-1.99,3-3.66,2.54-3.1,3.88-4.41,5.44-7.83.19-.44.33-2.04.4-2.42.16-.87.11-1.18-.25-1.99-.19-.44-.45-.67-.75-.98-.89-.91-3.4-1.54-4.75-1.04-2.89,1.1-4.89,2.1-7.05,4.25-2,1.98-1.58,1.59-3.48,3.66-1.31,1.43-3.84,4.22-5.34,5.55-.77.63-1.78,1.53-3.23,3.11-1.64,1.89-3.26,3.18-5.18,5.1-1.04,1.08-1.66,1.71-2.47,2.66-1.24,1.46-2.62,2.58-3.99,4.2-1.38,1.57-2.58,3.03-4.3,4.13-.41.3-.65.31-1.35.51-1.67.06-1.63-.5-1.84-1.04-.43-1.12.54-1.84,1.09-2.8.36-.61,2.64-3.47,3.04-3.93,1.6-1.85,1.97-1.98,3.66-3.97,0,0,1.75-1.69,1.75-1.69,1.24-1.16,1.69-1.83,2.79-3.13,1.01-1.2,1.78-1.92,2.7-3.04,1.66-2.04,1.85-1.93,3.61-3.87,1.17-1.29,2.92-2.77,4.03-4.1,1.07-1.29,2.58-2.85,3.42-4.37.6-1.09.5-2.06.34-3.33-.27-2.2-2.27-3.66-4.45-3.26-.71.13-1.42.3-2.13.39-1.44.19-2.41,1.21-3.54,1.94-1.45.94-2.75,2.03-4.16,3.12-.7.54-.14.1-1.88,1.8-1.53,1.12-2.79,2.5-4.08,3.92-.82.9-1.65,1.8-2.51,2.65-1.4,1.39-3.02,2.54-4.44,3.91-2.42,2.31-4.48,4.98-7.18,7.02-1.67,1.26-2.72,3.15-4.29,4.55-1.24,1.11-2.33,2.38-3.56,3.5-.72.65-1.55,1.19-2.38,1.7-1.74,1.06-3.18.11-4.65-.73-.66-.37-.97-.89-1.02-1.58-.16-2.28-.4-4.55-.13-6.86.24-2.09.04-4.24.35-6.32.68-4.63.91-9.23-.04-13.84-.17-.81-.38-1.77-1-2.17-2.06-1.3-4.27-2.27-6.75-1.01-.46.24-1.02.15-1.44.58-1.54,1.58-2.99,3.21-4.21,5.06-.64.97-.95,2.1-1.11,3.26-.18,1.31-.86,2.5-.93,3.85-.13,2.43-.73,6.31-1.45,8.63-.88,2.81-1.35,5.7-2.06,8.54-.3,1.18-.78,2.31-1.39,3.36-.9,1.56-1.92,3.07-2.8,4.63-.8,1.4-1.74,2.69-2.61,4.03-.84,1.28-.8,3.07-2.32,3.95-.06.03-.11.1-.12.17-.45,1.94-1.86,3.4-2.46,5.31-1.01,3.23-2.68,6.26-2.26,9.86-1.04,3.47-.26,6.9.24,10.28.42,2.88,1.32,5.67,2.95,8.18.36.56.92.96,1.19,1.54.8,1.71,1.86,3.25,2.95,4.77,1.49,2.06,2.46,4.5,4.64,6.09,1.27.93,2.23,2.25,3.42,3.3,2.91,2.55,6.58,3.74,9.97,5.44,1.95.98,4.01,1.74,6.14,2.24,1.62.38,3.26.75,4.95.71.97-.02,1.95-.19,2.92-.2,3.37-.04,6.58-.77,9.69-2.01,1.6-.64,2.99-1.65,4.69-2.19,3.94-1.27,7.54-3.34,10.93-5.75,1.1-.78,2.18-1.6,3.34-2.28,1.46-.85,2.98-1.58,4.28-2.74.72-.64,1.28-1.45,2.05-2,2.78-1.99,4.82-4.77,7.46-6.9,1.44-1.16,2.51-2.71,3.79-4.04,2.29-2.38,5.28-3.96,7.28-6.67.89-1.21,2.21-2.1,3.28-3.19,1.29-1.31,2.41-2.77,3.79-3.99,1.86-1.64,3.2-3.85,4.95-5.59,1.06-1.05,2.01-2.02,2.86-3.39,1.22-2.18,2.22-3.61,2.67-5.67.17-.8.09-1.62-.25-2.36-.2-.43-.4-.65-1.08-1.14-.61-.44-1.36-.66-2.11-.63l-.54.02c-3.55.13-6.11,2.08-8.64,4.42-1.08.99-1.91,2.2-3.07,3.09-3.05,2.35-5.03,4.46-8.3,7.55-1.49,1.26-2.52,2.56-3.65,3.74-1.06,1.11-1.66,1.93-3.01,2.26-.84.21-1.81.14-2.27-.41-.33-.59-.58-.86-.03-1.9.72-1.36.86-1.44,1.22-1.97.61-.88,1.05-1.53,1.91-2.22,1.45-1.16,2.73-2.81,4.03-4.06,1.94-1.86,3.59-3.84,5.3-5.85.17-.2.35-.38.55-.54,1.73-1.48,3.04-3.19,4.68-4.75,2.04-2.52,4.24-4.73,6.2-7.32.56-.74,1.22-1.7,1.75-2.45,1.13-1.59,2.51-2.97,3.59-4.61,1.46-2.23,2.82-4.43,2.72-7.27-.03-.81-.31-1.31-.8-1.82-1.58-1.64-3.62-1.66-5.34-.78-1.64.84-3.34,1.79-4.7,3.14-1,.98-1.97,2.01-3.01,2.92-1.35,1.18-2.53,2.5-3.84,3.7-1.86,1.71-3.4,3.73-5.31,5.35-2.05,1.73-3.52,3.98-5.52,5.74-.49.43-1.05.76-1.53,1.23-1.11,1.08-1.88,2.45-3.31,3.29-1.17.68-2.19,1.67-3.16,2.7-.72.23-.4.21-1.05.24-.76.03-.43.07-1.05-.06-.06-.01-.28-.11-.59-.43Z"/>
    <path class="cls-1" d="m74.14,116.7c-.39.15-.81-.45-1.39-.32-.2.05-.75-1.16-.65-1.44.27-.79.55-1.48,1.39-2,1-.61,2.01-.86,3.11-.98.42-.05.83-.2,1.19-.42.66-.41,1.39-.61,2.1-.87.49-.18.95-.4,1.28-.78.48-.53,1.07-.92,1.6-1.38.64-.56,1.2-1.18,1.7-1.87.76-1.03,1.43-2.09,1.96-3.25.32-.69.57-1.41.93-2.09.39-.72,1.64-.98,2.28-.67,1.09.53.94.74.86,2.27-.06,1.02-.44,1.93-.71,2.88-.25.89-.7,1.71-1.3,2.42-.77.92-1.48,1.89-2.32,2.74-.63.64-1.45,1.02-2.12,1.61-1.54,1.36-3.33,2.38-5.09,3.43-.94.56-2.02.75-3.13.71-.51-.02-1.01,0-1.7,0Z"/>
    <path class="cls-1" d="m68.4,108.71c-.42.16-.84-.55-1.48-.52-.12,0-.31-.6-.39-.95-.23-1.05.3-2.24,1.3-2.73.82-.4,1.69-.66,2.52-1.01.91-.38,1.72-.92,2.41-1.64.06-.07.14-.12.23-.16,1.36-.57,2.01-1.84,2.85-2.92.66-.85,1.09-1.87,1.76-2.72.27-.35.7-.46,1.06-.52,1.33-.24,2.49,1.11,2.2,2.43-.21.95-.84,1.66-1.29,2.48-.58,1.06-1.33,2.02-2.14,2.9-1.02,1.1-2.21,2.04-3.46,2.89-.85.58-1.74,1.09-2.59,1.66-.8.53-1.75.79-2.99.81Z"/>
  </g>
</svg>