<?xml version="1.0" encoding="UTF-8"?>
<svg id="Layer_1" data-name="Layer 1" xmlns="http://www.w3.org/2000/svg" xmlns:xlink="http://www.w3.org/1999/xlink" viewBox="0 0 511.77 216.8">
  <defs>
    <style>
      .cls-1 {
        fill: #fad547;
      }

      .cls-1, .cls-2 {
        stroke-width: 0px;
      }

      .cls-2 {
        fill: none;
      }

      .cls-3 {
        clip-path: url(#clippath);
      }
    </style>
    <clipPath id="clippath">
      <rect class="cls-2" x="0" width="511.77" height="216.8"/>
    </clipPath>
  </defs>
  <g class="cls-3">
    <path class="cls-1" d="m336.93,162.33c-3.92,5.55-6.54,12.14-14.05,14.45-6.68,2.06-13.42,1.6-20.17,1.48-2.85-.06-2.28-2.66-2.3-4.48-.06-3.66.05-7.32.07-10.97.02-3.44,0-6.89,0-10.33-.02-5.81-.59-11.69.16-17.41.71-5.41-4.3-9.35-2.82-14.74.75-2.74-1.65-7.34,1.39-8.13,4.25-1.11,9.41-3.33,13.64.16,3.25,2.69,8.21,3.29,11.15,6.38.21.07.39.18.52.35,1.57,1.85,3.06,3.78,4.51,5.73,8.46,4.03,12.6,13.61,9.38,22.23-.3.79-1.02,1.59-.24,2.27,5.75,4.96,1.66,8.88-1.25,13.01m-68.3-28.89c1.03,3.79.96,7.42-.63,11.59-1.75,4.58-2.67,10.31.44,15.22.78,1.22.76,2.36.86,3.62q1.03,12.83-11.03,15.4c-15.81,3.38-16.96,3.01-17.39-12.88-.44-16.32-2.85-32.49-2.9-48.82-.02-5.81,1.48-8.35,7.35-8.02,3.01.16,6.03.02,9.05.02v-.12h1.94c12.54-.1,17.3,6.89,12.38,18.96-.87,2.12-.59,3.12-.07,5.02m-66.64,43.45c-.28,3.72-1.71,5.53-5.63,6.45-8.91,2.07-17.58-.07-26.33-.67-3.47-.24-6.04-1.98-5.99-6.19.11-8.81.04-17.62.04-26.44h.71c-.52-9.83-.81-19.66-1.65-29.45-.44-5.07.4-7.68,6.33-7.36,8.18.43,16.4.33,24.6.09,3.83-.11,5.72.96,5.41,4.98-1.15,14.67.59,29.27,1.16,43.9.2,4.91,1.73,9.7,1.35,14.7m-69.28-51.5c-1.22,15.85-.11,31.74-.78,47.59-.32,7.6-3.13,9.23-11.1,8.26-6.44-.8-12.62-1.62-18.59-4.65-9.23-4.67-13.77-12.59-17.03-21.68-1.03-2.89-2.78-5.33-2.75-8.84.13-14.16,8.97-23.2,22.25-26.12,5.15-1.14,9.96-4.04,14.92-2.76,2.13,0,3.65.06,5.15-.02,5.78-.26,8.33,2.9,7.92,8.21m378.14-5.05c1.32-11.32.97-22.82.41-33.95-.6-11.78-1.95-23.67-2.61-35.53-.49-8.94,1.01-18.15-4.64-26.22-.75-1.07-.54-2.9-.58-4.4-.13-5.18-2.93-8.56-7.67-9.83-5.21-1.39-10.32-2.19-14.48,3.34-5.17,6.86-10.31,14.15-17.85,18.53l-40.56,23.14c-11.47,3.9-22.53,8.88-34.6,11.16-14.2,2.68-28.04,7.68-42.32,9.51-14.02,1.8-27.92,5.13-42.19,4.86-2.1-.04-5.19,1.48-6.04-.13-1.21-2.24-1.48-5.52.31-8.01,1.37-1.9,2.66-4.41,1.07-5.82-3.49-3.13-1.43-6.84-1.89-10.2-.26-1.91.13-2.79.91-2.99-.19-1.26-.24-2.55-.16-3.82-.8-.75-1.42-1.49-1.56-2.49-.8-5.86-4.6-6.9-9.35-7.23-3.98-.27-5.98-2.77-5.4-6.43.62-3.95-4.08-9.36,3.31-11.73,4.59-1.47,9.62-2.3,13.14-6.33,2.23-2.56,2.69-4.31-.39-6.64-11.22-8.5-23.73-7.21-36.33-5-3.87.68-4.47,3.54-3.31,6.93,1.96,5.73,6.06,9.89,11.79,10.69,7.77,1.09,4.67,7.35,6.49,11.2,1.96,4.16-2.27,5.75-4.3,6.4-8.37,2.67-8.31,9.46-8.41,15.94-.07,4.65.85,9.36,1.72,13.97.92,4.87-.11,9.91-2.1,13.65-1.38,2.58-7.02,1.1-10.79,1.08-2.8,0-5.63-.07-8.38.36-6.77,1.07-8.84-2.08-9.51-8.42-.98-9.45-.65-18.9-1.12-28.34-.27-5.37-1.35-10.13-8.23-10.72-2.05-.17-4.07-1.35-5.99-2.29-4.58-2.23-2.03-6.41-2.48-9.76-.22-1.62.25-3.13,2.41-2.82,3.19.46,5.76-1.53,8.59-2.05,3.38-.62,6.33-1.61,6.13-5.11-.22-3.96-1.44-9.04-5.27-10.25-9.09-2.86-18.76-2.67-28.26-2.89-1.62-.03-3.44.51-4.87,1.31-4,2.28-7.88,5.31-8.32,10.01-.42,4.43,2.71,7.01,7.22,8.35,3.03.89,6,1.15,8.91.83,5.85-.65,6.2,3.1,6.32,7.13.11,3.94-2.98,5.55-5.87,6.73-5.13,2.09-3.01,8.73-7.45,11.07,3.55,9.29-3,19.17,1.73,28.49.99,1.97.67,5.38-1.8,6.26-6.08,2.17-13.03,3.54-18.65.76-2.73-1.35-5.14-2.45-7.77-2.1-6.44.86-7.72-1.89-7.6-7.8.21-10.48.9-21.12-1.41-31.41-.85-3.79-1.33-10.22-8.02-8.99-5.99,1.1-5.17-2.83-5.36-6.04-.21-3.47-.44-7.14,4.98-6.88,5.08.25,9.83-1.22,13.89-4.23,4.96-3.67,4.72-6.61.78-11.6-2.18-2.76-4.45-3.48-7.64-3.44-8.41.08-16.84.05-25.25-.13-2.47-.06-4.76.48-6.82,1.54-4.04,2.07-6.69,5.38-6.36,10.1.31,4.25,3.09,5.75,7.25,6.5,2.68.48,5.36,1.22,8.14,1.45,4.13.34,5.59,3.12,4.94,6.69-.67,3.71-.67,8.5-6.86,7.66-1.36-.19-2.44.99-2.9,2.23-1.91,5.22-4.12,10.5-2.78,16.16,1.92,8.13.62,16.32,1.12,24.46.3,4.63-1.64,6.18-6,6.05-8.82-.24-17.64-.63-26.45-.98-21.09-.84-42.2-2.34-63.33-1.6-3.08.11-4.77-.16-5.72-4.07-1.14-4.67-5.22-8.59-9.85-9.73-4.93-1.22-8.88,2.18-11.77,6.26-.12.17-.21.38-.32.57-.34.58-.66,1.04-.99,1.44-.23.6-.43,1.21-.74,1.79-.72,1.37-1.41,2.76-2.08,4.15-.58,1.62-1.07,3.24-1.32,4.97-.11.71-.34,1.4-.62,2.07-.19.97-.42,1.92-.7,2.84-.07,2.96,0,5.76,0,7.84,0,7.83,2.39,12.33,6.28,17.86,1.04.92,2.12,1.83,3.28,2.71,1.21-.07,2.63.22,4.4,1.11,1.54.77,4.3.9,5.65.02,5.95-3.87,11.3-6.69,19.34-4.78,3.18.75,8.91-.96,13.51-1.44,1.76-.18,3.71-.2,4.31,1.88.51,1.72-.3,3.21-1.57,4.63-2.38,2.62-5.62,4.4-6.97,8.05-4.39,11.79-5.05,24.11-3.56,36.24,1.18,9.56,3.46,19.15,11.11,26.65,4.61,4.53,9.03,8.93,14.38,12.76,9.89,7.09,21.12,10.19,32.55,11.25,8.37.78,17,2.96,25.82-.27,5.35-1.96,11.73-.98,17.58-1.82,5.27-.76,10.07,1.89,15.59.75,8.08-1.66,16.62,0,24.77-.81,5.87-.59,11.41,1.97,16.99.53,5.95-1.53,11.93-1.5,17.97-1.62,20.2-.43,40.38.13,60.6-1.06,19.78-1.16,39.7-1.14,59.05-5.65,8-1.86,15.95-4.74,20.14-14.02,2.5-5.54,4.17-11.44,7-16.94,4.02-7.86,8.86-15.68,8.41-25.42-.21-4.45-.52-8.99-.34-13.49.03-.59.07-1.17.11-1.75-.05-.96.19-1.91.24-2.87.04-.85.07-1.71.1-2.56.07-1.85.11-3.56-.48-5.34-.27-.82-.66-1.6-.91-2.42-.21-.73-.17-1.58-.47-2.28-.03-.07-.04-.15-.07-.22-.4-.56-.57-1.37-.67-2.17-.27-2.39,1.69-2.85,3.27-3.17.02,0,.05,0,.07,0,.25-.1.52-.13.78-.07.38,0,.74.04,1.08.15.07,0,.12,0,.21.02.48.02.95.08,1.43.08.5,0,.98-.09,1.48-.05.59.05,1.17.23,1.77.29.34.02.92-.07,1.35-.03.65.05,1.17.28,1.75.56-.05-.02-.03-.02,0,0,.12.02.26.03.36.08,1.31.07,3.06.93,4.95,1.89,1.87.95,4.06,1.3,6.11,1.89,10.96,3.12,20.24,9.96,30.62,14.07,14.86,5.89,29.24,12.08,41.02,23.17.89.83,2.3,1.07,3.35,1.76,4.78,3.11,11.59,4.66,13.2,10.48,1.18,4.25,4.11,5.4,6.52,5.36,3.9-.07,9.88,2.47,11.42-3.34,2.99-11.27,6.93-22.32,6.12-34.53-.3-4.56-.74-9.51-.19-14.18"/>
  </g>
</svg>