<?xml version="1.0" encoding="UTF-8"?>
<svg id="Layer_2" data-name="Layer 2" xmlns="http://www.w3.org/2000/svg" xmlns:xlink="http://www.w3.org/1999/xlink" viewBox="0 0 60.29 59.54">
  <defs>
    <style>
      .cls-1 {
        fill: none;
      }

      .cls-1, .cls-2 {
        stroke-width: 0px;
      }

      .cls-2 {
        fill: #ee3f87;
      }

      .cls-3 {
        clip-path: url(#clippath);
      }
    </style>
    <clipPath id="clippath">
      <rect class="cls-1" width="60.29" height="59.54"/>
    </clipPath>
  </defs>
  <g id="Layer_1-2" data-name="Layer 1">
    <g class="cls-3">
      <path class="cls-2" d="m48.99,27.99c-.8.2-1.52.07-2.25-.12-1.61-.42-3.25-.45-4.91-.26-.58.07-1.18.03-1.77-.04-.41-.04-.69-.23-.81-.72-.45-1.91-.24-3.78.29-5.64.25-.86.79-1.33,1.75-1.4.76-.05,1.52-.21,2.29-.05,1.56.31,3.07-.25,4.61-.25.45,0,.55-.45.7-.8.37-.84.47-1.77.35-2.68-.12-.94-.13-1.89-.23-2.83-.14-1.33-.28-1.44-1.64-1.81-3.09-.85-6.25-.92-9.41-.68-2.42.19-4.66,1.43-6.01,3.43-2.21,3.27-2.67,6.63-2.66,10.19,0,2.44,0,2.54-2.32,2.83-.46.06-.93.06-1.39,0-1.96-.2-2.17.13-2.21,2.66-.02,1.23.02,2.45.14,3.67.08.79.13,1.58.47,2.34.24.54.53.84,1.17.79.89-.08,1.76.13,2.62.28,1.18.21,1.63.68,1.66,1.81.1,4.03.42,8.05.25,12.09-.09,2.05-.43,4.1.24,6.18.46,1.45-.58,2.23-2.27,2.47-.53.07-1.1,0-1.64.01-4.98.15-9.98.09-14.88-.67-1.15-.18-2.53-.72-3.43-1.37-2.98-2.18-4.85-4.93-5.89-8.39-.57-1.28.02-.92-.93-3.43-.3-.56-.28-1.68-.29-2.29C.44,36.44-.15,29.56.04,22.67c.08-2.97.22-5.93.31-8.9.04-1.15.53-2.19.9-3.23.94-2.64,2.77-4.58,4.99-6.34C12.71.66,12.71.52,17.19.6c3.07.05,6.37-.14,9.44-.23,2.77-.08,5.44-.29,8.22-.36,2.24-.06,4.45.36,6.69.46,2.46.11,4.92.45,7.37.76,2.34.3,4.38,1.31,6.03,2.88,4.05,3.85,5.35,8.68,5.36,13.96,0,3.92-.53,7.83-.27,11.74.32,4.76.08,9.52.2,14.28.05,2.08-.39,4.15-1.27,6.15-1.77,4.03-5.04,6.53-8.97,8.41-1.04.49-2.26.62-3.45.62-1.71,0-3.42.15-5.12-.16-1.35-.25-1.6-.42-1.69-1.72-.12-1.68-.22-3.36-.2-5.04.06-4.09.23-8.17-.17-12.26-.17-1.77.7-2.47,2.63-2.34,1.06.07,2.09.36,3.16.3,2.36-.14,1.3-.14,3.07-5.62.26-.8.4-1.64.39-2.48,0-.61.53-1.04.36-1.96"/>
    </g>
  </g>
</svg>