<?xml version="1.0" encoding="UTF-8"?>
<svg id="Layer_2" data-name="Layer 2" xmlns="http://www.w3.org/2000/svg" xmlns:xlink="http://www.w3.org/1999/xlink" viewBox="0 0 49.98 49.54">
  <defs>
    <style>
      .cls-1 {
        fill: none;
      }

      .cls-1, .cls-2 {
        stroke-width: 0px;
      }

      .cls-2 {
        fill: #ee3f87;
      }

      .cls-3 {
        clip-path: url(#clippath);
      }
    </style>
    <clipPath id="clippath">
      <rect class="cls-1" width="49.98" height="49.54"/>
    </clipPath>
  </defs>
  <g id="Layer_1-2" data-name="Layer 1">
    <g class="cls-3">
      <path class="cls-2" d="m34.64,49.44c-2.86.09-5.34-.55-7.73-1.58-.99-.43-1.94-.95-2.84-1.57-3.09-2.12-6.21-4.2-9.26-6.38-2.13-1.52-4.18-3.17-6.11-4.94-1.32-1.21-2.62-2.44-3.7-3.9-1.31-1.77-2.07-3.81-3.03-5.76C.37,22.07.36,18.5.05,15c-.04-.45.06-.91,0-1.36-.2-1.27.34-2.27,1.04-3.24,1.91-2.66,4.43-4.6,7.38-5.96,1.11-.51,2.34-.41,3.46-.03,2.05.7,4,1.62,5.55,3.24.87.91,1.88,1.68,2.69,2.65,1.07,1.29,1.72,2.75,1.92,4.41.14,1.12-.26,2.05-1.14,2.76-.84.68-1.71,1.34-2.54,2.04-1.42,1.2-1.26,1.8-.59,3.25,1.4,3.02,4.13,4.72,6.47,6.82,1.42,1.27,2.96,2.38,4.55,3.42,1.16.76,1.15.82,2.05-.2,1.22-1.38,2.78-2.12,4.53-2.54.59-.14,1.1.03,1.67.29,2.58,1.21,4.6,3.18,6.78,4.93,1.22.98,2.27,2.18,2.97,3.65.65,1.36.45,2.95-.58,4.02-1.15,1.2-2.28,2.42-3.42,3.63-.19.19-.39.4-.62.51-2.48,1.16-4.88,2.64-7.58,2.14"/>
      <path class="cls-2" d="m30.53,0c.69.04,1.27.17,1.75.54,3.16,2.48,6.52,4.71,9.38,7.55,2.35,2.33,4.58,4.74,5.93,7.85.83,1.91,1.6,3.83,2.24,5.81.3.93.1,1.39-.63,1.62-.65.21-1.38-.21-1.72-.88-1.5-2.88-2.6-5.98-4.54-8.61-1.97-2.66-4.18-5.09-7.02-6.91-2.06-1.31-3.92-2.91-6.06-4.1-.08-.04-.14-.11-.22-.17-.73-.58-1.14-1.35-.89-1.81C29.16.17,29.91.11,30.53,0"/>
      <path class="cls-2" d="m27.51,8.25c.58.1,1.08.27,1.56.55,1.27.74,2.33,1.74,3.29,2.82,1.77,1.99,3.76,3.78,5.4,5.91,1.03,1.33,1.9,2.76,2.75,4.19.44.74.43,1.65.63,2.48.08.33-.12.64-.46.74-.67.21-1.36.33-1.89-.27-.57-.64-1.21-1.22-1.55-2.04-.53-1.3-1.19-2.54-1.92-3.73-1.23-2.03-2.88-3.71-4.7-5.22-.94-.78-1.9-1.53-2.99-2.11-.43-.23-.8-.59-1.15-.94-.44-.43-.69-.93-.38-1.58.3-.63.85-.76,1.41-.82"/>
    </g>
  </g>
</svg>