<?xml version="1.0" encoding="UTF-8"?>
<svg id="Layer_2" data-name="Layer 2" xmlns="http://www.w3.org/2000/svg" viewBox="0 0 179.42 174.24">
  <defs>
    <style>
      .cls-1 {
        fill: #ee3f87;
        stroke-width: 0px;
      }
    </style>
  </defs>
  <g id="Layer_1-2" data-name="Layer 1">
    <path class="cls-1" d="m47.76.02C74.79-.06,79.8.11,106.33.02c.93,0,20.44,0,21.37,0,39.35.3,51.12,23.24,51.12,57.88,0,22.56,2.36,54.88-2.25,85.65-1.91,12.76-22.47,30.39-36.99,30.49-23.74.16-35.79.17-57.4.19-.97,0-3.4.02-4.37,0-26.02-.44-59.72,3.73-71.83-26.38C-3.57,124.13,1.35,97.18.72,71.9-.07,40.05,1.84,6.27,38.16.52c2.28-.36,4.83-.49,9.61-.5Zm9,148.85c20.79,2.23,38.58,1.78,59.38,1.61,17.45-.14,31.96-11.6,34.3-31.18.13-1.12.34-2.23.46-3.33.22-1.98.17-3.97.15-5.96-.21-19.09,1.44-45.36-1.93-63.03-2.88-15.12-16.91-25.16-32.4-25.74-11.76-.44-18.94-.49-30.18-.32-1.5.02-4.62,0-7.81-.09-18.52-.48-35.71,1.25-44.78,15.65-3.6,5.72-6.77,12.36-6.89,19.12-.14,8.17-13.02,85.34,23.59,92.23"/>
    <path class="cls-1" d="m48.65,135.81c-14.22-8.67-13.66-29.27-13.93-44.6-.3-16.99-2-36.25,10.23-49.47,11.59-12.53,27.76-11.97,44.96-11.37,13.84.48,30.54.08,40.11,5.64,16.63,9.66,12.24,44.83,12.34,66.43.11,24.83-4.35,38.4-36.14,38.62-17.15.12-48.27-.31-57.57-5.25m72.45-50.39c.9-52.23-75.2-38.89-65.87,6.91,8.15,40.03,67.51,34.54,65.87-6.91Zm4.72-39.62c-9.74,1.76-3.66,14.4,2.98,11.74,2.32-.93,3.86-3.23,3.84-5.73-.03-3.59-2.94-6.81-6.82-6Z"/>
    <path class="cls-1" d="m111.39,83.7c.09.95-.11,1.92-.14,2.87-1.15,34.95-54.63,25.79-43.21-9.5,5.76-17.8,40.75-19.75,43.35,6.62Z"/>
  </g>
</svg>