<?xml version="1.0" encoding="UTF-8"?>
<svg id="Layer_2" data-name="Layer 2" xmlns="http://www.w3.org/2000/svg" xmlns:xlink="http://www.w3.org/1999/xlink" viewBox="0 0 61.83 38.04">
  <defs>
    <style>
      .cls-1 {
        fill: none;
      }

      .cls-1, .cls-2 {
        stroke-width: 0px;
      }

      .cls-2 {
        fill: #ee3f87;
      }

      .cls-3 {
        clip-path: url(#clippath);
      }
    </style>
    <clipPath id="clippath">
      <rect class="cls-1" width="61.83" height="38.04"/>
    </clipPath>
  </defs>
  <g id="Layer_1-2" data-name="Layer 1">
    <g class="cls-3">
      <path class="cls-2" d="m33.19,20.91c-.12-.34-1.26.57-2.12.71-1.55.21-3.37-.04-4.59-.91C19.22,14.54,12.41,8.08,4.83,2.22,2.06-1.28,11.09.52,13.04.1c5.88,0,11.96.13,18.31.12,8.82-.02,17.61-.38,26.41-.14,3.45.9-7.6,6.87-8.43,8.41-5.62,4.86-9.47,8.56-16.15,12.42"/>
      <path class="cls-2" d="m56.55,36.75c-2.99.64-5.58.24-8.26.64-6.29.24-12.61.61-18.82.61-2.66,0-5.31.14-8.12-.08-2.44-.02-5.1-.03-7.59-.1-2.7-.07-5.44-.38-7.39-.34-6.71.14,1.01-4.31,2.84-6.18,2.2-1.31,10.42-10.23,12.52-8.79,3.51,3.11,8.8,5.28,13.34,2.14,1.67-.95,3.72-3.45,5.79-1.68,4.94,4.8,17.35,13.2,15.69,13.78"/>
      <path class="cls-2" d="m61.57,6.62c-.39,6.14.11,12.27-.29,18.41-.07,3,.03,6,.52,8.98.11.66-.17.86-.93.72-5.99-4.45-11.24-9.77-17.18-14.35-.49-.53-2.25-.52-1.29-1.41,3.39-2.83,6.72-5.71,10.02-8.62,2.29-1.18,9.79-10.54,9.16-3.74"/>
      <path class="cls-2" d="m2.18,3.12c21.89,21.3,19.8,10.52-.99,31.28-2.37,1.13-.42-13.22-.78-15.01.79-3.2-.85-15.32,1.77-16.28"/>
    </g>
  </g>
</svg>