<?xml version="1.0" encoding="UTF-8"?>
<svg id="Layer_2" data-name="Layer 2" xmlns="http://www.w3.org/2000/svg" xmlns:xlink="http://www.w3.org/1999/xlink" viewBox="0 0 60.29 60.6">
  <defs>
    <style>
      .cls-1 {
        fill: none;
      }

      .cls-1, .cls-2 {
        stroke-width: 0px;
      }

      .cls-2 {
        fill: #ee3f87;
      }

      .cls-3 {
        clip-path: url(#clippath);
      }
    </style>
    <clipPath id="clippath">
      <rect class="cls-1" width="60.29" height="60.6"/>
    </clipPath>
  </defs>
  <g id="Layer_1-2" data-name="Layer 1">
    <g class="cls-3">
      <path class="cls-2" d="m40.25,25.08c2.74-1.46,7.5,6.03,7.6.77,1.43-5.32-5.54-4.6-5.88-9.75-.53-2.86-2.18-2.24-4.47-2.41q-2.42-.23-2.49,2.15c.42,7.51-.52,15.02-.72,22.53-.85,7.55-14.3,4.95-10.91-2.7.48-2.99,4.25-1.79,4.38-3.92-.35-4.77,1.61-7.4-4.66-4.81-16.88,7.93.32,31.61,14.06,19.18,5.5-5.51,1.36-14.25,3.08-21.04m8.31,34.89c-9.92.42-18.04.81-28.6.52C3.7,60.06-.58,50,.06,35.9,1.62,24.82-3.1,8.95,8.68,2.44,12.52.89,15.63.04,21,.07c6.12.04,11.91-.18,18.04,0,17.56.5,20.78,9.47,20.79,23.32,0,4.06,3.62,31.78-9.75,36.28"/>
    </g>
  </g>
</svg>