<?xml version="1.0" encoding="UTF-8" standalone="no"?>
<!-- Created with Inkscape (http://www.inkscape.org/) -->

<svg
   version="1.1"
   id="svg1"
   width="176.74306"
   height="128.15027"
   viewBox="0 0 176.74305 128.15027"
   sodipodi:docname="ikonca_tmp.jpg"
   xml:space="preserve"
   inkscape:export-filename="YT.png"
   inkscape:export-xdpi="40"
   inkscape:export-ydpi="40"
   xmlns:inkscape="http://www.inkscape.org/namespaces/inkscape"
   xmlns:sodipodi="http://sodipodi.sourceforge.net/DTD/sodipodi-0.dtd"
   xmlns="http://www.w3.org/2000/svg"
   xmlns:svg="http://www.w3.org/2000/svg"><defs
     id="defs1"><style
       id="style1">&#10;      .cls-1 {&#10;        fill: none;&#10;      }&#10;&#10;      .cls-1, .cls-2 {&#10;        stroke-width: 0px;&#10;      }&#10;&#10;      .cls-2 {&#10;        fill: #ee3f87;&#10;      }&#10;&#10;      .cls-3 {&#10;        clip-path: url(#clippath);&#10;      }&#10;    </style></defs><sodipodi:namedview
     id="namedview1"
     pagecolor="#ffffff"
     bordercolor="#000000"
     borderopacity="0.25"
     inkscape:showpageshadow="2"
     inkscape:pageopacity="0.0"
     inkscape:pagecheckerboard="0"
     inkscape:deskcolor="#d1d1d1" /><g
     inkscape:groupmode="layer"
     inkscape:label="Image"
     id="g1"
     transform="translate(-500.71084,-263.27815)"><path
       style="fill:#000000;stroke-width:0.0832513"
       d="m 589.85342,391.35012 c -0.20001,-0.10442 -0.32641,-0.11194 -0.68369,-0.0407 -0.43957,0.0876 -0.77818,0.0296 -0.89079,-0.15259 -0.0345,-0.0559 -0.32297,-0.0774 -0.77816,-0.0579 -0.3978,0.017 -0.79821,0.004 -0.88979,-0.0289 -0.0916,-0.0328 -0.39128,-0.007 -0.66601,0.0574 -0.30874,0.0724 -0.61079,0.0931 -0.79089,0.0543 -0.16026,-0.0346 -0.32884,-0.067 -0.37463,-0.072 -0.0458,-0.005 -0.27057,-0.0399 -0.49951,-0.0776 -0.70281,-0.11574 -0.80911,-0.12689 -1.55712,-0.16326 -0.39853,-0.0194 -0.75443,-0.0534 -0.79089,-0.0757 -0.2266,-0.13822 -5.68488,-0.33017 -5.68546,-0.19993 -6.3e-4,0.10356 -1.23612,-0.0901 -1.91509,-0.30021 -0.37757,-0.11683 -0.57888,-0.10161 -0.67854,0.0513 -0.0298,0.0457 -0.184,0.091 -0.3427,0.10061 -0.1587,0.01 -0.33679,0.0473 -0.39578,0.0838 -0.0683,0.0422 -0.0868,0.0332 -0.0509,-0.0249 0.0523,-0.0845 -0.22052,-0.0765 -0.71746,0.0212 -0.0801,0.0157 -0.14569,0 -0.14569,-0.0358 0,-0.0354 -0.15922,-0.0448 -0.35381,-0.0208 -0.4923,0.0607 -0.76962,0.0592 -2.10211,-0.0109 -0.64104,-0.0337 -1.24045,-0.0603 -1.33202,-0.059 -0.0916,10e-4 -0.59733,-0.0365 -1.12389,-0.084 -0.52657,-0.0475 -1.23837,-0.0985 -1.58179,-0.11354 -0.34341,-0.015 -0.69931,-0.0478 -0.79089,-0.0729 -0.0916,-0.0251 -0.29047,-0.0485 -0.44197,-0.0519 -0.18318,-0.004 -0.25592,-0.0381 -0.21709,-0.10085 0.0422,-0.0682 -0.0482,-0.0785 -0.32492,-0.037 -0.22643,0.034 -0.45072,0.0214 -0.54798,-0.0306 -0.0906,-0.0485 -0.5509,-0.1082 -1.023,-0.13275 -0.47209,-0.0246 -0.97073,-0.0786 -1.1081,-0.12013 -0.40197,-0.12152 -0.76032,-0.15486 -0.87865,-0.0817 -0.0639,0.0395 -0.17607,0.0217 -0.26754,-0.0423 -0.0866,-0.0607 -0.26691,-0.0931 -0.40063,-0.072 -0.13983,0.022 -0.24309,6.3e-4 -0.24309,-0.0499 0,-0.0485 -0.14808,-0.0883 -0.32908,-0.0883 -0.18101,0 -0.4234,-0.043 -0.53867,-0.0955 -0.16176,-0.0737 -0.23865,-0.0714 -0.33693,0.0102 -0.0881,0.0731 -0.15939,0.0795 -0.23141,0.0207 -0.12496,-0.10206 -0.74666,-0.0593 -0.98388,0.0676 -0.24116,0.12905 -0.72612,0.11724 -1.14226,-0.0278 -0.24809,-0.0865 -0.55596,-0.11252 -1.00891,-0.0853 -0.38185,0.0229 -0.80294,-0.003 -1.0166,-0.0618 -0.2006,-0.0555 -0.7196,-0.11133 -1.15331,-0.12407 -0.43371,-0.0128 -0.80078,-0.0598 -0.81569,-0.10453 -0.0149,-0.0448 -0.0966,-0.0632 -0.18153,-0.041 -0.0849,0.0222 -0.37345,-0.009 -0.6412,-0.07 -0.47655,-0.10802 -1.03466,-0.15233 -1.93501,-0.15366 -0.24706,0 -0.49614,-0.0396 -0.55354,-0.0872 -0.0574,-0.0477 -0.39131,-0.0987 -0.74207,-0.11352 -0.53985,-0.0228 -0.65689,-0.0543 -0.7626,-0.20522 -0.10657,-0.15214 -0.15164,-0.16389 -0.30728,-0.0801 -0.24186,0.13026 -1.28777,0.10351 -2.3832,-0.061 -1.41035,-0.21174 -1.52274,-0.22412 -1.98727,-0.21898 -0.30202,0.003 -0.45569,-0.0314 -0.48578,-0.10979 -0.0312,-0.0812 -0.0978,-0.0942 -0.22859,-0.0445 -0.19091,0.0726 -1.55681,-0.14397 -1.97899,-0.31376 -0.12173,-0.049 -0.4365,-0.0727 -0.6995,-0.0526 -0.26299,0.02 -0.51929,0.003 -0.56956,-0.0393 -0.0503,-0.0416 -0.38899,-0.0981 -0.75271,-0.12554 -0.36373,-0.0275 -0.74641,-0.10566 -0.8504,-0.1738 -0.104,-0.0681 -0.37023,-0.12389 -0.59162,-0.12389 -0.22139,0 -0.44359,-0.041 -0.49378,-0.0912 -0.0502,-0.0502 -0.23563,-0.0909 -0.4121,-0.0904 -0.39343,10e-4 -1.11754,-0.14478 -1.25343,-0.25237 -0.055,-0.0436 -0.17458,-0.0556 -0.26565,-0.0267 -0.13869,0.044 -0.73458,0.0555 -1.65313,0.0317 -0.10302,-0.003 -0.18731,-0.0427 -0.18731,-0.089 0,-0.0516 -0.20933,-0.0708 -0.54114,-0.0497 -0.29762,0.0189 -0.54113,0.004 -0.54113,-0.0319 0,-0.0365 -0.16615,-0.0664 -0.36921,-0.0664 -0.20308,0 -0.47468,-0.0415 -0.60358,-0.0923 -0.21676,-0.0853 -1.01877,-0.14587 -1.81614,-0.13707 -0.96861,0.0107 -1.8147,-0.0577 -1.98039,-0.1601 -0.0463,-0.0286 -0.21818,-0.0626 -0.38207,-0.0756 -0.16389,-0.013 -0.31128,-0.0635 -0.32753,-0.1123 -0.0163,-0.0488 -0.0992,-0.0886 -0.18421,-0.0886 -0.0851,0 -0.18083,-0.0423 -0.21282,-0.0941 -0.0393,-0.0635 -0.23887,-0.0773 -0.61345,-0.0425 -0.46393,0.0431 -0.60924,0.0235 -0.88332,-0.11917 -0.19705,-0.10259 -0.56908,-0.19015 -0.93162,-0.21926 -0.42861,-0.0344 -0.60357,-0.0812 -0.60357,-0.16133 0,-0.0716 -0.099,-0.11333 -0.27057,-0.11413 -0.14881,-6.4e-4 -0.32364,-0.0348 -0.3885,-0.0759 -0.0702,-0.0444 -0.20199,-0.0427 -0.32575,0.004 -0.13668,0.0519 -0.23737,0.0495 -0.29416,-0.007 -0.0475,-0.0475 -0.17472,-0.0864 -0.28274,-0.0864 -0.10802,0 -0.17578,-0.0333 -0.15058,-0.0741 0.0252,-0.0408 -0.085,-0.0987 -0.24484,-0.12866 -0.15986,-0.03 -0.29066,-0.0903 -0.29066,-0.13399 0,-0.0437 -0.0821,-0.0795 -0.18241,-0.0795 -0.17879,0 -0.1792,0.003 -0.0208,0.12939 0.14869,0.11907 0.11503,0.12512 -0.42116,0.0757 -0.43075,-0.0397 -0.63337,-0.10057 -0.77678,-0.23346 -0.16952,-0.15709 -0.29378,-0.1804 -0.98419,-0.18458 -0.50236,-0.003 -0.8118,-0.0398 -0.84954,-0.10082 -0.12365,-0.20006 -0.89402,-0.47577 -1.59369,-0.57037 -0.16026,-0.0217 -0.30387,-0.0751 -0.31913,-0.11878 -0.0153,-0.0437 -0.0673,-0.0794 -0.1157,-0.0794 -0.0483,0 -0.12954,-0.0523 -0.18038,-0.1163 -0.0772,-0.0971 -0.65344,-0.22708 -1.42445,-0.32125 -0.10872,-0.0133 -0.19481,-0.11659 -0.24807,-0.29768 -0.0601,-0.20428 -0.19165,-0.34323 -0.49951,-0.52745 -0.22987,-0.13758 -0.52815,-0.39677 -0.66286,-0.576 -0.1347,-0.17922 -0.29205,-0.32586 -0.34968,-0.32586 -0.0576,0 -0.13473,-0.0468 -0.17134,-0.10407 -0.074,-0.11565 -0.30568,-0.27181 -0.58018,-0.39102 -0.0993,-0.0432 -0.21172,-0.13311 -0.24976,-0.19993 -0.0381,-0.0668 -0.16281,-0.13445 -0.27729,-0.1503 -0.14123,-0.0196 -0.21667,-0.089 -0.23472,-0.21614 -0.0171,-0.12038 -0.084,-0.18732 -0.18732,-0.18732 -0.0884,0 -0.16071,-0.0375 -0.16071,-0.0832 0,-0.0458 -0.0727,-0.0833 -0.16159,-0.0833 -0.18901,0 -0.29609,-0.13108 -0.17049,-0.20871 0.086,-0.0531 -0.31226,-0.36762 -0.60978,-0.48156 -0.083,-0.0318 -0.13018,-0.0915 -0.10478,-0.13255 0.0254,-0.0411 -0.0443,-0.13403 -0.15491,-0.2065 -0.1106,-0.0725 -0.2252,-0.20769 -0.25465,-0.30049 -0.0295,-0.0928 -0.10943,-0.16872 -0.17773,-0.16872 -0.0683,0 -0.10151,-0.0367 -0.0738,-0.0815 0.0727,-0.11771 -0.10802,-0.41797 -0.25162,-0.41797 -0.0671,0 -0.12195,-0.0492 -0.12195,-0.10922 0,-0.0601 -0.11239,-0.19232 -0.24975,-0.29388 -0.13737,-0.10156 -0.24976,-0.2332 -0.24976,-0.29252 0,-0.14108 -0.3704,-0.48802 -0.44325,-0.41517 -0.0309,0.0309 -0.0562,-0.006 -0.0562,-0.0825 0,-0.0763 -0.0437,-0.13876 -0.0971,-0.13876 -0.0534,0 -0.0731,-0.024 -0.0438,-0.0533 0.0293,-0.0293 6.3e-4,-0.15108 -0.0632,-0.27057 -0.16551,-0.3086 -0.63703,-1.49479 -0.73167,-1.84067 -0.0439,-0.16026 -0.13368,-0.35216 -0.19963,-0.42645 -0.14594,-0.16441 -0.40688,-0.82946 -0.63297,-1.61321 -0.0925,-0.32052 -0.23842,-0.71946 -0.32434,-0.88656 -0.0859,-0.16708 -0.13409,-0.3615 -0.10703,-0.43201 0.0299,-0.0778 -0.019,-0.17079 -0.12427,-0.23655 -0.0954,-0.0596 -0.17347,-0.16844 -0.17347,-0.24191 0,-0.0735 -0.0763,-0.20257 -0.16944,-0.28691 -0.0932,-0.0843 -0.14965,-0.20491 -0.12547,-0.26793 0.0242,-0.063 -0.009,-0.21767 -0.0745,-0.34364 -0.0651,-0.12598 -0.1754,-0.61143 -0.245,-1.07879 -0.0705,-0.47334 -0.17985,-0.90302 -0.24687,-0.97004 -0.0694,-0.0694 -0.14397,-0.37697 -0.17619,-0.72666 -0.0307,-0.3335 -0.10664,-0.79367 -0.16868,-1.02261 -0.062,-0.22895 -0.0961,-0.55688 -0.0757,-0.72874 0.0213,-0.1797 -0.0135,-0.41024 -0.0819,-0.54259 -0.139,-0.26878 -0.20403,-0.87982 -0.259,-2.43337 -0.0218,-0.61814 -0.0771,-1.40486 -0.12272,-1.74828 -0.0456,-0.34341 -0.0743,-0.8679 -0.0637,-1.16552 0.0106,-0.29762 -0.0347,-0.89703 -0.10072,-1.33202 -0.11478,-0.75639 -0.13326,-1.11465 -0.10522,-2.03967 0.0229,-0.75637 -0.0448,-3.73641 -0.0975,-4.28745 -0.0661,-0.6921 -0.1353,-2.05687 -0.17931,-3.53818 -0.0191,-0.64104 -0.052,-1.55889 -0.0733,-2.03967 -0.0326,-0.73825 -0.0414,-1.40872 -0.0346,-2.66405 5.9e-4,-0.11447 -0.0165,-0.4891 -0.0381,-0.83251 -0.0216,-0.34341 -0.009,-0.70392 0.0278,-0.80113 0.0374,-0.0986 0.0325,-0.21125 -0.011,-0.25478 -0.0936,-0.0936 -0.12039,-1.52717 -0.0854,-4.56357 0.0143,-1.23628 0.003,-2.37891 -0.0258,-2.53917 -0.0284,-0.16025 -0.0519,-0.3663 -0.0522,-0.45788 -2.5e-4,-0.0916 -0.003,-0.97196 -0.005,-1.95641 -0.003,-0.98445 -0.004,-1.88357 -0.005,-1.99804 -3.3e-4,-0.11447 0.002,-0.68528 0.005,-1.26845 0.003,-0.58319 -0.0317,-1.15765 -0.0769,-1.27658 -0.0453,-0.11893 -0.0576,-0.25617 -0.0274,-0.30499 0.0302,-0.0488 0.0632,-0.84176 0.0734,-1.76211 0.0102,-0.92034 0.0463,-1.85165 0.0802,-2.06956 0.0406,-0.26104 0.0291,-0.43536 -0.0336,-0.51098 -0.0675,-0.0813 -0.0719,-0.2208 -0.0153,-0.47794 0.044,-0.19974 0.0625,-0.6816 0.041,-1.0708 -0.0215,-0.38919 -1.6e-4,-0.89495 0.0473,-1.12389 0.0823,-0.39676 0.17215,-2.67531 0.10805,-2.73941 -0.036,-0.036 -0.048,-2.79556 -0.0164,-3.74089 0.0146,-0.43814 -0.0109,-0.67294 -0.0778,-0.71429 -0.0548,-0.0339 -0.0764,-0.12215 -0.048,-0.19616 0.0284,-0.074 -0.0139,-0.70788 -0.094,-1.40861 -0.0801,-0.70074 -0.14519,-1.349 -0.14465,-1.44058 0.005,-0.82883 0.12399,-2.85608 0.18661,-3.17682 0.0433,-0.22165 0.10201,-0.92748 0.13054,-1.56851 0.0285,-0.64104 0.0683,-1.25918 0.0885,-1.37365 0.0201,-0.11447 0.0903,-0.60149 0.15581,-1.08227 0.17699,-1.29825 0.29104,-1.9367 0.37923,-2.12291 0.0676,-0.14266 0.14984,-1.00912 0.16208,-1.70666 0.002,-0.11447 0.0574,-0.4891 0.12318,-0.83252 0.0657,-0.34341 0.14173,-0.93026 0.16886,-1.30411 0.0336,-0.46263 0.11509,-0.82331 0.25518,-1.12931 0.1132,-0.24727 0.24125,-0.67193 0.28456,-0.94368 0.0433,-0.27175 0.14083,-0.71887 0.21672,-0.9936 0.14627,-0.52953 0.26772,-1.1172 0.34407,-1.66503 0.0256,-0.18315 0.0938,-0.3892 0.15174,-0.45788 0.0579,-0.0687 0.15027,-0.26485 0.20519,-0.43591 0.0549,-0.17107 0.13106,-0.33033 0.16922,-0.3539 0.0381,-0.0236 0.0498,-0.11769 0.0259,-0.20915 -0.0239,-0.0915 0.017,-0.25868 0.0911,-0.37162 0.074,-0.11294 0.13455,-0.26073 0.13455,-0.32843 0,-0.0677 0.0833,-0.1814 0.18502,-0.25268 0.1521,-0.10653 0.15951,-0.1296 0.0417,-0.1296 -0.1806,0 -0.18383,-0.20811 -0.0111,-0.7168 0.0727,-0.21428 0.11458,-0.48218 0.093,-0.59533 -0.0483,-0.25261 0.22973,-1.47409 0.40816,-1.7933 0.0717,-0.12829 0.11096,-0.28387 0.0872,-0.34572 -0.0237,-0.0619 0.009,-0.18169 0.0734,-0.26627 0.0641,-0.0846 0.1177,-0.24847 0.11916,-0.36419 0.001,-0.11574 0.057,-0.28801 0.12341,-0.38283 0.0664,-0.0948 0.12866,-0.3373 0.13831,-0.53885 0.01,-0.20153 0.0502,-0.43191 0.0902,-0.51195 0.0399,-0.08 0.0884,-0.56705 0.10765,-1.08227 0.0444,-1.18867 0.16229,-1.87304 0.36079,-2.09453 0.15786,-0.17609 0.51432,-0.87363 0.51432,-1.00639 0,-0.18164 0.37453,-0.87448 0.47272,-0.87448 0.0605,0 0.11004,-0.0696 0.11004,-0.15467 0,-0.22635 0.73769,-1.61633 1.17479,-2.21358 0.13227,-0.18073 0.24049,-0.35926 0.24049,-0.39673 0,-0.18675 0.63304,-0.98249 1.03894,-1.30597 0.25277,-0.20144 0.45959,-0.41177 0.45959,-0.46739 0,-0.49558 1.35128,-1.29657 3.23985,-1.92047 0.58641,-0.19373 1.0505,-0.40184 1.21168,-0.54336 0.14367,-0.12615 0.35824,-0.25371 0.4768,-0.28347 0.11857,-0.0297 0.32489,-0.16099 0.45851,-0.29161 0.27462,-0.2685 1.32059,-0.83012 1.54716,-0.83074 0.082,-2.6e-4 0.2973,-0.0761 0.47856,-0.16854 0.57691,-0.29431 2.25876,-0.81792 3.07574,-0.95757 0.43423,-0.0742 0.82759,-0.16536 0.87414,-0.20253 0.10163,-0.0812 0.87424,-0.25765 1.32166,-0.30188 0.17669,-0.0175 0.43645,-0.0892 0.57725,-0.15947 0.14215,-0.0709 0.88783,-0.19935 1.67678,-0.28879 1.5919,-0.18048 2.13328,-0.27415 2.69802,-0.46682 0.2449,-0.0836 0.50711,-0.11344 0.71158,-0.0811 0.1968,0.0311 0.47435,0.003 0.70764,-0.0724 0.34926,-0.11247 1.44159,-0.22825 3.2144,-0.34071 0.36631,-0.0232 1.00318,-0.0817 1.41528,-0.1299 1.52699,-0.17862 2.08854,-0.21528 2.37266,-0.15486 0.57984,0.12329 3.04852,0.18352 3.24356,0.0791 0.10932,-0.0585 0.7626,-0.11696 1.61284,-0.14433 0.85752,-0.0276 1.47592,-0.0832 1.54618,-0.13902 0.0644,-0.0512 0.23298,-0.0996 0.37463,-0.10758 0.14165,-0.008 0.72583,-0.0394 1.29819,-0.0699 2.06263,-0.10963 3.45243,-0.256 3.7259,-0.39243 0.15113,-0.0754 0.28938,-0.10057 0.31597,-0.0576 0.0536,0.0868 0.37485,0.10154 0.5713,0.0261 0.0722,-0.0277 0.10817,-0.0876 0.08,-0.13319 -0.0297,-0.0481 0.0205,-0.0444 0.11988,0.009 0.21479,0.11496 0.62636,0.1211 0.55665,0.008 -0.0292,-0.0472 0.0408,-0.0832 0.1616,-0.0832 0.11716,0 0.21323,0.0281 0.21347,0.0624 6.3e-4,0.13632 0.68811,0.0994 0.90415,-0.0485 0.3214,-0.22012 0.91627,-0.37617 1.04063,-0.27296 0.0558,0.0463 0.23106,0.07 0.38937,0.0526 0.15831,-0.0174 0.67925,-0.0554 1.15765,-0.0844 0.47839,-0.029 0.90649,-0.0753 0.95131,-0.10304 0.0448,-0.0277 0.72112,-0.0612 1.50286,-0.0744 0.78175,-0.0132 1.58994,-0.0428 1.79598,-0.0658 0.20605,-0.023 0.66574,-0.0714 1.02153,-0.10768 0.35578,-0.0362 0.64293,-0.0992 0.63808,-0.13983 -0.0255,-0.21413 0.35604,-0.27118 0.54563,-0.0816 0.17118,0.17118 1.15046,0.21756 1.08673,0.0514 -0.022,-0.0572 0.0151,-0.10406 0.0823,-0.10406 0.0672,0 0.12227,0.0562 0.12227,0.12488 0,0.0687 0.0397,0.12488 0.0882,0.12488 0.0485,0 0.0664,-0.0352 0.0398,-0.0783 -0.0287,-0.0464 0.0709,-0.059 0.24485,-0.0307 0.18383,0.0299 0.29324,0.0141 0.29324,-0.0423 0,-0.0584 0.10099,-0.0477 0.28872,0.0307 0.32838,0.13721 1.01495,0.15894 1.32286,0.0419 0.11392,-0.0433 0.68767,-0.1036 1.27501,-0.13398 0.58732,-0.0304 1.10416,-0.0771 1.14853,-0.10393 0.0444,-0.0268 0.31559,-0.0444 0.6027,-0.0391 0.28712,0.005 0.54337,-0.0249 0.56944,-0.0671 0.0261,-0.0422 -0.0765,-0.0779 -0.22807,-0.0793 -0.50056,-0.004 -0.0362,-0.1701 0.57976,-0.20663 0.54953,-0.0326 0.81046,0.0286 0.75447,0.17685 -0.0754,0.19972 0.40383,0.11424 0.49621,-0.0885 0.1159,-0.25437 0.68538,-0.3012 0.99821,-0.0821 0.21639,0.15157 0.73623,0.13169 0.70433,-0.0269 -0.0165,-0.082 0.0131,-0.0836 0.13467,-0.008 0.16969,0.10597 0.46808,0.0374 0.38962,-0.0896 -0.0663,-0.10727 0.64081,-0.20466 0.97453,-0.13423 0.54749,0.11555 5.00955,0.0862 4.93621,-0.0324 -0.033,-0.0535 0.0218,-0.0885 0.13723,-0.0877 0.14213,6.3e-4 0.16227,0.0203 0.0773,0.0741 -0.20422,0.12934 0.46379,0.18348 2.15793,0.1749 0.89106,-0.004 1.69503,-0.009 1.78661,-0.009 0.0916,-3.2e-4 0.41001,6.4e-4 0.70763,0.003 0.62523,0.003 0.91577,-0.0473 0.91577,-0.15936 0,-0.0435 -0.0562,-0.0575 -0.12488,-0.0311 -0.0687,0.0264 -0.12488,0.009 -0.12488,-0.0386 0,-0.17261 1.88586,-0.2377 2.05271,-0.0709 0.031,0.031 -0.006,0.0564 -0.0824,0.0564 -0.0763,0 -0.13875,0.0424 -0.13875,0.0943 0,0.0682 0.30499,0.0793 1.10308,0.0399 0.6067,-0.0299 1.18737,-0.0541 1.2904,-0.0536 0.11074,5e-4 0.18731,-0.0499 0.18731,-0.12312 0,-0.13926 0.21215,-0.16888 0.29139,-0.0407 0.0283,0.0458 0.10764,0.0832 0.17632,0.0832 0.0704,0 0.0999,-0.0404 0.0677,-0.0926 -0.0314,-0.0509 -0.006,-0.12526 0.0575,-0.16523 0.16777,-0.10627 0.23961,-0.0914 0.23961,0.0497 0,0.0687 0.0375,0.12488 0.0833,0.12488 0.0458,0 0.0833,-0.0397 0.0833,-0.0882 0,-0.0485 0.0391,-0.064 0.0869,-0.0345 0.0478,0.0295 0.14431,0.006 0.21447,-0.0522 0.10338,-0.0858 0.14025,-0.0854 0.19441,0.003 0.0529,0.0856 0.0741,0.0863 0.10172,0.003 0.028,-0.084 0.0974,-0.0841 0.35077,-4.2e-4 0.58985,0.19467 1.7464,0.11566 1.56186,-0.1067 -0.11844,-0.14271 -0.0421,-0.22329 0.21148,-0.22329 0.13363,0 0.22199,0.0675 0.27672,0.21147 0.0846,0.22245 0.43927,0.16266 0.39334,-0.0663 -0.011,-0.0548 0.0681,-0.11296 0.1758,-0.12929 0.28305,-0.0429 0.5951,0.0526 0.5951,0.18213 0,0.15514 4.39282,0.0722 6.20224,-0.11705 0.0458,-0.005 0.2893,-0.0103 0.54114,-0.0123 0.25183,-0.002 0.60773,-0.007 0.79089,-0.0107 0.18315,-0.004 0.70764,0.004 1.16551,0.0168 1.04829,0.0302 1.86339,0.008 1.72696,-0.0469 -0.18947,-0.0764 -0.016,-0.19444 0.28571,-0.19444 0.24821,0 0.28959,0.0252 0.25551,0.15551 -0.0367,0.14054 0.0104,0.15457 0.48977,0.14569 0.29175,-0.006 0.53046,-0.0379 0.53047,-0.0723 5e-5,-0.14078 0.4963,-0.0575 0.57909,0.0972 0.048,0.0896 0.241,0.19723 0.43999,0.24537 0.19503,0.0471 0.51585,0.13349 0.71293,0.19181 0.29253,0.0866 0.37064,0.0862 0.42526,-0.003 0.0948,-0.15336 1.0764,-0.25829 1.55964,-0.16671 0.22223,0.0421 1.4343,0.093 2.69348,0.1131 1.25918,0.0201 2.7151,0.0571 3.23538,0.0822 0.74853,0.0362 0.9988,0.0193 1.19913,-0.0806 0.32223,-0.16075 0.65469,-0.16819 0.59525,-0.0133 -0.0312,0.0814 0.0671,0.12811 0.35166,0.16711 0.45176,0.0619 0.66561,-0.0549 0.42537,-0.23242 -0.21323,-0.15754 -0.18959,-0.17259 0.29138,-0.18547 0.82503,-0.0221 1.18787,-0.0188 2.01885,0.0185 0.45789,0.0206 1.77761,0.0531 2.93273,0.0723 1.15513,0.0192 2.14212,0.0608 2.19333,0.0924 0.0512,0.0317 0.36113,0.0729 0.68871,0.0916 0.32757,0.0187 0.74545,0.0645 0.9286,0.10173 0.18315,0.0372 0.67018,0.076 1.08227,0.0863 0.41209,0.0102 0.95531,0.0704 1.20715,0.13381 0.25183,0.0634 0.62647,0.11221 0.83251,0.10855 0.20605,-0.004 0.69307,0.0578 1.08227,0.13664 0.83048,0.16819 1.29412,0.24201 2.54843,0.40578 0.50877,0.0664 1.00945,0.16596 1.11264,0.22119 0.10319,0.0552 0.30507,0.0816 0.44863,0.0586 0.42865,-0.0687 2.07855,0.17615 2.80018,0.41551 0.20605,0.0683 0.60564,0.1187 0.88798,0.1119 0.28235,-0.007 0.65698,0.0259 0.83252,0.0726 0.17553,0.0468 0.67506,0.1245 1.11005,0.17279 1.44438,0.16033 1.55808,0.18167 1.37365,0.25788 -0.0982,0.0406 0.0297,0.0488 0.31219,0.0199 0.37595,-0.0384 0.47897,-0.024 0.47997,0.0667 10e-4,0.0946 0.014,0.0955 0.0713,0.005 0.0797,-0.12568 0.94118,-0.10133 2.2168,0.0627 0.4121,0.053 1.03439,0.12703 1.38288,0.16456 0.4753,0.0512 0.6781,0.11272 0.8117,0.24632 0.12188,0.12189 0.28196,0.17809 0.50717,0.17809 0.18101,0 0.41516,0.034 0.52033,0.0754 0.10518,0.0415 0.62206,0.1396 1.14863,0.21806 0.52656,0.0785 1.14097,0.21478 1.36537,0.30294 0.22438,0.0882 0.67859,0.1762 1.00934,0.19564 0.33075,0.0194 0.771,0.0929 0.97831,0.1633 0.20732,0.0704 0.43145,0.10706 0.49807,0.0815 0.0666,-0.0256 0.33013,0.0491 0.58559,0.16598 0.25547,0.11685 0.60813,0.21246 0.78369,0.21246 0.17555,0 0.58069,0.0708 0.90029,0.15744 0.31959,0.0866 0.97477,0.19746 1.45594,0.24637 0.48117,0.0489 1.03846,0.14663 1.23842,0.21718 0.19997,0.0706 0.45145,0.12827 0.55886,0.12827 0.10741,0 0.3983,0.0898 0.64642,0.19951 0.24811,0.10973 0.56502,0.22453 0.70426,0.25511 0.13922,0.0306 0.29725,0.10875 0.35116,0.17371 0.0539,0.065 0.30938,0.18019 0.5677,0.25606 0.48297,0.14185 0.68551,0.2196 1.36006,0.5221 0.21498,0.0964 0.44689,0.17529 0.51534,0.17529 0.0684,0 0.33322,0.10831 0.58836,0.24069 0.25514,0.13237 0.60293,0.26676 0.77286,0.29864 0.16993,0.0319 0.39449,0.14348 0.49901,0.24801 0.10452,0.10452 0.40522,0.25057 0.66821,0.32454 0.26299,0.074 0.73312,0.28368 1.04473,0.46602 0.56093,0.3282 0.66601,0.41216 1.50146,1.19963 0.23623,0.22268 0.57889,0.50365 0.76146,0.62439 0.59742,0.3951 1.01886,0.79751 1.58284,1.51139 0.41871,0.53 0.65041,0.76872 1.24386,1.28161 0.26025,0.2249 0.54682,0.54334 0.63683,0.70763 0.09,0.16429 0.23712,0.4111 0.32691,0.54846 0.0898,0.13737 0.18414,0.30595 0.20969,0.37463 0.14941,0.40163 0.4857,0.99303 0.5867,1.03179 0.0834,0.032 0.11794,0.18977 0.11794,0.53864 0,0.41722 0.0319,0.52365 0.20669,0.68944 0.11368,0.10783 0.20734,0.27201 0.20813,0.36484 6.3e-4,0.0928 0.0604,0.25298 0.13248,0.35588 0.0875,0.12492 0.11295,0.26942 0.0766,0.43485 -0.0398,0.18124 -0.0204,0.26079 0.072,0.29628 0.11994,0.046 0.21576,0.32493 0.26872,0.78212 0.0131,0.11351 0.0637,0.21965 0.1124,0.23588 0.0487,0.0162 0.0885,0.0835 0.0885,0.14951 0,0.066 0.0749,0.3332 0.1665,0.59375 0.0916,0.26056 0.16651,0.55385 0.16651,0.65178 0,0.0979 0.0907,0.27596 0.20167,0.39565 0.26015,0.28071 0.3027,0.42699 0.44022,1.51336 0.0232,0.18316 0.0893,0.38921 0.14699,0.45789 0.0576,0.0687 0.12701,0.45693 0.1541,0.86277 0.0327,0.49002 0.0976,0.81163 0.19324,0.95739 0.092,0.14035 0.15115,0.41697 0.16389,0.76714 0.011,0.3012 0.0831,0.78822 0.16026,1.08227 0.0886,0.33741 0.15244,0.97709 0.17318,1.73406 0.0181,0.6597 0.0648,1.24038 0.10386,1.29041 0.0811,0.10381 0.17103,0.56607 0.22837,1.17323 0.0216,0.22894 0.0788,0.56486 0.1271,0.74649 0.0483,0.18163 0.0878,0.59373 0.0878,0.91577 2e-5,0.32204 0.031,0.73106 0.0688,0.90894 0.0379,0.17788 0.0393,0.40266 0.003,0.49951 -0.0435,0.11681 -0.009,0.30223 0.10208,0.55072 0.0922,0.20605 0.15865,0.46402 0.14768,0.57325 -0.011,0.10924 0.0284,0.22847 0.0874,0.26496 0.059,0.0365 0.10735,0.19999 0.10735,0.36333 0,0.16335 0.0206,0.29699 0.0458,0.29699 0.0252,0 0.0531,0.10303 0.062,0.22895 0.009,0.12591 0.0506,0.43498 0.0927,0.68682 0.042,0.25183 0.12146,0.73886 0.17644,1.08227 0.055,0.34341 0.15376,0.89442 0.21952,1.22445 0.0658,0.33003 0.11955,0.82642 0.11955,1.10308 0,0.27666 0.0281,0.50302 0.0624,0.50302 0.0343,0 0.072,0.21541 0.0836,0.47869 0.0991,2.23792 0.19145,3.37914 0.2825,3.48978 0.10087,0.12255 0.11853,1.39692 0.0396,2.85815 -0.0822,1.52283 -0.038,2.79592 0.15048,4.32908 0.0485,0.39457 0.0545,2.91807 0.007,2.99473 -0.0538,0.0871 -0.0523,1.84172 0.002,2.58312 0.0252,0.34341 0.0462,0.69932 0.0465,0.79089 6.3e-4,0.22584 0.0175,1.31974 0.0281,1.83153 0.005,0.22895 0.0393,0.5528 0.0768,0.71969 0.046,0.20456 0.0342,0.36708 -0.0363,0.49881 -0.0575,0.10746 -0.1165,0.4954 -0.13108,0.86209 -0.0146,0.36669 -0.0441,1.135 -0.0656,1.70735 -0.0215,0.57236 -0.0567,1.37782 -0.0784,1.78991 -0.12415,2.36503 -0.15262,2.99802 -0.17059,3.79408 -0.0109,0.48415 -0.0466,0.92357 -0.0793,0.97648 -0.0327,0.0529 -0.0213,0.16745 0.0252,0.25451 0.12227,0.22847 0.17184,1.26889 0.0799,1.67791 -0.13988,0.62261 -0.16229,1.22683 -0.19469,5.25105 -0.0186,2.30439 -0.0673,4.0981 -0.11659,4.28746 -0.0466,0.17906 -0.10616,0.70019 -0.1324,1.15808 -0.0263,0.45788 -0.0671,1.16968 -0.0907,1.58177 -0.0237,0.4121 -0.062,1.18009 -0.0852,1.70666 -0.0232,0.52657 -0.0755,1.06978 -0.11637,1.20715 -0.14391,0.48412 -0.25903,1.08837 -0.25407,1.33367 0.005,0.2382 -0.13691,1.72753 -0.21372,2.24614 -0.0203,0.13737 -0.0509,0.64312 -0.068,1.1239 -0.017,0.48078 -0.0874,1.13638 -0.15641,1.4569 -0.069,0.32052 -0.18503,0.93866 -0.2579,1.37365 -0.0729,0.43499 -0.21101,1.25918 -0.30699,1.83153 -0.096,0.57236 -0.21295,1.16628 -0.25998,1.31984 -0.047,0.15355 -0.083,0.48968 -0.0799,0.74693 0.004,0.35106 -0.0444,0.55308 -0.19488,0.80983 -0.11027,0.18814 -0.22619,0.54509 -0.25762,0.79322 -0.0314,0.24812 -0.11452,0.51695 -0.18465,0.59738 -0.11731,0.13456 -0.1852,0.43887 -0.18971,0.8504 -0.001,0.0903 -0.0526,0.22138 -0.1146,0.29138 -0.29086,0.32811 -0.47629,1.09802 -0.29191,1.21198 0.048,0.0297 0.0761,0.13488 0.0624,0.23385 -0.0196,0.14197 0.0235,0.1855 0.20412,0.20629 0.19802,0.0228 0.21728,0.0481 0.14276,0.18731 -0.0474,0.0885 -0.0615,0.16098 -0.0314,0.16098 0.0301,0 0.0163,0.0468 -0.0307,0.10406 -0.15786,0.19213 -0.6009,1.04443 -0.6009,1.15599 0,0.11001 -0.28642,0.89922 -0.42604,1.17392 -0.0404,0.0795 -0.0735,0.20701 -0.0735,0.28332 0,0.12673 -0.33326,0.85041 -0.62722,1.36203 -0.0658,0.11447 -0.12014,0.28849 -0.12082,0.3867 -6.3e-4,0.0982 -0.0942,0.26681 -0.20791,0.37463 -0.11368,0.10784 -0.20734,0.27814 -0.20813,0.37847 -6.3e-4,0.10031 -0.0389,0.20555 -0.0847,0.23385 -0.0458,0.0283 -0.0833,0.14069 -0.0833,0.24975 0,0.10907 -0.0375,0.22146 -0.0832,0.24976 -0.0458,0.0283 -0.0833,0.12417 -0.0833,0.21304 0,0.0889 -0.0375,0.16159 -0.0832,0.16159 -0.0458,0 -0.0833,0.0374 -0.0833,0.0831 0,0.12094 -0.58485,0.91596 -0.67382,0.91596 -0.0415,0 -0.0754,0.0548 -0.0754,0.12194 0,0.1315 -1.68075,1.8761 -1.80744,1.8761 -0.0421,0 -0.13903,0.13112 -0.21545,0.29138 -0.0764,0.16026 -0.19243,0.29138 -0.25778,0.29138 -0.0653,0 -0.20726,0.10509 -0.31535,0.23355 -0.10808,0.12845 -0.26127,0.2584 -0.3404,0.28876 -0.0791,0.0304 -0.14389,0.11259 -0.14389,0.18271 0,0.0701 -0.0551,0.12749 -0.12239,0.12749 -0.0673,0 -0.20547,0.11239 -0.30703,0.24976 -0.10156,0.13736 -0.22979,0.24975 -0.28497,0.24975 -0.0552,0 -0.12187,0.0562 -0.14823,0.12488 -0.0264,0.0687 -0.10529,0.12487 -0.17541,0.12487 -0.0701,0 -0.12749,0.0503 -0.12749,0.11177 0,0.0615 -0.13112,0.18239 -0.29138,0.26868 -0.16026,0.0863 -0.29138,0.20861 -0.29138,0.27178 0,0.0679 -0.0511,0.0953 -0.12488,0.0669 -0.0687,-0.0264 -0.12488,-0.0141 -0.12488,0.0271 0,0.0413 -0.0843,0.10072 -0.18731,0.13211 -0.10303,0.0314 -0.24351,0.10268 -0.31219,0.15841 -0.0687,0.0557 -0.25201,0.15172 -0.4074,0.21332 -0.15538,0.0616 -0.37627,0.1989 -0.49085,0.3051 -0.11459,0.10618 -0.27779,0.19307 -0.36268,0.19307 -0.0849,0 -0.15458,0.0468 -0.15487,0.10407 -6.3e-4,0.0888 -0.44528,0.41516 -0.58819,0.4316 -0.0261,0.003 -0.11313,0.071 -0.19326,0.15116 -0.0801,0.0801 -0.18393,0.14569 -0.23068,0.14569 -0.12342,0 -0.48877,0.30236 -0.43288,0.35825 0.0261,0.0261 -0.0637,0.0442 -0.19947,0.0403 -0.30096,-0.009 -0.9017,0.27427 -0.87436,0.41165 0.0114,0.057 -0.0331,0.0792 -0.10406,0.052 -0.0793,-0.0304 -0.12388,0.003 -0.12388,0.0919 0,0.10152 -0.0453,0.12504 -0.1665,0.0865 -0.11816,-0.0375 -0.16651,-0.015 -0.16651,0.0776 0,0.0952 -0.0844,0.13063 -0.31218,0.131 -0.17171,0 -0.41755,0.0555 -0.54631,0.12262 -0.12875,0.0672 -0.36541,0.13095 -0.52591,0.14176 -0.1605,0.0108 -0.32149,0.0727 -0.35777,0.1375 -0.0385,0.0688 -0.20707,0.12155 -0.40488,0.12673 -0.26379,0.007 -0.31949,0.0323 -0.25126,0.11451 0.067,0.0808 0.0363,0.10563 -0.13067,0.10563 -0.12007,0 -0.21832,0.0343 -0.21832,0.0763 0,0.042 -0.16813,0.0763 -0.37363,0.0763 -0.22587,0 -0.42449,0.0508 -0.50219,0.12855 -0.0707,0.0707 -0.25888,0.15299 -0.41817,0.18288 -0.15929,0.0299 -0.30948,0.0865 -0.33374,0.12573 -0.0243,0.0393 -0.22991,0.096 -0.45697,0.12616 -0.22706,0.0301 -0.41284,0.0814 -0.41284,0.11397 0,0.0848 -0.60312,0.27226 -0.7955,0.24731 -0.089,-0.0115 -0.26984,0.0233 -0.40177,0.0774 -0.39206,0.16076 -0.89859,0.24544 -1.3419,0.22433 -0.33216,-0.0159 -0.4638,0.0195 -0.65159,0.17475 -0.19409,0.1605 -0.33154,0.1946 -0.78433,0.1946 -0.33887,0 -0.59932,0.0428 -0.68044,0.11184 -0.17112,0.14563 -1.2836,0.33626 -1.55897,0.26715 -0.15092,-0.0379 -0.24413,-0.0118 -0.31775,0.0889 -0.0705,0.0964 -0.2358,0.14718 -0.51147,0.15703 -0.79542,0.0284 -1.69769,0.14997 -1.69769,0.22874 0,0.044 -0.0616,0.0563 -0.13691,0.0274 -0.0759,-0.0292 -0.20276,0.007 -0.2847,0.0812 -0.14647,0.13256 -0.80863,0.2183 -1.56314,0.20244 -0.24126,-0.005 -0.34269,0.0226 -0.30521,0.0832 0.0372,0.0602 -0.009,0.0744 -0.13817,0.0422 -0.26927,-0.0675 -0.45036,-0.067 -1.02681,0.003 -0.47113,0.0569 -0.86901,0.0598 -1.24877,0.009 -0.0916,-0.0122 -0.22269,0.004 -0.29138,0.036 -0.0687,0.032 -0.36908,0.0797 -0.66757,0.1061 -0.29848,0.0264 -0.65831,0.10564 -0.79962,0.17612 -0.14131,0.0705 -0.42158,0.14372 -0.62283,0.16269 -0.20124,0.019 -0.46007,0.0583 -0.57518,0.0873 -0.1151,0.029 -0.84564,0.0704 -1.62341,0.0921 -0.77776,0.0217 -1.56397,0.0585 -1.74712,0.082 -0.18316,0.0235 -0.61398,0.0496 -0.9574,0.058 -0.34341,0.008 -0.64605,0.0457 -0.67253,0.083 -0.0265,0.0372 -0.43858,0.0914 -0.91577,0.12026 -0.52632,0.0319 -0.90037,0.0928 -0.95086,0.15491 -0.046,0.0565 -0.36157,0.12063 -0.70436,0.14312 -0.36366,0.0239 -0.63444,0.0808 -0.65329,0.13735 -0.0237,0.071 -0.0617,0.0722 -0.14329,0.004 -0.0748,-0.062 -0.20145,-0.0674 -0.38736,-0.0162 -0.15193,0.0418 -0.51051,0.0622 -0.79684,0.0454 -0.39624,-0.0233 -0.57433,0.004 -0.74558,0.11679 -0.12376,0.0811 -0.37651,0.1534 -0.56168,0.16068 -0.56709,0.0223 -1.68301,0.16817 -1.78935,0.23389 -0.0553,0.0342 -0.4441,0.0747 -0.86407,0.0901 -0.69628,0.0255 -1.35043,0.0849 -2.01234,0.1829 -0.13736,0.0203 -0.42897,0.0336 -0.64802,0.0295 -0.25918,-0.005 -0.41301,0.0311 -0.44051,0.1027 -0.0276,0.0719 -0.19287,0.11003 -0.47588,0.10987 -0.2385,0 -0.55435,0.0231 -0.7019,0.0516 -0.14756,0.0285 -0.29025,0.0163 -0.31711,-0.0271 -0.0591,-0.0957 -1.01119,-0.10653 -1.0695,-0.0122 -0.0453,0.0732 -3.12404,0.0522 -3.19802,-0.0218 -0.0251,-0.0251 -0.13223,0.0111 -0.23805,0.0804 -0.1533,0.10045 -0.37837,0.11767 -1.1074,0.0847 -0.51028,-0.023 -1.01018,-0.005 -1.13021,0.0404 -0.14265,0.0542 -0.19791,0.0538 -0.16391,-10e-4 0.0766,-0.12399 -0.7114,-0.10183 -0.95811,0.0269 -0.14488,0.0756 -0.52669,0.10413 -1.24877,0.0933 -0.57205,-0.009 -1.11241,0.022 -1.2008,0.068 -0.0884,0.046 -0.44778,0.093 -0.79864,0.10443 -0.35086,0.0114 -0.72257,0.066 -0.82601,0.1214 -0.10344,0.0554 -0.25917,0.0821 -0.34606,0.0593 -0.0869,-0.0227 -0.158,-0.009 -0.158,0.0304 0,0.1216 -0.52051,0.17317 -0.93847,0.093 -0.29993,-0.0576 -0.48365,-0.0455 -0.74927,0.049 -0.39608,0.14094 -3.85182,0.21107 -4.02944,0.0818 -0.0539,-0.0392 -0.24058,-0.0394 -0.41626,0 -0.1752,0.0389 -0.86176,0.0611 -1.5257,0.0492 -0.66393,-0.0119 -1.77836,-0.0321 -2.47652,-0.0451 -0.69815,-0.0129 -1.26953,-0.005 -1.26972,0.0181 0,0.0229 -0.74018,0.0455 -1.64442,0.0503 -0.90425,0.005 -1.98126,0.0309 -2.39335,0.058 -0.4121,0.0271 -1.08095,0.0687 -1.48634,0.0924 -0.40539,0.0237 -0.782,0.0803 -0.8369,0.12591 -0.0678,0.0562 -0.1786,0.0417 -0.34519,-0.0453 z m -66.13894,-6.01673 c 0,-0.0409 -0.0615,-0.098 -0.13665,-0.12679 -0.11426,-0.0439 -0.11941,-0.0317 -0.0314,0.0744 0.11989,0.14446 0.16808,0.15949 0.16808,0.0524 z m 131.62063,-0.13379 c 0,-0.0229 -0.0187,-0.0416 -0.0416,-0.0416 -0.0229,0 -0.0417,0.0187 -0.0417,0.0416 0,0.0229 0.0188,0.0417 0.0417,0.0417 0.0229,0 0.0416,-0.0188 0.0416,-0.0417 z m -141.52756,-2.45592 c 0,-0.0458 -0.0397,-0.0832 -0.0882,-0.0832 -0.0485,0 -0.065,0.0374 -0.0367,0.0832 0.0283,0.0458 0.068,0.0833 0.0882,0.0833 0.0202,0 0.0367,-0.0375 0.0367,-0.0833 z M 580.159,345.4313 c 0.16026,-0.0605 0.46672,-0.2315 0.68101,-0.38011 0.2143,-0.1486 0.45864,-0.27019 0.54298,-0.27019 0.0843,0 0.28363,-0.1071 0.44289,-0.23798 0.15924,-0.1309 0.38319,-0.26624 0.49766,-0.30079 0.11447,-0.0345 0.4018,-0.18969 0.6385,-0.34477 0.2367,-0.15509 0.48056,-0.28199 0.54191,-0.28199 0.0613,0 0.15836,-0.0749 0.21554,-0.1665 0.0572,-0.0916 0.15527,-0.1665 0.21796,-0.1665 0.0627,0 0.15862,-0.0538 0.21319,-0.11952 0.0545,-0.0658 0.20899,-0.14364 0.34319,-0.17312 0.1342,-0.0295 0.24401,-0.10682 0.24401,-0.17186 0,-0.065 0.0784,-0.11826 0.17418,-0.11826 0.0958,0 0.26943,-0.0749 0.38586,-0.16651 0.11642,-0.0916 0.2543,-0.1665 0.30641,-0.1665 0.0521,0 0.29382,-0.13112 0.53717,-0.29138 0.24334,-0.16025 0.49284,-0.29137 0.55444,-0.29137 0.0616,0 0.13379,-0.0656 0.16042,-0.1457 0.057,-0.17147 0.57684,-0.5601 1.14143,-0.85333 0.72987,-0.37905 1.60929,-0.92865 1.67687,-1.04798 0.0366,-0.0646 0.11976,-0.11753 0.18475,-0.11753 0.1389,0 0.8084,-0.33294 0.88086,-0.43804 0.0713,-0.10341 0.48905,-0.31123 0.62561,-0.31123 0.0634,0 0.11536,-0.0351 0.11536,-0.0781 0,-0.0429 0.42146,-0.29131 0.93659,-0.55194 0.51511,-0.26063 1.12777,-0.60013 1.36145,-0.75445 0.23368,-0.15432 0.48655,-0.28058 0.56194,-0.28058 0.0754,0 0.13708,-0.0317 0.13708,-0.0705 0,-0.0388 0.23414,-0.19324 0.52032,-0.34321 0.28618,-0.14997 0.61863,-0.35238 0.73877,-0.44979 0.25983,-0.21065 0.75942,-0.50318 0.83201,-0.48718 0.0283,0.006 0.18896,-0.11099 0.35703,-0.26052 0.16808,-0.14954 0.63196,-0.41713 1.03083,-0.59467 0.39889,-0.17753 0.82806,-0.40685 0.95373,-0.50959 0.12567,-0.10275 0.31245,-0.21345 0.41505,-0.24602 0.10261,-0.0326 0.31822,-0.16211 0.47915,-0.28788 0.16092,-0.12577 0.48486,-0.29058 0.71987,-0.36624 0.235,-0.0757 0.48976,-0.20661 0.56613,-0.291 0.0764,-0.0844 0.37112,-0.23756 0.65499,-0.34038 0.28388,-0.10282 0.60979,-0.24966 0.72426,-0.32632 0.11447,-0.0767 0.37671,-0.21162 0.58276,-0.29992 0.20605,-0.0883 0.42413,-0.208 0.48464,-0.26606 0.11118,-0.10666 0.22042,-0.1364 0.41032,-0.11175 0.0572,0.007 0.10406,-0.0362 0.10406,-0.0968 0,-0.0607 0.17795,-0.16161 0.39544,-0.22425 0.50633,-0.14582 1.46545,-0.64651 1.79711,-0.93813 0.0885,-0.0779 0.29006,-0.20281 0.44784,-0.27768 0.15777,-0.0749 0.36551,-0.22658 0.46165,-0.33715 0.0961,-0.11056 0.20511,-0.20103 0.24216,-0.20103 0.0371,0 0.28317,-0.1498 0.54694,-0.3329 0.26376,-0.18309 0.54001,-0.33295 0.6139,-0.333 0.0739,-7e-5 0.22374,-0.0888 0.33301,-0.19725 0.10927,-0.10843 0.39535,-0.29638 0.63574,-0.41767 0.24039,-0.12128 0.43707,-0.25401 0.43707,-0.29494 0,-0.041 0.16979,-0.15661 0.37732,-0.25707 0.20752,-0.10047 0.65825,-0.36605 1.00159,-0.59019 0.34335,-0.22414 0.68101,-0.40754 0.75036,-0.40754 0.34261,0 0.64311,-0.53715 0.35216,-0.62949 -0.10043,-0.0319 -0.36229,-0.18425 -0.58191,-0.33862 -0.21961,-0.15436 -0.42777,-0.28134 -0.46258,-0.28217 -0.0348,-6.3e-4 -0.17568,-0.0924 -0.31305,-0.20357 -0.69329,-0.56088 -1.50564,-1.13986 -2.62208,-1.86883 -0.25165,-0.16432 -0.74404,-0.51417 -1.0942,-0.77745 -0.35017,-0.26328 -0.676,-0.47869 -0.72408,-0.47869 -0.0481,0 -0.13636,-0.0656 -0.19619,-0.1457 -0.10082,-0.13503 -1.01198,-0.77007 -1.1049,-0.77007 -0.0227,0 -0.24627,-0.13112 -0.49679,-0.29138 -0.25053,-0.16026 -0.48298,-0.29138 -0.51657,-0.29138 -0.0336,0 -0.13842,-0.0715 -0.23295,-0.15891 -0.0945,-0.0874 -0.41538,-0.28125 -0.713,-0.43079 -0.29762,-0.14954 -0.58514,-0.3332 -0.63892,-0.40814 -0.0538,-0.075 -0.33475,-0.28007 -0.62438,-0.45584 -0.28963,-0.17576 -0.60153,-0.38518 -0.69311,-0.46536 -0.0916,-0.0802 -0.42875,-0.28311 -0.74926,-0.45096 -0.32052,-0.16785 -0.66649,-0.37686 -0.76883,-0.46448 -0.10232,-0.0876 -0.30837,-0.21267 -0.45788,-0.2779 -0.1495,-0.0652 -0.43577,-0.27203 -0.63616,-0.45953 -0.20039,-0.1875 -0.40927,-0.34091 -0.46419,-0.34091 -0.0549,0 -0.18783,-0.0937 -0.29536,-0.20813 -0.10755,-0.11447 -0.2452,-0.20813 -0.3059,-0.20813 -0.0607,0 -0.11036,-0.0532 -0.11036,-0.11827 0,-0.065 -0.10362,-0.14101 -0.23025,-0.16883 -0.12665,-0.0278 -0.34939,-0.16191 -0.495,-0.29799 -0.14561,-0.13608 -0.3073,-0.24742 -0.35931,-0.24742 -0.052,0 -0.25072,-0.12533 -0.44159,-0.27851 -0.19086,-0.15317 -0.40321,-0.30328 -0.47189,-0.33357 -0.37376,-0.16482 -0.75825,-0.44079 -1.87316,-1.34444 -0.3663,-0.2969 -0.85333,-0.63794 -1.08227,-0.75787 -0.22894,-0.11992 -0.54713,-0.31687 -0.70709,-0.43768 -0.29238,-0.2208 -0.82946,-0.52477 -1.46909,-0.83147 -0.18955,-0.0909 -0.36971,-0.20583 -0.40036,-0.2554 -0.0306,-0.0496 -0.12714,-0.0901 -0.21442,-0.0901 -0.0873,0 -0.2737,-0.11239 -0.41422,-0.24976 -0.14052,-0.13736 -0.28899,-0.24975 -0.32993,-0.24975 -0.041,0 -0.12394,-0.0468 -0.18445,-0.10407 -0.32433,-0.30681 -0.66745,-0.36569 -1.09244,-0.18749 -0.12767,0.0535 -0.14211,0.0317 -0.0973,-0.14671 0.0304,-0.12093 0.0131,-0.234 -0.0408,-0.26729 -0.0514,-0.0317 -0.073,-0.12189 -0.0481,-0.20032 0.0325,-0.10232 -0.0512,-0.2003 -0.29641,-0.34682 -0.18792,-0.11231 -0.43775,-0.30723 -0.55515,-0.43315 -0.11741,-0.12591 -0.26217,-0.22894 -0.3217,-0.22894 -0.0595,0 -0.22323,-0.11239 -0.36375,-0.24975 -0.14052,-0.13737 -0.28848,-0.24976 -0.3288,-0.24976 -0.0931,0 -0.42102,-0.26665 -0.94691,-0.77007 -0.22721,-0.2175 -0.46394,-0.39545 -0.52609,-0.39545 -0.0622,0 -0.11298,-0.0374 -0.11298,-0.0833 0,-0.0458 -0.0749,-0.0832 -0.16651,-0.0832 -0.0916,0 -0.1665,-0.0397 -0.1665,-0.0882 0,-0.0485 -0.0345,-0.0669 -0.0765,-0.0408 -0.0421,0.026 -0.12904,-0.005 -0.1932,-0.0694 -0.0642,-0.0642 -0.18628,-0.13007 -0.27136,-0.14646 -0.0851,-0.0164 -0.15409,-0.0673 -0.15335,-0.11304 6.3e-4,-0.0458 -0.1705,-0.15628 -0.38055,-0.24554 -0.21004,-0.0892 -0.41186,-0.21101 -0.44848,-0.27056 -0.0366,-0.0596 -0.14081,-0.10829 -0.23155,-0.10829 -0.0907,0 -0.18585,-0.0544 -0.21137,-0.12087 -0.0256,-0.0667 -0.21143,-0.14564 -0.41467,-0.17612 -0.20255,-0.0304 -0.38914,-0.089 -0.41463,-0.13022 -0.0675,-0.10917 -0.21311,0.004 -0.15491,0.12077 0.027,0.0541 -0.01,0.0256 -0.0819,-0.0633 -0.0721,-0.0889 -0.13105,-0.18763 -0.13105,-0.21945 0,-0.0318 -0.12176,-0.11935 -0.27057,-0.19452 -0.14882,-0.0752 -0.33543,-0.18182 -0.41469,-0.23702 -0.29202,-0.20332 -0.41047,0.0803 -0.44851,1.07376 -0.0191,0.4974 -0.0499,0.94693 -0.0686,0.99896 -0.0187,0.052 -0.003,0.42666 0.0354,0.83251 0.0495,0.52712 0.0381,0.8925 -0.0401,1.27905 -0.11406,0.56396 -0.19652,1.35255 -0.25244,2.41429 -0.0357,0.67654 -0.19178,2.60902 -0.24888,3.08031 -0.16993,1.40261 -0.237,10.17379 -0.0828,10.8227 0.11983,0.50413 0.17828,1.39166 0.10689,1.6234 -0.0423,0.13737 -0.0744,0.51916 -0.0714,0.84845 0.003,0.32928 -0.0242,0.67922 -0.0607,0.77766 -0.0364,0.0984 -0.0365,0.40968 0,0.6917 0.0735,0.5709 0.17683,2.53882 0.15363,2.92704 -0.047,0.78671 -0.0237,2.89177 0.0359,3.24681 0.0872,0.51901 0.0896,0.68636 0.034,2.33104 -0.0247,0.73261 -0.0157,1.68792 0.0202,2.12291 0.0359,0.43499 0.085,1.05313 0.10915,1.37365 0.0973,1.29038 0.15621,1.83946 0.21449,1.99803 0.0336,0.0916 0.0323,0.54114 -0.003,0.99903 -0.067,0.86696 -0.0116,1.09338 0.24736,1.01026 0.0719,-0.023 0.26182,-0.0914 0.42208,-0.15184 z m -29.97054,-78.31904 c 0,-0.0431 -0.0374,-0.10149 -0.0832,-0.12979 -0.0458,-0.0283 -0.0833,0.007 -0.0833,0.0783 0,0.0714 0.0375,0.1298 0.0833,0.1298 0.0458,0 0.0832,-0.0353 0.0832,-0.0783 z m 16.45605,-1.6422 c -0.0305,-0.0305 -0.0805,-0.0305 -0.11101,0 -0.0305,0.0306 -0.006,0.0555 0.0555,0.0555 0.061,0 0.086,-0.025 0.0555,-0.0555 z m -7.04863,-0.48563 c 0,-0.0229 -0.0187,-0.0416 -0.0416,-0.0416 -0.0229,0 -0.0417,0.0187 -0.0417,0.0416 0,0.0229 0.0187,0.0417 0.0417,0.0417 0.0229,0 0.0416,-0.0187 0.0416,-0.0417 z m 9.74042,-0.49951 c 0,-0.0229 -0.0187,-0.0417 -0.0417,-0.0417 -0.0229,0 -0.0417,0.0187 -0.0417,0.0417 0,0.0229 0.0188,0.0416 0.0417,0.0416 0.0229,0 0.0417,-0.0187 0.0417,-0.0416 z m 13.77813,-0.37463 c 0.0283,-0.0458 -0.007,-0.0833 -0.0783,-0.0833 -0.0714,0 -0.12979,0.0375 -0.12979,0.0833 0,0.0458 0.0352,0.0832 0.0783,0.0832 0.0431,0 0.10149,-0.0374 0.12979,-0.0832 z m 4.12095,-0.20813 c 0,-0.0229 -0.0187,-0.0417 -0.0417,-0.0417 -0.0229,0 -0.0417,0.0188 -0.0417,0.0417 0,0.0229 0.0187,0.0417 0.0417,0.0417 0.0229,0 0.0417,-0.0187 0.0417,-0.0417 z m 15.20728,-0.34688 c -0.0306,-0.0306 -0.0805,-0.0306 -0.11101,0 -0.0305,0.0306 -0.006,0.0555 0.0555,0.0555 0.061,0 0.086,-0.025 0.0555,-0.0555 z m 10.79493,126.79204 c 0.0306,-0.0306 0.0805,-0.0306 0.11101,0 0.0305,0.0305 0.006,0.0555 -0.0555,0.0555 -0.061,0 -0.086,-0.025 -0.0555,-0.0555 z m -90.91063,-3.82957 c 0.0305,-0.0306 0.0805,-0.0306 0.11099,0 0.0305,0.0306 0.006,0.0555 -0.0555,0.0555 -0.061,0 -0.086,-0.025 -0.0555,-0.0555 z m 128.0807,-118.88452 c 0.0601,-0.024 0.1319,-0.0211 0.15957,0.007 0.0276,0.0276 -0.0215,0.0473 -0.10927,0.0437 -0.097,-0.004 -0.11671,-0.0237 -0.0503,-0.0503 z m -95.57273,-2.49754 c 0.0601,-0.024 0.1319,-0.0211 0.15957,0.007 0.0276,0.0276 -0.0215,0.0473 -0.10927,0.0437 -0.097,-0.004 -0.11671,-0.0237 -0.0503,-0.0503 z m 3.34567,-0.15126 c 0,-0.0229 0.0187,-0.0416 0.0417,-0.0416 0.0229,0 0.0417,0.0187 0.0417,0.0416 0,0.0229 -0.0187,0.0417 -0.0417,0.0417 -0.0229,0 -0.0417,-0.0187 -0.0417,-0.0417 z m 54.03023,-1.16552 c 0,-0.0229 0.0187,-0.0417 0.0417,-0.0417 0.0229,0 0.0417,0.0187 0.0417,0.0417 0,0.0229 -0.0187,0.0416 -0.0417,0.0416 -0.0229,0 -0.0417,-0.0187 -0.0417,-0.0416 z m -10.9892,-0.41626 c 0,-0.0229 0.0187,-0.0416 0.0416,-0.0416 0.0229,0 0.0417,0.0187 0.0417,0.0416 0,0.0229 -0.0188,0.0417 -0.0417,0.0417 -0.0229,0 -0.0416,-0.0187 -0.0416,-0.0417 z"
       id="path27" /><path
       style="fill:#ee3f87;fill-opacity:1;stroke-width:0.25634"
       d="m 589.96001,391.24629 c -0.0549,-0.0539 -1.69735,-0.16635 -3.64986,-0.24989 -1.95251,-0.0836 -3.627,-0.19948 -3.72109,-0.25763 -0.22847,-0.1412 -6.69977,-0.40885 -12.72348,-0.52624 -2.67876,-0.0522 -5.56259,-0.21416 -6.40852,-0.3599 -2.60147,-0.44818 -3.73659,-0.56323 -6.76246,-0.68538 -1.60454,-0.0648 -4.31536,-0.29706 -6.02402,-0.5162 -1.70865,-0.21912 -4.20251,-0.50282 -5.54189,-0.63042 -3.0395,-0.28957 -7.57528,-0.93245 -9.17217,-1.30003 -0.6653,-0.15314 -1.90176,-0.32019 -2.74768,-0.3712 -3.90405,-0.23546 -7.58398,-0.62413 -8.00107,-0.84508 -0.252,-0.13349 -1.03495,-0.31946 -1.73988,-0.41326 -0.70494,-0.0938 -1.8008,-0.29243 -2.43524,-0.4414 -0.63444,-0.14897 -1.38424,-0.30991 -1.66622,-0.35766 -2.32556,-0.39373 -3.26237,-0.62343 -4.48596,-1.09999 -0.77543,-0.302 -1.54197,-0.54916 -1.70341,-0.54924 -0.16145,-7e-5 -0.83997,-0.51628 -1.50783,-1.14713 -0.66786,-0.63086 -1.40992,-1.2091 -1.64901,-1.28499 -0.23908,-0.0759 -1.22929,-1.00155 -2.20045,-2.05704 -1.59789,-1.73667 -1.89585,-2.24199 -3.13449,-5.31581 -0.75281,-1.86818 -1.58828,-4.31954 -1.8566,-5.44744 -1.15826,-4.86887 -1.58503,-14.65991 -1.65924,-38.06661 -0.0319,-10.08061 -0.13921,-18.69311 -0.23832,-19.13889 -0.55168,-2.48127 1.614,-16.8005 3.06685,-20.27765 0.20489,-0.49038 0.37253,-1.21328 0.37253,-1.60647 0,-0.39318 0.22907,-1.44611 0.50905,-2.33985 0.27999,-0.89373 0.58289,-2.37476 0.67313,-3.29118 0.11688,-1.18695 0.44858,-2.2373 1.15319,-3.65166 2.13406,-4.28372 3.28672,-5.5545 6.09476,-6.71938 1.18239,-0.49049 2.33592,-1.05935 2.56341,-1.26414 1.95767,-1.76225 15.22544,-4.2902 21.19674,-4.03868 0.85665,0.0361 3.50978,-0.11334 5.89584,-0.33204 2.38606,-0.21871 5.03041,-0.45882 5.87633,-0.53359 0.84593,-0.0748 1.8841,-0.19023 2.30707,-0.25656 1.23157,-0.19317 8.1387,-0.62731 12.13304,-0.76263 2.02059,-0.0685 3.80856,-0.21144 3.97328,-0.31775 0.47092,-0.30393 3.4177,-0.41283 9.59787,-0.35468 3.14028,0.0295 5.82574,-0.0181 5.96768,-0.10577 0.65361,-0.40395 14.02636,-0.53294 32.79786,-0.31633 9.39512,0.10842 11.02752,0.18836 13.97057,0.68415 1.83284,0.30877 4.08223,0.66698 4.99865,0.79603 0.91642,0.12905 2.47369,0.35898 3.4606,0.51096 0.98692,0.15197 3.0867,0.377 4.66618,0.50006 1.57948,0.12305 2.99193,0.29799 3.13877,0.38874 0.26334,0.16275 4.11129,0.97473 9.11355,1.92311 2.6559,0.50352 6.08222,1.70032 9.28998,3.24492 1.45443,0.70034 2.38743,1.42766 4.31125,3.36089 2.51378,2.52607 2.87256,3.02495 3.57463,4.97054 2.19204,6.07464 2.6275,7.85946 3.30663,13.55281 0.21021,1.76234 0.43258,3.608 0.49415,4.10145 0.0615,0.49346 0.2922,1.76905 0.5125,2.83463 0.85198,4.12104 1.13136,9.34516 1.20851,22.59739 0.017,2.92009 -0.0249,5.40018 -0.0931,5.51133 -0.0682,0.11114 -0.19478,3.54732 -0.28129,7.63595 -0.18283,8.63953 -0.28616,10.67177 -0.80818,15.89314 -0.64279,6.42942 -1.55648,11.62356 -2.46847,14.03265 -0.14636,0.38661 -0.20917,1.00076 -0.13958,1.36477 0.12381,0.64766 -0.8219,3.36159 -2.13777,6.13482 -0.64432,1.35791 -3.62415,4.65271 -5.27383,5.83123 -1.87951,1.34272 -4.32176,2.8963 -5.08692,3.23591 -0.75297,0.33421 -5.6395,2.1362 -5.6395,2.07966 0,-0.0158 -0.17303,0.0316 -0.38451,0.10515 -1.13104,0.39363 -9.77827,1.94836 -12.17619,2.1892 -1.26889,0.12746 -3.63363,0.36311 -5.25499,0.52368 -1.62136,0.16058 -5.02428,0.56491 -7.56205,0.89853 -7.48626,0.98418 -9.21312,1.13388 -14.7396,1.27776 -2.89024,0.0752 -5.81132,0.25028 -6.49127,0.38895 -0.67996,0.13867 -5.03453,0.3049 -9.67682,0.3694 -4.64228,0.0645 -8.5398,0.17862 -8.66116,0.25362 -0.12135,0.075 -0.26558,0.0923 -0.32049,0.0384 z m -8.73659,-46.18602 c 2.7095,-1.50758 4.90216,-2.81011 6.84236,-4.0646 1.12791,-0.72928 2.8582,-1.76786 3.84512,-2.30795 0.98691,-0.54009 3.06327,-1.73147 4.61413,-2.64752 1.55087,-0.91603 4.26167,-2.38724 6.02401,-3.26933 2.73416,-1.36851 9.42076,-5.34475 10.08057,-5.99449 0.21839,-0.21506 -5.61321,-4.35828 -9.94462,-7.06541 -2.39208,-1.49506 -6.04671,-3.96778 -8.7907,-5.94778 -0.74197,-0.53538 -2.29924,-1.50915 -3.4606,-2.16391 -1.16136,-0.65477 -2.28459,-1.35275 -2.49608,-1.55107 -2.16655,-2.03169 -7.58282,-5.33191 -8.1626,-4.97358 -0.11959,0.0739 -0.29119,1.49399 -0.38132,3.15573 -0.0901,1.66175 -0.28514,4.4056 -0.43333,6.09745 -0.31243,3.567 -0.10815,24.05075 0.27693,27.76809 0.13618,1.31468 0.18809,2.48665 0.11535,2.60436 -0.18046,0.29196 0.12347,1.02931 0.42425,1.02931 0.13401,0 0.78496,-0.30118 1.44653,-0.6693 z"
       id="path28" /></g></svg>
