<?xml version="1.0" encoding="UTF-8" standalone="no"?>
<!-- Created with Inkscape (http://www.inkscape.org/) -->

<svg
   width="21.356674mm"
   height="21.135513mm"
   viewBox="0 0 21.356675 21.135513"
   version="1.1"
   id="svg1"
   xml:space="preserve"
   inkscape:export-filename="bandcamp-fin.svg"
   inkscape:export-xdpi="96"
   inkscape:export-ydpi="96"
   xmlns:inkscape="http://www.inkscape.org/namespaces/inkscape"
   xmlns:sodipodi="http://sodipodi.sourceforge.net/DTD/sodipodi-0.dtd"
   xmlns="http://www.w3.org/2000/svg"
   xmlns:svg="http://www.w3.org/2000/svg"><sodipodi:namedview
     id="namedview1"
     pagecolor="#ffffff"
     bordercolor="#000000"
     borderopacity="0.25"
     inkscape:showpageshadow="2"
     inkscape:pageopacity="0.0"
     inkscape:pagecheckerboard="0"
     inkscape:deskcolor="#d1d1d1"
     inkscape:document-units="mm"
     inkscape:zoom="1.0544998"
     inkscape:cx="582.2666"
     inkscape:cy="332.38509"
     inkscape:window-width="1920"
     inkscape:window-height="1011"
     inkscape:window-x="0"
     inkscape:window-y="0"
     inkscape:window-maximized="1" /><defs
     id="defs1" /><g
     inkscape:label="Layer 1"
     inkscape:groupmode="layer"
     id="layer1"
     transform="translate(-80.321447,-68.18476)"><path
       style="fill:#000000;stroke-width:0.552092"
       d="m 80.510561,89.049261 c -0.420772,-0.786206 -0.08129,-3.216422 0.449303,-3.216422 0.26951,0 0.919802,-0.564769 3.783079,-3.285542 2.733209,-2.597181 3.045848,-2.944106 3.186074,-3.535507 0.07247,-0.305639 0.213334,-0.851507 0.313031,-1.213041 0.0997,-0.361534 0.194794,-1.000106 0.211329,-1.419049 0.03782,-0.958083 0.615682,-1.813283 1.597567,-2.364297 0.581822,-0.326508 0.802262,-0.593283 1.46242,-1.769823 0.807049,-1.438331 0.883701,-1.510047 3.041884,-2.846107 0.297363,-0.184088 0.517001,-0.467747 0.593797,-0.76689 0.143241,-0.557927 0.221191,-0.567337 1.47968,-0.17863 1.011466,0.31241 1.25443,0.501449 0.987527,0.768351 -0.232795,0.2328 -0.20052,0.542355 0.05655,0.542355 0.323134,0 0.266478,0.307114 -0.07304,0.395898 -0.160681,0.04202 -0.292145,0.140143 -0.292145,0.218053 0,0.07791 -0.376201,0.503124 -0.836005,0.944919 -1.027781,0.987534 -0.924733,1.106511 1.053673,1.216543 2.280174,0.126815 1.768423,0.750926 -0.799937,0.975573 -1.257308,0.109972 -2.505527,1.028069 -2.712783,1.995322 -0.05444,0.254019 -0.222708,0.7207 -0.373959,1.037068 -0.397043,0.830491 -0.398898,0.827046 1.036636,1.921829 1.944049,1.482588 1.976959,2.347879 0.191896,5.045292 -0.242694,0.36674 -0.387188,0.835527 -0.441232,1.431502 -0.07379,0.813743 -0.108807,0.886181 -0.428385,0.886181 -0.614341,0 -0.737336,-0.574509 -0.368334,-1.72045 0.518431,-1.609968 0.592008,-3.302989 0.155773,-3.584219 -2.018217,-1.301088 -2.957751,-1.031641 -5.961176,1.709593 -0.625968,0.571326 -1.525425,1.265576 -1.998789,1.542778 -2.432727,1.424605 -4.175947,3.272394 -4.726753,5.010303 -0.194447,0.613506 -0.358937,0.685836 -0.587685,0.258417 z M 96.294703,70.78204 c 0.438847,-0.234864 0.334165,-0.433083 -0.228715,-0.433083 -0.535254,0 -0.629838,0.115144 -0.33597,0.409008 0.212522,0.212526 0.212555,0.212527 0.564685,0.02408 z m -2.149422,16.072851 c -1.366372,-0.200011 -1.420422,-0.516837 -0.09527,-0.558395 0.522092,-0.01637 1.05613,0.06558 1.391179,0.213497 0.989945,0.437035 0.402171,0.593467 -1.29591,0.344898 z m 5.207378,-14.003686 c 0,-0.0699 0.297495,-0.210384 0.661101,-0.312187 0.3636,-0.101802 0.69615,-0.241812 0.73899,-0.311133 0.0428,-0.06932 0.27122,-0.126036 0.5075,-0.126036 0.59237,0 0.54729,0.32799 -0.0866,0.63028 -0.53764,0.256378 -1.820979,0.340297 -1.820979,0.119076 z m -0.912962,-2.75295 c -0.504253,-0.07639 -0.516587,-0.297149 -0.027,-0.483286 0.545367,-0.207349 1.42501,-0.174343 1.751983,0.06574 0.50717,0.372397 -0.466768,0.608149 -1.724975,0.417546 z"
       id="path28"
       sodipodi:nodetypes="ssssssssssssssssssssssssssssssssssssssssscscssccsssss" /><path
       style="fill:#ee3f87;stroke-width:0.335281"
       d="m 86.547627,236.76263 c -0.855173,-1.03042 -1.197711,-4.06165 -0.797221,-7.05488 0.465806,-3.48139 1.055506,-4.69809 2.68678,-5.5435 1.586521,-0.8222 3.97055,-2.94577 14.204974,-12.65303 8.03341,-7.61961 10.10449,-9.78343 11.02228,-11.51586 0.72334,-1.36536 1.97778,-6.61129 2.50466,-10.47418 0.27313,-2.00249 0.7803,-4.16019 1.14272,-4.86157 0.70707,-1.36835 2.86278,-3.5479 4.73034,-4.78264 2.25099,-1.48824 3.40887,-2.87798 5.96087,-7.15445 2.85799,-4.78924 3.62617,-5.5592 9.02058,-9.04141 3.35981,-2.16882 3.93849,-2.7596 4.66067,-4.75807 0.49757,-1.37693 1.23768,-1.40518 5.1304,-0.1958 3.91248,1.21551 4.3098,1.55308 3.49631,2.9705 -0.48789,0.8501 -0.50928,1.09712 -0.13415,1.54912 0.24546,0.29576 0.65413,0.53775 0.90815,0.53775 0.80827,0 0.49762,0.5744 -0.54397,1.00584 -0.55321,0.22915 -1.00584,0.54723 -1.00584,0.70685 0,0.15961 -1.28245,1.64344 -2.84989,3.29738 -1.59066,1.67844 -2.84988,3.29848 -2.84988,3.66647 0,0.90839 1.36756,1.28964 6.04209,1.68443 3.88662,0.32824 5.69273,0.75294 5.69273,1.33861 0,0.54229 -3.08694,1.37437 -7.01196,1.89007 -4.58247,0.60208 -6.86978,1.59254 -9.31081,4.03177 -1.35839,1.3574 -1.86256,2.16754 -2.30803,3.70869 -0.3135,1.08454 -0.92698,2.78277 -1.36329,3.77384 -0.43632,0.99107 -0.79331,2.22521 -0.79331,2.74255 0,0.9749 0.74439,1.72777 6.03443,6.10325 5.48786,4.53909 5.53284,7.51336 0.24617,16.27523 -1.82204,3.01976 -2.01333,3.58313 -2.81108,8.27889 -0.3208,1.88833 -0.94769,2.25803 -2.31252,1.36376 -1.13354,-0.74272 -1.08133,-2.28228 0.24285,-7.16159 0.88258,-3.25213 1.06885,-4.56106 1.08966,-7.65694 0.0297,-4.4182 -0.0471,-4.55338 -3.597,-6.32931 -1.97434,-0.98772 -2.68479,-1.16836 -4.59518,-1.16836 -1.24286,0 -2.89792,0.22516 -3.67789,0.50035 -1.8996,0.67021 -5.29317,2.96201 -8.52489,5.75715 -5.97992,5.17207 -8.19901,6.9472 -10.54748,8.43727 -9.428988,5.98257 -15.044819,11.72536 -17.660983,18.06026 -1.171839,2.83755 -1.568713,3.33738 -2.12129,2.67156 z m 59.215643,-69.28626 c 1.43312,-0.87379 1.4018,-1.59114 -0.0816,-1.86943 -1.38871,-0.26052 -2.85208,0.0439 -2.85208,0.59323 0,0.40421 1.30924,1.94405 1.65102,1.94183 0.10616,-6.9e-4 0.68337,-0.30022 1.28268,-0.66563 z"
       id="path29"
       transform="matrix(0.26458333,0,0,0.26458333,57.7356,26.5068)"
       sodipodi:nodetypes="sssssssssssssssssssssssssssssssssssssssssssss" /><path
       style="fill:#ee3f87;stroke-width:0.0592698"
       d="m 141.4474,228.47596 c -2.69788,-0.21459 -4.91979,-0.53789 -6.28045,-0.91383 -2.63356,-0.72764 -1.69193,-1.43634 2.01935,-1.51984 2.04383,-0.046 3.53449,0.13451 4.80055,0.58124 1.36218,0.48065 2.49478,1.24219 2.26293,1.52155 -0.24565,0.29599 -1.45135,0.43835 -2.80238,0.33088 z"
       id="path30"
       transform="matrix(0.26458333,0,0,0.26458333,57.7356,26.5068)"
       sodipodi:nodetypes="ssssss" /><path
       style="fill:#ee3f87;stroke-width:0.0592698"
       d="m 155.82033,164.93857 c -0.1141,-0.011 -0.51417,-0.0489 -0.88905,-0.0843 -1.35825,-0.12814 -2.03575,-0.30109 -2.35524,-0.60123 -0.32798,-0.30812 -0.0449,-0.71542 0.77032,-1.10842 2.18001,-1.05092 6.17403,-0.88597 7.24477,0.29921 0.40616,0.44957 0.32316,0.71938 -0.31916,1.03746 -0.67958,0.33652 -1.80367,0.49908 -3.35515,0.4852 -0.48898,-0.004 -0.9824,-0.017 -1.09649,-0.0279 z"
       id="path31"
       transform="matrix(0.26458333,0,0,0.26458333,57.7356,26.5068)"
       sodipodi:nodetypes="scsssscss" /><path
       style="fill:#ee3f87;stroke-width:0.0592698"
       d="m 157.98368,175.52979 c -0.37397,-0.0815 -0.55087,-0.16506 -0.61907,-0.29249 -0.0535,-0.10004 -0.0337,-0.14057 0.12976,-0.26499 0.31915,-0.24295 1.01668,-0.54876 1.84269,-0.80787 2.0485,-0.64259 2.87796,-0.9788 3.25477,-1.31929 0.22346,-0.20191 0.3511,-0.25755 0.86373,-0.37652 0.49726,-0.1154 1.60796,-0.11335 1.99959,0.004 0.80994,0.24203 0.7542,0.85795 -0.13684,1.51225 -1.01913,0.74835 -2.1369,1.15207 -4.04284,1.4602 -0.64847,0.10484 -2.93033,0.16378 -3.29179,0.085 z"
       id="path32"
       transform="matrix(0.26458333,0,0,0.26458333,57.7356,26.5068)"
       sodipodi:nodetypes="cssssscsscc" /></g></svg>
